<svg height="497pt" viewBox="0 0 497.888 497" width="497pt" xmlns="http://www.w3.org/2000/svg"><path d="m168 135.972656c0 .800782.078125 1.519532.160156 2.238282h-152.160156l48-80h195.441406l-83.679687 58.5625c-4.882813 3.4375-7.761719 8.957031-7.761719 14.957031zm0 0" fill="#ffc729"/><path d="m488 131.730469v4.242187c0 10.078125-8.160156 18.238282-18.238281 18.238282-3.761719 0-7.441407-1.199219-10.480469-3.359376l-3.28125-2.320312-128-90.320312-128 90.320312-3.28125 2.320312c-3.039062 2.160157-6.71875 3.359376-10.480469 3.359376-5.039062 0-9.597656-2.078126-12.878906-5.359376-2.800781-2.800781-4.71875-6.480468-5.199219-10.640624-.082031-.71875-.160156-1.4375-.160156-2.238282v-4.242187c0-6 2.878906-11.519531 7.761719-14.957031l83.679687-58.5625 68.558594-48 152.238281 106.5625c4.882813 3.4375 7.761719 8.957031 7.761719 14.957031zm0 0" fill="#fcd770"/><path d="m200 148.53125v53.679688h-136l-40 45.679687v-109.679687h144.160156c.480469 4.160156 2.398438 7.839843 5.199219 10.640624 3.28125 3.28125 7.839844 5.359376 12.878906 5.359376 3.761719 0 7.441407-1.199219 10.480469-3.359376zm0 0" fill="#aab2bd"/><path d="m456 148.53125v213.679688h-48v-96c0-8.800782-7.199219-16-16-16h-48c-8.800781 0-16 7.199218-16 16v96h-80v-160h-48v-53.679688l128-90.320312zm0 0" fill="#ccd1d9"/><path d="m248 202.210938v208h-16c-6.640625 0-12.640625 2.722656-16.960938 7.042968-4.320312 4.316406-7.039062 10.316406-7.039062 16.957032 0 13.28125 10.71875 24 24 24h16v32h-240v-224h56v-64zm0 0" fill="#e6e9ed"/><path d="m64 202.210938v64h-56l16-18.320313zm0 0" fill="#ccd1d9"/><path d="m480 434.210938-48 24v-48zm0 0" fill="#969faa"/><path d="m272 410.210938h160v48h-160zm0 0" fill="#ff826e"/><path d="m272 410.210938v48h-40c-13.28125 0-24-10.71875-24-24 0-6.640626 2.71875-12.640626 7.039062-16.957032 4.320313-4.320312 10.320313-7.042968 16.960938-7.042968zm0 0" fill="#aab2bd"/><path d="m141.359375 298.210938h26.640625v96h-128v-96zm0 0" fill="#b4dd7f"/><path d="m272 146.210938h112v32h-112zm0 0" fill="#69d6f4"/><path d="m328 362.210938v-96c0-8.800782 7.199219-16 16-16h48c8.800781 0 16 7.199218 16 16v96zm0 0" fill="#e6e9ed"/><path d="m497.886719 434.210938-64-32h-177.886719v-32h208v-208.71875c1.886719.421874 3.808594.71875 5.785156.71875 14.453125 0 26.214844-11.757813 26.214844-26.214844v-4.296875c0-8.550781-4.183594-16.582031-11.183594-21.480469l-156.816406-109.773438-71.089844 49.765626h-197.4375l-57.601562 96h14.128906v98.703124l-16 18.289063v235.007813h256v-32h177.886719zm-217.886719-16h144v32h-144zm-16 32h-32c-8.824219 0-16-7.175782-16-16 0-8.824219 7.175781-16 16-16h32zm176-4.941407v-22.113281l22.113281 11.054688zm-40-91.058593h-64v-88c0-4.414063 3.585938-8 8-8h48c4.414062 0 8 3.585937 8 8zm16 0v-88c0-13.230469-10.769531-24-24-24h-48c-13.230469 0-24 10.769531-24 24v88h-64v-160h-48v-41.496094l120-84.710938 120 84.710938v201.496094zm59.640625-230.878907c2.734375 1.902344 4.359375 5.039063 4.359375 8.367188v4.296875c0 5.632812-4.585938 10.214844-10.214844 10.214844-2.121094 0-4.160156-.648438-5.890625-1.871094l-135.894531-95.917969-135.878906 95.917969c-1.746094 1.222656-3.785156 1.871094-5.90625 1.871094-5.628906 0-10.214844-4.582032-10.214844-10.214844v-4.296875c0-3.328125 1.625-6.464844 4.359375-8.367188l147.640625-103.351562zm-407.113281-57.121093h165.519531l-62.863281 44.007812c-6.582032 4.601562-10.542969 12.007812-11.007813 19.992188h-130.039062zm-36.527344 80h130.070312c3.992188 9.394531 13.304688 16 24.144532 16 1.96875 0 3.898437-.285157 5.785156-.71875v32.71875h-131.632812l-28.367188 32.425781zm24 77.296874v34.703126h-30.367188zm184 258.703126h-224v-208h56v-64h168v192h-8c-17.648438 0-32 14.351562-32 32 0 17.648437 14.351562 32 32 32h8zm0 0"/><path d="m176 290.210938h-17.585938l15.730469-18.871094-12.296875-10.246094-24.261718 29.117188h-105.585938v112h144zm-16 96h-112v-80h76.246094l-36.789063 44.152343-17.808593-17.808593-11.3125 11.3125 30.191406 30.191406 56.5625-67.847656h14.910156zm0 0"/><path d="m32 450.210938h152v16h-152zm0 0"/><path d="m32 418.210938h152v16h-152zm0 0"/><path d="m88 226.210938h136v16h-136zm0 0"/><path d="m352 290.210938h16v16h-16zm0 0"/><path d="m264 186.210938h128v-48h-128zm16-32h96v16h-96zm0 0"/></svg>