<svg height="512" viewBox="0 0 512 512" width="512" xmlns="http://www.w3.org/2000/svg"><g id="filled_outline" data-name="filled outline"><path d="m178.527 136a18.38 18.38 0 0 0 16.9-11.142l19.221-44.858-31.674-8-8.326 8-10.558 3.357-7.717 20.619 5.257 6.4a18.383 18.383 0 0 0 16.897 25.624z" fill="#eab997"/><path d="m138.527 136a18.38 18.38 0 0 0 16.9-11.142l19.221-44.858-43.481-6.263-14.145 28.725 4.608 7.914a18.383 18.383 0 0 0 16.897 25.624z" fill="#f5c19e"/><path d="m332.122 376a18.382 18.382 0 0 0 -16.9 11.142l-19.222 44.858 3.553 8 33.42-7.336 3.027-.664 20-28-6.982-2.376a18.383 18.383 0 0 0 -16.896-25.624z" fill="#eab997"/><path d="m422.874 304h-342.874v-8a64 64 0 0 1 64-64h264a48 48 0 0 1 48 48l-6.5 9.75a32 32 0 0 1 -26.626 14.25z" fill="#de4c3b"/><path d="m72 376h64v112h-64z" fill="#e4e4e2"/><path d="m372.122 376a18.382 18.382 0 0 0 -16.9 11.142l-19.222 44.858 6.36 8 41.64-8 12.265-28.619-7.247-1.757a18.383 18.383 0 0 0 -16.896-25.624z" fill="#f5c19e"/><path d="m412.246 376a18.382 18.382 0 0 0 -16.9 11.142l-19.222 44.858h-80.124l-16-16h24v-24a16 16 0 0 0 -16-16h-48a53.9 53.9 0 0 0 -44.844-24h-14.312a53.9 53.9 0 0 0 -44.844 24v96l112 16 144-16 24.124-40 13.019-30.376a18.383 18.383 0 0 0 -16.897-25.624z" fill="#fec9a3"/><path d="m24 360h48v128h-48z" fill="#905638"/><path d="m374.648 24h72v112h-72z" fill="#e4e4e2"/><path d="m262.648 24-144 16-24.124 40-13.018 30.375a18.383 18.383 0 1 0 33.794 14.483l19.224-44.858h80.124l16 16h-24v24a16 16 0 0 0 16 16h48a53.9 53.9 0 0 0 44.845 24h14.307a53.9 53.9 0 0 0 44.844-24v-96z" fill="#fec9a3"/><path d="m438.648 24h48v128h-48z" fill="#905638" transform="matrix(-1 0 0 -1 925.297 176)"/><circle cx="160" cy="288" fill="#ebebeb" r="32"/><path d="m160 328a40 40 0 1 1 40-40 40.047 40.047 0 0 1 -40 40zm0-64a24 24 0 1 0 24 24 24.027 24.027 0 0 0 -24-24z" fill="#62666a"/><circle cx="384" cy="288" fill="#ebebeb" r="32"/><path d="m384 328a40 40 0 1 1 40-40 40.047 40.047 0 0 1 -40 40zm0-64a24 24 0 1 0 24 24 24.027 24.027 0 0 0 -24-24z" fill="#62666a"/><path d="m416 232h-224l15.754-10.5a128 128 0 0 1 71-21.5h27.92a192 192 0 0 1 85.865 20.27z" fill="#ebebeb"/><path d="m303.055 232h17.89l14.855-29.7c-5.615-.861-11.263-1.523-16.948-1.884z" fill="#dbdbdb"/><path d="m216 232h16v72h-16z" fill="#c94536"/><path d="m285.755 304h20.492l28-35a8 8 0 0 0 1.753-5v-16a8 8 0 0 0 -.844-3.578l-6.211-12.422h-17.89l8.945 17.891v11.3z" fill="#c94536"/><path d="m82.1 280h21.9v-16h-15.368a63.516 63.516 0 0 0 -6.532 16z" fill="#ff9201"/><path d="m449.526 256h-25.526v16h31.28a47.6 47.6 0 0 0 -5.754-16z" fill="#ff9201"/><path d="m256 428a181 181 0 0 1 -154.684-87.9l13.743-8.2a164.045 164.045 0 0 0 277.046 7.633l13.266 8.938a179.912 179.912 0 0 1 -149.371 79.529z" fill="#83bd93"/><path d="m404.988 195.352a164.073 164.073 0 0 0 -297.976 0l-14.524-6.7a180.067 180.067 0 0 1 327.024 0z" fill="#83bd93"/><path d="m412.246 368a26.347 26.347 0 0 0 -20.06 9.25 26.321 26.321 0 0 0 -5.864-5.1 181.09 181.09 0 0 0 19.05-23.675l-13.272-8.945a164.7 164.7 0 0 1 -24.829 28.934 26.328 26.328 0 0 0 -15.149 8.716 26.367 26.367 0 0 0 -42.767 3.895 24.02 24.02 0 0 0 -21.355-13.075h-43.9a61.759 61.759 0 0 0 -48.94-24h-14.316a61.755 61.755 0 0 0 -43.168 17.533 164.631 164.631 0 0 1 -22.619-29.63l-13.741 8.2a180.526 180.526 0 0 0 20.534 27.897h-41.85v-8a8 8 0 0 0 -8-8h-48a8 8 0 0 0 -8 8v128a8 8 0 0 0 8 8h112a8 8 0 0 0 8-8v-6.775l102.869 14.695a7.934 7.934 0 0 0 1.131.08 8.137 8.137 0 0 0 .883-.049l144-16a8 8 0 0 0 5.968-3.819l24.124-40a7.951 7.951 0 0 0 .5-.981l13.025-30.376a26.383 26.383 0 0 0 -24.254-36.775zm-348.246 8v104h-32v-112h32zm64 96v8h-48v-96h48zm232.86-77.7q6.66-4.774 12.89-10.164a10.371 10.371 0 0 1 7.915 14.336l-10.94 25.528h-22.593zm-38.282-4.008a10.372 10.372 0 0 1 9.544-6.292 10.208 10.208 0 0 1 8.523 4.474 163.818 163.818 0 0 1 -22.052 11.119zm-13.745 32.071a8.017 8.017 0 0 0 2.443-3.052 179.561 179.561 0 0 0 26.056-10.73l-6.607 15.419h-22.593zm-127.989-62.363h14.312a45.807 45.807 0 0 1 38.188 20.438 8 8 0 0 0 6.656 3.562h48a8.009 8.009 0 0 1 8 8v15.062c-1.324.333-2.656.638-3.99.938h-71.99a162.579 162.579 0 0 1 -70.7-35.464 45.79 45.79 0 0 1 31.524-12.536zm240.946 38.473-12.8 29.868-21.8 36.144-139.064 15.452-104.126-14.875v-76.177a178.114 178.114 0 0 0 72 34.615l2.323.5a179.477 179.477 0 0 0 60.859 2.5l11.161 11.16c.052.052.109.1.162.147.078.074.158.145.239.216.154.135.314.262.478.385.079.058.156.119.236.175q.329.227.677.419c.028.016.055.035.084.05a7.712 7.712 0 0 0 .81.374c.083.034.168.06.252.091.2.072.4.137.605.194.1.027.2.053.3.076.2.048.41.086.618.117.094.014.187.031.281.042a7.869 7.869 0 0 0 .915.054h80.124a8 8 0 0 0 7.353-4.849l19.223-44.858a10.374 10.374 0 0 1 9.546-6.293 10.383 10.383 0 0 1 9.544 14.473z"/><path d="m486.648 16h-112a8 8 0 0 0 -8 8v6.776l-102.868-14.696a7.948 7.948 0 0 0 -2.015-.031l-144 16a8 8 0 0 0 -5.967 3.819l-24.124 40a8.1 8.1 0 0 0 -.5.981l-13.021 30.375a26.382 26.382 0 0 0 44.31 27.526 26.305 26.305 0 0 0 6.716 5.621 180.048 180.048 0 0 0 -32.693 48.275l14.527 6.706a164.1 164.1 0 0 1 38.146-52.213 26.339 26.339 0 0 0 13.365-8.318 26.367 26.367 0 0 0 42.766-3.9 24.021 24.021 0 0 0 21.358 13.079h43.9a61.76 61.76 0 0 0 48.941 24h14.311a61.75 61.75 0 0 0 43.866-18.226 164.058 164.058 0 0 1 31.316 45.578l14.528-6.706a180.1 180.1 0 0 0 -29.357-44.646h40.5v8a8 8 0 0 0 8 8h48a8 8 0 0 0 8-8v-128a8 8 0 0 0 -8.005-8zm-337.48 103.146q-5.708 4.212-11.056 8.829a10.364 10.364 0 0 1 -9.129-14.448l10.941-25.527h22.592zm38.9 2.561a10.37 10.37 0 0 1 -9.541 6.293 10.191 10.191 0 0 1 -8.1-3.911 163.077 163.077 0 0 1 21.347-11.019zm13.745-32.071a8.006 8.006 0 0 0 -2.64 3.529 178.767 178.767 0 0 0 -26.225 11.107l6.976-16.272h22.592zm127.987 62.364h-14.307a45.8 45.8 0 0 1 -38.188-20.438 8 8 0 0 0 -6.657-3.562h-48a8.009 8.009 0 0 1 -8-8v-14.732c1.748-.454 3.5-.872 5.267-1.268h58.962v-2.4a163.013 163.013 0 0 1 66.64 24.962 165.274 165.274 0 0 1 16.439 12.278 45.78 45.78 0 0 1 -32.156 13.16zm36.844-29.958c-4-3.115-8.116-6.092-12.386-8.879a179.3 179.3 0 0 0 -98.258-29.163 181.472 181.472 0 0 0 -24.387 1.65l-11.308-11.307c-.052-.052-.109-.1-.162-.147-.078-.074-.157-.145-.238-.216q-.232-.2-.479-.385c-.079-.059-.155-.119-.236-.174a7.623 7.623 0 0 0 -.677-.42c-.028-.016-.055-.035-.084-.05a7.791 7.791 0 0 0 -.809-.374c-.083-.034-.168-.06-.253-.091-.2-.072-.4-.138-.6-.194-.1-.027-.2-.052-.3-.076-.2-.048-.411-.086-.619-.117-.094-.014-.186-.031-.281-.042a7.869 7.869 0 0 0 -.91-.057h-80.133a8 8 0 0 0 -7.353 4.849l-19.225 44.858a10.372 10.372 0 0 1 -9.546 6.293 10.384 10.384 0 0 1 -9.544-14.474l12.8-29.868 21.8-36.143 139.066-15.452 104.126 14.875zm64 5.958h-48v-96h48zm48 16h-32v-112h32z"/><path d="m420.568 225.44a8.037 8.037 0 0 0 -.99-.595l-23.46-11.731a201.019 201.019 0 0 0 -89.443-21.114h-27.92a135.563 135.563 0 0 0 -75.439 22.842l-13.738 9.158h-45.578a72.081 72.081 0 0 0 -72 72v8a8 8 0 0 0 8 8h48.022a39.956 39.956 0 0 0 63.956 0h160.044a39.956 39.956 0 0 0 63.956 0h6.9a39.936 39.936 0 0 0 33.305-17.815l6.48-9.76a8 8 0 0 0 1.337-4.425 56.085 56.085 0 0 0 -43.432-54.56zm-88.518-15.651a185.243 185.243 0 0 1 49.665 14.211h-56.771zm-172.05 102.211a24 24 0 1 1 24-24 24.028 24.028 0 0 1 -24 24zm56-16h-16.8a40 40 0 1 0 -78.39 0h-32.81a55.823 55.823 0 0 1 2.341-16h13.659v-16h-5.917a55.966 55.966 0 0 1 45.917-24h72zm62.755-88h27.92c2.76 0 5.521.076 8.279.2l-7.9 15.8h-88.17a119.569 119.569 0 0 1 59.871-16zm-46.755 88v-56h83.056l4.944 9.889v11.3l-27.845 34.811zm152 16a24 24 0 1 1 24-24 24.028 24.028 0 0 1 -24 24zm63.934-34.314-5.07 7.636a23.952 23.952 0 0 1 -19.664 10.668 40 40 0 1 0 -78.392.01h-32.162l21.6-27a8 8 0 0 0 1.754-5v-16a7.994 7.994 0 0 0 -.845-3.578l-2.211-4.422h75.056a39.957 39.957 0 0 1 31.969 16h-15.969v16h23.194a39.833 39.833 0 0 1 .74 5.686z"/></g></svg>