<svg height="512" viewBox="0 0 64 64" width="512" xmlns="http://www.w3.org/2000/svg"><path d="m3 37h58v24h-58z" fill="#5a6470"/><path d="m14 41a7 7 0 0 0 -7 7v13h14v-13a7 7 0 0 0 -7-7z" fill="#cfdfe8"/><path d="m25 41h14v6h-14z" fill="#f4f4e6"/><path d="m50 41a7 7 0 0 0 -7 7v13h14v-13a7 7 0 0 0 -7-7z" fill="#cfdfe8"/><path d="m25 51h14v2h-14z" fill="#cfdfe8"/><path d="m30 55h4v2h-4z" fill="#cfdfe8"/><circle cx="14" cy="48" fill="#394d5c" r="7"/><circle cx="50" cy="48" fill="#394d5c" r="7"/><path d="m26 55h2v2h-2z" fill="#cfdfe8"/><path d="m36 55h2v2h-2z" fill="#cfdfe8"/><path d="m6 33h24v4h-24z" fill="#7d8d9c"/><path d="m34 33h24v4h-24z" fill="#7d8d9c"/><path d="m24 3h16v18h-16z" fill="#ffd782"/><path d="m25 21h14v12h-14z" fill="#195c85"/><path d="m29 21s0 4 3 4 3-4 3-4z" fill="#f4ba53"/><path d="m19 17v4h6v4h-10v-8z" fill="#26749b"/><circle cx="17" cy="13" fill="#ffd782" r="2"/><path d="m45 17v4h-6v4h10v-8z" fill="#26749b"/><circle cx="47" cy="13" fill="#ffd782" r="2"/><g fill="#394d5c"><path d="m28.5 8.379h2v4.243h-2z" transform="matrix(.707 -.707 .707 .707 1.216 23.935)"/><path d="m27.379 9.5h4.243v2h-4.243z" transform="matrix(.707 -.707 .707 .707 1.216 23.935)"/><path d="m33.5 8.379h2v4.243h-2z" transform="matrix(.707 -.707 .707 .707 2.68 27.471)"/><path d="m32.379 9.5h4.243v2h-4.243z" transform="matrix(.707 -.707 .707 .707 2.68 27.471)"/><path d="m32 18c-3.678 0-4.9-3.533-4.949-3.684l1.9-.637a3.439 3.439 0 0 0 3.049 2.321 3.439 3.439 0 0 0 3.053-2.321l1.9.637c-.053.151-1.275 3.684-4.953 3.684z"/></g><path d="m53.447 27.895-.894-1.79 1.447-.723v-5.201l7-1.401v6.838l-2.553 1.277-.894-1.79 1.447-.723v-3.162l-3 .599v4.799z" fill="#8ec13f"/><path d="m52.447 11.895-.894-1.79 1.447-.723v-4l2.553-1.277.894 1.79-1.447.723v4z" fill="#8ec13f"/><path d="m4.447 13.895-.894-1.79 1.447-.723v-5.201l7-1.401v6.838l-2.553 1.277-.894-1.79 1.447-.723v-3.162l-3 .599v4.799z" fill="#8ec13f"/><path d="m18 5h2v2h-2z" fill="#d9176c"/><path d="m8 18h2v2h-2z" fill="#d9176c"/><path d="m47 5h2v2h-2z" fill="#d9176c"/><path d="m58 13h2v2h-2z" fill="#d9176c"/><circle cx="14" cy="48" fill="#fcf05a" r="3"/><circle cx="50" cy="48" fill="#fcf05a" r="3"/></svg>