<?xml version="1.0" encoding="utf-8"?>
<!-- Generator: Adobe Illustrator 23.0.3, SVG Export Plug-In . SVG Version: 6.00 Build 0)  -->
<svg version="1.1" id="Capa_1" xmlns="http://www.w3.org/2000/svg" xmlns:xlink="http://www.w3.org/1999/xlink" x="0px" y="0px"
	 viewBox="0 0 512 512" style="enable-background:new 0 0 512 512;" xml:space="preserve">
<style type="text/css">
	.st0{fill:#FF7832;}
	.st1{fill:#77DD00;}
	.st2{fill:#00AB5E;}
	.st3{fill:#FFBE1E;}
	.st4{fill:#89F900;}
	.st5{fill:#00465F;}
	.st6{fill:#F0F5FA;}
</style>
<path class="st0" d="M429.92,335.27c-8.28,0-15-6.72-15-15V256c0-8.28,6.72-15,15-15s15,6.72,15,15v64.27
	C444.92,328.55,438.21,335.27,429.92,335.27z"/>
<path class="st1" d="M486.16,271H373.69c-4.62,0-8.98-2.13-11.82-5.77s-3.85-8.39-2.73-12.87l56.23-224.93
	c1.67-6.68,7.67-11.36,14.55-11.36s12.88,4.68,14.55,11.36l56.23,224.93c1.12,4.48,0.11,9.23-2.73,12.87
	C495.14,268.87,490.78,271,486.16,271z"/>
<path class="st2" d="M497.98,265.23c2.84-3.64,3.85-8.39,2.73-12.87L444.48,27.43c-1.67-6.68-7.67-11.36-14.55-11.36V271h56.23
	C490.78,271,495.14,268.87,497.98,265.23z"/>
<path class="st3" d="M86.23,335.27c-8.28,0-15-6.72-15-15V256c0-8.28,6.72-15,15-15s15,6.72,15,15v64.27
	C101.23,328.55,94.52,335.27,86.23,335.27z"/>
<path class="st3" d="M256,335.27c-8.28,0-15-6.72-15-15V256c0-8.28,6.72-15,15-15s15,6.72,15,15v64.27
	C271,328.55,264.28,335.27,256,335.27z"/>
<path class="st4" d="M142.47,271H30c-4.62,0-8.98-2.13-11.82-5.77s-3.85-8.39-2.73-12.87L71.68,27.43
	c1.67-6.68,7.67-11.36,14.55-11.36s12.88,4.68,14.55,11.36l56.23,224.93c1.12,4.48,0.11,9.23-2.73,12.87
	C151.45,268.87,147.09,271,142.47,271z"/>
<path class="st1" d="M154.29,265.23c2.84-3.64,3.85-8.39,2.73-12.87L100.79,27.43c-1.67-6.68-7.67-11.36-14.55-11.36V271h56.23
	C147.09,271,151.45,268.87,154.29,265.23z"/>
<path class="st4" d="M320.27,271H191.73c-4.66,0-9.06-2.17-11.9-5.86c-2.84-3.7-3.8-8.5-2.6-13l64.27-241C243.26,4.57,249.2,0,256,0
	c6.8,0,12.74,4.57,14.49,11.14l64.27,241c1.2,4.5,0.24,9.31-2.6,13C329.32,268.83,324.93,271,320.27,271L320.27,271z"/>
<path class="st1" d="M332.16,265.14c2.84-3.7,3.8-8.5,2.6-13l-64.27-241C268.74,4.57,262.8,0,256,0h-0.01v271h64.28
	C324.93,271,329.32,268.83,332.16,265.14z"/>
<path class="st5" d="M512,512H0V305.27h512V512z"/>
<g>
	<path class="st6" d="M280.92,408.64h-49.85c-8.28,0-15-6.72-15-15c0-8.28,6.72-15,15-15h49.85c8.28,0,15,6.72,15,15
		C295.92,401.91,289.2,408.64,280.92,408.64z"/>
	<path class="st6" d="M453.69,408.64h-49.85c-8.28,0-15-6.72-15-15c0-8.28,6.72-15,15-15h49.85c8.28,0,15,6.72,15,15
		C468.69,401.91,461.97,408.64,453.69,408.64z"/>
	<g>
		<path class="st6" d="M108.14,408.64H58.29c-8.28,0-15-6.72-15-15c0-8.28,6.72-15,15-15h49.85c8.28,0,15,6.72,15,15
			C123.14,401.91,116.42,408.64,108.14,408.64z"/>
	</g>
</g>
</svg>
