<?xml version="1.0" encoding="iso-8859-1"?>
<!-- Generator: Adobe Illustrator 19.0.0, SVG Export Plug-In . SVG Version: 6.00 Build 0)  -->
<svg version="1.1" id="Capa_1" xmlns="http://www.w3.org/2000/svg" xmlns:xlink="http://www.w3.org/1999/xlink" x="0px" y="0px"
	 viewBox="0 0 512 512" style="enable-background:new 0 0 512 512;" xml:space="preserve">
<path style="fill:#1B224A;" d="M227.377,241.664c-7.561,0-14.91-3.942-18.931-10.977c-5.97-10.445-2.344-23.751,8.101-29.722
	l158.561-90.637c10.444-5.971,23.752-2.343,29.722,8.101c5.97,10.445,2.344,23.751-8.101,29.722l-158.561,90.637
	C234.757,240.738,231.043,241.664,227.377,241.664z"/>
<path style="fill:#FFB69E;" d="M216.547,200.967c-10.445,5.97-14.072,19.277-8.101,29.722c4.021,7.034,11.371,10.977,18.931,10.977
	c3.665,0,7.38-0.926,10.79-2.876L216.547,200.967z"/>
<polygon style="fill:#FFFFFF;" points="225.635,195.687 216.454,200.967 238.164,238.786 247.888,233.233 "/>
<path style="fill:#5F6E9B;" d="M382.973,280.9v205.034C383.011,500.346,394.052,512,407.65,512h0.071
	c13.63-0.041,24.648-11.777,24.608-26.214V280.9H382.973z"/>
<path style="fill:#414B82;" d="M323.412,280.9l-0.014,204.957c-0.001,14.437,11.047,26.14,24.677,26.141c0.001,0,0.001,0,0.002,0
	c13.629,0,24.678-11.703,24.679-26.137L372.77,280.9H323.412z"/>
<path style="fill:#252D5C;" d="M323.397,292.605H432.33V136.131c0-16.843-12.891-30.498-28.793-30.498H352.19
	c-15.902,0-28.793,13.655-28.793,30.498V292.605z"/>
<path style="fill:#414B82;" d="M104.566,280.231l0.015,205.631c0.001,14.437,11.007,26.139,24.582,26.137
	c13.575-0.001,24.579-11.706,24.578-26.141l-0.015-205.627H104.566z"/>
<path style="fill:#5F6E9B;" d="M45.243,280.231v205.554c-0.038,14.437,10.936,26.174,24.511,26.214h0.071
	c13.542,0,24.541-11.655,24.579-26.066V280.231H45.243z"/>
<path style="fill:#252D5C;" d="M153.742,292.605H45.243V136.131c0-16.843,12.839-30.498,28.678-30.498h51.142
	c15.839,0,28.678,13.655,28.678,30.498V292.605z"/>
<circle style="fill:#BA6746;" cx="98.832" cy="45.147" r="45.147"/>
<circle style="fill:#FFB69E;" cx="373.866" cy="45.147" r="45.147"/>
<path style="fill:#292D30;" d="M421.263,365.762h-52.37c-6.138,0-11.114-4.976-11.114-11.114v-52.37
	c0-6.138,4.976-11.114,11.114-11.114h52.37c6.138,0,11.114,4.976,11.114,11.114v52.37
	C432.375,360.787,427.401,365.762,421.263,365.762z M380.005,343.536h30.143v-30.143h-30.143V343.536z"/>
<path style="fill:#80391B;" d="M466.757,421.91c0,6.378-5.171,11.549-11.549,11.549H334.947c-6.378,0-11.549-5.171-11.549-11.549
	V346.1c0-6.378,5.171-11.549,11.549-11.549h120.262c6.378,0,11.549,5.171,11.549,11.549L466.757,421.91L466.757,421.91z"/>
<path style="fill:#1B224A;" d="M394.606,320.182c-1.149,0-2.31-0.091-3.48-0.278c-11.878-1.908-19.961-13.084-18.053-24.962
	l11.721-72.985l-30.114-85.037c-4.016-11.341,1.922-23.789,13.262-27.805c11.338-4.016,23.79,1.921,27.805,13.262l31.97,90.275
	c1.217,3.437,1.552,7.125,0.974,10.726l-12.603,78.471C414.368,312.557,405.115,320.182,394.606,320.182z"/>
<path style="fill:#FFB69E;" d="M373.072,294.941c-1.908,11.878,6.175,23.054,18.053,24.962c11.921,1.91,23.06-6.215,24.961-18.053
	L373.072,294.941z"/>
<path style="fill:#1B224A;" d="M213.383,227.266c-0.847,0-1.703-0.049-2.565-0.15l-75.878-8.901
	c-4.843-0.568-9.356-2.745-12.816-6.183l-62.887-62.486c-8.534-8.48-8.578-22.271-0.099-30.805s22.271-8.578,30.806-0.099
	l57.547,57.179l68.402,8.025c11.949,1.402,20.499,12.224,19.097,24.173C233.692,219.104,224.28,227.266,213.383,227.266z"/>
<path style="fill:#BA6746;" d="M215.894,183.845l-5.076,43.27c11.941,1.401,22.771-7.141,24.173-19.097
	C236.394,196.069,227.843,185.247,215.894,183.845z"/>
<g>
	<polygon style="fill:#FFFFFF;" points="215.894,183.845 205.378,182.612 200.109,225.858 210.819,227.115 	"/>
	<polygon style="fill:#FFFFFF;" points="374.739,284.561 373.072,294.941 416.087,301.849 417.834,290.975 	"/>
</g>
<path style="fill:#703014;" d="M455.208,334.551h-60.131v98.907h60.131c6.378,0,11.549-5.171,11.549-11.549V346.1
	C466.757,339.722,461.587,334.551,455.208,334.551z"/>
<g>
</g>
<g>
</g>
<g>
</g>
<g>
</g>
<g>
</g>
<g>
</g>
<g>
</g>
<g>
</g>
<g>
</g>
<g>
</g>
<g>
</g>
<g>
</g>
<g>
</g>
<g>
</g>
<g>
</g>
</svg>
