<svg id="Layer_1" data-name="Layer 1" xmlns="http://www.w3.org/2000/svg" viewBox="0 0 1031.84 772"><defs><style>.cls-1{fill:#7cc5f2;}.cls-2{fill:#64afbc;}.cls-3{fill:#b0d9ed;}.cls-4{fill:#4bb9ec;}.cls-5{fill:#0095ff;}.cls-6{fill:#76e2f8;}.cls-7{fill:#697c86;}.cls-8{fill:#596c76;}.cls-9{fill:#a4d9f5;}.cls-10{fill:#b7e0f6;}.cls-11{fill:#81c8ee;}.cls-12{fill:#159ce4;}.cls-13{fill:#cae8f9;}.cls-14{fill:#3c3a41;}</style></defs><title>bg-img_top</title><path class="cls-1" d="M575,43.84c1.85-8.57,2.12-17.49,2.15-24.34C577.24,5,570.61-7.15,551.85,4.94c-11.74,7.56-10.75,19.48-15.69,29.73-8.66,18-28.88,14.76-48.15,18.65-34.42,7-16.11,46.66-51.19,50.68-24,2.75-47.43,3.68-50.25,28.05-.34,2.95-.17,5.94-.95,8.83-3.05,11.18-13.64,14.39-27,15.75-7.51.77-15.2,1.09-22.32,3.14-29.76,8.57-14.39,45.38-49.7,50.44-6.88,1-14,.23-20.87,1.31-16.56,2.6-25,14.95-28.39,27-2.56,9.07-3.92,17-15.36,22.14-17.57,7.89-50.33,3.39-56.29,23-1.32,4.36-1.41,8.93-2.9,13.27-6.45,18.77-26.42,17.13-45.34,20-14.1,2.14-24.8,12.67-28.22,23.33-1.84,5.76-1.81,11.91-4.72,17.39-8.26,15.55-41.81,14.18-58.94,17.18-8.08,1.42-16.28,4.34-20.69,9.88-19.12,24.06,21.83,62.43,53.43,62.45,22.29,0,44.85,1.43,66.07,7.17,20,5.39,32.05,16.61,44,30,12.8,14.37,32.59,14.26,52.63,14.73,22.26.53,47.29,3.52,63.4,16.89,7.21,6,11.94,13.6,18.95,19.75,28.74,25.18,72.71,6.24,104.25,24.72,16.08,9.42,24.81,24.48,41.66,33,19.18,9.71,43.44,5.46,65.11,7.05,10.73.8,21.18,2.9,29.32,8.81,10.31,7.48,13.75,18.81,24.52,26.34,15.58,10.89,35.5,15.6,56.1,15.12,30.54-.71,60.25,5.59,71.05,31.15,2.48,5.86,19.37,11.79,25.82,13.9,21,6.87,42,1.2,63.22,5.62,34.16,7.11,38.81,37.42,71.42,45.39,19.89,4.86,40.22.55,60.05,4a61.66,61.66,0,0,1,20.92,7.53C939.35,759.84,951,772,952.34,772h79.5s-18-48.21-82.48-51.37c-27.06-1.33-61.54,2.9-83.81-10.06-14.63-8.51-17.14-21.51-29-31.3-12.45-10.28-31.49-9.8-47.83-9-18.44.92-37-3.79-50.25-14.18-7.19-5.62-12.56-12.52-19.18-18.58-22.6-20.66-55.95-10.67-84.88-18.18-22.06-5.73-27.3-18.9-41.77-30.55-16.07-12.94-40.9-14.42-62.29-11.23-35.21,5.25-50.36-33-75.08-43.22-17.95-7.42-39.18-5.6-58.63-7.72-9.95-1.08-20.29-2.87-28.51-7.71-9.4-5.53-13.79-14.76-21.64-21.69-21.28-18.78-47.35-12.73-74.67-12.52-24.26.18-33.95-20.88-48.14-32.79-16.66-14-42.69-13.75-65.12-15.12-24.45-1.49-52.26-6-72-18.18-4.14-2.56-8-5.62-10-9.47-2.9-5.69.14-11.25,4.72-15.75,9.13-8.94,17.4-19,31.73-23,10.68-3,23.44-2.78,33-8,11.14-6.13,14.3-17.31,15.28-27.4,1.59-16.31,32.39-12.7,44.63-14.61,33.22-5.2,12.42-42.54,42.17-48.08,13-2.43,26.18,2.1,37.58-4.84,9.38-5.71,12.62-15.16,12.62-24.16,0-23.78,31.14-16.5,49.58-21.81,15.78-4.55,20.61-17.37,19.42-29.56-2.13-22,44.67-14.16,56.5-23a30,30,0,0,0,11.07-17.21c1.51-6.18,1.54-13,6.3-18,11.22-11.89,31.27-4.78,46.48-9.49,12.3-3.81,16.83-14.79,18.67-24.24,1.9-9.77-1.21-16.74,13.59-20.63,13-3.43,27.52-3.7,39.14-10.16C568.28,64,572.81,54.18,575,43.84Z"/><path class="cls-2" d="M81.35,393.4c9.13-8.94,17.4-19,31.73-23,10.68-3,23.44-2.78,33-8,11.14-6.13,14.3-17.31,15.28-27.4,1.59-16.31,32.39-12.7,44.63-14.61,33.22-5.2,12.42-42.54,42.17-48.08,13-2.43,26.18,2.1,37.58-4.84,9.38-5.71,12.62-15.16,12.62-24.16,0-23.78,31.14-16.5,49.58-21.81,15.78-4.55,20.61-17.37,19.42-29.56-2.13-22,44.67-14.16,56.5-23a30,30,0,0,0,11.07-17.21c1.51-6.18,1.54-13,6.3-18,11.22-11.89,31.27-4.78,46.48-9.49,12.3-3.81,16.83-14.79,18.67-24.24,1.9-9.77-1.21-16.74,13.59-20.63,13-3.43,27.52-3.7,39.14-10.16,9.19-5.11,13.72-15,15.94-25.3,1.85-8.57,2.12-17.49,2.15-24.34C577.22,8.72,573.57-.73,564,.06c-.57,8.4-2.16,19.48-2.44,20.63-4.29,17.82-18.72,38.93-39.15,38.63-16.11-.23-30.9,8-37.09,23.18-3.55,8.71-5.66,19.77-13.58,25.79-7.53,5.71-19.53,4.94-28.42,5.21-33,1-33,10-37,29s-21,18-39,20-21,2-28,20c-2.45,6.31-3.9,13.61-9.21,18.24-8.92,7.78-22.87,11.43-34,14.07-10.27,2.44-19.59,8.76-21.78,19.69C272.77,242.35,267,248,260,251.45s-15,3.35-21.67,7.05c-11,6.12-18.51,18.12-24.14,29.06-3.13,6.09-6.64,10.85-13.13,13.62-7.31,3.12-15.87,3.73-23.73,3.32-16.73-.88-21.85,15.64-29.29,27.23a28.67,28.67,0,0,1-20.12,13.35c-9.73,1.68-20.16,2-27.59,9.42-8.13,8.14-13.53,18.3-20.62,27.25-7.56,9.57-16,13-28.24,13.14-7.95.09-17.47-1.05-25,1.93-12.68,5,8.19,18.23,14.28,18.71-1.33-.11-9-10.6-8.25-12.42,2.34-5.39,19.87-1.73,24.1-1.25,6,.69,12.57,1.94,18.92,2.48C75.6,400.38,78.07,396.61,81.35,393.4Z"/><circle class="cls-3" cx="556.84" cy="12" r="3"/><circle class="cls-3" cx="552.84" cy="62" r="1.94"/><circle class="cls-3" cx="548.84" cy="44" r="5.43"/><ellipse class="cls-3" cx="566.22" cy="30.04" rx="3.31" ry="4.69" transform="translate(25.99 202.27) rotate(-20.72)"/><circle class="cls-3" cx="527.84" cy="52" r="3"/><circle class="cls-3" cx="496.84" cy="85" r="1.94"/><circle class="cls-3" cx="498.84" cy="64" r="5.43"/><ellipse class="cls-3" cx="523.22" cy="69.04" rx="4.69" ry="3.31" transform="translate(145.86 437.98) rotate(-51.87)"/><circle class="cls-3" cx="469.84" cy="91" r="3"/><circle class="cls-3" cx="450.84" cy="114" r="5.43"/><ellipse class="cls-3" cx="484.32" cy="110.3" rx="5.9" ry="4.57" transform="translate(166.38 491.93) rotate(-63.03)"/><circle class="cls-3" cx="433.84" cy="114" r="3"/><circle class="cls-3" cx="409.84" cy="148" r="1.94"/><circle class="cls-3" cx="404.84" cy="126" r="5.43"/><ellipse class="cls-3" cx="429.22" cy="131.04" rx="4.69" ry="3.31" transform="translate(61.13 387.76) rotate(-51.87)"/><circle class="cls-3" cx="397.84" cy="147" r="3"/><circle class="cls-3" cx="373.84" cy="159" r="1.94"/><circle class="cls-3" cx="390.84" cy="159" r="5.43"/><ellipse class="cls-3" cx="418.22" cy="159.04" rx="4.69" ry="3.31" transform="matrix(0.62, -0.79, 0.79, 0.62, 34.89, 389.82)"/><circle class="cls-3" cx="359.84" cy="165" r="3"/><circle class="cls-3" cx="357.84" cy="180" r="1.94"/><circle class="cls-3" cx="340.84" cy="173" r="5.43"/><ellipse class="cls-3" cx="370.22" cy="173.04" rx="4.69" ry="3.31" transform="translate(5.52 357.42) rotate(-51.87)"/><circle class="cls-3" cx="339.84" cy="193" r="3"/><circle class="cls-3" cx="329.84" cy="210" r="1.94"/><circle class="cls-3" cx="323.84" cy="192" r="5.43"/><ellipse class="cls-3" cx="351.22" cy="200.04" rx="4.69" ry="3.31" transform="translate(-22.99 352.8) rotate(-51.87)"/><circle class="cls-3" cx="310.84" cy="211" r="3"/><circle class="cls-3" cx="288.84" cy="239" r="1.94"/><circle class="cls-3" cx="269.84" cy="223" r="5.43"/><ellipse class="cls-3" cx="300.22" cy="224.04" rx="4.69" ry="3.31" transform="translate(-61.38 321.87) rotate(-51.87)"/><circle class="cls-3" cx="271.84" cy="241" r="3"/><circle class="cls-3" cx="222.84" cy="266" r="1.94"/><circle class="cls-3" cx="242.84" cy="253" r="5.43"/><ellipse class="cls-3" cx="267.22" cy="258.04" rx="4.69" ry="3.31" transform="translate(-100.75 308.91) rotate(-51.87)"/><circle class="cls-3" cx="214.84" cy="275" r="3"/><circle class="cls-3" cx="209.84" cy="311" r="1.94"/><circle class="cls-3" cx="198.84" cy="286" r="5.43"/><ellipse class="cls-3" cx="214.22" cy="298.04" rx="4.69" ry="3.31" transform="translate(-152.49 282.53) rotate(-51.87)"/><circle class="cls-3" cx="180.84" cy="289" r="3"/><circle class="cls-3" cx="159.84" cy="314" r="1.94"/><circle class="cls-3" cx="193.84" cy="309" r="5.43"/><ellipse class="cls-3" cx="176.22" cy="306.04" rx="4.69" ry="3.31" transform="translate(-173.32 255.69) rotate(-51.87)"/><circle class="cls-3" cx="142.84" cy="324" r="3"/><circle class="cls-3" cx="118.84" cy="358" r="1.94"/><circle class="cls-3" cx="118.84" cy="332" r="5.43"/><ellipse class="cls-3" cx="138.22" cy="341.04" rx="4.69" ry="3.31" transform="translate(-215.39 239.19) rotate(-51.87)"/><circle class="cls-3" cx="102.84" cy="348" r="3"/><circle class="cls-3" cx="78.84" cy="382" r="1.94"/><circle class="cls-3" cx="56.84" cy="382" r="5.43"/><ellipse class="cls-3" cx="98.22" cy="365.04" rx="4.69" ry="3.31" transform="translate(-249.57 216.91) rotate(-51.87)"/><circle class="cls-3" cx="42.84" cy="383" r="3"/><circle class="cls-3" cx="18.84" cy="417" r="1.94"/><circle class="cls-3" cx="13.84" cy="395" r="5.43"/><ellipse class="cls-3" cx="38.22" cy="400.04" rx="4.69" ry="3.31" transform="translate(-300.06 183.1) rotate(-51.87)"/><path class="cls-2" d="M914.31,750.4c45.07,2.86,68.54,14.09,79.44,21.6h3.18c-2.11-6.47-6.82-14-12.09-23-10-17-62-17-87-16s-43,0-57-26-43-23-58-22-46,6-64-23-55-25-90-26-48-23-59-38-34-11-74-11-52-22-65-38-63-9-81-13-12-1-38-25-65-25-93-29-36-10-65-34-79-9-106-8a108.23,108.23,0,0,1-15.63-.66c8.76,4.82,18.3,7.81,27.11,7.82,22.29,0,44.85,1.43,66.07,7.17,20,5.39,32.05,16.61,44,30,12.8,14.37,32.59,14.26,52.63,14.73,22.26.53,47.29,3.52,63.4,16.89,7.21,6,11.94,13.6,18.95,19.75,28.74,25.18,72.71,6.24,104.25,24.72,16.08,9.42,24.81,24.48,41.66,33,19.18,9.71,43.44,5.46,65.11,7.05,10.73.8,21.18,2.9,29.32,8.81,10.31,7.48,13.75,18.81,24.52,26.34,15.58,10.89,35.5,15.6,56.1,15.12,30.54-.71,60.25,5.59,71.05,31.15,2.48,5.86,19.37,11.79,25.82,13.9,21,6.87,42,1.2,63.22,5.62,34.16,7.11,38.81,37.42,71.42,45.39C875.83,751.44,895.28,747.7,914.31,750.4Z"/><circle class="cls-3" cx="34.93" cy="425.15" r="3"/><circle class="cls-3" cx="78.38" cy="421.28" r="1.94"/><circle class="cls-3" cx="54.96" cy="432.21" r="5.43"/><ellipse class="cls-3" cx="56.11" cy="413.74" rx="4.69" ry="3.31" transform="translate(-78.37 18.46) rotate(-11.07)"/><circle class="cls-3" cx="77.93" cy="440.15" r="3"/><circle class="cls-3" cx="96.93" cy="438.15" r="3"/><circle class="cls-3" cx="159.38" cy="459.28" r="1.94"/><circle class="cls-3" cx="116.96" cy="445.21" r="5.43"/><ellipse class="cls-3" cx="158.11" cy="444.74" rx="4.69" ry="3.31" transform="translate(-82.42 38.62) rotate(-11.07)"/><circle class="cls-3" cx="139.93" cy="453.15" r="3"/><circle class="cls-3" cx="167.74" cy="467.76" r="3.72"/><circle class="cls-3" cx="217.67" cy="458.96" r="2.41"/><circle class="cls-3" cx="189.61" cy="482.52" r="6.73"/><ellipse class="cls-3" cx="190.03" cy="449.6" rx="5.83" ry="4.11" transform="translate(-82.76 44.84) rotate(-11.07)"/><circle class="cls-3" cx="217.12" cy="482.38" r="3.72"/><circle class="cls-3" cx="231.93" cy="484.15" r="3"/><circle class="cls-3" cx="287.38" cy="509.28" r="1.94"/><circle class="cls-3" cx="251.96" cy="491.21" r="5.43"/><ellipse class="cls-3" cx="303.11" cy="493.74" rx="4.69" ry="3.31" transform="translate(-89.13 67.36) rotate(-11.07)"/><circle class="cls-3" cx="274.93" cy="499.15" r="3"/><circle class="cls-3" cx="298.62" cy="514.82" r="3.6"/><circle class="cls-3" cx="350.78" cy="510.19" r="2.33"/><circle class="cls-3" cx="322.67" cy="533.3" r="6.51"/><ellipse class="cls-3" cx="324.05" cy="501.13" rx="5.63" ry="3.97" transform="translate(-90.16 71.52) rotate(-11.07)"/><circle class="cls-3" cx="347.24" cy="526.83" r="3.6"/><circle class="cls-3" cx="369.93" cy="533.15" r="3"/><circle class="cls-3" cx="407.38" cy="533.28" r="1.94"/><circle class="cls-3" cx="389.96" cy="540.21" r="5.43"/><ellipse class="cls-3" cx="355.11" cy="539.74" rx="4.69" ry="3.31" transform="translate(-97 78.2) rotate(-11.07)"/><circle class="cls-3" cx="412.93" cy="548.15" r="3"/><circle class="cls-3" cx="426.38" cy="561.95" r="3.36"/><circle class="cls-3" cx="470.98" cy="561.64" r="2.17"/><circle class="cls-3" cx="448.79" cy="561.86" r="6.07"/><ellipse class="cls-3" cx="439.07" cy="544.19" rx="5.25" ry="3.7" transform="translate(-96.29 94.4) rotate(-11.07)"/><circle class="cls-3" cx="465.49" cy="583.74" r="3.36"/><circle class="cls-3" cx="479.93" cy="579.15" r="3"/><circle class="cls-3" cx="543.38" cy="599.28" r="1.94"/><circle class="cls-3" cx="499.96" cy="586.21" r="5.43"/><ellipse class="cls-3" cx="537.11" cy="582.74" rx="4.69" ry="3.31" transform="translate(-101.87 113.93) rotate(-11.07)"/><circle class="cls-3" cx="522.93" cy="594.15" r="3"/><circle class="cls-3" cx="553.93" cy="603.15" r="3"/><circle class="cls-3" cx="597.38" cy="599.28" r="1.94"/><circle class="cls-3" cx="573.96" cy="610.21" r="5.43"/><ellipse class="cls-3" cx="575.11" cy="591.74" rx="4.69" ry="3.31" transform="translate(-102.89 121.39) rotate(-11.07)"/><circle class="cls-3" cx="597.03" cy="620.18" r="3"/><circle class="cls-3" cx="593.93" cy="630.15" r="3"/><circle class="cls-3" cx="637.38" cy="626.28" r="1.94"/><circle class="cls-3" cx="613.96" cy="637.21" r="5.43"/><ellipse class="cls-3" cx="615.11" cy="618.74" rx="4.69" ry="3.31" transform="translate(-107.33 129.57) rotate(-11.07)"/><circle class="cls-3" cx="647.04" cy="639.19" r="3"/><circle class="cls-3" cx="661.93" cy="644.15" r="3"/><circle class="cls-3" cx="705.38" cy="640.28" r="1.94"/><circle class="cls-3" cx="681.96" cy="651.21" r="5.43"/><ellipse class="cls-3" cx="665.11" cy="632.74" rx="4.69" ry="3.31" transform="translate(-109.08 139.43) rotate(-11.07)"/><circle class="cls-3" cx="704.93" cy="659.15" r="3"/><circle class="cls-3" cx="709.93" cy="674.15" r="3"/><circle class="cls-3" cx="753.38" cy="670.28" r="1.94"/><circle class="cls-3" cx="730.96" cy="686.21" r="5.43"/><ellipse class="cls-3" cx="731.11" cy="662.74" rx="4.69" ry="3.31" transform="translate(-113.61 152.65) rotate(-11.07)"/><circle class="cls-3" cx="752.93" cy="689.15" r="3"/><circle class="cls-3" cx="770.93" cy="687.15" r="3"/><circle class="cls-3" cx="814.38" cy="683.28" r="1.94"/><circle class="cls-3" cx="798.96" cy="694.21" r="5.43"/><ellipse class="cls-3" cx="786.11" cy="679.74" rx="4.69" ry="3.31" transform="translate(-115.85 163.53) rotate(-11.07)"/><circle class="cls-3" cx="817.07" cy="705.2" r="3"/><circle class="cls-3" cx="828.07" cy="719.2" r="3"/><circle class="cls-3" cx="857.38" cy="713.28" r="1.94"/><circle class="cls-3" cx="827.96" cy="694.21" r="5.43"/><ellipse class="cls-3" cx="841.11" cy="704.74" rx="4.69" ry="3.31" transform="translate(-119.63 174.55) rotate(-11.07)"/><circle class="cls-3" cx="847.08" cy="719.2" r="3"/><circle class="cls-3" cx="849.93" cy="733.15" r="3"/><circle class="cls-3" cx="893.38" cy="729.28" r="1.94"/><circle class="cls-3" cx="869.96" cy="740.21" r="5.43"/><ellipse class="cls-3" cx="871.11" cy="721.74" rx="4.69" ry="3.31" transform="translate(-122.34 180.62) rotate(-11.07)"/><circle class="cls-3" cx="904.08" cy="740.21" r="3"/><circle class="cls-3" cx="920.93" cy="741.15" r="3"/><circle class="cls-3" cx="970.38" cy="733.28" r="1.94"/><circle class="cls-3" cx="945.96" cy="740.21" r="5.43"/><ellipse class="cls-3" cx="933.11" cy="726.74" rx="4.69" ry="3.31" transform="translate(-122.14 192.62) rotate(-11.07)"/><circle class="cls-3" cx="970.1" cy="756.21" r="3"/><circle class="cls-3" cx="985.93" cy="754.15" r="3"/><circle class="cls-3" cx="998.38" cy="740.28" r="1.94"/><circle class="cls-3" cx="1005.96" cy="761.21" r="5.43"/><circle class="cls-3" cx="989.11" cy="743.21" r="3"/><path class="cls-4" d="M530.75,31.64a2.21,2.21,0,0,0,3.07-.57.45.45,0,0,0-.11-.62l-2.92-2a.44.44,0,0,0-.61.11A2.2,2.2,0,0,0,530.75,31.64Z"/><path class="cls-5" d="M532.25,29.45l1.46,1a.45.45,0,0,1,.11.62,2.21,2.21,0,0,1-3.07.57Z"/><path class="cls-6" d="M527.75,36a.44.44,0,0,0,.25.08c.1,0,2.37,0,3.32-1.39s.12-3.5.09-3.6a.39.39,0,0,0-.16-.2.43.43,0,0,0-.24-.08c-.11,0-2.38,0-3.33,1.39s-.12,3.5-.09,3.6A.45.45,0,0,0,527.75,36Z"/><path class="cls-4" d="M531.25,30.91a.39.39,0,0,1,.16.2c0,.1.86,2.22-.09,3.6S528.1,36.09,528,36.1a.44.44,0,0,1-.25-.08Z"/><path class="cls-7" d="M528.64,33.94a.44.44,0,0,1,.73.5.44.44,0,0,1-.62.12A.45.45,0,0,1,528.64,33.94Z"/><path class="cls-8" d="M529.25,33.83a.44.44,0,1,1-.5.73Z"/><path class="cls-4" d="M525.32,97.88a2.21,2.21,0,0,0,2,2.43.45.45,0,0,0,.49-.39l.37-3.52a.43.43,0,0,0-.39-.49A2.21,2.21,0,0,0,525.32,97.88Z"/><path class="cls-5" d="M528,98.16l-.19,1.76a.45.45,0,0,1-.49.39,2.21,2.21,0,0,1-2-2.43Z"/><path class="cls-6" d="M520,97.31a.47.47,0,0,0,.05.26c0,.08,1.13,2.09,2.8,2.27s3.14-1.56,3.21-1.63a.43.43,0,0,0,.1-.24.36.36,0,0,0-.05-.25c0-.09-1.12-2.1-2.79-2.28s-3.15,1.56-3.22,1.64A.4.4,0,0,0,520,97.31Z"/><path class="cls-4" d="M526.2,98a.43.43,0,0,1-.1.24c-.07.07-1.54,1.81-3.21,1.63s-2.75-2.19-2.8-2.27a.47.47,0,0,1-.05-.26Z"/><path class="cls-7" d="M522.29,97.11a.43.43,0,0,1,.39.49.44.44,0,0,1-.48.39.45.45,0,0,1-.4-.49A.44.44,0,0,1,522.29,97.11Z"/><path class="cls-8" d="M522.68,97.6a.44.44,0,0,1-.48.39.45.45,0,0,1-.4-.49Z"/><path class="cls-4" d="M476.24,50.26a2.21,2.21,0,0,0,2.85,1.28.45.45,0,0,0,.26-.57l-1.27-3.31a.43.43,0,0,0-.57-.25A2.2,2.2,0,0,0,476.24,50.26Z"/><path class="cls-5" d="M478.72,49.32l.63,1.65a.45.45,0,0,1-.26.57,2.21,2.21,0,0,1-2.85-1.28Z"/><path class="cls-6" d="M471.28,52.15a.42.42,0,0,0,.16.21c.08,0,1.95,1.35,3.52.76s2.1-2.82,2.13-2.92a.37.37,0,0,0,0-.25.41.41,0,0,0-.15-.21c-.09-.05-2-1.35-3.52-.75s-2.1,2.81-2.13,2.91A.43.43,0,0,0,471.28,52.15Z"/><path class="cls-4" d="M477.06,50a.37.37,0,0,1,0,.25c0,.1-.56,2.32-2.13,2.92s-3.44-.71-3.52-.76a.42.42,0,0,1-.16-.21Z"/><path class="cls-7" d="M473.19,51a.45.45,0,0,1,.57.26.44.44,0,0,1-.25.57.43.43,0,0,1-.57-.26A.44.44,0,0,1,473.19,51Z"/><path class="cls-8" d="M473.76,51.21a.44.44,0,0,1-.25.57.43.43,0,0,1-.57-.26Z"/><path class="cls-4" d="M451.9,135.77a2.22,2.22,0,0,0,3.13-.11.43.43,0,0,0,0-.62l-2.59-2.42a.43.43,0,0,0-.62,0A2.22,2.22,0,0,0,451.9,135.77Z"/><path class="cls-5" d="M453.71,133.83,455,135a.43.43,0,0,1,0,.62,2.22,2.22,0,0,1-3.13.11Z"/><path class="cls-6" d="M448.29,139.64a.4.4,0,0,0,.22.12c.1,0,2.36.36,3.5-.87s.65-3.45.63-3.55a.38.38,0,0,0-.13-.22.43.43,0,0,0-.23-.12c-.1,0-2.35-.35-3.5.87s-.64,3.45-.63,3.55A.4.4,0,0,0,448.29,139.64Z"/><path class="cls-4" d="M452.51,135.12a.38.38,0,0,1,.13.22c0,.1.52,2.32-.63,3.55s-3.4.88-3.5.87a.4.4,0,0,1-.22-.12Z"/><path class="cls-7" d="M449.47,137.73a.45.45,0,0,1,.63,0,.45.45,0,0,1-.61.65A.43.43,0,0,1,449.47,137.73Z"/><path class="cls-8" d="M450.1,137.7a.45.45,0,0,1-.61.65Z"/><path class="cls-9" d="M534.69,93.23a1.42,1.42,0,0,0,1.39-.29,1.47,1.47,0,0,0,.47-1.39l-.4-2a.49.49,0,0,0-.57-.38l-2.66,1.7a.48.48,0,0,0-.22.65A3.42,3.42,0,0,0,534.69,93.23Z"/><path class="cls-10" d="M531.68,84.69l3.12.55a.49.49,0,0,0,.38-.57l-.42-2.12a1.5,1.5,0,0,0-1-1.11,1.43,1.43,0,0,0-1.38.25,3.4,3.4,0,0,0-1.21,2.5A.5.5,0,0,0,531.68,84.69Z"/><path class="cls-10" d="M540.18,89.48a3.63,3.63,0,0,0,2.9.14c.64-.16,1-.1.81-1a3.39,3.39,0,0,0-1.23-2.42,2.72,2.72,0,0,0-.71-.33,2.29,2.29,0,0,0,.34-.41,4.45,4.45,0,0,0,.31-3.36.52.52,0,0,0-.58-.38c-1.67.34-2.76.88-3.3,1.72-.68,1.05-.3,1.93-.13,3.09A4.47,4.47,0,0,0,540.18,89.48Z"/><path class="cls-9" d="M542.66,86.22a2.72,2.72,0,0,0-.71-.33l0,0-3.39.67h0a4.45,4.45,0,0,0,1.59,3,3.63,3.63,0,0,0,2.9.14c.64-.16,1-.1.81-1A3.39,3.39,0,0,0,542.66,86.22Z"/><path class="cls-11" d="M528.57,90.27l-.47-1.65-.58-2.05L528,84.7c2.41-1.61,5.62-1.27,11.38,1.28a.58.58,0,0,1,.18.89c-4.43,4.64-7.32,6-10.21,5.4Z"/><path class="cls-12" d="M539.62,86.33,528.1,88.62h0l.47,1.65.73,2c2.89.64,5.78-.76,10.21-5.4A.58.58,0,0,0,539.62,86.33Z"/><path class="cls-13" d="M524.57,89.31a1.42,1.42,0,0,1,.21-1.09A15.88,15.88,0,0,1,527,85.48a7.8,7.8,0,0,1,1-.78,4.38,4.38,0,0,1,3,3.37,4.29,4.29,0,0,1-1.61,4.2,7.52,7.52,0,0,1-1.19-.39,16.82,16.82,0,0,1-2.93-1.63A1.48,1.48,0,0,1,524.57,89.31Z"/><path class="cls-10" d="M530.91,88.06l-6.34,1.26a1.52,1.52,0,0,0,.61.93,16.82,16.82,0,0,0,2.93,1.63,7.52,7.52,0,0,0,1.19.39,4.31,4.31,0,0,0,1.61-4.21Z"/><path class="cls-10" d="M531.91,89.45a4.59,4.59,0,0,0-.06-1.57,5.24,5.24,0,0,0-.51-1.52.48.48,0,0,1,.2-.65.5.5,0,0,1,.66.2,6.81,6.81,0,0,1,.61,1.78,6.2,6.2,0,0,1,.07,1.88.5.5,0,0,1-.54.42A.49.49,0,0,1,531.91,89.45Z"/><path class="cls-10" d="M532.81,87.68l-1,.19h0a4.59,4.59,0,0,1,.06,1.57.49.49,0,0,0,.43.54.5.5,0,0,0,.54-.42,6.2,6.2,0,0,0-.07-1.88Z"/><circle class="cls-14" cx="527.94" cy="88.09" r="0.49"/><path class="cls-9" d="M451,91.72a1.42,1.42,0,0,0,1-1,1.46,1.46,0,0,0-.33-1.43l-1.39-1.5a.48.48,0,0,0-.68,0l-1.38,2.84a.48.48,0,0,0,.15.67A3.43,3.43,0,0,0,451,91.72Z"/><path class="cls-10" d="M444,86l2.94-1.16a.48.48,0,0,0,0-.68l-1.47-1.59a1.47,1.47,0,0,0-1.39-.44,1.41,1.41,0,0,0-1.05.92,3.44,3.44,0,0,0,.28,2.77A.49.49,0,0,0,444,86Z"/><path class="cls-10" d="M453.71,85.65a3.63,3.63,0,0,0,2.54-1.4c.47-.47.79-.59.19-1.25a3.44,3.44,0,0,0-2.32-1.43,2.68,2.68,0,0,0-.78.09,2.28,2.28,0,0,0,.08-.52,4.45,4.45,0,0,0-1.49-3,.5.5,0,0,0-.69,0c-1.25,1.16-1.9,2.19-1.92,3.19,0,1.25.75,1.8,1.5,2.7A4.46,4.46,0,0,0,453.71,85.65Z"/><path class="cls-9" d="M454.12,81.57a2.68,2.68,0,0,0-.78.09v0L450.81,84h0a4.5,4.5,0,0,0,2.9,1.68,3.63,3.63,0,0,0,2.54-1.4c.47-.47.79-.59.19-1.25A3.44,3.44,0,0,0,454.12,81.57Z"/><path class="cls-11" d="M444.22,92.39,443,91.22l-1.57-1.44L440.78,88c1.22-2.63,4.13-4,10.38-4.85a.58.58,0,0,1,.61.66c-1.35,6.28-3.08,9-5.88,9.94Z"/><path class="cls-12" d="M451.58,83.25l-8.62,8h0l1.26,1.17,1.67,1.32c2.8-1,4.53-3.66,5.88-9.94A.57.57,0,0,0,451.58,83.25Z"/><path class="cls-13" d="M440.3,93.66a1.45,1.45,0,0,1-.38-1,15,15,0,0,1,.45-3.48,7.35,7.35,0,0,1,.41-1.17,4.35,4.35,0,0,1,5.11,5.75,8.33,8.33,0,0,1-1.22.29,17,17,0,0,1-3.35.14A1.58,1.58,0,0,1,440.3,93.66Z"/><path class="cls-10" d="M445.06,89.28l-4.75,4.38a1.53,1.53,0,0,0,1,.48,17,17,0,0,0,3.35-.14,8.33,8.33,0,0,0,1.22-.29,4.32,4.32,0,0,0-.83-4.43Z"/><path class="cls-10" d="M446.64,89.94a4.9,4.9,0,0,0-.87-1.31,5.27,5.27,0,0,0-1.23-1,.5.5,0,0,1-.17-.67.51.51,0,0,1,.67-.17,6.91,6.91,0,0,1,1.45,1.2,5.85,5.85,0,0,1,1,1.57.48.48,0,0,1-.88.4Z"/><path class="cls-10" d="M446.48,88l-.71.66h0a4.9,4.9,0,0,1,.87,1.31.48.48,0,0,0,.88-.4,5.85,5.85,0,0,0-1-1.57Z"/><circle class="cls-14" cx="442.55" cy="90.86" r="0.49"/><path class="cls-4" d="M432.92,88.78a2.21,2.21,0,0,0,3.12-.07.43.43,0,0,0,0-.62l-2.55-2.45a.45.45,0,0,0-.63,0A2.22,2.22,0,0,0,432.92,88.78Z"/><path class="cls-5" d="M434.75,86.86,436,88.09a.43.43,0,0,1,0,.62,2.21,2.21,0,0,1-3.12.07Z"/><path class="cls-6" d="M429.25,92.61a.4.4,0,0,0,.23.12c.1,0,2.34.39,3.5-.83s.69-3.44.68-3.54a.5.5,0,0,0-.13-.22.4.4,0,0,0-.23-.12c-.1,0-2.34-.39-3.51.82s-.69,3.44-.67,3.54A.36.36,0,0,0,429.25,92.61Z"/><path class="cls-4" d="M433.53,88.14a.5.5,0,0,1,.13.22c0,.1.49,2.33-.68,3.54s-3.4.84-3.5.83a.4.4,0,0,1-.23-.12Z"/><path class="cls-7" d="M430.46,90.71a.43.43,0,0,1,.62,0,.44.44,0,1,1-.61.64A.43.43,0,0,1,430.46,90.71Z"/><path class="cls-8" d="M431.08,90.69a.44.44,0,1,1-.61.64Z"/><path class="cls-4" d="M383.31,190.56a2.22,2.22,0,0,0,2.49,1.89.44.44,0,0,0,.38-.5l-.48-3.5a.43.43,0,0,0-.49-.38A2.22,2.22,0,0,0,383.31,190.56Z"/><path class="cls-5" d="M385.94,190.2l.24,1.75a.44.44,0,0,1-.38.5,2.22,2.22,0,0,1-2.49-1.89Z"/><path class="cls-6" d="M378.06,191.27a.43.43,0,0,0,.1.24c.07.07,1.6,1.76,3.26,1.53s2.68-2.26,2.73-2.35a.35.35,0,0,0,0-.25.43.43,0,0,0-.1-.24c-.08-.07-1.6-1.76-3.26-1.54s-2.68,2.27-2.73,2.36A.35.35,0,0,0,378.06,191.27Z"/><path class="cls-4" d="M384.19,190.44a.35.35,0,0,1,0,.25c0,.09-1.06,2.13-2.73,2.35s-3.19-1.46-3.26-1.53a.43.43,0,0,1-.1-.24Z"/><path class="cls-7" d="M380.19,190.54a.44.44,0,1,1-.38.49A.43.43,0,0,1,380.19,190.54Z"/><path class="cls-8" d="M380.69,190.91a.44.44,0,0,1-.38.5.44.44,0,0,1-.5-.38Z"/><path class="cls-4" d="M388.31,182.56a2.22,2.22,0,0,0,2.49,1.89.44.44,0,0,0,.38-.5l-.48-3.5a.43.43,0,0,0-.49-.38A2.22,2.22,0,0,0,388.31,182.56Z"/><path class="cls-5" d="M390.94,182.2l.24,1.75a.44.44,0,0,1-.38.5,2.22,2.22,0,0,1-2.49-1.89Z"/><path class="cls-6" d="M383.06,183.27a.43.43,0,0,0,.1.24c.07.07,1.6,1.76,3.26,1.53s2.68-2.26,2.73-2.35a.35.35,0,0,0,0-.25.43.43,0,0,0-.1-.24c-.08-.07-1.6-1.76-3.26-1.54s-2.68,2.27-2.73,2.36A.35.35,0,0,0,383.06,183.27Z"/><path class="cls-4" d="M389.19,182.44a.35.35,0,0,1,0,.25c0,.09-1.06,2.13-2.73,2.35s-3.19-1.46-3.26-1.53a.43.43,0,0,1-.1-.24Z"/><path class="cls-7" d="M385.19,182.54a.44.44,0,1,1-.38.49A.43.43,0,0,1,385.19,182.54Z"/><path class="cls-8" d="M385.69,182.91a.44.44,0,0,1-.38.5.44.44,0,0,1-.5-.38Z"/><path class="cls-4" d="M314.23,232.23a2.2,2.2,0,0,0,2.88,1.2.44.44,0,0,0,.24-.58L316,229.58a.44.44,0,0,0-.58-.24A2.21,2.21,0,0,0,314.23,232.23Z"/><path class="cls-5" d="M316.68,231.22l.67,1.63a.44.44,0,0,1-.24.58,2.2,2.2,0,0,1-2.88-1.2Z"/><path class="cls-6" d="M309.32,234.25a.49.49,0,0,0,.16.21c.09,0,2,1.3,3.55.66s2-2.88,2-3a.39.39,0,0,0,0-.26.35.35,0,0,0-.16-.2c-.09-.05-2-1.3-3.54-.66s-2,2.87-2,3A.43.43,0,0,0,309.32,234.25Z"/><path class="cls-4" d="M315,231.89a.39.39,0,0,1,0,.26c0,.09-.49,2.32-2,3s-3.46-.61-3.55-.66a.49.49,0,0,1-.16-.21Z"/><path class="cls-7" d="M311.2,233a.43.43,0,0,1,.57.24.44.44,0,1,1-.57-.24Z"/><path class="cls-8" d="M311.77,233.24a.44.44,0,1,1-.81.34Z"/><path class="cls-9" d="M350.39,153.24a1.38,1.38,0,0,0,1.38-.31,1.46,1.46,0,0,0,.45-1.39l-.43-2a.47.47,0,0,0-.57-.37l-2.64,1.74a.48.48,0,0,0-.21.65A3.39,3.39,0,0,0,350.39,153.24Z"/><path class="cls-10" d="M347.26,144.74l3.12.51a.48.48,0,0,0,.37-.58l-.45-2.11a1.48,1.48,0,0,0-1-1.09,1.41,1.41,0,0,0-1.37.26,3.41,3.41,0,0,0-1.17,2.52A.48.48,0,0,0,347.26,144.74Z"/><path class="cls-10" d="M355.82,149.41a3.58,3.58,0,0,0,2.9.09c.64-.16,1-.11.8-1a3.42,3.42,0,0,0-1.27-2.41,3.07,3.07,0,0,0-.71-.32,2.19,2.19,0,0,0,.33-.41,4.45,4.45,0,0,0,.26-3.36.5.5,0,0,0-.58-.37c-1.67.36-2.75.91-3.27,1.76-.67,1.06-.28,1.93-.09,3.09A4.45,4.45,0,0,0,355.82,149.41Z"/><path class="cls-9" d="M358.25,146.11a3.07,3.07,0,0,0-.71-.32l0,0-3.39.73h0a4.48,4.48,0,0,0,1.64,2.92,3.58,3.58,0,0,0,2.9.09c.64-.16,1-.11.8-1A3.42,3.42,0,0,0,358.25,146.11Z"/><path class="cls-11" d="M344.22,150.37l-.49-1.65-.61-2,.4-1.88c2.38-1.64,5.61-1.35,11.4,1.11a.58.58,0,0,1,.19.89c-4.36,4.71-7.23,6.15-10.12,5.55Z"/><path class="cls-12" d="M355.21,146.27l-11.48,2.45h0l.49,1.65.77,2c2.89.6,5.76-.84,10.12-5.55A.55.55,0,0,0,355.21,146.27Z"/><path class="cls-13" d="M340.21,149.47a1.42,1.42,0,0,1,.2-1.09,15.44,15.44,0,0,1,2.16-2.78,7.8,7.8,0,0,1,.95-.79,4.35,4.35,0,0,1,1.47,7.55,8.32,8.32,0,0,1-1.2-.37,17.24,17.24,0,0,1-3-1.59A1.47,1.47,0,0,1,340.21,149.47Z"/><path class="cls-10" d="M346.53,148.12l-6.32,1.36a1.53,1.53,0,0,0,.62.92,17.24,17.24,0,0,0,3,1.59,8.32,8.32,0,0,0,1.2.37,4.33,4.33,0,0,0,1.54-4.24Z"/><path class="cls-10" d="M347.56,149.5a5.57,5.57,0,0,0-.63-3.08.49.49,0,0,1,.2-.66.5.5,0,0,1,.66.2,6.68,6.68,0,0,1,.64,1.77,6.46,6.46,0,0,1,.09,1.87.48.48,0,0,1-.53.43A.47.47,0,0,1,347.56,149.5Z"/><path class="cls-10" d="M348.42,147.72l-.95.2h0a5.15,5.15,0,0,1,.09,1.57.47.47,0,0,0,.43.53.48.48,0,0,0,.53-.43,6.46,6.46,0,0,0-.09-1.87Z"/><circle class="cls-14" cx="343.56" cy="148.2" r="0.49"/><path class="cls-9" d="M316.61,250.07a1.41,1.41,0,0,0,1.18-.79,1.47,1.47,0,0,0-.07-1.46l-1.12-1.72a.49.49,0,0,0-.67-.14l-1.84,2.56a.49.49,0,0,0,0,.69A3.44,3.44,0,0,0,316.61,250.07Z"/><path class="cls-10" d="M310.65,243.25l3.1-.65a.48.48,0,0,0,.14-.67l-1.17-1.81a1.52,1.52,0,0,0-1.31-.67,1.39,1.39,0,0,0-1.18.74A3.39,3.39,0,0,0,310,243,.49.49,0,0,0,310.65,243.25Z"/><path class="cls-10" d="M320.32,244.55a3.63,3.63,0,0,0,2.74-1c.54-.38.88-.45.4-1.2a3.41,3.41,0,0,0-2-1.8,3,3,0,0,0-.79,0,2.46,2.46,0,0,0,.17-.5,4.51,4.51,0,0,0-1-3.23.5.5,0,0,0-.68-.14c-1.43.94-2.23,1.84-2.42,2.82-.25,1.22.43,1.9,1,2.91A4.45,4.45,0,0,0,320.32,244.55Z"/><path class="cls-9" d="M321.42,240.6a3,3,0,0,0-.79,0l0,0-2.9,1.88h0a4.47,4.47,0,0,0,2.57,2.15,3.63,3.63,0,0,0,2.74-1c.54-.38.88-.45.4-1.2A3.41,3.41,0,0,0,321.42,240.6Z"/><path class="cls-11" d="M309.83,249.59l-1.05-1.37-1.3-1.68-.29-1.9c1.64-2.38,4.75-3.26,11-3a.59.59,0,0,1,.5.76c-2.39,6-4.56,8.33-7.48,8.8Z"/><path class="cls-12" d="M318.63,241.83l-9.85,6.39h0l1.05,1.37,1.42,1.58c2.92-.47,5.09-2.84,7.48-8.8A.56.56,0,0,0,318.63,241.83Z"/><path class="cls-13" d="M305.75,250.18a1.48,1.48,0,0,1-.2-1.09,15.48,15.48,0,0,1,1-3.37,8.13,8.13,0,0,1,.61-1.08,4.4,4.4,0,0,1,4,2,4.32,4.32,0,0,1,.06,4.5,8.65,8.65,0,0,1-1.25.08,16.33,16.33,0,0,1-3.33-.43A1.53,1.53,0,0,1,305.75,250.18Z"/><path class="cls-10" d="M311.18,246.66l-5.42,3.53a1.54,1.54,0,0,0,.91.63,16.33,16.33,0,0,0,3.33.43,8.65,8.65,0,0,0,1.25-.08,4.31,4.31,0,0,0-.07-4.51Z"/><path class="cls-10" d="M312.63,247.58a4.86,4.86,0,0,0-.64-1.43,5.26,5.26,0,0,0-1-1.22.49.49,0,0,1,.63-.74,6.5,6.5,0,0,1,1.23,1.43,5.87,5.87,0,0,1,.76,1.71.5.5,0,0,1-.35.6A.48.48,0,0,1,312.63,247.58Z"/><path class="cls-10" d="M312.81,245.61l-.82.53h0a4.86,4.86,0,0,1,.64,1.43.48.48,0,0,0,.59.35.5.5,0,0,0,.35-.6,5.87,5.87,0,0,0-.76-1.71Z"/><circle class="cls-14" cx="308.44" cy="247.79" r="0.49"/><path class="cls-4" d="M246.9,281.77a2.22,2.22,0,0,0,3.13-.11.43.43,0,0,0,0-.62l-2.59-2.42a.43.43,0,0,0-.62,0A2.22,2.22,0,0,0,246.9,281.77Z"/><path class="cls-5" d="M248.71,279.83,250,281a.43.43,0,0,1,0,.62,2.22,2.22,0,0,1-3.13.11Z"/><path class="cls-6" d="M243.29,285.64a.4.4,0,0,0,.22.12c.1,0,2.36.36,3.5-.87s.65-3.45.63-3.55a.38.38,0,0,0-.13-.22.43.43,0,0,0-.23-.12c-.1,0-2.35-.35-3.5.87s-.64,3.45-.63,3.55A.4.4,0,0,0,243.29,285.64Z"/><path class="cls-4" d="M247.51,281.12a.38.38,0,0,1,.13.22c0,.1.52,2.32-.63,3.55s-3.4.88-3.5.87a.4.4,0,0,1-.22-.12Z"/><path class="cls-7" d="M244.47,283.73a.45.45,0,0,1,.63,0,.45.45,0,1,1-.61.65A.43.43,0,0,1,244.47,283.73Z"/><path class="cls-8" d="M245.1,283.7a.45.45,0,1,1-.61.65Z"/><path class="cls-9" d="M142.85,307.11a1.39,1.39,0,0,0,1.39-.3,1.43,1.43,0,0,0,.47-1.38l-.4-2a.49.49,0,0,0-.57-.39l-2.66,1.71a.48.48,0,0,0-.22.65A3.42,3.42,0,0,0,142.85,307.11Z"/><path class="cls-10" d="M139.84,298.57l3.11.54a.48.48,0,0,0,.38-.57l-.42-2.12a1.46,1.46,0,0,0-1-1.1,1.37,1.37,0,0,0-1.37.25,3.4,3.4,0,0,0-1.21,2.5A.5.5,0,0,0,139.84,298.57Z"/><path class="cls-10" d="M148.34,303.35a3.63,3.63,0,0,0,2.9.13c.64-.16,1-.1.81-1a3.44,3.44,0,0,0-1.24-2.42,2.58,2.58,0,0,0-.71-.33,1.91,1.91,0,0,0,.34-.4,4.42,4.42,0,0,0,.3-3.36.49.49,0,0,0-.57-.38c-1.67.34-2.76.88-3.3,1.72-.68,1.05-.3,1.92-.13,3.09A4.44,4.44,0,0,0,148.34,303.35Z"/><path class="cls-9" d="M150.81,300.08a2.58,2.58,0,0,0-.71-.33l0,0-3.39.68h0a4.49,4.49,0,0,0,1.6,3,3.63,3.63,0,0,0,2.9.13c.64-.16,1-.1.81-1A3.44,3.44,0,0,0,150.81,300.08Z"/><path class="cls-11" d="M136.73,304.16l-.47-1.66-.59-2.05.44-1.87c2.4-1.61,5.61-1.28,11.37,1.27a.58.58,0,0,1,.18.89c-4.42,4.65-7.31,6.05-10.19,5.41Z"/><path class="cls-12" d="M147.77,300.19l-11.51,2.31h0l.47,1.66.74,2c2.88.64,5.77-.76,10.19-5.41A.57.57,0,0,0,147.77,300.19Z"/><path class="cls-13" d="M132.72,303.2a1.47,1.47,0,0,1,.22-1.09,15.44,15.44,0,0,1,2.2-2.75,9,9,0,0,1,1-.78,4.4,4.4,0,0,1,3,3.36,4.33,4.33,0,0,1-1.6,4.21,7.86,7.86,0,0,1-1.19-.38,17,17,0,0,1-2.94-1.64A1.51,1.51,0,0,1,132.72,303.2Z"/><path class="cls-10" d="M139.07,301.94l-6.34,1.27a1.44,1.44,0,0,0,.61.92,17,17,0,0,0,2.94,1.64,7.86,7.86,0,0,0,1.19.38,4.32,4.32,0,0,0,1.6-4.21Z"/><path class="cls-10" d="M140.07,303.33a5.47,5.47,0,0,0-.58-3.09.49.49,0,0,1,.2-.65.5.5,0,0,1,.66.2,6.42,6.42,0,0,1,.62,1.77,5.91,5.91,0,0,1,.06,1.88.48.48,0,0,1-.53.42A.47.47,0,0,1,140.07,303.33Z"/><path class="cls-10" d="M141,301.56l-1,.19h0a5.14,5.14,0,0,1,.06,1.57.47.47,0,0,0,.43.53.48.48,0,0,0,.53-.42,5.91,5.91,0,0,0-.06-1.88Z"/><circle class="cls-14" cx="136.1" cy="301.97" r="0.49"/><path class="cls-4" d="M129,295.18a2.21,2.21,0,0,0,2.7,1.58.45.45,0,0,0,.32-.54l-.91-3.42a.44.44,0,0,0-.54-.32A2.23,2.23,0,0,0,129,295.18Z"/><path class="cls-5" d="M131.53,294.51l.45,1.71a.45.45,0,0,1-.32.54,2.21,2.21,0,0,1-2.7-1.58Z"/><path class="cls-6" d="M123.84,296.54a.38.38,0,0,0,.13.22c.08.06,1.8,1.55,3.42,1.13s2.38-2.58,2.42-2.67a.39.39,0,0,0,0-.26.41.41,0,0,0-.13-.22c-.08-.06-1.8-1.56-3.43-1.13s-2.38,2.58-2.42,2.67A.39.39,0,0,0,123.84,296.54Z"/><path class="cls-4" d="M129.82,295a.39.39,0,0,1,0,.26c0,.09-.8,2.24-2.42,2.67s-3.34-1.07-3.42-1.13a.38.38,0,0,1-.13-.22Z"/><path class="cls-7" d="M125.86,295.55a.43.43,0,0,1,.54.31.44.44,0,0,1-.32.54.44.44,0,0,1-.54-.31A.44.44,0,0,1,125.86,295.55Z"/><path class="cls-8" d="M126.4,295.86a.44.44,0,0,1-.32.54.44.44,0,0,1-.54-.31Z"/><path class="cls-4" d="M258.31,204.56a2.22,2.22,0,0,0,2.49,1.89.44.44,0,0,0,.38-.5l-.48-3.5a.43.43,0,0,0-.49-.38A2.22,2.22,0,0,0,258.31,204.56Z"/><path class="cls-5" d="M260.94,204.2l.24,1.75a.44.44,0,0,1-.38.5,2.22,2.22,0,0,1-2.49-1.89Z"/><path class="cls-6" d="M253.06,205.27a.43.43,0,0,0,.1.24c.07.07,1.6,1.76,3.26,1.53s2.68-2.26,2.73-2.35a.35.35,0,0,0,0-.25.43.43,0,0,0-.1-.24c-.08-.07-1.6-1.76-3.26-1.54s-2.68,2.27-2.73,2.36A.35.35,0,0,0,253.06,205.27Z"/><path class="cls-4" d="M259.19,204.44a.35.35,0,0,1,0,.25c0,.09-1.06,2.13-2.73,2.35s-3.19-1.46-3.26-1.53a.43.43,0,0,1-.1-.24Z"/><path class="cls-7" d="M255.19,204.54a.44.44,0,1,1-.38.49A.43.43,0,0,1,255.19,204.54Z"/><path class="cls-8" d="M255.69,204.91a.44.44,0,0,1-.38.5.44.44,0,0,1-.5-.38Z"/><path class="cls-4" d="M109.31,386.56a2.22,2.22,0,0,0,2.49,1.89.44.44,0,0,0,.38-.5l-.48-3.5a.43.43,0,0,0-.49-.38A2.22,2.22,0,0,0,109.31,386.56Z"/><path class="cls-5" d="M111.94,386.2l.24,1.75a.44.44,0,0,1-.38.5,2.22,2.22,0,0,1-2.49-1.89Z"/><path class="cls-6" d="M104.06,387.27a.43.43,0,0,0,.1.24c.07.07,1.6,1.76,3.26,1.53s2.68-2.26,2.73-2.35a.35.35,0,0,0,0-.25.43.43,0,0,0-.1-.24c-.08-.07-1.6-1.76-3.26-1.54s-2.68,2.27-2.73,2.36A.35.35,0,0,0,104.06,387.27Z"/><path class="cls-4" d="M110.19,386.44a.35.35,0,0,1,0,.25c-.05.09-1.06,2.13-2.73,2.35s-3.19-1.46-3.26-1.53a.43.43,0,0,1-.1-.24Z"/><path class="cls-7" d="M106.19,386.54a.44.44,0,1,1-.38.49A.43.43,0,0,1,106.19,386.54Z"/><path class="cls-8" d="M106.69,386.91a.44.44,0,0,1-.38.5.44.44,0,0,1-.5-.38Z"/><path class="cls-4" d="M114.31,378.56a2.22,2.22,0,0,0,2.49,1.89.44.44,0,0,0,.38-.5l-.48-3.5a.43.43,0,0,0-.49-.38A2.22,2.22,0,0,0,114.31,378.56Z"/><path class="cls-5" d="M116.94,378.2l.24,1.75a.44.44,0,0,1-.38.5,2.22,2.22,0,0,1-2.49-1.89Z"/><path class="cls-6" d="M109.06,379.27a.43.43,0,0,0,.1.24c.07.07,1.6,1.76,3.26,1.53s2.68-2.26,2.73-2.35a.35.35,0,0,0,0-.25.43.43,0,0,0-.1-.24c-.08-.07-1.6-1.76-3.26-1.54s-2.68,2.27-2.73,2.36A.35.35,0,0,0,109.06,379.27Z"/><path class="cls-4" d="M115.19,378.44a.35.35,0,0,1,0,.25c-.05.09-1.06,2.13-2.73,2.35s-3.19-1.46-3.26-1.53a.43.43,0,0,1-.1-.24Z"/><path class="cls-7" d="M111.19,378.54a.44.44,0,1,1-.38.49A.43.43,0,0,1,111.19,378.54Z"/><path class="cls-8" d="M111.69,378.91a.44.44,0,0,1-.38.5.44.44,0,0,1-.5-.38Z"/><path class="cls-4" d="M77.9,352.77a2.22,2.22,0,0,0,3.13-.11.43.43,0,0,0,0-.62l-2.59-2.42a.43.43,0,0,0-.62,0A2.22,2.22,0,0,0,77.9,352.77Z"/><path class="cls-5" d="M79.71,350.83,81,352a.43.43,0,0,1,0,.62,2.22,2.22,0,0,1-3.13.11Z"/><path class="cls-6" d="M74.29,356.64a.4.4,0,0,0,.22.12c.1,0,2.36.36,3.5-.87s.65-3.45.63-3.55a.38.38,0,0,0-.13-.22.43.43,0,0,0-.23-.12c-.1,0-2.35-.35-3.5.87s-.64,3.45-.63,3.55A.4.4,0,0,0,74.29,356.64Z"/><path class="cls-4" d="M78.51,352.12a.38.38,0,0,1,.13.22c0,.1.52,2.32-.63,3.55s-3.4.88-3.5.87a.4.4,0,0,1-.22-.12Z"/><path class="cls-7" d="M75.47,354.73a.45.45,0,0,1,.63,0,.45.45,0,1,1-.61.65A.43.43,0,0,1,75.47,354.73Z"/><path class="cls-8" d="M76.1,354.7a.45.45,0,1,1-.61.65Z"/><path class="cls-4" d="M104.93,456a1.15,1.15,0,0,0-2,.43l-.4,1.44a1.17,1.17,0,0,0,1.54,1.41,2.23,2.23,0,0,0,1.22-1.44A2.16,2.16,0,0,0,104.93,456Z"/><path class="cls-5" d="M104.69,458.84a2.23,2.23,0,0,1-.65.45,1.17,1.17,0,0,1-1.54-1.41h0a.73.73,0,0,1,.9-.52l1,.26A.74.74,0,0,1,104.69,458.84Z"/><path class="cls-6" d="M110.37,459c0-.09-.78-2.25-2.4-2.69s-3.35,1-3.43,1.1a.42.42,0,0,0-.13.22.39.39,0,0,0,0,.26c0,.09.78,2.25,2.4,2.69s3.35-1,3.43-1.1a.52.52,0,0,0,.14-.22A.46.46,0,0,0,110.37,459Z"/><path class="cls-4" d="M110.38,459.25a.52.52,0,0,1-.14.22c-.08.06-1.81,1.54-3.43,1.1s-2.36-2.6-2.4-2.69a.39.39,0,0,1,0-.26Z"/><path class="cls-7" d="M108.67,458.78a.44.44,0,1,1-.31-.54A.44.44,0,0,1,108.67,458.78Z"/><path class="cls-8" d="M108.67,458.78a.44.44,0,0,1-.85-.23Z"/><path class="cls-4" d="M117.41,461.5a1.16,1.16,0,0,0-1.85.95V464a1.16,1.16,0,0,0,1.85.95,2.18,2.18,0,0,0,.8-1.7A2.21,2.21,0,0,0,117.41,461.5Z"/><path class="cls-5" d="M117.92,464.3a2,2,0,0,1-.51.6,1.16,1.16,0,0,1-1.85-.95h0a.74.74,0,0,1,.73-.74h1A.74.74,0,0,1,117.92,464.3Z"/><path class="cls-6" d="M123.44,463c-.06-.08-1.34-2-3-2s-3,1.89-3,2a.42.42,0,0,0-.07.24.43.43,0,0,0,.07.25c.06.08,1.34,2,3,2s3-1.88,3-2a.43.43,0,0,0,0-.5Z"/><path class="cls-4" d="M123.52,463.2a.38.38,0,0,1-.08.25c-.06.08-1.34,2-3,2s-3-1.88-3-2a.43.43,0,0,1-.07-.25Z"/><path class="cls-7" d="M121.75,463.2a.45.45,0,1,1-.44-.44A.44.44,0,0,1,121.75,463.2Z"/><path class="cls-8" d="M121.75,463.2a.45.45,0,0,1-.89,0Z"/><path class="cls-4" d="M107.74,469.16a1.16,1.16,0,0,0-2,.62l-.26,1.47a1.16,1.16,0,0,0,1.66,1.26,2.21,2.21,0,0,0,.59-3.35Z"/><path class="cls-5" d="M107.75,472a2.22,2.22,0,0,1-.6.5,1.16,1.16,0,0,1-1.66-1.26h0a.74.74,0,0,1,.85-.6l1,.17A.74.74,0,0,1,107.75,472Z"/><path class="cls-6" d="M113.43,471.63c-.05-.09-1-2.16-2.64-2.45s-3.24,1.34-3.32,1.41a.45.45,0,0,0-.11.23.46.46,0,0,0,0,.26c0,.09,1,2.16,2.64,2.45s3.24-1.34,3.31-1.41a.4.4,0,0,0,.12-.23A.46.46,0,0,0,113.43,471.63Z"/><path class="cls-4" d="M113.46,471.89a.4.4,0,0,1-.12.23c-.07.07-1.66,1.7-3.31,1.41s-2.59-2.36-2.64-2.45a.46.46,0,0,1,0-.26Z"/><path class="cls-7" d="M111.71,471.58a.42.42,0,0,1-.51.36.44.44,0,0,1-.36-.51.45.45,0,0,1,.52-.36A.43.43,0,0,1,111.71,471.58Z"/><path class="cls-8" d="M111.71,471.58a.42.42,0,0,1-.51.36.44.44,0,0,1-.36-.51Z"/><path class="cls-4" d="M263.41,474.5a1.16,1.16,0,0,0-1.85.95V477a1.16,1.16,0,0,0,1.85.95,2.18,2.18,0,0,0,.8-1.7A2.21,2.21,0,0,0,263.41,474.5Z"/><path class="cls-5" d="M263.92,477.3a2,2,0,0,1-.51.6,1.16,1.16,0,0,1-1.85-.95h0a.74.74,0,0,1,.73-.74h1A.74.74,0,0,1,263.92,477.3Z"/><path class="cls-6" d="M269.44,476c-.06-.08-1.34-2-3-2s-3,1.89-3,2a.42.42,0,0,0-.07.24.43.43,0,0,0,.07.25c.06.08,1.34,2,3,2s3-1.88,3-2a.43.43,0,0,0,0-.5Z"/><path class="cls-4" d="M269.52,476.2a.38.38,0,0,1-.08.25c-.06.08-1.34,2-3,2s-3-1.88-3-2a.43.43,0,0,1-.07-.25Z"/><path class="cls-7" d="M267.75,476.2a.45.45,0,1,1-.44-.44A.44.44,0,0,1,267.75,476.2Z"/><path class="cls-8" d="M267.75,476.2a.45.45,0,0,1-.89,0Z"/><path class="cls-4" d="M253.74,465.16a1.16,1.16,0,0,0-2,.62l-.26,1.47a1.16,1.16,0,0,0,1.66,1.26,2.21,2.21,0,0,0,.59-3.35Z"/><path class="cls-5" d="M253.75,468a2.22,2.22,0,0,1-.6.5,1.16,1.16,0,0,1-1.66-1.26h0a.74.74,0,0,1,.85-.6l1,.17A.74.74,0,0,1,253.75,468Z"/><path class="cls-6" d="M259.43,467.63c-.05-.09-1-2.16-2.64-2.45s-3.24,1.34-3.32,1.41a.45.45,0,0,0-.11.23.46.46,0,0,0,0,.26c.05.09,1,2.16,2.64,2.45s3.24-1.34,3.31-1.41a.4.4,0,0,0,.12-.23A.46.46,0,0,0,259.43,467.63Z"/><path class="cls-4" d="M259.46,467.89a.4.4,0,0,1-.12.23c-.07.07-1.66,1.7-3.31,1.41s-2.59-2.36-2.64-2.45a.46.46,0,0,1,0-.26Z"/><path class="cls-7" d="M257.71,467.58a.42.42,0,0,1-.51.36.44.44,0,0,1-.36-.51.45.45,0,0,1,.52-.36A.43.43,0,0,1,257.71,467.58Z"/><path class="cls-8" d="M257.71,467.58a.42.42,0,0,1-.51.36.44.44,0,0,1-.36-.51Z"/><path class="cls-9" d="M153.78,431.3a.47.47,0,0,0-.38-.57l-3-1a.5.5,0,0,0-.46.52l.14,2a1.45,1.45,0,0,0,.81,1.22,1.42,1.42,0,0,0,1.42-.08A3.37,3.37,0,0,0,153.78,431.3Z"/><path class="cls-10" d="M153.33,423.84a3.35,3.35,0,0,0-1.81-2.1,1.39,1.39,0,0,0-1.39.11,1.48,1.48,0,0,0-.64,1.32l.13,2.16a.49.49,0,0,0,.52.45l2.87-1.34A.48.48,0,0,0,153.33,423.84Z"/><path class="cls-10" d="M146.82,428c-.14-1.17,0-2.11-.93-2.95-.74-.67-1.92-.91-3.63-.81a.51.51,0,0,0-.46.52,4.46,4.46,0,0,0,1.16,3.16,2.09,2.09,0,0,0,.44.31,2.46,2.46,0,0,0-.6.5,3.42,3.42,0,0,0-.57,2.66c.06.89.38.75,1,.73a3.57,3.57,0,0,0,2.76-.88A4.47,4.47,0,0,0,146.82,428Z"/><path class="cls-9" d="M142.23,431.41c.06.89.38.75,1,.73a3.57,3.57,0,0,0,2.76-.88,4.41,4.41,0,0,0,.78-3.26h0l-3.45.23,0,0a2.46,2.46,0,0,0-.6.5A3.42,3.42,0,0,0,142.23,431.41Z"/><path class="cls-11" d="M157.26,431.16c-2.62,1.36-5.78.75-11.25-2.59a.59.59,0,0,1-.06-.91c4.91-4,7.93-5.1,10.67-4.17l.9,1.7,0,2.13,0,1.72Z"/><path class="cls-12" d="M146,428.57c5.47,3.34,8.63,3.95,11.25,2.59l.19-2.12,0-1.72h0l-11.72.75A.59.59,0,0,0,146,428.57Z"/><path class="cls-13" d="M160.73,428.14a17.27,17.27,0,0,1-2.42,2.34,9.44,9.44,0,0,1-1.05.68,4.35,4.35,0,0,1-.64-7.67,8.72,8.72,0,0,1,1.13.51,15.45,15.45,0,0,1,2.84,2.08,1.48,1.48,0,0,1,.49,1A1.56,1.56,0,0,1,160.73,428.14Z"/><path class="cls-10" d="M154.62,427.5a4.37,4.37,0,0,0,2.64,3.66,9.44,9.44,0,0,0,1.05-.68,17.27,17.27,0,0,0,2.42-2.34,1.54,1.54,0,0,0,.35-1.06l-6.46.42Z"/><path class="cls-10" d="M153.74,429.73a.49.49,0,0,1-.63-.27,6.27,6.27,0,0,1-.28-3.7.49.49,0,0,1,.95.21,5.54,5.54,0,0,0,.23,3.13A.48.48,0,0,1,153.74,429.73Z"/><path class="cls-10" d="M152.69,427.63a6.16,6.16,0,0,0,.42,1.83.49.49,0,0,0,.63.27.48.48,0,0,0,.27-.63,5.06,5.06,0,0,1-.34-1.53h0l-1,.06Z"/><circle class="cls-14" cx="157.5" cy="426.77" r="0.49"/><path class="cls-4" d="M380.44,562.42a.42.42,0,0,0-.51.35l-.62,3.49a.44.44,0,0,0,.36.51,2.21,2.21,0,0,0,.77-4.35Z"/><path class="cls-5" d="M382.23,565a2.21,2.21,0,0,1-2.56,1.8.44.44,0,0,1-.36-.51l.31-1.74Z"/><path class="cls-6" d="M387.43,565.63c-.05-.09-1-2.16-2.64-2.45s-3.24,1.34-3.32,1.41a.45.45,0,0,0-.11.23.46.46,0,0,0,0,.26c.05.09,1,2.16,2.64,2.45s3.24-1.34,3.31-1.41a.4.4,0,0,0,.12-.23A.46.46,0,0,0,387.43,565.63Z"/><path class="cls-4" d="M387.46,565.89a.4.4,0,0,1-.12.23c-.07.07-1.66,1.7-3.31,1.41s-2.59-2.36-2.64-2.45a.46.46,0,0,1,0-.26Z"/><path class="cls-7" d="M385.71,565.58a.42.42,0,0,1-.51.36.44.44,0,0,1-.36-.51.45.45,0,0,1,.52-.36A.43.43,0,0,1,385.71,565.58Z"/><path class="cls-8" d="M385.71,565.58a.42.42,0,0,1-.51.36.44.44,0,0,1-.36-.51Z"/><path class="cls-9" d="M389,582.53a.49.49,0,0,0-.12-.68l-2.35-2.1a.47.47,0,0,0-.62.28L385.2,582a1.48,1.48,0,0,0,.24,1.45,1.42,1.42,0,0,0,1.33.51A3.44,3.44,0,0,0,389,582.53Z"/><path class="cls-10" d="M391.65,575.54a3.38,3.38,0,0,0-.79-2.66,1.4,1.4,0,0,0-1.32-.46,1.46,1.46,0,0,0-1.12.93l-.76,2a.47.47,0,0,0,.28.62l3.17,0A.49.49,0,0,0,391.65,575.54Z"/><path class="cls-10" d="M384,576.68c.36-1.12.87-1.92.36-3.07-.39-.91-1.38-1.62-3-2.22a.5.5,0,0,0-.63.28,4.47,4.47,0,0,0-.24,3.37,3,3,0,0,0,.27.45,2.61,2.61,0,0,0-.75.22,3.39,3.39,0,0,0-1.61,2.19c-.31.84,0,.83.65,1.09a3.58,3.58,0,0,0,2.88.33A4.46,4.46,0,0,0,384,576.68Z"/><path class="cls-9" d="M378.42,577.9c-.31.84,0,.83.65,1.09a3.58,3.58,0,0,0,2.88.33,4.46,4.46,0,0,0,2.05-2.65h0l-3.24-1.21,0,0a2.61,2.61,0,0,0-.75.22A3.39,3.39,0,0,0,378.42,577.9Z"/><path class="cls-11" d="M392.24,583.82c-2.95.17-5.58-1.67-9.2-7a.58.58,0,0,1,.31-.85c6.09-1.59,9.32-1.4,11.44.57l.12,1.91-.9,1.93-.73,1.56Z"/><path class="cls-12" d="M383,576.85c3.62,5.3,6.25,7.14,9.2,7l1-1.85.73-1.56h0l-11-4.11A.56.56,0,0,0,383,576.85Z"/><path class="cls-13" d="M396.63,582.49a16.11,16.11,0,0,1-3.16,1.14,8.5,8.5,0,0,1-1.23.19,4.3,4.3,0,0,1-.91-4.41,4.35,4.35,0,0,1,3.46-2.84,7.18,7.18,0,0,1,.82.92,15.4,15.4,0,0,1,1.74,3.06,1.43,1.43,0,0,1,0,1.11A1.5,1.5,0,0,1,396.63,582.49Z"/><path class="cls-10" d="M391.33,579.41a4.31,4.31,0,0,0,.91,4.41,8.5,8.5,0,0,0,1.23-.19,16.11,16.11,0,0,0,3.16-1.14,1.49,1.49,0,0,0,.76-.82l-6.06-2.26Z"/><path class="cls-10" d="M389.61,581.08a.48.48,0,0,1-.46-.5,5.9,5.9,0,0,1,.36-1.84,6.62,6.62,0,0,1,.89-1.66.49.49,0,1,1,.78.59,5,5,0,0,0-.75,1.41,5,5,0,0,0-.32,1.54A.47.47,0,0,1,389.61,581.08Z"/><path class="cls-10" d="M389.51,578.74a5.9,5.9,0,0,0-.36,1.84.48.48,0,0,0,.46.5.47.47,0,0,0,.5-.46,5,5,0,0,1,.32-1.54h0l-.91-.34Z"/><circle class="cls-14" cx="394.25" cy="579.92" r="0.49"/><path class="cls-4" d="M276.55,522.16a.47.47,0,0,0-.59.33l-1.4,3.82a.47.47,0,0,0,.24.63,2.57,2.57,0,0,0,1.75-4.78Z"/><path class="cls-5" d="M277.75,525.31a2.4,2.4,0,0,1-2.95,1.63.47.47,0,0,1-.24-.63l.7-1.91Z"/><path class="cls-6" d="M282.76,526.84c0-.11-.49-2.58-2.06-3.16s-3.53,1-3.62,1.08a.47.47,0,0,0-.16.25.41.41,0,0,0,0,.29c0,.1.48,2.58,2.06,3.16s3.52-1,3.61-1.08a.56.56,0,0,0,.17-.25A.57.57,0,0,0,282.76,526.84Z"/><path class="cls-4" d="M282.73,527.13a.56.56,0,0,1-.17.25c-.09.06-2,1.66-3.61,1.08s-2-3.06-2.06-3.16a.41.41,0,0,1,0-.29Z"/><path class="cls-7" d="M281.07,526.53a.47.47,0,0,1-.59.32.46.46,0,0,1-.24-.63.46.46,0,0,1,.59-.32A.48.48,0,0,1,281.07,526.53Z"/><path class="cls-8" d="M281.07,526.53a.47.47,0,0,1-.59.32.46.46,0,0,1-.24-.63Z"/><path class="cls-4" d="M266.32,511.79a.43.43,0,0,0-.57.26l-1.22,3.32a.44.44,0,0,0,.27.57,2.21,2.21,0,0,0,1.52-4.15Z"/><path class="cls-5" d="M267.63,514.62a2.21,2.21,0,0,1-2.83,1.32.44.44,0,0,1-.27-.57l.61-1.66Z"/><path class="cls-6" d="M272.63,516.19c0-.09-.59-2.3-2.16-2.88s-3.43.75-3.52.8a.48.48,0,0,0-.17.47c0,.09.59,2.3,2.17,2.88s3.42-.75,3.51-.8a.45.45,0,0,0,.15-.21A.39.39,0,0,0,272.63,516.19Z"/><path class="cls-4" d="M272.61,516.45a.45.45,0,0,1-.15.21c-.09.05-1.94,1.38-3.51.8s-2.14-2.79-2.17-2.88a.46.46,0,0,1,0-.26Z"/><path class="cls-7" d="M271,515.84a.44.44,0,0,1-.83-.3.45.45,0,0,1,.57-.27A.44.44,0,0,1,271,515.84Z"/><path class="cls-8" d="M271,515.84a.44.44,0,0,1-.83-.3Z"/><path class="cls-4" d="M255.32,516.79a.43.43,0,0,0-.57.26l-1.22,3.32a.44.44,0,0,0,.27.57,2.21,2.21,0,0,0,1.52-4.15Z"/><path class="cls-5" d="M256.63,519.62a2.21,2.21,0,0,1-2.83,1.32.44.44,0,0,1-.27-.57l.61-1.66Z"/><path class="cls-6" d="M261.63,521.19c0-.09-.59-2.3-2.16-2.88s-3.43.75-3.52.8a.48.48,0,0,0-.17.47c0,.09.59,2.3,2.17,2.88s3.42-.75,3.51-.8a.45.45,0,0,0,.15-.21A.39.39,0,0,0,261.63,521.19Z"/><path class="cls-4" d="M261.61,521.45a.45.45,0,0,1-.15.21c-.09.05-1.94,1.38-3.51.8s-2.14-2.79-2.17-2.88a.46.46,0,0,1,0-.26Z"/><path class="cls-7" d="M260,520.84a.44.44,0,0,1-.83-.3.45.45,0,0,1,.57-.27A.44.44,0,0,1,260,520.84Z"/><path class="cls-8" d="M260,520.84a.44.44,0,0,1-.83-.3Z"/><path class="cls-9" d="M506.43,561.58a.49.49,0,0,0,0-.68l-1.95-2.49a.48.48,0,0,0-.66.17l-1.05,1.77a1.46,1.46,0,0,0,0,1.46,1.42,1.42,0,0,0,1.22.74A3.4,3.4,0,0,0,506.43,561.58Z"/><path class="cls-10" d="M510.26,555.17a3.39,3.39,0,0,0-.31-2.76,1.38,1.38,0,0,0-1.21-.68,1.49,1.49,0,0,0-1.28.72l-1.1,1.86a.48.48,0,0,0,.17.66l3.12.52A.48.48,0,0,0,510.26,555.17Z"/><path class="cls-10" d="M502.52,555c.55-1,1.2-1.74.9-3-.23-1-1.07-1.84-2.54-2.72a.51.51,0,0,0-.67.17,4.49,4.49,0,0,0-.83,3.27.43.43,0,1,1-.59.57,3.45,3.45,0,0,0-2,1.88c-.45.77-.11.83.45,1.19a3.6,3.6,0,0,0,2.78.83A4.44,4.44,0,0,0,502.52,555Z"/><path class="cls-9" d="M496.82,555.16c-.45.77-.11.83.45,1.19a3.59,3.59,0,0,0,2.78.83,4.43,4.43,0,0,0,2.48-2.25h0l-3-1.76,0,0a2.5,2.5,0,0,0-.78.07A3.45,3.45,0,0,0,496.82,555.16Z"/><path class="cls-11" d="M509.38,563.43c-2.94-.35-5.2-2.63-7.83-8.49a.58.58,0,0,1,.46-.78c6.28-.49,9.42.26,11.16,2.58l-.22,1.91-1.23,1.73-1,1.41Z"/><path class="cls-12" d="M501.55,554.94c2.63,5.86,4.89,8.14,7.83,8.49l1.35-1.64,1-1.41h0l-10.11-6A.56.56,0,0,0,501.55,554.94Z"/><path class="cls-13" d="M513.94,562.89a16.27,16.27,0,0,1-3.31.57,8.66,8.66,0,0,1-1.25,0,4.34,4.34,0,0,1,3.79-6.69,9.24,9.24,0,0,1,.65,1,16,16,0,0,1,1.17,3.32,1.43,1.43,0,0,1-.16,1.1A1.5,1.5,0,0,1,513.94,562.89Z"/><path class="cls-10" d="M509.26,558.92a4.34,4.34,0,0,0,.12,4.51,8.66,8.66,0,0,0,1.25,0,16.27,16.27,0,0,0,3.31-.57,1.48,1.48,0,0,0,.89-.67l-5.57-3.3Z"/><path class="cls-10" d="M507.28,560.27a.48.48,0,0,1-.37-.58,6.07,6.07,0,0,1,.68-1.75,6.7,6.7,0,0,1,1.17-1.47.49.49,0,0,1,.69,0,.48.48,0,0,1,0,.68,5.45,5.45,0,0,0-1,1.26,5.3,5.3,0,0,0-.58,1.46A.48.48,0,0,1,507.28,560.27Z"/><path class="cls-10" d="M507.59,557.94a6.07,6.07,0,0,0-.68,1.75.48.48,0,0,0,.37.58.48.48,0,0,0,.57-.37,5.3,5.3,0,0,1,.58-1.46h0l-.84-.49Z"/><circle class="cls-14" cx="512.05" cy="559.94" r="0.49"/><path class="cls-4" d="M518.44,609.42a.42.42,0,0,0-.51.35l-.62,3.49a.44.44,0,0,0,.36.51,2.21,2.21,0,0,0,.77-4.35Z"/><path class="cls-5" d="M520.23,612a2.21,2.21,0,0,1-2.56,1.8.44.44,0,0,1-.36-.51l.31-1.74Z"/><path class="cls-6" d="M525.43,612.63c0-.09-1-2.16-2.64-2.45s-3.24,1.34-3.32,1.41a.45.45,0,0,0-.11.23.46.46,0,0,0,0,.26c.05.09,1,2.16,2.64,2.45s3.24-1.34,3.31-1.41a.4.4,0,0,0,.12-.23A.46.46,0,0,0,525.43,612.63Z"/><path class="cls-4" d="M525.46,612.89a.4.4,0,0,1-.12.23c-.07.07-1.66,1.7-3.31,1.41s-2.59-2.36-2.64-2.45a.46.46,0,0,1,0-.26Z"/><path class="cls-7" d="M523.71,612.58a.42.42,0,0,1-.51.36.44.44,0,0,1-.36-.51.45.45,0,0,1,.52-.36A.43.43,0,0,1,523.71,612.58Z"/><path class="cls-8" d="M523.71,612.58a.42.42,0,0,1-.51.36.44.44,0,0,1-.36-.51Z"/><path class="cls-9" d="M524,628.53a.49.49,0,0,0-.12-.68l-2.35-2.1a.47.47,0,0,0-.62.28L520.2,628a1.48,1.48,0,0,0,.24,1.45,1.42,1.42,0,0,0,1.33.51A3.44,3.44,0,0,0,524,628.53Z"/><path class="cls-10" d="M526.65,621.54a3.38,3.38,0,0,0-.79-2.66,1.4,1.4,0,0,0-1.32-.46,1.46,1.46,0,0,0-1.12.93l-.76,2a.47.47,0,0,0,.28.62l3.17,0A.49.49,0,0,0,526.65,621.54Z"/><path class="cls-10" d="M519,622.68c.36-1.12.87-1.92.36-3.07-.39-.91-1.38-1.62-3-2.22a.5.5,0,0,0-.63.28,4.47,4.47,0,0,0-.24,3.37,3,3,0,0,0,.27.45,2.61,2.61,0,0,0-.75.22,3.39,3.39,0,0,0-1.61,2.19c-.31.84,0,.83.65,1.09a3.58,3.58,0,0,0,2.88.33A4.46,4.46,0,0,0,519,622.68Z"/><path class="cls-9" d="M513.42,623.9c-.31.84,0,.83.65,1.09a3.58,3.58,0,0,0,2.88.33,4.46,4.46,0,0,0,2-2.65h0l-3.24-1.21,0,0a2.61,2.61,0,0,0-.75.22A3.39,3.39,0,0,0,513.42,623.9Z"/><path class="cls-11" d="M527.24,629.82c-3,.17-5.58-1.67-9.2-7a.58.58,0,0,1,.31-.85c6.09-1.59,9.32-1.4,11.44.57l.12,1.91-.9,1.93-.73,1.56Z"/><path class="cls-12" d="M518,622.85c3.62,5.3,6.25,7.14,9.2,7l1-1.85.73-1.56h0l-11-4.11A.56.56,0,0,0,518,622.85Z"/><path class="cls-13" d="M531.63,628.49a16.11,16.11,0,0,1-3.16,1.14,8.5,8.5,0,0,1-1.23.19,4.3,4.3,0,0,1-.91-4.41,4.35,4.35,0,0,1,3.46-2.84,7.18,7.18,0,0,1,.82.92,15.4,15.4,0,0,1,1.74,3.06,1.43,1.43,0,0,1,0,1.11A1.5,1.5,0,0,1,531.63,628.49Z"/><path class="cls-10" d="M526.33,625.41a4.31,4.31,0,0,0,.91,4.41,8.5,8.5,0,0,0,1.23-.19,16.11,16.11,0,0,0,3.16-1.14,1.49,1.49,0,0,0,.76-.82l-6.06-2.26Z"/><path class="cls-10" d="M524.61,627.08a.48.48,0,0,1-.46-.5,5.9,5.9,0,0,1,.36-1.84,6.62,6.62,0,0,1,.89-1.66.49.49,0,1,1,.78.59,5,5,0,0,0-.75,1.41,5,5,0,0,0-.32,1.54A.47.47,0,0,1,524.61,627.08Z"/><path class="cls-10" d="M524.51,624.74a5.9,5.9,0,0,0-.36,1.84.48.48,0,0,0,.46.5.47.47,0,0,0,.5-.46,5,5,0,0,1,.32-1.54h0l-.91-.34Z"/><circle class="cls-14" cx="529.25" cy="625.92" r="0.49"/><path class="cls-4" d="M765.55,650.16a.47.47,0,0,0-.59.33l-1.4,3.82a.47.47,0,0,0,.24.63,2.57,2.57,0,0,0,1.75-4.78Z"/><path class="cls-5" d="M766.75,653.31a2.4,2.4,0,0,1-3,1.63.47.47,0,0,1-.24-.63l.7-1.91Z"/><path class="cls-6" d="M771.76,654.84c0-.11-.49-2.58-2.06-3.16s-3.53,1-3.62,1.08a.47.47,0,0,0-.16.25.41.41,0,0,0,0,.29c0,.1.48,2.58,2.06,3.16s3.52-1,3.61-1.08a.56.56,0,0,0,.17-.25A.57.57,0,0,0,771.76,654.84Z"/><path class="cls-4" d="M771.73,655.13a.56.56,0,0,1-.17.25c-.09.06-2,1.66-3.61,1.08s-2-3.06-2.06-3.16a.41.41,0,0,1,0-.29Z"/><path class="cls-7" d="M770.07,654.53a.47.47,0,0,1-.59.32.46.46,0,0,1-.24-.63.46.46,0,0,1,.59-.32A.48.48,0,0,1,770.07,654.53Z"/><path class="cls-8" d="M770.07,654.53a.47.47,0,0,1-.59.32.46.46,0,0,1-.24-.63Z"/><path class="cls-4" d="M755.32,639.79a.43.43,0,0,0-.57.26l-1.22,3.32a.44.44,0,0,0,.27.57,2.21,2.21,0,0,0,1.52-4.15Z"/><path class="cls-5" d="M756.63,642.62a2.21,2.21,0,0,1-2.83,1.32.44.44,0,0,1-.27-.57l.61-1.66Z"/><path class="cls-6" d="M761.63,644.19c0-.09-.59-2.3-2.16-2.88s-3.43.75-3.52.8a.48.48,0,0,0-.17.47c0,.09.59,2.3,2.17,2.88s3.42-.75,3.51-.8a.45.45,0,0,0,.15-.21A.39.39,0,0,0,761.63,644.19Z"/><path class="cls-4" d="M761.61,644.45a.45.45,0,0,1-.15.21c-.09.05-1.94,1.38-3.51.8s-2.14-2.79-2.17-2.88a.46.46,0,0,1,0-.26Z"/><path class="cls-7" d="M760,643.84a.44.44,0,0,1-.83-.3.45.45,0,0,1,.57-.27A.44.44,0,0,1,760,643.84Z"/><path class="cls-8" d="M760,643.84a.44.44,0,0,1-.83-.3Z"/><path class="cls-4" d="M744.32,644.79a.43.43,0,0,0-.57.26l-1.22,3.32a.44.44,0,0,0,.27.57,2.21,2.21,0,0,0,1.52-4.15Z"/><path class="cls-5" d="M745.63,647.62a2.21,2.21,0,0,1-2.83,1.32.44.44,0,0,1-.27-.57l.61-1.66Z"/><path class="cls-6" d="M750.63,649.19c0-.09-.59-2.3-2.16-2.88s-3.43.75-3.52.8a.48.48,0,0,0-.17.47c0,.09.59,2.3,2.17,2.88s3.42-.75,3.51-.8a.45.45,0,0,0,.15-.21A.39.39,0,0,0,750.63,649.19Z"/><path class="cls-4" d="M750.61,649.45a.45.45,0,0,1-.15.21c-.09.05-1.94,1.38-3.51.8s-2.14-2.79-2.17-2.88a.46.46,0,0,1,0-.26Z"/><path class="cls-7" d="M749,648.84a.44.44,0,0,1-.83-.3.45.45,0,0,1,.57-.27A.44.44,0,0,1,749,648.84Z"/><path class="cls-8" d="M749,648.84a.44.44,0,0,1-.83-.3Z"/><path class="cls-4" d="M789.41,724.5a1.16,1.16,0,0,0-1.85,1V727a1.16,1.16,0,0,0,1.85.95,2.18,2.18,0,0,0,.8-1.7A2.21,2.21,0,0,0,789.41,724.5Z"/><path class="cls-5" d="M789.92,727.3a2,2,0,0,1-.51.6,1.16,1.16,0,0,1-1.85-.95h0a.74.74,0,0,1,.73-.74h1A.74.74,0,0,1,789.92,727.3Z"/><path class="cls-6" d="M795.44,726c-.06-.08-1.34-2-3-2s-3,1.89-3,2a.42.42,0,0,0-.07.24.43.43,0,0,0,.07.25c.06.08,1.34,2,3,2s3-1.88,3-2a.43.43,0,0,0,0-.5Z"/><path class="cls-4" d="M795.52,726.2a.38.38,0,0,1-.08.25c-.06.08-1.34,2-3,2s-3-1.88-3-2a.43.43,0,0,1-.07-.25Z"/><path class="cls-7" d="M793.75,726.2a.45.45,0,1,1-.44-.44A.44.44,0,0,1,793.75,726.2Z"/><path class="cls-8" d="M793.75,726.2a.45.45,0,0,1-.89,0Z"/><path class="cls-4" d="M779.74,715.16a1.16,1.16,0,0,0-2,.62l-.26,1.47a1.16,1.16,0,0,0,1.66,1.26,2.21,2.21,0,0,0,.59-3.35Z"/><path class="cls-5" d="M779.75,718a2.22,2.22,0,0,1-.6.5,1.16,1.16,0,0,1-1.66-1.26h0a.74.74,0,0,1,.85-.6l1,.17A.74.74,0,0,1,779.75,718Z"/><path class="cls-6" d="M785.43,717.63c0-.09-1-2.16-2.64-2.45s-3.24,1.34-3.32,1.41a.45.45,0,0,0-.11.23.46.46,0,0,0,0,.26c.05.09,1,2.16,2.64,2.45s3.24-1.34,3.31-1.41a.4.4,0,0,0,.12-.23A.46.46,0,0,0,785.43,717.63Z"/><path class="cls-4" d="M785.46,717.89a.4.4,0,0,1-.12.23c-.07.07-1.66,1.7-3.31,1.41s-2.59-2.36-2.64-2.45a.46.46,0,0,1,0-.26Z"/><path class="cls-7" d="M783.71,717.58a.42.42,0,0,1-.51.36.44.44,0,0,1-.36-.51.45.45,0,0,1,.52-.36A.43.43,0,0,1,783.71,717.58Z"/><path class="cls-8" d="M783.71,717.58a.42.42,0,0,1-.51.36.44.44,0,0,1-.36-.51Z"/><path class="cls-4" d="M876.44,689.42a.42.42,0,0,0-.51.35l-.62,3.49a.44.44,0,0,0,.36.51,2.21,2.21,0,0,0,.77-4.35Z"/><path class="cls-5" d="M878.23,692a2.21,2.21,0,0,1-2.56,1.8.44.44,0,0,1-.36-.51l.31-1.74Z"/><path class="cls-6" d="M883.43,692.63c0-.09-1-2.16-2.64-2.45s-3.24,1.34-3.32,1.41a.45.45,0,0,0-.11.23.46.46,0,0,0,0,.26c.05.09,1,2.16,2.64,2.45s3.24-1.34,3.31-1.41a.4.4,0,0,0,.12-.23A.46.46,0,0,0,883.43,692.63Z"/><path class="cls-4" d="M883.46,692.89a.4.4,0,0,1-.12.23c-.07.07-1.66,1.7-3.31,1.41s-2.59-2.36-2.64-2.45a.46.46,0,0,1,0-.26Z"/><path class="cls-7" d="M881.71,692.58a.42.42,0,0,1-.51.36.44.44,0,0,1-.36-.51.45.45,0,0,1,.52-.36A.43.43,0,0,1,881.71,692.58Z"/><path class="cls-8" d="M881.71,692.58a.42.42,0,0,1-.51.36.44.44,0,0,1-.36-.51Z"/><path class="cls-9" d="M882,708.53a.49.49,0,0,0-.12-.68l-2.35-2.1a.47.47,0,0,0-.62.28L878.2,708a1.48,1.48,0,0,0,.24,1.45,1.42,1.42,0,0,0,1.33.51A3.44,3.44,0,0,0,882,708.53Z"/><path class="cls-10" d="M884.65,701.54a3.38,3.38,0,0,0-.79-2.66,1.4,1.4,0,0,0-1.32-.46,1.46,1.46,0,0,0-1.12.93l-.76,2a.47.47,0,0,0,.28.62l3.17,0A.49.49,0,0,0,884.65,701.54Z"/><path class="cls-10" d="M877,702.68c.36-1.12.87-1.92.36-3.07-.39-.91-1.38-1.62-3-2.22a.5.5,0,0,0-.63.28,4.47,4.47,0,0,0-.24,3.37,3,3,0,0,0,.27.45,2.61,2.61,0,0,0-.75.22,3.39,3.39,0,0,0-1.61,2.19c-.31.84,0,.83.65,1.09a3.58,3.58,0,0,0,2.88.33A4.46,4.46,0,0,0,877,702.68Z"/><path class="cls-9" d="M871.42,703.9c-.31.84,0,.83.65,1.09a3.58,3.58,0,0,0,2.88.33,4.46,4.46,0,0,0,2-2.65h0l-3.24-1.21,0,0a2.61,2.61,0,0,0-.75.22A3.39,3.39,0,0,0,871.42,703.9Z"/><path class="cls-11" d="M885.24,709.82c-3,.17-5.58-1.67-9.2-7a.58.58,0,0,1,.31-.85c6.09-1.59,9.32-1.4,11.44.57l.12,1.91-.9,1.93-.73,1.56Z"/><path class="cls-12" d="M876,702.85c3.62,5.3,6.25,7.14,9.2,7l1-1.85.73-1.56h0l-11-4.11A.56.56,0,0,0,876,702.85Z"/><path class="cls-13" d="M889.63,708.49a16.11,16.11,0,0,1-3.16,1.14,8.5,8.5,0,0,1-1.23.19,4.3,4.3,0,0,1-.91-4.41,4.35,4.35,0,0,1,3.46-2.84,7.18,7.18,0,0,1,.82.92,15.4,15.4,0,0,1,1.74,3.06,1.43,1.43,0,0,1,0,1.11A1.5,1.5,0,0,1,889.63,708.49Z"/><path class="cls-10" d="M884.33,705.41a4.31,4.31,0,0,0,.91,4.41,8.5,8.5,0,0,0,1.23-.19,16.11,16.11,0,0,0,3.16-1.14,1.49,1.49,0,0,0,.76-.82l-6.06-2.26Z"/><path class="cls-10" d="M882.61,707.08a.48.48,0,0,1-.46-.5,5.9,5.9,0,0,1,.36-1.84,6.62,6.62,0,0,1,.89-1.66.49.49,0,1,1,.78.59,5,5,0,0,0-.75,1.41,5,5,0,0,0-.32,1.54A.47.47,0,0,1,882.61,707.08Z"/><path class="cls-10" d="M882.51,704.74a5.9,5.9,0,0,0-.36,1.84.48.48,0,0,0,.46.5.47.47,0,0,0,.5-.46,5,5,0,0,1,.32-1.54h0l-.91-.34Z"/><circle class="cls-14" cx="887.25" cy="705.92" r="0.49"/><path class="cls-9" d="M656.43,671.58a.49.49,0,0,0,0-.68l-2-2.49a.48.48,0,0,0-.66.17l-1.05,1.77a1.46,1.46,0,0,0,0,1.46,1.42,1.42,0,0,0,1.22.74A3.4,3.4,0,0,0,656.43,671.58Z"/><path class="cls-10" d="M660.26,665.17a3.39,3.39,0,0,0-.31-2.76,1.38,1.38,0,0,0-1.21-.68,1.49,1.49,0,0,0-1.28.72l-1.1,1.86a.48.48,0,0,0,.17.66l3.12.52A.48.48,0,0,0,660.26,665.17Z"/><path class="cls-10" d="M652.52,665c.55-1,1.2-1.74.9-3-.23-1-1.07-1.84-2.54-2.72a.51.51,0,0,0-.67.17,4.49,4.49,0,0,0-.83,3.27.43.43,0,1,1-.59.57,3.45,3.45,0,0,0-2,1.88c-.45.77-.11.83.45,1.19a3.6,3.6,0,0,0,2.78.83A4.44,4.44,0,0,0,652.52,665Z"/><path class="cls-9" d="M646.82,665.16c-.45.77-.11.83.45,1.19a3.59,3.59,0,0,0,2.78.83,4.43,4.43,0,0,0,2.48-2.25h0l-3-1.76,0,0a2.5,2.5,0,0,0-.78.07A3.45,3.45,0,0,0,646.82,665.16Z"/><path class="cls-11" d="M659.38,673.43c-2.94-.35-5.2-2.63-7.83-8.49a.58.58,0,0,1,.46-.78c6.28-.49,9.42.26,11.16,2.58l-.22,1.91-1.23,1.73-1,1.41Z"/><path class="cls-12" d="M651.55,664.94c2.63,5.86,4.89,8.14,7.83,8.49l1.35-1.64,1-1.41h0l-10.11-6A.56.56,0,0,0,651.55,664.94Z"/><path class="cls-13" d="M663.94,672.89a16.27,16.27,0,0,1-3.31.57,8.66,8.66,0,0,1-1.25,0,4.34,4.34,0,0,1,3.79-6.69,9.24,9.24,0,0,1,.65,1,16,16,0,0,1,1.17,3.32,1.43,1.43,0,0,1-.16,1.1A1.5,1.5,0,0,1,663.94,672.89Z"/><path class="cls-10" d="M659.26,668.92a4.34,4.34,0,0,0,.12,4.51,8.66,8.66,0,0,0,1.25,0,16.27,16.27,0,0,0,3.31-.57,1.48,1.48,0,0,0,.89-.67l-5.57-3.3Z"/><path class="cls-10" d="M657.28,670.27a.48.48,0,0,1-.37-.58,6.07,6.07,0,0,1,.68-1.75,6.7,6.7,0,0,1,1.17-1.47.49.49,0,0,1,.69,0,.48.48,0,0,1,0,.68,5.45,5.45,0,0,0-1,1.26,5.3,5.3,0,0,0-.58,1.46A.48.48,0,0,1,657.28,670.27Z"/><path class="cls-10" d="M657.59,667.94a6.07,6.07,0,0,0-.68,1.75.48.48,0,0,0,.37.58.48.48,0,0,0,.57-.37,5.3,5.3,0,0,1,.58-1.46h0l-.84-.49Z"/><circle class="cls-14" cx="662.05" cy="669.94" r="0.49"/></svg>