<svg id="Layer_1" data-name="Layer 1" xmlns="http://www.w3.org/2000/svg" viewBox="0 0 1123.7 772"><defs><style>.cls-1{fill:#7cc5f2;}.cls-2{fill:#64afbc;}.cls-3{fill:#b0d9ed;}.cls-4{fill:#4bb9ec;}.cls-5{fill:#0095ff;}.cls-6{fill:#76e2f8;}.cls-7{fill:#697c86;}.cls-8{fill:#596c76;}.cls-9{fill:#a4d9f5;}.cls-10{fill:#b7e0f6;}.cls-11{fill:#81c8ee;}.cls-12{fill:#159ce4;}.cls-13{fill:#cae8f9;}.cls-14{fill:#3c3a41;}</style></defs><title>bg-img_top</title><path class="cls-1" d="M630.49,43.84c2-8.57,2.31-17.49,2.34-24.34.1-14.5-7.12-26.65-27.55-14.56-12.78,7.56-11.7,19.48-17.08,29.73-9.44,18-31.45,14.76-52.44,18.65C498.28,60.32,518.22,100,480,104c-26.13,2.75-51.65,3.68-54.72,28.05-.37,2.95-.18,5.94-1,8.83-3.33,11.18-14.86,14.39-29.41,15.75-8.18.77-16.55,1.09-24.3,3.14-32.41,8.57-15.67,45.38-54.13,50.44-7.49,1-15.24.23-22.73,1.31-18,2.6-27.22,14.95-30.91,27-2.79,9.07-4.27,17-16.73,22.14-19.13,7.89-54.81,3.39-61.3,23-1.44,4.36-1.54,8.93-3.16,13.27-7,18.77-28.77,17.13-49.37,20-15.36,2.14-27,12.67-30.74,23.33-2,5.76-2,11.91-5.14,17.39-9,15.55-45.53,14.18-64.18,17.18-8.8,1.42-17.73,4.34-22.53,9.88-20.83,24.06,23.77,62.43,58.18,62.45,24.28,0,48.84,1.43,71.95,7.17,21.78,5.39,34.91,16.61,47.92,30,13.94,14.37,35.49,14.26,57.31,14.73,24.25.53,51.5,3.52,69.05,16.89,7.85,6,13,13.6,20.63,19.75,31.3,25.18,79.19,6.24,113.53,24.72,17.51,9.42,27,24.48,45.37,33,20.89,9.71,47.31,5.46,70.91,7.05,11.68.8,23.06,2.9,31.93,8.81,11.22,7.48,15,18.81,26.7,26.34,17,10.89,38.66,15.6,61.09,15.12,33.26-.71,65.62,5.59,77.38,31.15,2.7,5.86,21.09,11.79,28.12,13.9,22.86,6.87,45.73,1.2,68.84,5.62,37.2,7.11,42.27,37.42,77.78,45.39,21.66,4.86,43.8.55,65.39,4a71,71,0,0,1,22.79,7.53c2.77,1.51,15.46,13.67,16.92,13.67H1128s-19.61-48.21-89.83-51.37c-29.46-1.33-67,2.9-91.27-10.06-15.93-8.51-18.66-21.51-31.58-31.3-13.55-10.28-34.29-9.8-52.08-9-20.09.92-40.3-3.79-54.73-14.18-7.83-5.62-13.67-12.52-20.88-18.58-24.62-20.66-60.93-10.67-92.44-18.18-24-5.73-29.73-18.9-45.49-30.55-17.5-12.94-44.54-14.42-67.83-11.23-38.35,5.25-54.84-33-81.76-43.22-19.55-7.42-42.67-5.6-63.85-7.72-10.84-1.08-22.1-2.87-31.05-7.71-10.24-5.53-15-14.76-23.57-21.69-23.17-18.78-51.56-12.73-81.31-12.52-26.42.18-37-20.88-52.43-32.79-18.14-14-46.49-13.75-70.91-15.12-26.63-1.49-56.92-6-78.41-18.18-4.51-2.56-8.72-5.62-10.89-9.47-3.16-5.69.15-11.25,5.14-15.75,9.94-8.94,19-19,34.55-23,11.63-3,25.53-2.78,35.94-8,12.13-6.13,15.57-17.31,16.64-27.4,1.73-16.31,35.27-12.7,48.6-14.61,36.18-5.2,13.53-42.54,45.92-48.08,14.16-2.43,28.51,2.1,40.93-4.84,10.21-5.71,13.74-15.16,13.74-24.16,0-23.78,33.91-16.5,54-21.81,17.18-4.55,22.44-17.37,21.14-29.56-2.31-22,48.65-14.16,61.53-23a29.89,29.89,0,0,0,12.06-17.21c1.64-6.18,1.68-13,6.86-18,12.22-11.89,34-4.78,50.62-9.49,13.39-3.81,18.33-14.79,20.33-24.24,2.07-9.77-1.32-16.74,14.8-20.63,14.16-3.43,30-3.7,42.62-10.16C623.17,64,628.11,54.18,630.49,43.84Z" transform="translate(-4.3 0)"/><path class="cls-2" d="M92.9,393.4c9.95-8.94,18.95-19,34.56-23,11.63-3,25.52-2.78,35.93-8C175.53,356.27,179,345.09,180,335c1.74-16.31,35.28-12.7,48.61-14.61,36.17-5.2,13.52-42.54,45.92-48.08,14.16-2.43,28.51,2.1,40.93-4.84,10.21-5.71,13.74-15.16,13.74-24.16,0-23.78,33.91-16.5,54-21.81,17.19-4.55,22.45-17.37,21.15-29.56-2.32-22,48.65-14.16,61.53-23A29.89,29.89,0,0,0,478,151.73c1.64-6.18,1.67-13,6.86-18,12.21-11.89,34.05-4.78,50.61-9.49,13.4-3.81,18.33-14.79,20.34-24.24,2.06-9.77-1.32-16.74,14.79-20.63,14.16-3.43,30-3.7,42.63-10.16,10-5.11,14.94-15,17.36-25.3,2-8.57,2.31-17.49,2.34-24.34,0-10.85-3.95-20.3-14.38-19.51-.62,8.4-2.35,19.48-2.65,20.63-4.68,17.82-20.39,38.93-42.64,38.63-17.54-.23-33.65,8-40.39,23.18-3.87,8.71-6.16,19.77-14.79,25.79-8.2,5.71-21.27,4.94-30.95,5.21-35.94,1-35.94,10-40.29,29s-22.87,18-42.47,20-22.87,2-30.5,20c-2.66,6.31-4.24,13.61-10,18.24-9.72,7.78-24.91,11.43-37,14.07-11.19,2.44-21.33,8.76-23.72,19.69-1.7,7.85-8,13.5-15.61,16.95s-16.33,3.35-23.59,7.05c-12,6.12-20.16,18.12-26.29,29.06-3.41,6.09-7.23,10.85-14.3,13.62-8,3.12-17.28,3.73-25.84,3.32-18.22-.88-23.8,15.64-31.9,27.23a31.49,31.49,0,0,1-21.91,13.35c-10.6,1.68-22,2-30.05,9.42-8.85,8.14-14.73,18.3-22.45,27.25-8.24,9.57-17.43,13-30.76,13.14-8.65.09-19-1.05-27.22,1.93-13.81,5,8.92,18.23,15.55,18.71-1.45-.11-9.8-10.6-9-12.42,2.55-5.39,21.64-1.73,26.25-1.25,6.53.69,13.69,1.94,20.6,2.48C86.64,400.38,89.33,396.61,92.9,393.4Z" transform="translate(-4.3 0)"/><ellipse class="cls-3" cx="606.42" cy="12" rx="3.27" ry="3"/><ellipse class="cls-3" cx="602.06" cy="62" rx="2.11" ry="1.94"/><ellipse class="cls-3" cx="597.71" cy="44" rx="5.91" ry="5.43"/><ellipse class="cls-3" cx="620.93" cy="30.04" rx="3.56" ry="4.75" transform="translate(47.68 280.53) rotate(-26.53)"/><ellipse class="cls-3" cx="574.84" cy="52" rx="3.27" ry="3"/><ellipse class="cls-3" cx="541.08" cy="85" rx="2.11" ry="1.94"/><ellipse class="cls-3" cx="543.25" cy="64" rx="5.91" ry="5.43"/><ellipse class="cls-3" cx="574.11" cy="69.04" rx="4.87" ry="3.47" transform="translate(112.03 422.32) rotate(-44.52)"/><ellipse class="cls-3" cx="511.67" cy="91" rx="3.27" ry="3"/><ellipse class="cls-3" cx="490.98" cy="114" rx="5.91" ry="5.43"/><ellipse class="cls-3" cx="531.76" cy="110.31" rx="6.04" ry="4.86" transform="translate(122.93 472.64) rotate(-53.57)"/><ellipse class="cls-3" cx="472.47" cy="114" rx="3.27" ry="3"/><ellipse class="cls-3" cx="446.33" cy="148" rx="2.11" ry="1.94"/><ellipse class="cls-3" cx="440.89" cy="126" rx="5.91" ry="5.43"/><ellipse class="cls-3" cx="471.75" cy="131.04" rx="4.87" ry="3.47" transform="translate(39.19 368.34) rotate(-44.52)"/><ellipse class="cls-3" cx="433.26" cy="147" rx="3.27" ry="3"/><ellipse class="cls-3" cx="407.13" cy="159" rx="2.11" ry="1.94"/><ellipse class="cls-3" cx="425.64" cy="159" rx="5.91" ry="5.43"/><ellipse class="cls-3" cx="461.51" cy="158.03" rx="4.89" ry="3.49" transform="translate(17.35 368.94) rotate(-44.52)"/><ellipse class="cls-3" cx="391.88" cy="165" rx="3.27" ry="3"/><ellipse class="cls-3" cx="389.7" cy="180" rx="2.11" ry="1.94"/><ellipse class="cls-3" cx="371.19" cy="173" rx="5.91" ry="5.43"/><ellipse class="cls-3" cx="407.49" cy="173.04" rx="4.87" ry="3.47" transform="translate(-8.7 335.34) rotate(-44.52)"/><ellipse class="cls-3" cx="370.1" cy="193" rx="3.27" ry="3"/><ellipse class="cls-3" cx="359.21" cy="210" rx="2.11" ry="1.94"/><ellipse class="cls-3" cx="352.68" cy="192" rx="5.91" ry="5.43"/><ellipse class="cls-3" cx="386.8" cy="200.04" rx="4.87" ry="3.47" transform="translate(-33.56 328.58) rotate(-44.52)"/><ellipse class="cls-3" cx="338.52" cy="211" rx="3.27" ry="3"/><ellipse class="cls-3" cx="314.56" cy="239" rx="2.11" ry="1.94"/><ellipse class="cls-3" cx="293.87" cy="223" rx="5.91" ry="5.43"/><ellipse class="cls-3" cx="331.26" cy="224.05" rx="4.87" ry="3.47" transform="translate(-66.33 296.53) rotate(-44.52)"/><ellipse class="cls-3" cx="296.05" cy="241" rx="3.27" ry="3"/><ellipse class="cls-3" cx="242.69" cy="266" rx="2.11" ry="1.94"/><ellipse class="cls-3" cx="264.47" cy="253" rx="5.91" ry="5.43"/><ellipse class="cls-3" cx="295.32" cy="258.04" rx="4.87" ry="3.47" transform="translate(-100.47 281.09) rotate(-44.52)"/><ellipse class="cls-3" cx="233.98" cy="275" rx="3.27" ry="3"/><ellipse class="cls-3" cx="228.53" cy="311" rx="2.11" ry="1.94"/><ellipse class="cls-3" cx="216.55" cy="286" rx="5.91" ry="5.43"/><ellipse class="cls-3" cx="237.6" cy="298.05" rx="4.87" ry="3.47" transform="translate(-145.08 252.1) rotate(-44.52)"/><ellipse class="cls-3" cx="196.95" cy="289" rx="3.27" ry="3"/><ellipse class="cls-3" cx="174.08" cy="314" rx="2.11" ry="1.94"/><ellipse class="cls-3" cx="211.11" cy="309" rx="5.91" ry="5.43"/><ellipse class="cls-3" cx="196.22" cy="306.04" rx="4.87" ry="3.47" transform="translate(-162.56 225.38) rotate(-44.52)"/><ellipse class="cls-3" cx="155.57" cy="324" rx="3.27" ry="3"/><ellipse class="cls-3" cx="129.43" cy="358" rx="2.11" ry="1.94"/><ellipse class="cls-3" cx="129.43" cy="332" rx="5.91" ry="5.43"/><ellipse class="cls-3" cx="154.83" cy="341.04" rx="4.87" ry="3.47" transform="translate(-198.97 206.41) rotate(-44.52)"/><ellipse class="cls-3" cx="112.01" cy="348" rx="3.27" ry="3"/><ellipse class="cls-3" cx="85.87" cy="382" rx="2.11" ry="1.94"/><ellipse class="cls-3" cx="61.91" cy="382" rx="5.91" ry="5.43"/><ellipse class="cls-3" cx="111.28" cy="365.04" rx="4.87" ry="3.47" transform="translate(-228.3 182.76) rotate(-44.52)"/><ellipse class="cls-3" cx="46.67" cy="383" rx="3.27" ry="3"/><ellipse class="cls-3" cx="20.53" cy="417" rx="2.11" ry="1.94"/><ellipse class="cls-3" cx="15.08" cy="395" rx="5.91" ry="5.43"/><ellipse class="cls-3" cx="45.93" cy="400.04" rx="4.87" ry="3.47" transform="translate(-271.59 146.98) rotate(-44.52)"/><path class="cls-2" d="M1000,750.4c49.09,2.86,74.65,14.09,86.52,21.6H1090c-2.3-6.47-7.43-14-13.17-23-10.89-17-67.52-17-94.74-16s-46.83,0-62.07-26-46.83-23-63.17-22-50.09,6-69.69-23-59.9-25-98-26-52.28-23-64.26-38-37-11-80.58-11-56.63-22-70.79-38-68.61-9-88.21-13-13.07-1-41.38-25-70.79-25-101.28-29-39.2-10-70.78-34-86-9-115.44-8a127.29,127.29,0,0,1-17-.66c9.54,4.82,19.93,7.81,29.52,7.82,24.28,0,48.84,1.43,72,7.17,21.78,5.39,34.91,16.61,47.92,30,13.94,14.37,35.49,14.26,57.31,14.73,24.25.53,51.5,3.52,69,16.89,7.85,6,13,13.6,20.63,19.75,31.3,25.18,79.19,6.24,113.53,24.72,17.51,9.42,27,24.48,45.37,33,20.89,9.71,47.31,5.46,70.91,7.05,11.68.8,23.06,2.9,31.93,8.81,11.22,7.48,15,18.81,26.7,26.34,17,10.89,38.66,15.6,61.09,15.12,33.26-.71,65.62,5.59,77.38,31.15,2.7,5.86,21.09,11.79,28.12,13.9,22.86,6.87,45.73,1.2,68.84,5.62,37.2,7.11,42.27,37.42,77.78,45.39C958.1,751.44,979.28,747.7,1000,750.4Z" transform="translate(-4.3 0)"/><ellipse class="cls-3" cx="38.05" cy="425.15" rx="3.27" ry="3"/><ellipse class="cls-3" cx="85.37" cy="421.28" rx="2.11" ry="1.94"/><ellipse class="cls-3" cx="59.86" cy="432.21" rx="5.91" ry="5.43"/><ellipse class="cls-3" cx="65.45" cy="413.73" rx="5.09" ry="3.32" transform="translate(-67 14.94) rotate(-8.83)"/><ellipse class="cls-3" cx="84.88" cy="440.15" rx="3.27" ry="3"/><ellipse class="cls-3" cx="105.57" cy="438.15" rx="3.27" ry="3"/><ellipse class="cls-3" cx="173.58" cy="459.28" rx="2.11" ry="1.94"/><ellipse class="cls-3" cx="127.38" cy="445.21" rx="5.91" ry="5.43"/><ellipse class="cls-3" cx="176.53" cy="444.73" rx="5.09" ry="3.32" transform="matrix(0.99, -0.15, 0.15, 0.99, -70.44, 32.34)"/><ellipse class="cls-3" cx="152.4" cy="453.15" rx="3.27" ry="3"/><ellipse class="cls-3" cx="182.68" cy="467.76" rx="4.05" ry="3.72"/><ellipse class="cls-3" cx="237.06" cy="458.96" rx="2.62" ry="2.41"/><ellipse class="cls-3" cx="206.5" cy="482.52" rx="7.33" ry="6.73"/><ellipse class="cls-3" cx="211.29" cy="449.59" rx="6.33" ry="4.12" transform="translate(-70.81 37.76) rotate(-8.83)"/><ellipse class="cls-3" cx="236.46" cy="482.38" rx="4.05" ry="3.72"/><ellipse class="cls-3" cx="252.59" cy="484.15" rx="3.27" ry="3"/><ellipse class="cls-3" cx="312.97" cy="509.28" rx="2.11" ry="1.94"/><ellipse class="cls-3" cx="274.4" cy="491.21" rx="5.91" ry="5.43"/><ellipse class="cls-3" cx="334.44" cy="493.71" rx="5.09" ry="3.32" transform="translate(-76.08 57.15) rotate(-8.83)"/><ellipse class="cls-3" cx="299.41" cy="499.15" rx="3.27" ry="3"/><ellipse class="cls-3" cx="325.21" cy="514.82" rx="3.92" ry="3.6"/><ellipse class="cls-3" cx="382.02" cy="510.19" rx="2.54" ry="2.33"/><ellipse class="cls-3" cx="351.4" cy="533.3" rx="7.09" ry="6.51"/><ellipse class="cls-3" cx="357.24" cy="501.11" rx="6.12" ry="3.98" transform="translate(-76.98 60.77) rotate(-8.83)"/><ellipse class="cls-3" cx="378.16" cy="526.83" rx="3.92" ry="3.6"/><ellipse class="cls-3" cx="402.87" cy="533.15" rx="3.27" ry="3"/><ellipse class="cls-3" cx="443.65" cy="533.28" rx="2.11" ry="1.94"/><ellipse class="cls-3" cx="424.68" cy="540.21" rx="5.91" ry="5.43"/><ellipse class="cls-3" cx="391.06" cy="539.71" rx="5.09" ry="3.32" transform="translate(-82.47 66.38) rotate(-8.83)"/><ellipse class="cls-3" cx="449.7" cy="548.15" rx="3.27" ry="3"/><ellipse class="cls-3" cx="464.35" cy="561.95" rx="3.66" ry="3.36"/><ellipse class="cls-3" cx="512.91" cy="561.64" rx="2.36" ry="2.17"/><ellipse class="cls-3" cx="488.75" cy="561.86" rx="6.61" ry="6.07"/><ellipse class="cls-3" cx="482.5" cy="544.16" rx="5.7" ry="3.71" transform="translate(-82.12 80.53) rotate(-8.83)"/><ellipse class="cls-3" cx="506.94" cy="583.74" rx="3.66" ry="3.36"/><ellipse class="cls-3" cx="522.66" cy="579.15" rx="3.27" ry="3"/><ellipse class="cls-3" cx="591.76" cy="599.28" rx="2.11" ry="1.94"/><ellipse class="cls-3" cx="544.47" cy="586.21" rx="5.91" ry="5.43"/><ellipse class="cls-3" cx="589.26" cy="582.7" rx="5.09" ry="3.32" transform="matrix(0.99, -0.15, 0.15, 0.99, -86.72, 97.3)"/><ellipse class="cls-3" cx="569.49" cy="594.15" rx="3.27" ry="3"/><ellipse class="cls-3" cx="603.25" cy="603.15" rx="3.27" ry="3"/><ellipse class="cls-3" cx="650.57" cy="599.28" rx="2.11" ry="1.94"/><ellipse class="cls-3" cx="625.06" cy="610.21" rx="5.91" ry="5.43"/><ellipse class="cls-3" cx="630.64" cy="591.69" rx="5.09" ry="3.32" transform="translate(-87.61 103.75) rotate(-8.83)"/><ellipse class="cls-3" cx="650.18" cy="620.18" rx="3.27" ry="3"/><ellipse class="cls-3" cx="646.81" cy="630.15" rx="3.27" ry="3"/><ellipse class="cls-3" cx="694.13" cy="626.28" rx="2.11" ry="1.94"/><ellipse class="cls-3" cx="668.62" cy="637.21" rx="5.91" ry="5.43"/><ellipse class="cls-3" cx="674.2" cy="618.69" rx="5.09" ry="3.32" transform="translate(-91.24 110.76) rotate(-8.83)"/><ellipse class="cls-3" cx="704.65" cy="639.19" rx="3.27" ry="3"/><ellipse class="cls-3" cx="720.86" cy="644.15" rx="3.27" ry="3"/><ellipse class="cls-3" cx="768.18" cy="640.28" rx="2.11" ry="1.94"/><ellipse class="cls-3" cx="742.67" cy="651.21" rx="5.91" ry="5.43"/><ellipse class="cls-3" cx="728.66" cy="632.69" rx="5.09" ry="3.32" transform="translate(-92.74 119.28) rotate(-8.83)"/><ellipse class="cls-3" cx="767.69" cy="659.15" rx="3.27" ry="3"/><ellipse class="cls-3" cx="773.13" cy="674.15" rx="3.27" ry="3"/><ellipse class="cls-3" cx="820.45" cy="670.28" rx="2.11" ry="1.94"/><ellipse class="cls-3" cx="796.04" cy="686.21" rx="5.91" ry="5.43"/><ellipse class="cls-3" cx="800.54" cy="662.68" rx="5.09" ry="3.32" transform="matrix(0.99, -0.15, 0.15, 0.99, -96.49, 130.66)"/><ellipse class="cls-3" cx="819.96" cy="689.15" rx="3.27" ry="3"/><ellipse class="cls-3" cx="839.56" cy="687.15" rx="3.27" ry="3"/><ellipse class="cls-3" cx="886.88" cy="683.28" rx="2.11" ry="1.94"/><ellipse class="cls-3" cx="870.09" cy="694.21" rx="5.91" ry="5.43"/><ellipse class="cls-3" cx="860.44" cy="679.68" rx="5.09" ry="3.32" transform="translate(-98.39 140.05) rotate(-8.83)"/><ellipse class="cls-3" cx="889.81" cy="705.2" rx="3.27" ry="3"/><ellipse class="cls-3" cx="901.79" cy="719.2" rx="3.27" ry="3"/><ellipse class="cls-3" cx="933.71" cy="713.28" rx="2.11" ry="1.94"/><ellipse class="cls-3" cx="901.67" cy="694.21" rx="5.91" ry="5.43"/><ellipse class="cls-3" cx="920.33" cy="704.68" rx="5.09" ry="3.32" transform="matrix(0.99, -0.15, 0.15, 0.99, -101.51, 149.53)"/><ellipse class="cls-3" cx="922.49" cy="719.2" rx="3.27" ry="3"/><ellipse class="cls-3" cx="925.6" cy="733.15" rx="3.27" ry="3"/><ellipse class="cls-3" cx="972.91" cy="729.28" rx="2.11" ry="1.94"/><ellipse class="cls-3" cx="947.41" cy="740.21" rx="5.91" ry="5.43"/><ellipse class="cls-3" cx="952.99" cy="721.67" rx="5.09" ry="3.32" transform="translate(-103.73 154.75) rotate(-8.83)"/><ellipse class="cls-3" cx="984.57" cy="740.21" rx="3.27" ry="3"/><ellipse class="cls-3" cx="1002.92" cy="741.15" rx="3.27" ry="3"/><ellipse class="cls-3" cx="1056.77" cy="733.28" rx="2.11" ry="1.94"/><ellipse class="cls-3" cx="1030.17" cy="740.21" rx="5.91" ry="5.43"/><ellipse class="cls-3" cx="1020.52" cy="726.67" rx="5.09" ry="3.32" transform="translate(-103.7 165.17) rotate(-8.83)"/><ellipse class="cls-3" cx="1056.46" cy="756.21" rx="3.27" ry="3"/><ellipse class="cls-3" cx="1073.7" cy="754.15" rx="3.27" ry="3"/><ellipse class="cls-3" cx="1087.26" cy="740.28" rx="2.11" ry="1.94"/><ellipse class="cls-3" cx="1095.51" cy="761.21" rx="5.91" ry="5.43"/><ellipse class="cls-3" cx="1077.16" cy="743.21" rx="3.27" ry="3"/><path class="cls-4" d="M582.3,31.64a2.56,2.56,0,0,0,3.35-.57.43.43,0,0,0-.12-.62l-3.18-2a.51.51,0,0,0-.67.11,2.09,2.09,0,0,0,.6,3.06Z" transform="translate(-4.3 0)"/><path class="cls-5" d="M583.94,29.45l1.59,1a.43.43,0,0,1,.12.62,2.56,2.56,0,0,1-3.35.57Z" transform="translate(-4.3 0)"/><path class="cls-6" d="M579,36a.5.5,0,0,0,.27.08c.11,0,2.58,0,3.61-1.39s.14-3.5.1-3.6a.41.41,0,0,0-.17-.2.5.5,0,0,0-.26-.08c-.12,0-2.59,0-3.63,1.39s-.13,3.5-.1,3.6A.49.49,0,0,0,579,36Z" transform="translate(-4.3 0)"/><path class="cls-4" d="M582.85,30.91a.41.41,0,0,1,.17.2c0,.1.94,2.22-.1,3.6s-3.5,1.38-3.61,1.39A.5.5,0,0,1,579,36Z" transform="translate(-4.3 0)"/><path class="cls-7" d="M580,33.94a.51.51,0,0,1,.67-.11.41.41,0,0,1,.12.61.51.51,0,0,1-.66.13h0A.43.43,0,0,1,580,33.94Z" transform="translate(-4.3 0)"/><path class="cls-8" d="M580.67,33.83a.43.43,0,0,1,.13.62.51.51,0,0,1-.67.11Z" transform="translate(-4.3 0)"/><path class="cls-4" d="M576.39,97.88a2.27,2.27,0,0,0,2.15,2.43h0a.48.48,0,0,0,.53-.39l.41-3.52a.45.45,0,0,0-.4-.49h0a2.37,2.37,0,0,0-2.68,1.92Z" transform="translate(-4.3 0)"/><path class="cls-5" d="M579.31,98.16l-.21,1.76a.48.48,0,0,1-.53.39,2.27,2.27,0,0,1-2.18-2.4v0Z" transform="translate(-4.3 0)"/><path class="cls-6" d="M570.6,97.31a.47.47,0,0,0,0,.26,4.58,4.58,0,0,0,3.05,2.27c1.82.18,3.42-1.56,3.5-1.63a.44.44,0,0,0,.11-.24.36.36,0,0,0-.06-.25,4.53,4.53,0,0,0-3-2.28c-1.82-.18-3.43,1.56-3.5,1.64A.34.34,0,0,0,570.6,97.31Z" transform="translate(-4.3 0)"/><path class="cls-4" d="M577.35,98a.44.44,0,0,1-.11.24c-.08.07-1.68,1.81-3.5,1.63s-3-2.19-3-2.27a.4.4,0,0,1-.06-.26Z" transform="translate(-4.3 0)"/><path class="cls-7" d="M573.09,97.11a.44.44,0,0,1,.43.46v0A.48.48,0,0,1,573,98a.46.46,0,0,1-.43-.49.47.47,0,0,1,.53-.39Z" transform="translate(-4.3 0)"/><path class="cls-8" d="M573.52,97.6A.48.48,0,0,1,573,98a.46.46,0,0,1-.43-.49Z" transform="translate(-4.3 0)"/><path class="cls-4" d="M522.94,50.26a2.48,2.48,0,0,0,3.11,1.28.44.44,0,0,0,.28-.57L525,47.66a.49.49,0,0,0-.6-.26h0a2.15,2.15,0,0,0-1.39,2.84Z" transform="translate(-4.3 0)"/><path class="cls-5" d="M525.64,49.32l.69,1.65a.44.44,0,0,1-.28.57,2.48,2.48,0,0,1-3.11-1.28Z" transform="translate(-4.3 0)"/><path class="cls-6" d="M517.54,52.15a.37.37,0,0,0,.18.21c.08,0,2.12,1.35,3.83.76s2.29-2.82,2.32-2.92a.36.36,0,0,0,0-.25.43.43,0,0,0-.17-.21c-.09-.05-2.17-1.35-3.83-.75s-2.29,2.81-2.32,2.91A.43.43,0,0,0,517.54,52.15Z" transform="translate(-4.3 0)"/><path class="cls-4" d="M523.84,50a.36.36,0,0,1,0,.25,4.35,4.35,0,0,1-2.32,2.92c-1.71.6-3.75-.71-3.84-.76a.39.39,0,0,1-.17-.21Z" transform="translate(-4.3 0)"/><path class="cls-7" d="M519.62,51a.5.5,0,0,1,.62.26.42.42,0,0,1-.27.57h0a.49.49,0,0,1-.61-.24v0a.42.42,0,0,1,.27-.57Z" transform="translate(-4.3 0)"/><path class="cls-8" d="M520.24,51.21a.42.42,0,0,1-.27.57h0a.49.49,0,0,1-.61-.24v0Z" transform="translate(-4.3 0)"/><path class="cls-4" d="M496.44,135.77a2.56,2.56,0,0,0,3.4-.11.4.4,0,0,0,0-.61h0L497,132.62a.49.49,0,0,0-.66,0h0a2.1,2.1,0,0,0,.07,3.14Z" transform="translate(-4.3 0)"/><path class="cls-5" d="M498.41,133.83l1.4,1.17a.4.4,0,0,1,0,.61h0a2.58,2.58,0,0,1-3.41.11Z" transform="translate(-4.3 0)"/><path class="cls-6" d="M492.5,139.64a.55.55,0,0,0,.24.12c.11,0,2.57.36,3.82-.87s.7-3.45.68-3.55a.4.4,0,0,0-.14-.22.58.58,0,0,0-.25-.12c-.11,0-2.56-.35-3.81.87s-.7,3.45-.69,3.55A.42.42,0,0,0,492.5,139.64Z" transform="translate(-4.3 0)"/><path class="cls-4" d="M497.1,135.12a.4.4,0,0,1,.14.22c0,.1.57,2.32-.68,3.55s-3.71.88-3.82.87a.55.55,0,0,1-.24-.12Z" transform="translate(-4.3 0)"/><path class="cls-7" d="M493.79,137.73a.53.53,0,0,1,.69,0,.42.42,0,0,1-.08.63.51.51,0,0,1-.59,0,.4.4,0,0,1-.07-.6S493.77,137.74,493.79,137.73Z" transform="translate(-4.3 0)"/><path class="cls-8" d="M494.48,137.7a.42.42,0,0,1-.08.63.51.51,0,0,1-.59,0Z" transform="translate(-4.3 0)"/><path class="cls-9" d="M586.59,93.23a1.65,1.65,0,0,0,1.52-.29,1.41,1.41,0,0,0,.51-1.39l-.44-2a.53.53,0,0,0-.62-.38l-2.89,1.7a.47.47,0,0,0-.25.64h0A3.62,3.62,0,0,0,586.59,93.23Z" transform="translate(-4.3 0)"/><path class="cls-10" d="M583.32,84.69l3.39.55a.5.5,0,0,0,.42-.57l-.46-2.12a1.56,1.56,0,0,0-1.09-1.11,1.67,1.67,0,0,0-1.5.25,3.28,3.28,0,0,0-1.32,2.5.53.53,0,0,0,.55.5Z" transform="translate(-4.3 0)"/><path class="cls-10" d="M592.57,89.48a4.26,4.26,0,0,0,3.16.14c.7-.16,1.09-.1.88-1a2.83,2.83,0,0,0-2.11-2.75,2.05,2.05,0,0,0,.37-.41,4.13,4.13,0,0,0,.34-3.36.57.57,0,0,0-.63-.38c-1.82.34-3,.88-3.6,1.72-.74,1-.32,1.93-.14,3.09A4.39,4.39,0,0,0,592.57,89.48Z" transform="translate(-4.3 0)"/><path class="cls-9" d="M595.27,86.22a3.31,3.31,0,0,0-.77-.33h0l-3.69.67h0a4.33,4.33,0,0,0,1.73,3,4.26,4.26,0,0,0,3.16.14c.7-.16,1.09-.1.88-1A3.28,3.28,0,0,0,595.27,86.22Z" transform="translate(-4.3 0)"/><path class="cls-11" d="M579.93,90.27l-.51-1.65-.63-2.05.52-1.87c2.62-1.61,6.12-1.27,12.39,1.28a.56.56,0,0,1,.28.78.44.44,0,0,1-.08.11c-4.83,4.64-8,6-11.12,5.4Z" transform="translate(-4.3 0)"/><path class="cls-12" d="M592,86.33l-12.54,2.29h0l.51,1.65.8,2c3.14.64,6.29-.76,11.11-5.4A.52.52,0,0,0,592,86.33Z" transform="translate(-4.3 0)"/><path class="cls-13" d="M575.57,89.31a1.37,1.37,0,0,1,.23-1.09,17,17,0,0,1,2.42-2.74,7.7,7.7,0,0,1,1.09-.78,4.54,4.54,0,0,1,3.27,3.37,4.13,4.13,0,0,1-1.76,4.2,9.59,9.59,0,0,1-1.29-.39,18.43,18.43,0,0,1-3.19-1.63A1.5,1.5,0,0,1,575.57,89.31Z" transform="translate(-4.3 0)"/><path class="cls-10" d="M582.48,88.06l-6.91,1.26a1.53,1.53,0,0,0,.67.93,18.43,18.43,0,0,0,3.19,1.63,9.3,9.3,0,0,0,1.3.39,4.15,4.15,0,0,0,1.75-4.21Z" transform="translate(-4.3 0)"/><path class="cls-10" d="M583.57,89.45a4.37,4.37,0,0,0-.07-1.57,5,5,0,0,0-.55-1.52.46.46,0,0,1,.21-.65h0a.57.57,0,0,1,.72.2,6.4,6.4,0,0,1,.67,1.78,5.65,5.65,0,0,1,.07,1.88A.53.53,0,0,1,584,90,.5.5,0,0,1,583.57,89.45Z" transform="translate(-4.3 0)"/><path class="cls-10" d="M584.55,87.68l-1.09.19h0a4.15,4.15,0,0,1,.06,1.57A.5.5,0,0,0,584,90a.54.54,0,0,0,.59-.42,5.65,5.65,0,0,0-.08-1.88Z" transform="translate(-4.3 0)"/><ellipse class="cls-14" cx="574.94" cy="88.09" rx="0.53" ry="0.49"/><path class="cls-9" d="M495.46,91.72a1.46,1.46,0,0,0,1.08-1,1.37,1.37,0,0,0-.35-1.43l-1.52-1.5a.55.55,0,0,0-.74,0h0l-1.5,2.84a.45.45,0,0,0,.15.66h0A4,4,0,0,0,495.46,91.72Z" transform="translate(-4.3 0)"/><path class="cls-10" d="M487.83,86l3.2-1.16a.45.45,0,0,0,0-.68h0l-1.6-1.59a1.69,1.69,0,0,0-1.51-.44,1.49,1.49,0,0,0-1.14.92,3.19,3.19,0,0,0,.3,2.77.56.56,0,0,0,.73.19Z" transform="translate(-4.3 0)"/><path class="cls-10" d="M498.41,85.65a4,4,0,0,0,2.76-1.4c.51-.47.86-.59.21-1.25a3.81,3.81,0,0,0-2.53-1.43,3.08,3.08,0,0,0-.85.09,2.27,2.27,0,0,0,.09-.52,4.33,4.33,0,0,0-1.62-3,.59.59,0,0,0-.75,0c-1.36,1.16-2.07,2.19-2.09,3.19,0,1.25.81,1.8,1.63,2.7A5,5,0,0,0,498.41,85.65Z" transform="translate(-4.3 0)"/><path class="cls-9" d="M498.85,81.57a3.08,3.08,0,0,0-.85.09h0L495.25,84h0a5,5,0,0,0,3.16,1.68,4,4,0,0,0,2.76-1.4c.51-.47.86-.59.21-1.25A3.78,3.78,0,0,0,498.85,81.57Z" transform="translate(-4.3 0)"/><path class="cls-11" d="M488.07,92.39l-1.33-1.17L485,89.78l-.7-1.78c1.32-2.63,4.49-4,11.3-4.85a.61.61,0,0,1,.67.54.49.49,0,0,1,0,.12c-1.47,6.28-3.35,9-6.4,9.94Z" transform="translate(-4.3 0)"/><path class="cls-12" d="M496.09,83.25l-9.39,8h0l1.37,1.17,1.82,1.32c3.05-1,4.93-3.66,6.4-9.94A.54.54,0,0,0,496.09,83.25Z" transform="translate(-4.3 0)"/><path class="cls-13" d="M483.8,93.66a1.37,1.37,0,0,1-.41-1,13.72,13.72,0,0,1,.49-3.48,6.41,6.41,0,0,1,.45-1.17,4.79,4.79,0,0,1,5.73,3.19,4.09,4.09,0,0,1-.17,2.56,9.83,9.83,0,0,1-1.33.29,20.24,20.24,0,0,1-3.65.14A1.77,1.77,0,0,1,483.8,93.66Z" transform="translate(-4.3 0)"/><path class="cls-10" d="M489,89.28l-5.18,4.38a1.76,1.76,0,0,0,1.09.48,20.24,20.24,0,0,0,3.65-.14,9.83,9.83,0,0,0,1.33-.29,4.05,4.05,0,0,0-.9-4.43Z" transform="translate(-4.3 0)"/><path class="cls-10" d="M490.71,89.94a5,5,0,0,0-.95-1.31,5.78,5.78,0,0,0-1.34-1,.47.47,0,0,1-.18-.67.58.58,0,0,1,.73-.17,7.42,7.42,0,0,1,1.57,1.2,5.75,5.75,0,0,1,1.09,1.57.46.46,0,0,1-.26.64.56.56,0,0,1-.7-.24Z" transform="translate(-4.3 0)"/><path class="cls-10" d="M490.53,88l-.77.66h0a5,5,0,0,1,.95,1.31.54.54,0,0,0,.69.24.47.47,0,0,0,.27-.64A6,6,0,0,0,490.58,88Z" transform="translate(-4.3 0)"/><ellipse class="cls-14" cx="481.95" cy="90.86" rx="0.53" ry="0.49"/><path class="cls-4" d="M475.77,88.78a2.55,2.55,0,0,0,3.39-.07.4.4,0,0,0,0-.61h0l-2.77-2.45a.53.53,0,0,0-.69,0,2.09,2.09,0,0,0,.07,3.14Z" transform="translate(-4.3 0)"/><path class="cls-5" d="M477.76,86.86l1.36,1.23a.4.4,0,0,1,0,.61h0a2.56,2.56,0,0,1-3.4.07Z" transform="translate(-4.3 0)"/><path class="cls-6" d="M471.77,92.61a.45.45,0,0,0,.25.12c.11,0,2.55.39,3.81-.83s.75-3.44.74-3.54a.44.44,0,0,0-.14-.22.45.45,0,0,0-.25-.12c-.11,0-2.55-.39-3.82.82s-.75,3.44-.73,3.54A.33.33,0,0,0,471.77,92.61Z" transform="translate(-4.3 0)"/><path class="cls-4" d="M476.43,88.14a.44.44,0,0,1,.14.22c0,.1.54,2.33-.74,3.54s-3.7.84-3.81.83a.45.45,0,0,1-.25-.12Z" transform="translate(-4.3 0)"/><path class="cls-7" d="M473.09,90.71a.49.49,0,0,1,.66,0h0a.41.41,0,0,1,0,.62.51.51,0,0,1-.68,0,.41.41,0,0,1-.05-.61Z" transform="translate(-4.3 0)"/><path class="cls-8" d="M473.76,90.69a.41.41,0,0,1,0,.62.51.51,0,0,1-.68,0Z" transform="translate(-4.3 0)"/><path class="cls-4" d="M421.74,190.56a2.39,2.39,0,0,0,2.71,1.89.46.46,0,0,0,.42-.49h0l-.53-3.5a.44.44,0,0,0-.51-.38h0A2.27,2.27,0,0,0,421.74,190.56Z" transform="translate(-4.3 0)"/><path class="cls-5" d="M424.6,190.2l.27,1.75a.46.46,0,0,1-.41.5h0a2.39,2.39,0,0,1-2.71-1.89Z" transform="translate(-4.3 0)"/><path class="cls-6" d="M416,191.27a.44.44,0,0,0,.11.24c.08.07,1.74,1.76,3.55,1.53s2.92-2.26,3-2.35a.36.36,0,0,0,0-.25.44.44,0,0,0-.11-.24c-.09-.07-1.75-1.76-3.55-1.54s-2.92,2.27-3,2.36A.36.36,0,0,0,416,191.27Z" transform="translate(-4.3 0)"/><path class="cls-4" d="M422.7,190.44a.36.36,0,0,1,0,.25,4.5,4.5,0,0,1-3,2.35c-1.82.22-3.48-1.46-3.55-1.53a.38.38,0,0,1-.11-.24Z" transform="translate(-4.3 0)"/><path class="cls-7" d="M418.34,190.54a.47.47,0,0,1,.54.38.45.45,0,0,1-.41.49.47.47,0,0,1-.54-.38h0a.44.44,0,0,1,.39-.49Z" transform="translate(-4.3 0)"/><path class="cls-8" d="M418.89,190.91a.46.46,0,0,1-.41.5h0a.47.47,0,0,1-.54-.37h0Z" transform="translate(-4.3 0)"/><path class="cls-4" d="M427.19,182.56a2.38,2.38,0,0,0,2.71,1.89.44.44,0,0,0,.41-.49h0l-.52-3.5a.46.46,0,0,0-.52-.38h0A2.26,2.26,0,0,0,427.19,182.56Z" transform="translate(-4.3 0)"/><path class="cls-5" d="M430.05,182.2l.26,1.75a.45.45,0,0,1-.4.5h0a2.38,2.38,0,0,1-2.71-1.89Z" transform="translate(-4.3 0)"/><path class="cls-6" d="M421.47,183.27a.38.38,0,0,0,.11.24c.07.07,1.74,1.76,3.55,1.53s2.92-2.26,3-2.35a.36.36,0,0,0,0-.25.44.44,0,0,0-.11-.24c-.09-.07-1.74-1.76-3.55-1.54s-2.92,2.27-3,2.36A.28.28,0,0,0,421.47,183.27Z" transform="translate(-4.3 0)"/><path class="cls-4" d="M428.14,182.44a.28.28,0,0,1,0,.25,4.47,4.47,0,0,1-3,2.35c-1.82.22-3.47-1.46-3.55-1.53a.44.44,0,0,1-.11-.24Z" transform="translate(-4.3 0)"/><path class="cls-7" d="M423.79,182.54a.47.47,0,0,1,.53.38.44.44,0,0,1-.41.49.48.48,0,0,1-.54-.38h0a.45.45,0,0,1,.4-.49Z" transform="translate(-4.3 0)"/><path class="cls-8" d="M424.33,182.91a.45.45,0,0,1-.4.5h0a.46.46,0,0,1-.54-.37h0Z" transform="translate(-4.3 0)"/><path class="cls-4" d="M346.51,232.23a2.48,2.48,0,0,0,3.13,1.2h0a.43.43,0,0,0,.26-.57h0l-1.47-3.27a.49.49,0,0,0-.62-.24h0a2.15,2.15,0,0,0-1.3,2.89Z" transform="translate(-4.3 0)"/><path class="cls-5" d="M349.18,231.22l.73,1.63a.44.44,0,0,1-.25.58h0a2.47,2.47,0,0,1-3.13-1.19h0Z" transform="translate(-4.3 0)"/><path class="cls-6" d="M341.16,234.25a.52.52,0,0,0,.18.21c.1,0,2.18,1.3,3.86.66s2.18-2.88,2.18-3a.3.3,0,0,0,0-.26.37.37,0,0,0-.17-.2c-.1,0-2.18-1.3-3.86-.66s-2.17,2.87-2.17,3A.43.43,0,0,0,341.16,234.25Z" transform="translate(-4.3 0)"/><path class="cls-4" d="M347.35,231.89a.39.39,0,0,1,0,.26,4.46,4.46,0,0,1-2.18,3c-1.64.68-3.77-.61-3.86-.66a.52.52,0,0,1-.18-.21Z" transform="translate(-4.3 0)"/><path class="cls-7" d="M343.21,233a.49.49,0,0,1,.62.23h0a.42.42,0,0,1-.26.57.48.48,0,0,1-.62-.23.43.43,0,0,1,.26-.58Z" transform="translate(-4.3 0)"/><path class="cls-8" d="M343.83,233.24a.42.42,0,0,1-.22.59.5.5,0,0,1-.64-.2l0,0Z" transform="translate(-4.3 0)"/><path class="cls-9" d="M385.89,153.24a1.59,1.59,0,0,0,1.5-.31,1.37,1.37,0,0,0,.49-1.39l-.46-2a.51.51,0,0,0-.6-.37h0l-2.87,1.74a.46.46,0,0,0-.23.64h0A3.65,3.65,0,0,0,385.89,153.24Z" transform="translate(-4.3 0)"/><path class="cls-10" d="M382.48,144.74l3.4.51a.49.49,0,0,0,.41-.57h0l-.49-2.11a1.52,1.52,0,0,0-1.09-1.09,1.65,1.65,0,0,0-1.49.26,3.3,3.3,0,0,0-1.27,2.52.5.5,0,0,0,.51.49Z" transform="translate(-4.3 0)"/><path class="cls-10" d="M391.8,149.41a4.22,4.22,0,0,0,3.16.09c.7-.16,1.09-.11.87-1a3.33,3.33,0,0,0-1.38-2.41,3.48,3.48,0,0,0-.77-.32,2.86,2.86,0,0,0,.36-.41,4.12,4.12,0,0,0,.28-3.36.55.55,0,0,0-.63-.37c-1.82.36-3,.91-3.56,1.76-.73,1.06-.31,1.93-.1,3.09A4.38,4.38,0,0,0,391.8,149.41Z" transform="translate(-4.3 0)"/><path class="cls-9" d="M394.45,146.11a3.48,3.48,0,0,0-.77-.32h0l-3.69.73h0a4.39,4.39,0,0,0,1.78,2.92,4.21,4.21,0,0,0,3.16.09c.7-.16,1.09-.11.87-1A3.37,3.37,0,0,0,394.45,146.11Z" transform="translate(-4.3 0)"/><path class="cls-11" d="M379.17,150.37l-.53-1.65-.67-2,.44-1.88c2.59-1.64,6.11-1.35,12.41,1.11a.56.56,0,0,1,.29.78.44.44,0,0,1-.08.11c-4.75,4.71-7.87,6.15-11,5.55Z" transform="translate(-4.3 0)"/><path class="cls-12" d="M391.14,146.27l-12.5,2.45h0l.53,1.65.84,2c3.15.6,6.27-.84,11-5.55A.53.53,0,0,0,391.14,146.27Z" transform="translate(-4.3 0)"/><path class="cls-13" d="M374.8,149.47a1.33,1.33,0,0,1,.22-1.09,16,16,0,0,1,2.35-2.78,8.89,8.89,0,0,1,1-.79,4.3,4.3,0,0,1,3.16,5.42,4.38,4.38,0,0,1-1.56,2.13,9.79,9.79,0,0,1-1.31-.37,19.28,19.28,0,0,1-3.26-1.59A1.48,1.48,0,0,1,374.8,149.47Z" transform="translate(-4.3 0)"/><path class="cls-10" d="M381.69,148.12l-6.89,1.36a1.6,1.6,0,0,0,.68.92,19,19,0,0,0,3.27,1.59,9.65,9.65,0,0,0,1.3.37,4.15,4.15,0,0,0,1.68-4.24Z" transform="translate(-4.3 0)"/><path class="cls-10" d="M382.81,149.5a5.14,5.14,0,0,0-.69-3.08.47.47,0,0,1,.22-.66.57.57,0,0,1,.72.2,6.41,6.41,0,0,1,.7,1.77,5.89,5.89,0,0,1,.09,1.87.5.5,0,0,1-.57.43h0a.47.47,0,0,1-.47-.5Z" transform="translate(-4.3 0)"/><path class="cls-10" d="M383.75,147.72l-1,.2h0a4.89,4.89,0,0,1,.1,1.57.48.48,0,0,0,.44.53h0a.51.51,0,0,0,.57-.42h0a5.89,5.89,0,0,0-.09-1.87Z" transform="translate(-4.3 0)"/><ellipse class="cls-14" cx="374.15" cy="148.2" rx="0.53" ry="0.49"/><path class="cls-9" d="M349.1,250.07a1.53,1.53,0,0,0,1.29-.79,1.36,1.36,0,0,0-.08-1.46l-1.22-1.72a.57.57,0,0,0-.73-.14l-2,2.56a.46.46,0,0,0,0,.69A4,4,0,0,0,349.1,250.07Z" transform="translate(-4.3 0)"/><path class="cls-10" d="M342.61,243.25l3.38-.65a.46.46,0,0,0,.16-.66h0l-1.27-1.81a1.71,1.71,0,0,0-1.43-.67,1.53,1.53,0,0,0-1.28.74,3.11,3.11,0,0,0-.25,2.81.54.54,0,0,0,.7.25Z" transform="translate(-4.3 0)"/><path class="cls-10" d="M353.14,244.55a4.2,4.2,0,0,0,3-1c.59-.38,1-.45.43-1.2a3.59,3.59,0,0,0-2.17-1.8,4.22,4.22,0,0,0-.87,0,1.91,1.91,0,0,0,.19-.5,4.24,4.24,0,0,0-1.09-3.23.58.58,0,0,0-.74-.14c-1.56.94-2.43,1.84-2.63,2.82-.28,1.22.46,1.9,1.08,2.91A4.81,4.81,0,0,0,353.14,244.55Z" transform="translate(-4.3 0)"/><path class="cls-9" d="M354.34,240.6a4.12,4.12,0,0,0-.86,0h0l-3.16,1.88h0a4.84,4.84,0,0,0,2.8,2.15,4.2,4.2,0,0,0,3-1c.58-.38.95-.45.43-1.2A3.61,3.61,0,0,0,354.34,240.6Z" transform="translate(-4.3 0)"/><path class="cls-11" d="M341.72,249.59l-1.14-1.37-1.42-1.68-.31-1.9c1.78-2.38,5.17-3.26,12-3a.6.6,0,0,1,.57.65.43.43,0,0,1,0,.11c-2.6,6-5,8.33-8.15,8.8Z" transform="translate(-4.3 0)"/><path class="cls-12" d="M351.3,241.83l-10.72,6.39h0l1.14,1.37,1.55,1.58c3.18-.47,5.54-2.84,8.14-8.8A.51.51,0,0,0,351.3,241.83Z" transform="translate(-4.3 0)"/><path class="cls-13" d="M337.28,250.18a1.36,1.36,0,0,1-.22-1.09,14.42,14.42,0,0,1,1.09-3.37,7.42,7.42,0,0,1,.66-1.08,4.94,4.94,0,0,1,4.36,2,4,4,0,0,1,.06,4.5,10.24,10.24,0,0,1-1.36.08,19.14,19.14,0,0,1-3.62-.43A1.68,1.68,0,0,1,337.28,250.18Z" transform="translate(-4.3 0)"/><path class="cls-10" d="M343.19,246.66l-5.9,3.53a1.63,1.63,0,0,0,1,.63,19.15,19.15,0,0,0,3.63.43,10.34,10.34,0,0,0,1.36-.08,4,4,0,0,0-.08-4.51Z" transform="translate(-4.3 0)"/><path class="cls-10" d="M344.77,247.58a4.64,4.64,0,0,0-.7-1.43,5.25,5.25,0,0,0-1.09-1.22.46.46,0,0,1,0-.69.57.57,0,0,1,.65-.05,6.72,6.72,0,0,1,1.34,1.43,5.89,5.89,0,0,1,.83,1.71.5.5,0,0,1-.38.6.53.53,0,0,1-.67-.29A.14.14,0,0,1,344.77,247.58Z" transform="translate(-4.3 0)"/><path class="cls-10" d="M345,245.61l-.9.53h0a4.64,4.64,0,0,1,.7,1.43.52.52,0,0,0,.63.35h0a.5.5,0,0,0,.38-.6,5.62,5.62,0,0,0-.82-1.71Z" transform="translate(-4.3 0)"/><ellipse class="cls-14" cx="335.91" cy="247.79" rx="0.53" ry="0.49"/><path class="cls-4" d="M273.19,281.77a2.58,2.58,0,0,0,3.41-.11.41.41,0,0,0,0-.61h0l-2.82-2.42a.5.5,0,0,0-.67,0h0a2.09,2.09,0,0,0,.08,3.14Z" transform="translate(-4.3 0)"/><path class="cls-5" d="M275.16,279.83l1.4,1.17a.4.4,0,0,1,0,.61h0a2.56,2.56,0,0,1-3.4.11Z" transform="translate(-4.3 0)"/><path class="cls-6" d="M269.26,285.64a.5.5,0,0,0,.24.12c.11,0,2.57.36,3.81-.87s.71-3.45.68-3.55a.32.32,0,0,0-.14-.22.53.53,0,0,0-.25-.12c-.11,0-2.56-.35-3.81.87s-.7,3.45-.69,3.55A.44.44,0,0,0,269.26,285.64Z" transform="translate(-4.3 0)"/><path class="cls-4" d="M273.85,281.12a.32.32,0,0,1,.14.22c0,.1.57,2.32-.68,3.55s-3.7.88-3.81.87a.5.5,0,0,1-.24-.12Z" transform="translate(-4.3 0)"/><path class="cls-7" d="M270.54,283.73a.53.53,0,0,1,.69,0,.43.43,0,0,1,.12.63.52.52,0,0,1-.69.1l-.1-.08a.4.4,0,0,1-.06-.6Z" transform="translate(-4.3 0)"/><path class="cls-8" d="M271.23,283.7a.43.43,0,0,1,.12.63.52.52,0,0,1-.69.1l-.1-.08Z" transform="translate(-4.3 0)"/><path class="cls-9" d="M159.88,307.11a1.61,1.61,0,0,0,1.51-.3,1.36,1.36,0,0,0,.51-1.38l-.43-2a.54.54,0,0,0-.62-.39l-2.9,1.71a.46.46,0,0,0-.24.64h0A3.67,3.67,0,0,0,159.88,307.11Z" transform="translate(-4.3 0)"/><path class="cls-10" d="M156.6,298.57l3.39.54a.48.48,0,0,0,.41-.56h0l-.46-2.12a1.5,1.5,0,0,0-1.09-1.1,1.59,1.59,0,0,0-1.49.25,3.31,3.31,0,0,0-1.32,2.5.53.53,0,0,0,.55.5Z" transform="translate(-4.3 0)"/><path class="cls-10" d="M165.86,303.35a4.29,4.29,0,0,0,3.15.13c.7-.16,1.09-.1.89-1a3.37,3.37,0,0,0-1.35-2.42,2.7,2.7,0,0,0-.78-.33,1.74,1.74,0,0,0,.37-.4,4.09,4.09,0,0,0,.33-3.36.54.54,0,0,0-.62-.38c-1.82.34-3,.88-3.6,1.72-.74,1.05-.32,1.92-.14,3.09A4.38,4.38,0,0,0,165.86,303.35Z" transform="translate(-4.3 0)"/><path class="cls-9" d="M168.55,300.08a2.7,2.7,0,0,0-.78-.33h0l-3.69.68h0a4.41,4.41,0,0,0,1.74,3,4.31,4.31,0,0,0,3.16.13c.7-.16,1.09-.1.88-1A3.34,3.34,0,0,0,168.55,300.08Z" transform="translate(-4.3 0)"/><path class="cls-11" d="M153.21,304.16l-.51-1.66-.64-2.05.48-1.87c2.61-1.61,6.11-1.28,12.38,1.27a.56.56,0,0,1,.27.78.41.41,0,0,1-.07.11c-4.82,4.65-8,6.05-11.1,5.41Z" transform="translate(-4.3 0)"/><path class="cls-12" d="M165.24,300.19,152.7,302.5h0l.51,1.66.81,2c3.13.64,6.28-.76,11.1-5.41A.55.55,0,0,0,165.24,300.19Z" transform="translate(-4.3 0)"/><path class="cls-13" d="M148.85,303.2a1.34,1.34,0,0,1,.24-1.09,15.57,15.57,0,0,1,2.39-2.75,10.74,10.74,0,0,1,1.09-.78,4.55,4.55,0,0,1,3.27,3.36,4.15,4.15,0,0,1-1.75,4.21,8.29,8.29,0,0,1-1.29-.38,18.91,18.91,0,0,1-3.2-1.64A1.5,1.5,0,0,1,148.85,303.2Z" transform="translate(-4.3 0)"/><path class="cls-10" d="M155.76,301.94l-6.9,1.27a1.4,1.4,0,0,0,.66.92,19.7,19.7,0,0,0,3.2,1.64,8.41,8.41,0,0,0,1.3.38,4.14,4.14,0,0,0,1.74-4.21Z" transform="translate(-4.3 0)"/><path class="cls-10" d="M156.85,303.33a5.15,5.15,0,0,0-.63-3.09.46.46,0,0,1,.22-.65.56.56,0,0,1,.71.2,6.06,6.06,0,0,1,.68,1.77,5.65,5.65,0,0,1,.07,1.88.53.53,0,0,1-.58.42.49.49,0,0,1-.47-.5Z" transform="translate(-4.3 0)"/><path class="cls-10" d="M157.86,301.56l-1.09.19h0a4.88,4.88,0,0,1,.07,1.57.48.48,0,0,0,.44.53h0a.51.51,0,0,0,.57-.42,5.4,5.4,0,0,0-.06-1.88Z" transform="translate(-4.3 0)"/><ellipse class="cls-14" cx="148.23" cy="301.97" rx="0.53" ry="0.49"/><path class="cls-4" d="M144.79,295.18a2.44,2.44,0,0,0,2.94,1.58h0a.44.44,0,0,0,.35-.54l-1-3.42a.47.47,0,0,0-.58-.32h0A2.22,2.22,0,0,0,144.79,295.18Z" transform="translate(-4.3 0)"/><path class="cls-5" d="M147.55,294.51l.49,1.71a.45.45,0,0,1-.35.54,2.44,2.44,0,0,1-2.94-1.58h0Z" transform="translate(-4.3 0)"/><path class="cls-6" d="M139.18,296.54a.32.32,0,0,0,.14.22c.08.06,2,1.55,3.72,1.13s2.59-2.58,2.64-2.67a.39.39,0,0,0,0-.26.37.37,0,0,0-.15-.22c-.08-.06-2-1.56-3.73-1.13s-2.59,2.58-2.64,2.67A.39.39,0,0,0,139.18,296.54Z" transform="translate(-4.3 0)"/><path class="cls-4" d="M145.69,295a.39.39,0,0,1,0,.26,4.43,4.43,0,0,1-2.64,2.67c-1.76.43-3.64-1.07-3.72-1.13a.32.32,0,0,1-.14-.22Z" transform="translate(-4.3 0)"/><path class="cls-7" d="M141.37,295.55a.48.48,0,0,1,.59.29v0a.44.44,0,0,1-.34.54h0a.48.48,0,0,1-.58-.31h0a.44.44,0,0,1,.34-.54Z" transform="translate(-4.3 0)"/><path class="cls-8" d="M142,295.86a.44.44,0,0,1-.34.54h0a.48.48,0,0,1-.58-.31h0Z" transform="translate(-4.3 0)"/><path class="cls-4" d="M285.61,204.56a2.4,2.4,0,0,0,2.72,1.89.45.45,0,0,0,.41-.49h0l-.52-3.5a.46.46,0,0,0-.52-.38h0A2.27,2.27,0,0,0,285.61,204.56Z" transform="translate(-4.3 0)"/><path class="cls-5" d="M288.48,204.2l.26,1.75a.45.45,0,0,1-.41.5h0a2.4,2.4,0,0,1-2.72-1.89Z" transform="translate(-4.3 0)"/><path class="cls-6" d="M279.9,205.27a.38.38,0,0,0,.11.24c.07.07,1.74,1.76,3.55,1.53s2.91-2.26,3-2.35a.36.36,0,0,0,0-.25.44.44,0,0,0-.11-.24c-.09-.07-1.74-1.76-3.55-1.54s-2.92,2.27-3,2.36A.28.28,0,0,0,279.9,205.27Z" transform="translate(-4.3 0)"/><path class="cls-4" d="M286.57,204.44a.28.28,0,0,1,0,.25,4.47,4.47,0,0,1-3,2.35c-1.82.22-3.47-1.46-3.55-1.53a.44.44,0,0,1-.11-.24Z" transform="translate(-4.3 0)"/><path class="cls-7" d="M282.22,204.54a.47.47,0,0,1,.53.38.44.44,0,0,1-.41.49.48.48,0,0,1-.54-.38h0a.45.45,0,0,1,.4-.49Z" transform="translate(-4.3 0)"/><path class="cls-8" d="M282.76,204.91a.45.45,0,0,1-.4.5h0a.48.48,0,0,1-.55-.37h0Z" transform="translate(-4.3 0)"/><path class="cls-4" d="M123.35,386.56a2.39,2.39,0,0,0,2.71,1.89.45.45,0,0,0,.42-.49h0l-.53-3.5a.44.44,0,0,0-.51-.38h0A2.27,2.27,0,0,0,123.35,386.56Z" transform="translate(-4.3 0)"/><path class="cls-5" d="M126.22,386.2l.26,1.75a.46.46,0,0,1-.41.5h0a2.39,2.39,0,0,1-2.71-1.89Z" transform="translate(-4.3 0)"/><path class="cls-6" d="M117.63,387.27a.44.44,0,0,0,.11.24c.08.07,1.75,1.76,3.55,1.53s2.92-2.26,3-2.35a.36.36,0,0,0,0-.25.44.44,0,0,0-.11-.24c-.09-.07-1.74-1.76-3.55-1.54s-2.92,2.27-3,2.36A.36.36,0,0,0,117.63,387.27Z" transform="translate(-4.3 0)"/><path class="cls-4" d="M124.31,386.44a.36.36,0,0,1,0,.25c0,.09-1.15,2.13-3,2.35s-3.48-1.46-3.55-1.53a.38.38,0,0,1-.11-.24Z" transform="translate(-4.3 0)"/><path class="cls-7" d="M120,386.54a.47.47,0,0,1,.54.38.44.44,0,0,1-.41.49.48.48,0,0,1-.54-.38h0a.44.44,0,0,1,.4-.49Z" transform="translate(-4.3 0)"/><path class="cls-8" d="M120.5,386.91a.45.45,0,0,1-.41.5h0a.47.47,0,0,1-.54-.37h0Z" transform="translate(-4.3 0)"/><path class="cls-4" d="M128.8,378.56a2.38,2.38,0,0,0,2.71,1.89.44.44,0,0,0,.41-.49h0l-.52-3.5a.46.46,0,0,0-.52-.38h0A2.26,2.26,0,0,0,128.8,378.56Z" transform="translate(-4.3 0)"/><path class="cls-5" d="M131.66,378.2l.26,1.75a.45.45,0,0,1-.4.5h0a2.38,2.38,0,0,1-2.71-1.89Z" transform="translate(-4.3 0)"/><path class="cls-6" d="M123.08,379.27a.44.44,0,0,0,.11.24c.07.07,1.74,1.76,3.55,1.53s2.92-2.26,3-2.35a.28.28,0,0,0,0-.25.38.38,0,0,0-.11-.24c-.08-.07-1.74-1.76-3.55-1.54s-2.92,2.27-3,2.36A.36.36,0,0,0,123.08,379.27Z" transform="translate(-4.3 0)"/><path class="cls-4" d="M129.76,378.44a.36.36,0,0,1,0,.25c-.06.09-1.16,2.13-3,2.35s-3.47-1.46-3.55-1.53a.44.44,0,0,1-.11-.24Z" transform="translate(-4.3 0)"/><path class="cls-7" d="M125.4,378.54a.48.48,0,0,1,.54.38.45.45,0,0,1-.42.49A.47.47,0,0,1,125,379h0a.44.44,0,0,1,.39-.49Z" transform="translate(-4.3 0)"/><path class="cls-8" d="M125.94,378.91a.45.45,0,0,1-.4.5h0A.46.46,0,0,1,125,379h0Z" transform="translate(-4.3 0)"/><path class="cls-4" d="M89.15,352.77a2.56,2.56,0,0,0,3.4-.11.4.4,0,0,0,0-.61h0l-2.82-2.42a.49.49,0,0,0-.66,0h0a2.1,2.1,0,0,0,.07,3.14Z" transform="translate(-4.3 0)"/><path class="cls-5" d="M91.12,350.83l1.4,1.17a.41.41,0,0,1,0,.61h0a2.58,2.58,0,0,1-3.41.11Z" transform="translate(-4.3 0)"/><path class="cls-6" d="M85.21,356.64a.55.55,0,0,0,.24.12c.11,0,2.57.36,3.82-.87s.7-3.45.68-3.55a.4.4,0,0,0-.14-.22.58.58,0,0,0-.25-.12c-.11,0-2.56-.35-3.81.87s-.7,3.45-.69,3.55A.42.42,0,0,0,85.21,356.64Z" transform="translate(-4.3 0)"/><path class="cls-4" d="M89.81,352.12a.4.4,0,0,1,.14.22c0,.1.57,2.32-.68,3.55s-3.71.88-3.82.87a.55.55,0,0,1-.24-.12Z" transform="translate(-4.3 0)"/><path class="cls-7" d="M86.5,354.73a.53.53,0,0,1,.69,0,.43.43,0,0,1,.11.63.51.51,0,0,1-.68.1.39.39,0,0,1-.1-.08.4.4,0,0,1-.07-.6Z" transform="translate(-4.3 0)"/><path class="cls-8" d="M87.19,354.7a.43.43,0,0,1,.11.63.51.51,0,0,1-.68.1.39.39,0,0,1-.1-.08Z" transform="translate(-4.3 0)"/><path class="cls-4" d="M118.58,456a1.33,1.33,0,0,0-1.76-.16,1.18,1.18,0,0,0-.42.59l-.43,1.44a1.15,1.15,0,0,0,.88,1.44,1.37,1.37,0,0,0,.8,0,2.27,2.27,0,0,0,1.32-1.44A2,2,0,0,0,118.58,456Z" transform="translate(-4.3 0)"/><path class="cls-5" d="M118.32,458.84a2.26,2.26,0,0,1-.71.45,1.31,1.31,0,0,1-1.64-.68,1,1,0,0,1,0-.73h0a.8.8,0,0,1,1-.52h0l1.08.26a.73.73,0,0,1,.51.94A.73.73,0,0,1,118.32,458.84Z" transform="translate(-4.3 0)"/><path class="cls-6" d="M124.51,459a4.41,4.41,0,0,0-2.62-2.69,4.89,4.89,0,0,0-3.73,1.1.4.4,0,0,0-.14.22.3.3,0,0,0,0,.26,4.42,4.42,0,0,0,2.61,2.69,4.89,4.89,0,0,0,3.73-1.1.57.57,0,0,0,.16-.22A.46.46,0,0,0,124.51,459Z" transform="translate(-4.3 0)"/><path class="cls-4" d="M124.52,459.25a.57.57,0,0,1-.16.22c-.08.06-2,1.54-3.73,1.1s-2.57-2.6-2.61-2.69a.3.3,0,0,1,0-.26Z" transform="translate(-4.3 0)"/><path class="cls-7" d="M122.65,458.78a.48.48,0,0,1-.58.31.44.44,0,0,1-.34-.54.49.49,0,0,1,.59-.31.45.45,0,0,1,.34.54Z" transform="translate(-4.3 0)"/><path class="cls-8" d="M122.65,458.78a.48.48,0,0,1-.58.31.44.44,0,0,1-.34-.54h0Z" transform="translate(-4.3 0)"/><path class="cls-4" d="M132.17,461.5a1.33,1.33,0,0,0-1.76.24,1.07,1.07,0,0,0-.25.71V464a1.21,1.21,0,0,0,1.24,1.18,1.37,1.37,0,0,0,.77-.23,2.09,2.09,0,0,0,.87-1.7A2.12,2.12,0,0,0,132.17,461.5Z" transform="translate(-4.3 0)"/><path class="cls-5" d="M132.73,464.3a2,2,0,0,1-.56.6,1.33,1.33,0,0,1-1.76-.24,1.07,1.07,0,0,1-.25-.71h0a.78.78,0,0,1,.79-.74H132a.76.76,0,0,1,.78.76A.63.63,0,0,1,132.73,464.3Z" transform="translate(-4.3 0)"/><path class="cls-6" d="M138.74,463c-.07-.08-1.46-2-3.27-2a4.52,4.52,0,0,0-3.26,2,.35.35,0,0,0-.08.24.38.38,0,0,0,.08.25c.06.08,1.45,2,3.26,2a4.52,4.52,0,0,0,3.27-2,.39.39,0,0,0,0-.5Z" transform="translate(-4.3 0)"/><path class="cls-4" d="M138.83,463.2a.38.38,0,0,1-.09.25c-.07.08-1.46,2-3.27,2a4.49,4.49,0,0,1-3.26-2,.38.38,0,0,1-.08-.25Z" transform="translate(-4.3 0)"/><path class="cls-7" d="M136.9,463.2a.49.49,0,1,1-.5-.44h0a.47.47,0,0,1,.48.44Z" transform="translate(-4.3 0)"/><path class="cls-8" d="M136.9,463.2a.48.48,0,0,1-.56.38.47.47,0,0,1-.41-.38Z" transform="translate(-4.3 0)"/><path class="cls-4" d="M121.64,469.16a1.33,1.33,0,0,0-1.78-.06,1.14,1.14,0,0,0-.4.68l-.28,1.47a1.17,1.17,0,0,0,1,1.36,1.33,1.33,0,0,0,.81-.1,2.11,2.11,0,0,0,.9-3,2.18,2.18,0,0,0-.26-.34Z" transform="translate(-4.3 0)"/><path class="cls-5" d="M121.65,472a2.3,2.3,0,0,1-.65.5,1.32,1.32,0,0,1-1.7-.51,1.15,1.15,0,0,1-.11-.75h0a.8.8,0,0,1,.93-.6l1.09.17a.74.74,0,0,1,.6.88A.62.62,0,0,1,121.65,472Z" transform="translate(-4.3 0)"/><path class="cls-6" d="M127.84,471.63c-.06-.09-1.09-2.16-2.88-2.45s-3.52,1.34-3.61,1.41a.35.35,0,0,0-.12.23.39.39,0,0,0,0,.26,4.54,4.54,0,0,0,2.87,2.45c1.79.29,3.53-1.34,3.61-1.41a.41.41,0,0,0,.13-.23A.39.39,0,0,0,127.84,471.63Z" transform="translate(-4.3 0)"/><path class="cls-4" d="M127.87,471.89a.36.36,0,0,1-.13.23c-.08.07-1.81,1.7-3.6,1.41s-2.82-2.36-2.88-2.45a.39.39,0,0,1,0-.26Z" transform="translate(-4.3 0)"/><path class="cls-7" d="M126,471.58a.46.46,0,0,1-.51.37h0a.44.44,0,0,1-.39-.51h0a.49.49,0,0,1,.56-.36.44.44,0,0,1,.39.5Z" transform="translate(-4.3 0)"/><path class="cls-8" d="M126,471.58a.46.46,0,0,1-.51.37h0a.44.44,0,0,1-.39-.51h0Z" transform="translate(-4.3 0)"/><path class="cls-4" d="M291.17,474.5a1.35,1.35,0,0,0-1.77.24,1.18,1.18,0,0,0-.25.71V477a1.22,1.22,0,0,0,1.25,1.18,1.39,1.39,0,0,0,.77-.23,2.14,2.14,0,0,0,0-3.45Z" transform="translate(-4.3 0)"/><path class="cls-5" d="M291.72,477.3a2.1,2.1,0,0,1-.55.6,1.35,1.35,0,0,1-1.77-.24,1.18,1.18,0,0,1-.25-.71h0a.79.79,0,0,1,.8-.74H291a.77.77,0,0,1,.78.76A.64.64,0,0,1,291.72,477.3Z" transform="translate(-4.3 0)"/><path class="cls-6" d="M297.73,476c-.06-.08-1.45-2-3.26-2a4.55,4.55,0,0,0-3.27,2,.41.41,0,0,0-.08.24.44.44,0,0,0,.08.25c.07.08,1.46,2,3.27,2a4.49,4.49,0,0,0,3.26-2,.39.39,0,0,0,0-.5Z" transform="translate(-4.3 0)"/><path class="cls-4" d="M297.82,476.2a.3.3,0,0,1-.09.25c-.06.08-1.45,2-3.26,2a4.52,4.52,0,0,1-3.27-2,.44.44,0,0,1-.08-.25Z" transform="translate(-4.3 0)"/><path class="cls-7" d="M295.89,476.2a.46.46,0,0,1-.47.46.45.45,0,1,1,0-.9h0a.46.46,0,0,1,.47.44Z" transform="translate(-4.3 0)"/><path class="cls-8" d="M295.89,476.2a.48.48,0,0,1-.55.38.46.46,0,0,1-.41-.38Z" transform="translate(-4.3 0)"/><path class="cls-4" d="M280.64,465.16a1.35,1.35,0,0,0-1.79-.06,1.13,1.13,0,0,0-.39.68l-.28,1.47a1.16,1.16,0,0,0,1,1.36,1.32,1.32,0,0,0,.81-.1,2.11,2.11,0,0,0,.9-3,2.13,2.13,0,0,0-.25-.34Z" transform="translate(-4.3 0)"/><path class="cls-5" d="M280.65,468a2.62,2.62,0,0,1-.65.5,1.32,1.32,0,0,1-1.7-.51,1,1,0,0,1-.11-.75h0a.79.79,0,0,1,.92-.6l1.09.17a.74.74,0,0,1,.61.88A.71.71,0,0,1,280.65,468Z" transform="translate(-4.3 0)"/><path class="cls-6" d="M286.83,467.63c-.05-.09-1.09-2.16-2.87-2.45s-3.53,1.34-3.62,1.41a.46.46,0,0,0-.12.23.57.57,0,0,0,0,.26c.06.09,1.09,2.16,2.88,2.45s3.53-1.34,3.6-1.41a.36.36,0,0,0,.13-.23A.39.39,0,0,0,286.83,467.63Z" transform="translate(-4.3 0)"/><path class="cls-4" d="M286.87,467.89a.41.41,0,0,1-.13.23c-.08.07-1.81,1.7-3.61,1.41s-2.82-2.36-2.87-2.45a.39.39,0,0,1,0-.26Z" transform="translate(-4.3 0)"/><path class="cls-7" d="M285,467.58a.46.46,0,0,1-.51.37h0a.45.45,0,0,1-.4-.51h0a.5.5,0,0,1,.57-.36.43.43,0,0,1,.38.5Z" transform="translate(-4.3 0)"/><path class="cls-8" d="M285,467.58a.46.46,0,0,1-.51.37h0a.45.45,0,0,1-.4-.51h0Z" transform="translate(-4.3 0)"/><path class="cls-9" d="M171.78,431.3a.47.47,0,0,0-.38-.56h0l-3.27-1a.52.52,0,0,0-.5.52l.15,2a1.45,1.45,0,0,0,.88,1.22,1.67,1.67,0,0,0,1.55-.08A3.4,3.4,0,0,0,171.78,431.3Z" transform="translate(-4.3 0)"/><path class="cls-10" d="M171.29,423.84a3.46,3.46,0,0,0-2-2.1,1.62,1.62,0,0,0-1.51.11,1.45,1.45,0,0,0-.7,1.32l.14,2.16a.52.52,0,0,0,.57.45l3.12-1.34a.48.48,0,0,0,.35-.6Z" transform="translate(-4.3 0)"/><path class="cls-10" d="M164.2,428c-.15-1.17,0-2.11-1-2.95-.81-.67-2.09-.91-4-.81a.54.54,0,0,0-.5.52,4.26,4.26,0,0,0,1.27,3.16,2,2,0,0,0,.48.31,2.5,2.5,0,0,0-.66.5,3.2,3.2,0,0,0-.62,2.66c.07.89.42.75,1.09.73a4.13,4.13,0,0,0,3-.88A4.2,4.2,0,0,0,164.2,428Z" transform="translate(-4.3 0)"/><path class="cls-9" d="M159.2,431.41c.07.89.42.75,1.09.73a3.3,3.3,0,0,0,3.86-4.14h0l-3.76.23h0a2.3,2.3,0,0,0-.65.5A3.19,3.19,0,0,0,159.2,431.41Z" transform="translate(-4.3 0)"/><path class="cls-11" d="M175.57,431.16c-2.85,1.36-6.29.75-12.25-2.59a.55.55,0,0,1-.15-.82l.08-.09c5.35-4,8.64-5.1,11.62-4.17l1,1.7V429Z" transform="translate(-4.3 0)"/><path class="cls-12" d="M163.31,428.57c5.95,3.34,9.4,3.95,12.25,2.59l.21-2.12v-1.72h0l-12.77.75A.59.59,0,0,0,163.31,428.57Z" transform="translate(-4.3 0)"/><path class="cls-13" d="M179.35,428.14a17.89,17.89,0,0,1-2.64,2.34,9.27,9.27,0,0,1-1.14.68,4.22,4.22,0,0,1-2.51-5.7,4.52,4.52,0,0,1,1.81-2,8.37,8.37,0,0,1,1.23.51,16.8,16.8,0,0,1,3.1,2.08,1.46,1.46,0,0,1,.53,1A1.51,1.51,0,0,1,179.35,428.14Z" transform="translate(-4.3 0)"/><path class="cls-10" d="M172.69,427.5a4.43,4.43,0,0,0,2.88,3.66,9.27,9.27,0,0,0,1.14-.68,17.89,17.89,0,0,0,2.64-2.34,1.46,1.46,0,0,0,.38-1.06l-7,.42Z" transform="translate(-4.3 0)"/><path class="cls-10" d="M171.74,429.73a.55.55,0,0,1-.69-.27,5.75,5.75,0,0,1-.3-3.7.54.54,0,0,1,.68-.3.49.49,0,0,1,.35.51,5.1,5.1,0,0,0,.25,3.13.47.47,0,0,1-.28.63Z" transform="translate(-4.3 0)"/><path class="cls-10" d="M170.59,427.63a5.8,5.8,0,0,0,.46,1.83.55.55,0,0,0,.69.27.46.46,0,0,0,.29-.62h0a4.83,4.83,0,0,1-.37-1.53h0l-1.09.06Z" transform="translate(-4.3 0)"/><ellipse class="cls-14" cx="171.53" cy="426.77" rx="0.53" ry="0.49"/><path class="cls-4" d="M418.62,562.42a.46.46,0,0,0-.55.32v0l-.68,3.49a.45.45,0,0,0,.39.51h0a2.39,2.39,0,0,0,2.72-1.87,2.23,2.23,0,0,0-1.88-2.48Z" transform="translate(-4.3 0)"/><path class="cls-5" d="M420.56,565a2.39,2.39,0,0,1-2.78,1.8h0a.46.46,0,0,1-.4-.51h0l.34-1.74Z" transform="translate(-4.3 0)"/><path class="cls-6" d="M426.23,565.63c-.06-.09-1.09-2.16-2.88-2.45s-3.53,1.34-3.61,1.41a.35.35,0,0,0-.12.23.39.39,0,0,0,0,.26c.05.09,1.09,2.16,2.87,2.45s3.53-1.34,3.61-1.41a.41.41,0,0,0,.13-.23A.57.57,0,0,0,426.23,565.63Z" transform="translate(-4.3 0)"/><path class="cls-4" d="M426.26,565.89a.36.36,0,0,1-.13.23c-.08.07-1.81,1.7-3.61,1.41s-2.82-2.36-2.87-2.45a.39.39,0,0,1,0-.26Z" transform="translate(-4.3 0)"/><path class="cls-7" d="M424.35,565.58a.45.45,0,0,1-.5.37h-.05a.44.44,0,0,1-.39-.51h0a.49.49,0,0,1,.56-.36.44.44,0,0,1,.39.5Z" transform="translate(-4.3 0)"/><path class="cls-8" d="M424.35,565.58a.45.45,0,0,1-.5.37h-.05a.44.44,0,0,1-.39-.51h0Z" transform="translate(-4.3 0)"/><path class="cls-9" d="M427.94,582.53a.47.47,0,0,0-.13-.68l-2.56-2.1a.53.53,0,0,0-.67.26v0l-.77,2a1.39,1.39,0,0,0,.26,1.45,1.61,1.61,0,0,0,1.45.51A3.79,3.79,0,0,0,427.94,582.53Z" transform="translate(-4.3 0)"/><path class="cls-10" d="M430.82,575.54a3.19,3.19,0,0,0-.86-2.66,1.59,1.59,0,0,0-1.43-.46,1.55,1.55,0,0,0-1.22.93l-.83,2a.45.45,0,0,0,.28.61h3.47A.52.52,0,0,0,430.82,575.54Z" transform="translate(-4.3 0)"/><path class="cls-10" d="M422.49,576.68c.39-1.12.95-1.92.39-3.07-.42-.91-1.5-1.62-3.26-2.22a.56.56,0,0,0-.69.28,4.14,4.14,0,0,0-.26,3.37,2.66,2.66,0,0,0,.29.45,3.24,3.24,0,0,0-.81.22,3.45,3.45,0,0,0-1.76,2.19c-.33.84,0,.83.71,1.09a4.22,4.22,0,0,0,3.14.33A4.56,4.56,0,0,0,422.49,576.68Z" transform="translate(-4.3 0)"/><path class="cls-9" d="M416.42,577.9c-.34.84,0,.83.7,1.09a4.22,4.22,0,0,0,3.14.33,4.51,4.51,0,0,0,2.23-2.65h0L419,575.46h0a3.24,3.24,0,0,0-.81.22A3.4,3.4,0,0,0,416.42,577.9Z" transform="translate(-4.3 0)"/><path class="cls-11" d="M431.47,583.82c-3.22.17-6.08-1.67-10-7a.56.56,0,0,1,.21-.8l.12,0c6.64-1.59,10.15-1.4,12.46.57l.13,1.91-1,1.93-.79,1.56Z" transform="translate(-4.3 0)"/><path class="cls-12" d="M421.4,576.85c4,5.3,6.81,7.14,10,7l1.09-1.85.8-1.56h0l-12-4.11A.54.54,0,0,0,421.4,576.85Z" transform="translate(-4.3 0)"/><path class="cls-13" d="M436.25,582.49a18.6,18.6,0,0,1-3.45,1.14,9.91,9.91,0,0,1-1.33.19,4,4,0,0,1-1-4.41,4.68,4.68,0,0,1,3.77-2.84,7.11,7.11,0,0,1,.9.92,15.4,15.4,0,0,1,1.89,3.06,1.34,1.34,0,0,1,0,1.11A1.58,1.58,0,0,1,436.25,582.49Z" transform="translate(-4.3 0)"/><path class="cls-10" d="M430.47,579.41a4.07,4.07,0,0,0,1,4.41,9.91,9.91,0,0,0,1.33-.19,18.6,18.6,0,0,0,3.45-1.14,1.53,1.53,0,0,0,.82-.82l-6.6-2.26Z" transform="translate(-4.3 0)"/><path class="cls-10" d="M428.6,581.08a.49.49,0,0,1-.5-.5h0a5.56,5.56,0,0,1,.39-1.84,6.62,6.62,0,0,1,1-1.66.56.56,0,0,1,.74-.14.47.47,0,0,1,.15.68l0,0a5,5,0,0,0-.82,1.41,4.53,4.53,0,0,0-.34,1.54.5.5,0,0,1-.53.46Z" transform="translate(-4.3 0)"/><path class="cls-10" d="M428.49,578.74a5.56,5.56,0,0,0-.39,1.84.5.5,0,0,0,.5.5h0a.49.49,0,0,0,.54-.44v0a4.53,4.53,0,0,1,.34-1.54h0l-1-.34Z" transform="translate(-4.3 0)"/><ellipse class="cls-14" cx="429.36" cy="579.92" rx="0.53" ry="0.49"/><path class="cls-4" d="M305.48,522.16a.53.53,0,0,0-.64.31v0l-1.53,3.82a.45.45,0,0,0,.25.62h0a2.81,2.81,0,0,0,3.33-2A2.52,2.52,0,0,0,305.48,522.16Z" transform="translate(-4.3 0)"/><path class="cls-5" d="M306.78,525.31a2.65,2.65,0,0,1-3.21,1.63.46.46,0,0,1-.27-.62h0l.76-1.91Z" transform="translate(-4.3 0)"/><path class="cls-6" d="M312.24,526.84c0-.11-.53-2.58-2.24-3.16s-3.85,1-3.94,1.08a.45.45,0,0,0-.18.25.37.37,0,0,0,0,.29c0,.1.52,2.58,2.24,3.16s3.84-1,3.94-1.08a.56.56,0,0,0,.18-.25A.48.48,0,0,0,312.24,526.84Z" transform="translate(-4.3 0)"/><path class="cls-4" d="M312.21,527.13a.58.58,0,0,1-.19.25c-.1.06-2.18,1.66-3.93,1.08s-2.18-3.06-2.24-3.16a.37.37,0,0,1,0-.29Z" transform="translate(-4.3 0)"/><path class="cls-7" d="M310.4,526.53a.52.52,0,0,1-.63.32h0a.45.45,0,0,1-.28-.6l0,0a.5.5,0,0,1,.61-.33h0A.46.46,0,0,1,310.4,526.53Z" transform="translate(-4.3 0)"/><path class="cls-8" d="M310.4,526.53a.52.52,0,0,1-.63.32h0a.45.45,0,0,1-.28-.6l0,0Z" transform="translate(-4.3 0)"/><path class="cls-4" d="M294.34,511.79a.48.48,0,0,0-.61.24v0l-1.33,3.32a.43.43,0,0,0,.28.57h0a2.47,2.47,0,0,0,3.07-1.35,2.17,2.17,0,0,0-1.41-2.8Z" transform="translate(-4.3 0)"/><path class="cls-5" d="M295.76,514.62a2.46,2.46,0,0,1-3.08,1.32.44.44,0,0,1-.3-.56h0l.66-1.66Z" transform="translate(-4.3 0)"/><path class="cls-6" d="M301.21,516.19a4.37,4.37,0,0,0-2.35-2.88c-1.71-.58-3.74.75-3.84.8a.45.45,0,0,0-.18.47,4.36,4.36,0,0,0,2.36,2.88c1.72.58,3.73-.75,3.82-.8a.43.43,0,0,0,.17-.21A.39.39,0,0,0,301.21,516.19Z" transform="translate(-4.3 0)"/><path class="cls-4" d="M301.19,516.45a.43.43,0,0,1-.17.21c-.09.05-2.11,1.38-3.82.8s-2.33-2.79-2.36-2.88a.39.39,0,0,1,0-.26Z" transform="translate(-4.3 0)"/><path class="cls-7" d="M299.43,515.84a.49.49,0,0,1-.61.27.44.44,0,0,1-.29-.57.5.5,0,0,1,.62-.27.43.43,0,0,1,.29.56Z" transform="translate(-4.3 0)"/><path class="cls-8" d="M299.43,515.84a.49.49,0,0,1-.61.27.44.44,0,0,1-.29-.57Z" transform="translate(-4.3 0)"/><path class="cls-4" d="M282.36,516.79a.49.49,0,0,0-.61.24v0l-1.33,3.32a.43.43,0,0,0,.28.57h0a2.47,2.47,0,0,0,3.07-1.35A2.17,2.17,0,0,0,282.36,516.79Z" transform="translate(-4.3 0)"/><path class="cls-5" d="M283.78,519.62a2.46,2.46,0,0,1-3.08,1.32.44.44,0,0,1-.3-.56h0l.66-1.66Z" transform="translate(-4.3 0)"/><path class="cls-6" d="M289.23,521.19a4.37,4.37,0,0,0-2.35-2.88c-1.71-.58-3.74.75-3.84.8a.45.45,0,0,0-.18.47,4.36,4.36,0,0,0,2.36,2.88c1.72.58,3.73-.75,3.82-.8a.43.43,0,0,0,.17-.21A.33.33,0,0,0,289.23,521.19Z" transform="translate(-4.3 0)"/><path class="cls-4" d="M289.21,521.45a.43.43,0,0,1-.17.21c-.09.05-2.11,1.38-3.82.8s-2.33-2.79-2.36-2.88a.39.39,0,0,1,0-.26Z" transform="translate(-4.3 0)"/><path class="cls-7" d="M287.45,520.84a.49.49,0,0,1-.61.27.44.44,0,0,1-.29-.57.5.5,0,0,1,.62-.27.43.43,0,0,1,.29.56Z" transform="translate(-4.3 0)"/><path class="cls-8" d="M287.45,520.84a.49.49,0,0,1-.61.27.44.44,0,0,1-.29-.57Z" transform="translate(-4.3 0)"/><path class="cls-9" d="M555.82,561.58a.46.46,0,0,0,0-.68l-2.12-2.49a.55.55,0,0,0-.72.17h0l-1.15,1.77a1.37,1.37,0,0,0,0,1.46,1.58,1.58,0,0,0,1.33.74A3.87,3.87,0,0,0,555.82,561.58Z" transform="translate(-4.3 0)"/><path class="cls-10" d="M560,555.17a3.14,3.14,0,0,0-.34-2.76,1.51,1.51,0,0,0-1.31-.68,1.66,1.66,0,0,0-1.4.72l-1.2,1.86a.47.47,0,0,0,.18.66h0l3.4.52a.53.53,0,0,0,.66-.31Z" transform="translate(-4.3 0)"/><path class="cls-10" d="M551.56,555c.6-1,1.31-1.74,1-3-.25-1-1.16-1.84-2.76-2.72a.58.58,0,0,0-.73.17,4.2,4.2,0,0,0-.91,3.27.41.41,0,0,1,.19.58.48.48,0,0,1-.83,0,3.62,3.62,0,0,0-2.18,1.88c-.49.77-.12.83.49,1.19a4.17,4.17,0,0,0,3,.83A4.71,4.71,0,0,0,551.56,555Z" transform="translate(-4.3 0)"/><path class="cls-9" d="M545.35,555.16c-.49.77-.12.83.49,1.19a4.13,4.13,0,0,0,3,.83,4.67,4.67,0,0,0,2.7-2.25h0l-3.26-1.76h0a3,3,0,0,0-.85.07A3.64,3.64,0,0,0,545.35,555.16Z" transform="translate(-4.3 0)"/><path class="cls-11" d="M559,563.43c-3.2-.35-5.66-2.63-8.52-8.49a.57.57,0,0,1,.36-.75l.14,0c6.84-.49,10.25.26,12.15,2.58l-.24,1.91-1.34,1.73-1.09,1.41Z" transform="translate(-4.3 0)"/><path class="cls-12" d="M550.51,554.94c2.86,5.86,5.32,8.14,8.52,8.49l1.47-1.64,1.09-1.41h0l-11-6A.52.52,0,0,0,550.51,554.94Z" transform="translate(-4.3 0)"/><path class="cls-13" d="M564,562.89a20,20,0,0,1-3.61.57,10.29,10.29,0,0,1-1.36,0,4.14,4.14,0,0,1,1.41-6,5,5,0,0,1,2.72-.69,8.63,8.63,0,0,1,.71,1,15.37,15.37,0,0,1,1.27,3.32,1.34,1.34,0,0,1-.17,1.1A1.63,1.63,0,0,1,564,562.89Z" transform="translate(-4.3 0)"/><path class="cls-10" d="M558.9,558.92a4,4,0,0,0,.13,4.51,10.29,10.29,0,0,0,1.36,0,20,20,0,0,0,3.61-.57,1.64,1.64,0,0,0,1-.67l-6.07-3.3Z" transform="translate(-4.3 0)"/><path class="cls-10" d="M556.75,560.27a.48.48,0,0,1-.41-.57h0a5.88,5.88,0,0,1,.74-1.75,6.87,6.87,0,0,1,1.28-1.47.56.56,0,0,1,.75,0,.46.46,0,0,1,0,.68h0a5.43,5.43,0,0,0-1.09,1.26,5.09,5.09,0,0,0-.63,1.46.52.52,0,0,1-.59.41Z" transform="translate(-4.3 0)"/><path class="cls-10" d="M557.08,557.94a5.88,5.88,0,0,0-.74,1.75.49.49,0,0,0,.39.58h0a.52.52,0,0,0,.62-.37h0a5.09,5.09,0,0,1,.63-1.46h0l-.92-.49Z" transform="translate(-4.3 0)"/><ellipse class="cls-14" cx="557.64" cy="559.94" rx="0.53" ry="0.49"/><path class="cls-4" d="M568.9,609.42a.46.46,0,0,0-.55.32v0l-.67,3.49a.44.44,0,0,0,.39.51h0a2.38,2.38,0,0,0,2.72-1.87A2.23,2.23,0,0,0,568.9,609.42Z" transform="translate(-4.3 0)"/><path class="cls-5" d="M570.85,612a2.4,2.4,0,0,1-2.78,1.8h0a.44.44,0,0,1-.39-.51h0l.34-1.74Z" transform="translate(-4.3 0)"/><path class="cls-6" d="M576.51,612.63a4.54,4.54,0,0,0-2.87-2.45c-1.79-.29-3.53,1.34-3.62,1.41a.46.46,0,0,0-.12.23.39.39,0,0,0,0,.26c.05.09,1.09,2.16,2.88,2.45s3.52-1.34,3.6-1.41a.36.36,0,0,0,.13-.23A.39.39,0,0,0,576.51,612.63Z" transform="translate(-4.3 0)"/><path class="cls-4" d="M576.54,612.89a.36.36,0,0,1-.13.23c-.07.07-1.81,1.7-3.6,1.41s-2.82-2.36-2.88-2.45a.57.57,0,0,1,0-.26Z" transform="translate(-4.3 0)"/><path class="cls-7" d="M574.64,612.58a.46.46,0,0,1-.51.37h0a.45.45,0,0,1-.39-.51h0a.49.49,0,0,1,.57-.36.44.44,0,0,1,.38.5Z" transform="translate(-4.3 0)"/><path class="cls-8" d="M574.64,612.58a.46.46,0,0,1-.51.37h0a.45.45,0,0,1-.39-.51h0Z" transform="translate(-4.3 0)"/><path class="cls-9" d="M575,628.53a.46.46,0,0,0-.13-.68l-2.56-2.1a.52.52,0,0,0-.66.26v0l-.77,2a1.39,1.39,0,0,0,.26,1.45,1.6,1.6,0,0,0,1.44.51A3.77,3.77,0,0,0,575,628.53Z" transform="translate(-4.3 0)"/><path class="cls-10" d="M577.84,621.54a3.19,3.19,0,0,0-.86-2.66,1.61,1.61,0,0,0-1.44-.46,1.56,1.56,0,0,0-1.22.93l-.83,2a.46.46,0,0,0,.29.61h3.47A.52.52,0,0,0,577.84,621.54Z" transform="translate(-4.3 0)"/><path class="cls-10" d="M569.51,622.68c.39-1.12,1-1.92.39-3.07-.42-.91-1.5-1.62-3.27-2.22a.55.55,0,0,0-.68.28,4.1,4.1,0,0,0-.26,3.37,2.66,2.66,0,0,0,.29.45,3.31,3.31,0,0,0-.82.22,3.44,3.44,0,0,0-1.75,2.19c-.34.84,0,.83.71,1.09a4.2,4.2,0,0,0,3.13.33A4.54,4.54,0,0,0,569.51,622.68Z" transform="translate(-4.3 0)"/><path class="cls-9" d="M563.43,623.9c-.34.84,0,.83.71,1.09a4.22,4.22,0,0,0,3.14.33,4.47,4.47,0,0,0,2.17-2.65h0l-3.52-1.21h0a3.2,3.2,0,0,0-.82.22A3.4,3.4,0,0,0,563.43,623.9Z" transform="translate(-4.3 0)"/><path class="cls-11" d="M578.48,629.82c-3.27.17-6.07-1.67-10-7a.56.56,0,0,1,.22-.8l.12,0c6.63-1.59,10.15-1.4,12.46.57l.13,1.91-1,1.93-.8,1.56Z" transform="translate(-4.3 0)"/><path class="cls-12" d="M568.42,622.85c3.94,5.3,6.81,7.14,10,7l1.09-1.85.79-1.56h0l-12-4.11A.52.52,0,0,0,568.42,622.85Z" transform="translate(-4.3 0)"/><path class="cls-13" d="M583.26,628.49a18.5,18.5,0,0,1-3.44,1.14,10.05,10.05,0,0,1-1.34.19,4,4,0,0,1-1-4.41,4.68,4.68,0,0,1,3.77-2.84,7.74,7.74,0,0,1,.89.92,15.44,15.44,0,0,1,1.9,3.06,1.34,1.34,0,0,1,0,1.11A1.56,1.56,0,0,1,583.26,628.49Z" transform="translate(-4.3 0)"/><path class="cls-10" d="M577.49,625.41a4,4,0,0,0,1,4.41,10.05,10.05,0,0,0,1.34-.19,18.5,18.5,0,0,0,3.44-1.14,1.55,1.55,0,0,0,.83-.82l-6.6-2.26Z" transform="translate(-4.3 0)"/><path class="cls-10" d="M575.62,627.08a.49.49,0,0,1-.5-.5h0a5.32,5.32,0,0,1,.39-1.84,6.33,6.33,0,0,1,1-1.66.56.56,0,0,1,.74-.14.47.47,0,0,1,.15.68l0,0a5.31,5.31,0,0,0-1.17,3,.49.49,0,0,1-.52.46Z" transform="translate(-4.3 0)"/><path class="cls-10" d="M575.51,624.74a5.32,5.32,0,0,0-.39,1.84.49.49,0,0,0,.5.5h0a.5.5,0,0,0,.54-.44v0a4.79,4.79,0,0,1,.35-1.54h0l-1-.34Z" transform="translate(-4.3 0)"/><ellipse class="cls-14" cx="576.37" cy="625.92" rx="0.53" ry="0.49"/><path class="cls-4" d="M838,650.16a.52.52,0,0,0-.63.31v0l-1.52,3.82a.45.45,0,0,0,.24.62h0a2.8,2.8,0,0,0,3.32-2,2.49,2.49,0,0,0-1.42-2.81Z" transform="translate(-4.3 0)"/><path class="cls-5" d="M839.31,653.31a2.66,2.66,0,0,1-3.24,1.64h0a.45.45,0,0,1-.26-.62h0l.76-1.91Z" transform="translate(-4.3 0)"/><path class="cls-6" d="M844.77,654.84c0-.11-.54-2.58-2.25-3.16s-3.84,1-3.94,1.08a.44.44,0,0,0-.17.25.37.37,0,0,0,0,.29c0,.1.52,2.58,2.24,3.16s3.83-1,3.93-1.08a.58.58,0,0,0,.19-.25A.71.71,0,0,0,844.77,654.84Z" transform="translate(-4.3 0)"/><path class="cls-4" d="M844.73,655.13a.56.56,0,0,1-.18.25c-.1.06-2.18,1.66-3.93,1.08s-2.18-3.06-2.25-3.16a.48.48,0,0,1,0-.29Z" transform="translate(-4.3 0)"/><path class="cls-7" d="M842.93,654.53a.52.52,0,0,1-.64.32h0a.45.45,0,0,1-.27-.6v0a.51.51,0,0,1,.61-.33h0A.47.47,0,0,1,842.93,654.53Z" transform="translate(-4.3 0)"/><path class="cls-8" d="M842.93,654.53a.52.52,0,0,1-.64.32h0a.45.45,0,0,1-.27-.6v0Z" transform="translate(-4.3 0)"/><path class="cls-4" d="M826.86,639.79a.49.49,0,0,0-.61.24v0l-1.33,3.32a.44.44,0,0,0,.29.57h0a2.47,2.47,0,0,0,3.07-1.35,2.17,2.17,0,0,0-1.42-2.8Z" transform="translate(-4.3 0)"/><path class="cls-5" d="M828.29,642.62a2.46,2.46,0,0,1-3.08,1.32.43.43,0,0,1-.3-.56h0l.67-1.66Z" transform="translate(-4.3 0)"/><path class="cls-6" d="M833.73,644.19a4.37,4.37,0,0,0-2.35-2.88c-1.71-.58-3.73.75-3.83.8a.48.48,0,0,0-.19.47,4.39,4.39,0,0,0,2.37,2.88c1.72.58,3.72-.75,3.82-.8a.41.41,0,0,0,.16-.21A.33.33,0,0,0,833.73,644.19Z" transform="translate(-4.3 0)"/><path class="cls-4" d="M833.71,644.45a.41.41,0,0,1-.16.21c-.1.05-2.11,1.38-3.82.8s-2.33-2.79-2.37-2.88a.57.57,0,0,1,0-.26Z" transform="translate(-4.3 0)"/><path class="cls-7" d="M832,643.84a.5.5,0,0,1-.62.27.43.43,0,0,1-.28-.57.5.5,0,0,1,.62-.27.42.42,0,0,1,.28.56Z" transform="translate(-4.3 0)"/><path class="cls-8" d="M832,643.84a.5.5,0,0,1-.62.27.43.43,0,0,1-.28-.57Z" transform="translate(-4.3 0)"/><path class="cls-4" d="M814.88,644.79a.49.49,0,0,0-.61.24v0l-1.33,3.32a.44.44,0,0,0,.29.57h0a2.47,2.47,0,0,0,3.07-1.35,2.17,2.17,0,0,0-1.42-2.8Z" transform="translate(-4.3 0)"/><path class="cls-5" d="M816.31,647.62a2.46,2.46,0,0,1-3.08,1.32.43.43,0,0,1-.3-.56h0l.67-1.66Z" transform="translate(-4.3 0)"/><path class="cls-6" d="M821.76,649.19a4.39,4.39,0,0,0-2.36-2.88c-1.71-.58-3.73.75-3.83.8a.45.45,0,0,0-.18.47,4.36,4.36,0,0,0,2.36,2.88c1.72.58,3.72-.75,3.82-.8a.41.41,0,0,0,.16-.21A.39.39,0,0,0,821.76,649.19Z" transform="translate(-4.3 0)"/><path class="cls-4" d="M821.73,649.45a.41.41,0,0,1-.16.21c-.1.05-2.11,1.38-3.82.8s-2.33-2.79-2.37-2.88a.57.57,0,0,1,0-.26Z" transform="translate(-4.3 0)"/><path class="cls-7" d="M820,648.84a.5.5,0,0,1-.61.27.44.44,0,0,1-.29-.57.5.5,0,0,1,.62-.27.42.42,0,0,1,.28.56Z" transform="translate(-4.3 0)"/><path class="cls-8" d="M820,648.84a.5.5,0,0,1-.61.27.44.44,0,0,1-.29-.57Z" transform="translate(-4.3 0)"/><path class="cls-4" d="M864,724.5a1.34,1.34,0,0,0-1.77.24,1.12,1.12,0,0,0-.25.76V727a1.22,1.22,0,0,0,1.25,1.18A1.42,1.42,0,0,0,864,728a2.14,2.14,0,0,0,.87-1.7A2.18,2.18,0,0,0,864,724.5Z" transform="translate(-4.3 0)"/><path class="cls-5" d="M864.54,727.3a2.1,2.1,0,0,1-.55.6,1.35,1.35,0,0,1-1.77-.24A1.18,1.18,0,0,1,862,727h0a.79.79,0,0,1,.8-.74h1.09a.77.77,0,0,1,.78.76A.75.75,0,0,1,864.54,727.3Z" transform="translate(-4.3 0)"/><path class="cls-6" d="M870.55,726c-.06-.08-1.46-2-3.26-2a4.55,4.55,0,0,0-3.27,2,.41.41,0,0,0-.08.24.44.44,0,0,0,.08.25c.07.08,1.46,2,3.27,2a4.51,4.51,0,0,0,3.26-2,.39.39,0,0,0,0-.5Z" transform="translate(-4.3 0)"/><path class="cls-4" d="M870.64,726.2a.34.34,0,0,1-.09.25c-.06.08-1.46,2-3.26,2a4.52,4.52,0,0,1-3.27-2,.44.44,0,0,1-.08-.25Z" transform="translate(-4.3 0)"/><path class="cls-7" d="M868.71,726.2a.46.46,0,0,1-.48.46.47.47,0,0,1-.5-.44.48.48,0,0,1,.48-.46h0a.46.46,0,0,1,.48.44Z" transform="translate(-4.3 0)"/><path class="cls-8" d="M868.71,726.2a.5.5,0,0,1-1,0Z" transform="translate(-4.3 0)"/><path class="cls-4" d="M853.46,715.16a1.36,1.36,0,0,0-1.79-.07,1.18,1.18,0,0,0-.39.69l-.28,1.47a1.16,1.16,0,0,0,1,1.36,1.32,1.32,0,0,0,.81-.1,2.11,2.11,0,0,0,.9-3,2.13,2.13,0,0,0-.25-.34Z" transform="translate(-4.3 0)"/><path class="cls-5" d="M853.47,718a2.5,2.5,0,0,1-.66.5,1.31,1.31,0,0,1-1.69-.51,1,1,0,0,1-.11-.75h0a.79.79,0,0,1,.92-.6l1.09.17a.74.74,0,0,1,.61.88A.71.71,0,0,1,853.47,718Z" transform="translate(-4.3 0)"/><path class="cls-6" d="M859.65,717.63a4.54,4.54,0,0,0-2.87-2.45c-1.79-.29-3.53,1.34-3.62,1.41a.46.46,0,0,0-.12.23.57.57,0,0,0,0,.26c.06.09,1.09,2.16,2.88,2.45s3.53-1.34,3.6-1.41a.36.36,0,0,0,.13-.23A.39.39,0,0,0,859.65,717.63Z" transform="translate(-4.3 0)"/><path class="cls-4" d="M859.69,717.89a.41.41,0,0,1-.13.23c-.08.07-1.81,1.7-3.61,1.41s-2.82-2.36-2.87-2.45a.39.39,0,0,1,0-.26Z" transform="translate(-4.3 0)"/><path class="cls-7" d="M857.78,717.58a.46.46,0,0,1-.51.37h0a.45.45,0,0,1-.39-.51h0a.49.49,0,0,1,.57-.36.43.43,0,0,1,.38.5Z" transform="translate(-4.3 0)"/><path class="cls-8" d="M857.78,717.58a.46.46,0,0,1-.51.37h0a.45.45,0,0,1-.39-.51h0Z" transform="translate(-4.3 0)"/><path class="cls-4" d="M958.76,689.42a.45.45,0,0,0-.54.32v0l-.68,3.49a.45.45,0,0,0,.39.51h0a2.39,2.39,0,0,0,2.72-1.87A2.24,2.24,0,0,0,958.76,689.42Z" transform="translate(-4.3 0)"/><path class="cls-5" d="M960.71,692a2.39,2.39,0,0,1-2.78,1.8h0a.45.45,0,0,1-.4-.51h0l.34-1.74Z" transform="translate(-4.3 0)"/><path class="cls-6" d="M966.38,692.63a4.54,4.54,0,0,0-2.88-2.45c-1.78-.29-3.53,1.34-3.61,1.41a.35.35,0,0,0-.12.23.39.39,0,0,0,0,.26c.05.09,1.08,2.16,2.87,2.45s3.53-1.34,3.61-1.41a.41.41,0,0,0,.13-.23A.57.57,0,0,0,966.38,692.63Z" transform="translate(-4.3 0)"/><path class="cls-4" d="M966.41,692.89a.41.41,0,0,1-.13.23c-.08.07-1.81,1.7-3.61,1.41s-2.82-2.36-2.87-2.45a.39.39,0,0,1,0-.26Z" transform="translate(-4.3 0)"/><path class="cls-7" d="M964.5,692.58a.45.45,0,0,1-.51.37h0a.44.44,0,0,1-.39-.51h0a.49.49,0,0,1,.56-.36.44.44,0,0,1,.39.5Z" transform="translate(-4.3 0)"/><path class="cls-8" d="M964.5,692.58a.45.45,0,0,1-.51.37h0a.44.44,0,0,1-.39-.51h0Z" transform="translate(-4.3 0)"/><path class="cls-9" d="M964.82,708.53a.46.46,0,0,0-.13-.68l-2.56-2.1a.53.53,0,0,0-.67.26v0l-.77,2a1.39,1.39,0,0,0,.26,1.45,1.61,1.61,0,0,0,1.45.51A3.77,3.77,0,0,0,964.82,708.53Z" transform="translate(-4.3 0)"/><path class="cls-10" d="M967.7,701.54a3.16,3.16,0,0,0-.86-2.66,1.59,1.59,0,0,0-1.43-.46,1.55,1.55,0,0,0-1.22.93l-.83,2a.45.45,0,0,0,.28.61h3.48A.51.51,0,0,0,967.7,701.54Z" transform="translate(-4.3 0)"/><path class="cls-10" d="M959.37,702.68c.4-1.12,1-1.92.4-3.07-.43-.91-1.51-1.62-3.27-2.22a.56.56,0,0,0-.69.28,4.18,4.18,0,0,0-.26,3.37,2.21,2.21,0,0,0,.3.45,3.2,3.2,0,0,0-.82.22,3.41,3.41,0,0,0-1.75,2.19c-.34.84,0,.83.7,1.09a4.22,4.22,0,0,0,3.14.33A4.49,4.49,0,0,0,959.37,702.68Z" transform="translate(-4.3 0)"/><path class="cls-9" d="M953.3,703.9c-.34.84,0,.83.71,1.09a4.19,4.19,0,0,0,3.13.33,4.52,4.52,0,0,0,2.18-2.65h0l-3.53-1.21h0a3.31,3.31,0,0,0-.82.22A3.39,3.39,0,0,0,953.3,703.9Z" transform="translate(-4.3 0)"/><path class="cls-11" d="M968.35,709.82c-3.27.17-6.08-1.67-10-7a.56.56,0,0,1,.21-.8l.13,0c6.63-1.59,10.15-1.4,12.45.57l.14,1.91-1,1.93-.79,1.56Z" transform="translate(-4.3 0)"/><path class="cls-12" d="M958.28,702.85c4,5.3,6.81,7.14,10,7l1.09-1.85.8-1.56h0l-12-4.11A.54.54,0,0,0,958.28,702.85Z" transform="translate(-4.3 0)"/><path class="cls-13" d="M973.13,708.49a18.75,18.75,0,0,1-3.44,1.14,10.05,10.05,0,0,1-1.34.19,4,4,0,0,1-1-4.41,4.65,4.65,0,0,1,3.76-2.84,7.11,7.11,0,0,1,.9.92,15.4,15.4,0,0,1,1.89,3.06,1.27,1.27,0,0,1,0,1.11A1.58,1.58,0,0,1,973.13,708.49Z" transform="translate(-4.3 0)"/><path class="cls-10" d="M967.36,705.41a4,4,0,0,0,1,4.41,10.05,10.05,0,0,0,1.34-.19,18.75,18.75,0,0,0,3.44-1.14,1.55,1.55,0,0,0,.83-.82l-6.6-2.26Z" transform="translate(-4.3 0)"/><path class="cls-10" d="M965.48,707.08a.49.49,0,0,1-.5-.5h0a5.82,5.82,0,0,1,.39-1.84,6.94,6.94,0,0,1,1-1.66.56.56,0,0,1,.74-.14.46.46,0,0,1,.15.68l0,0a4.74,4.74,0,0,0-.81,1.41,4.32,4.32,0,0,0-.35,1.54.49.49,0,0,1-.52.46Z" transform="translate(-4.3 0)"/><path class="cls-10" d="M965.37,704.74a5.82,5.82,0,0,0-.39,1.84.5.5,0,0,0,.5.5h0a.5.5,0,0,0,.55-.44v0a4.32,4.32,0,0,1,.35-1.54h0l-1-.34Z" transform="translate(-4.3 0)"/><ellipse class="cls-14" cx="966.24" cy="705.92" rx="0.53" ry="0.49"/><path class="cls-9" d="M719.17,671.58a.46.46,0,0,0,0-.68L717,668.41a.53.53,0,0,0-.71.17h0l-1.14,1.77a1.37,1.37,0,0,0,0,1.46,1.57,1.57,0,0,0,1.33.74A3.88,3.88,0,0,0,719.17,671.58Z" transform="translate(-4.3 0)"/><path class="cls-10" d="M723.34,665.17a3.14,3.14,0,0,0-.34-2.76,1.51,1.51,0,0,0-1.31-.68,1.68,1.68,0,0,0-1.4.72l-1.2,1.86a.47.47,0,0,0,.19.66h0l3.4.52a.53.53,0,0,0,.66-.31Z" transform="translate(-4.3 0)"/><path class="cls-10" d="M714.91,665c.6-1,1.31-1.74,1-3-.25-1-1.16-1.84-2.76-2.72a.58.58,0,0,0-.73.17,4.2,4.2,0,0,0-.91,3.27.41.41,0,0,1,.19.58.49.49,0,0,1-.63.18.46.46,0,0,1-.2-.19,3.62,3.62,0,0,0-2.18,1.88c-.49.77-.12.83.49,1.19a4.17,4.17,0,0,0,3,.83A4.71,4.71,0,0,0,714.91,665Z" transform="translate(-4.3 0)"/><path class="cls-9" d="M708.71,665.16c-.49.77-.12.83.49,1.19a4.09,4.09,0,0,0,3,.83,4.67,4.67,0,0,0,2.7-2.25h0l-3.26-1.76h0a3,3,0,0,0-.85.07A3.59,3.59,0,0,0,708.71,665.16Z" transform="translate(-4.3 0)"/><path class="cls-11" d="M722.38,673.43c-3.2-.35-5.66-2.63-8.52-8.49a.57.57,0,0,1,.36-.75l.14,0c6.84-.49,10.26.26,12.15,2.58l-.24,1.91-1.34,1.73-1.09,1.41Z" transform="translate(-4.3 0)"/><path class="cls-12" d="M713.86,664.94c2.86,5.86,5.32,8.14,8.52,8.49l1.47-1.64,1.09-1.41h0l-11-6A.52.52,0,0,0,713.86,664.94Z" transform="translate(-4.3 0)"/><path class="cls-13" d="M727.35,672.89a20,20,0,0,1-3.61.57,10.29,10.29,0,0,1-1.36,0,4.14,4.14,0,0,1,1.41-6,5,5,0,0,1,2.72-.69,8.63,8.63,0,0,1,.71,1,14.87,14.87,0,0,1,1.27,3.32,1.31,1.31,0,0,1-.17,1.1A1.63,1.63,0,0,1,727.35,672.89Z" transform="translate(-4.3 0)"/><path class="cls-10" d="M722.25,668.92a4.07,4.07,0,0,0,.13,4.51,10.29,10.29,0,0,0,1.36,0,20,20,0,0,0,3.61-.57,1.61,1.61,0,0,0,1-.67l-6.07-3.3Z" transform="translate(-4.3 0)"/><path class="cls-10" d="M720.1,670.27a.48.48,0,0,1-.41-.57h0a5.88,5.88,0,0,1,.74-1.75,6.87,6.87,0,0,1,1.28-1.47.56.56,0,0,1,.75,0,.46.46,0,0,1,0,.68h0a5.43,5.43,0,0,0-1.09,1.26,5.09,5.09,0,0,0-.63,1.46.51.51,0,0,1-.59.41Z" transform="translate(-4.3 0)"/><path class="cls-10" d="M720.43,667.94a5.88,5.88,0,0,0-.74,1.75.49.49,0,0,0,.39.58h0a.52.52,0,0,0,.62-.37h0a5.09,5.09,0,0,1,.63-1.46h0l-.92-.49Z" transform="translate(-4.3 0)"/><ellipse class="cls-14" cx="720.99" cy="669.94" rx="0.53" ry="0.49"/></svg>