<svg id="Layer_1" data-name="Layer 1" xmlns="http://www.w3.org/2000/svg" viewBox="0 0 1208.29 733"><defs><style>.cls-1{fill:#7cc5f2;}.cls-2{fill:#64afbc;}.cls-3{fill:#b0d9ed;}.cls-4{fill:#4bb9ec;}.cls-5{fill:#0095ff;}.cls-6{fill:#76e2f8;}.cls-7{fill:#697c86;}.cls-8{fill:#596c76;}.cls-9{fill:#a4d9f5;}.cls-10{fill:#b7e0f6;}.cls-11{fill:#81c8ee;}.cls-12{fill:#159ce4;}.cls-13{fill:#cae8f9;}.cls-14{fill:#3c3a41;}</style></defs><title>bg-img_repeat</title><path class="cls-1" d="M1202.37,706.68c-11.95-11.94-33.76-17.83-53-18.55-16.78-.62-33.73,7.57-50.34,1.74-23.11-8.08-24.89-37.18-47.91-45.42-25.1-9-54.71,13.75-80.18,5.5-22.25-7.23-25.76-33.06-46.18-43.32-27.1-13.64-63.41,8.18-93.86.33-28.79-7.42-40.7-38.23-69.75-44.94-26.6-6.15-56.75,10.76-81.71,1.16-21.07-8.12-27.84-31.67-49.27-39.24-24-8.49-52,7.65-77.43,2.37-26.26-5.46-38.44-31-63.13-40-28.67-10.45-65.4,4.35-92.56-8.45-19-9-27.64-29.32-48.26-35.62-23.6-7.21-50.34,7.73-74.7,2.5-32.63-7-43.43-45.41-76.56-50.67-21.68-3.44-42.29,9.36-64.39,10.49-26.27,1.34-51.35-17.07-52.77-38.07,1.42-21,26.5-39.41,52.77-38.07,22.05,1.13,42.66,13.93,64.39,10.49,33.13-5.26,43.93-43.68,76.56-50.67,24.39-5.23,51.1,9.71,74.7,2.5,20.62-6.3,29.27-26.65,48.26-35.62,27.16-12.8,63.89,2,92.56-8.45,24.69-9,36.87-34.53,63.13-40,25.38-5.28,53.43,10.86,77.43,2.37,21.43-7.57,28.1-31.12,49.27-39.24,25-9.6,55.11,7.31,81.71,1.16,29.05-6.71,41-37.52,69.75-44.94,30.44-7.85,66.73,14,93.86.33,20.38-10.26,23.87-36.09,46.18-43.32,25.47-8.25,55.08,14.48,80.18,5.5,23-8.24,24.8-37.34,47.91-45.42,16.67-5.83,33.62,2.36,50.34,1.74,19.25-.72,41.06-6.61,53-18.55,8.35-8.3,3.35-26.3,5.86-26.3h-98.35c2.49,17-16.88,26.24-16.88,26.24a99.8,99.8,0,0,1-21.68,3.17c-24.59.55-50.16-11.1-72.85-3.36-24.36,8.32-32,34.85-55.6,44.5-24.92,10.17-55-2.79-82.72.35-41.95,4.76-67.91,44.63-110,48.32-23.63,2.08-49.6-7.72-70.25,1.76-19.51,9-24.3,31.26-43.5,40.65-28,13.69-65.88-8.2-96.26,1.66-24.86,8.07-34.58,34.21-59.27,42.61-33.39,11.37-76.33-15.29-106,1.45-19.07,10.75-21.9,34.85-42.41,43.71-26.28,11.36-58.93-10.82-87.48-3.82s-36.59,38.56-63.28,49.43c-30.72,12.52-70.45-8-101.49,4C61.45,307.91,51.51,323.91,38.41,336a63.56,63.56,0,0,1-22.16,13.62C5.94,353.44,3.37,357.62.36,366H0l.18.5L0,367H.36c3.05,8.4,5.58,12.53,15.89,16.35A63.54,63.54,0,0,1,38.41,397c13.12,12.12,23,28.12,41.81,35.37,31,12,70.77-8.53,101.49,4,26.7,10.87,34.75,42.41,63.37,49.43s61.19-15.18,87.48-3.82c20.51,8.86,23.33,33,42.4,43.71,29.69,16.74,72.59-9.92,106,1.45,24.7,8.4,34.41,34.54,59.27,42.61,30.38,9.86,68.27-12,96.26,1.66,19.2,9.39,24,31.67,43.5,40.65,20.63,9.48,46.6-.32,70.25,1.76,42.15,3.69,68,43.56,110,48.32,27.68,3.14,57.8-9.82,82.73.35,23.6,9.65,31.23,36.18,55.6,44.5,22.68,7.74,48.21-3.91,72.84-3.36a99.71,99.71,0,0,1,21.68,3.17s19.34,9.2,16.86,26.2h98.35C1205.72,733,1210.72,715,1202.37,706.68Z"/><path class="cls-2" d="M70.06,391a57.82,57.82,0,0,1-9.37-2C64.39,391.76,70.06,391,70.06,391Z"/><path class="cls-2" d="M122.27,323.64c12.67-1.11,20.86,5.46,37.59,10.18,12.51,3.53,24.89,7.12,37.62,5.1,33.14-5.26,43.93-43.68,76.56-50.67,24.4-5.23,51.1,9.71,74.71,2.5,20.61-6.3,29.27-26.65,48.26-35.62,27.16-12.8,63.88,2,92.56-8.45,24.69-9,36.86-34.53,63.12-40,25.39-5.28,53.44,10.86,77.44,2.37,21.42-7.57,28.1-31.12,49.26-39.24,25-9.6,55.11,7.31,81.71,1.16,29.06-6.71,41-37.52,69.76-44.94,30.44-7.85,66.73,14,93.86.33C945.1,116.1,948.59,90.27,970.89,83c25.48-8.25,55.08,14.48,80.19,5.5,23-8.24,24.79-37.34,47.9-45.42,16.67-5.83,33.63,2.36,50.35,1.74,19.24-.72,41.05-6.61,53-18.55,4.6-4.6,5.13-12.16,5.1-18-4.68,4.21-31.61,26.4-81.41,23.68-22.77-1.24-39.2,7.14-52.93,21.9-15.22,16.42-26.68,27.11-51.8,17.68-21.71-8.17-37.4-13-59.18-.58-38.63,22-25.76,44-70.24,39-19.81-2.23-40-9.69-60.17-7.3-19.15,2.26-35.25,11.54-48.4,23.22-12.55,11.16-19.08,25.64-40.12,24.08-26.93-2-51.52-18-84.3,10s-39.8,28-64.39,23-58.54-9-76.1,14-21.07,40-65.56,33-50.34-16-92.49,25-71.42,7-92.49,7-43.32,22-63.22,41-44.49,20-66.74,14-73.75-7-94.83,31c-14.92,26.92,4.81,37.28,17.56,41-3.58-2.67-5.22-8.68,2.35-22,8.87-15.74,24.19-30,42.24-38.3C112.05,325.57,117.49,324.05,122.27,323.64Z"/><path class="cls-2" d="M1121.38,725.19c.15-18.65-19.79-33.52-40.73-38.8s-43.32-3.67-65.06-5.07-45.13-6.87-58-22c-5.21-6.12-8.38-13.51-14.61-18.9-12.22-10.59-32.25-10.39-49.27-7.21s-34.23,8.63-51.35,6C801.71,633,781.13,585,739.84,584c-21.66-.56-42.94,12.77-63.67,7.35-29.85-7.79-34.9-47.88-65.07-54.74-26.25-6-52,18.16-78.44,13.08-28.86-5.53-37.95-41.21-66.53-47.71-21.86-5-45.07,9.81-66.83,4.56-19.7-4.75-29.5-23.53-46.2-33.64-21.19-12.84-49.78-10-75.54-7.18-12.23,1.33-25.53,2.36-36.08-3.1-12.7-6.58-17.31-20.39-27.78-29.41-21.48-18.5-57.25-11.1-87.7-12.8C93.66,418.57,64.46,405,38.64,389.22,34.13,386.48,8.1,366.47,10.07,377c1.6,8.61,31.8,26.69,39.46,33.12,12.29,10.3,25.35,21,42,24.75,29.13,6.56,61.91-9.82,89.27,1,26.67,10.51,36.1,42.66,64.22,49.9s60.41-15.13,86.8-3.77c20.68,8.91,25.29,33.88,44.94,44.35,28.8,15.33,67.35-9.61,99.59-.57,27.76,7.78,40.59,37.87,68.51,45.18,28.8,7.55,62-12.36,88.85-.6,20.43,9,27.15,32.69,47.49,41.8,20.94,9.39,46.5-.5,70,1.68,41.54,3.84,68.61,43.88,110,48.32,26.44,2.83,54.65-9.55,79-.39,23.73,8.91,33.66,34.84,57.27,44,20.9,8.07,44.9.45,67.53-2.63S1117.29,705.92,1121.38,725.19Z"/><ellipse class="cls-3" cx="1169.4" cy="6" rx="3.51" ry="3"/><ellipse class="cls-3" cx="1155.36" cy="36" rx="2.27" ry="1.94"/><ellipse class="cls-3" cx="1135.45" cy="14" rx="6.36" ry="5.43"/><ellipse class="cls-3" cx="1180.38" cy="24.04" rx="3.76" ry="4.84" transform="translate(180.59 651.96) rotate(-33.3)"/><ellipse class="cls-3" cx="1107.35" cy="33" rx="3.51" ry="3"/><ellipse class="cls-3" cx="1041.79" cy="38" rx="3.51" ry="3"/><ellipse class="cls-3" cx="1055.84" cy="77" rx="2.27" ry="1.94"/><ellipse class="cls-3" cx="1034.77" cy="63" rx="6.36" ry="5.43"/><ellipse class="cls-3" cx="1078.53" cy="41.04" rx="3.76" ry="4.84" transform="translate(154.53 598.84) rotate(-33.3)"/><ellipse class="cls-3" cx="994.96" cy="41" rx="3.51" ry="3"/><ellipse class="cls-3" cx="973.89" cy="58" rx="3.51" ry="3"/><ellipse class="cls-3" cx="978.57" cy="75" rx="2.27" ry="1.94"/><ellipse class="cls-3" cx="991.45" cy="59" rx="6.36" ry="5.43"/><ellipse class="cls-3" cx="1012.97" cy="73.03" rx="3.76" ry="4.84" transform="translate(126.21 568.1) rotate(-33.3)"/><ellipse class="cls-3" cx="956.33" cy="77" rx="3.51" ry="3"/><ellipse class="cls-3" cx="921.2" cy="82" rx="3.51" ry="3"/><ellipse class="cls-3" cx="911.84" cy="96" rx="2.27" ry="1.94"/><ellipse class="cls-3" cx="911.84" cy="114" rx="6.36" ry="5.43"/><ellipse class="cls-3" cx="940.38" cy="97.03" rx="3.76" ry="4.84" transform="translate(101.11 532.19) rotate(-33.3)"/><ellipse class="cls-3" cx="891.93" cy="85" rx="3.51" ry="3"/><ellipse class="cls-3" cx="867.35" cy="80" rx="3.51" ry="3"/><ellipse class="cls-3" cx="880.23" cy="122" rx="2.27" ry="1.94"/><ellipse class="cls-3" cx="857.98" cy="112" rx="6.36" ry="5.43"/><ellipse class="cls-3" cx="878.33" cy="98.03" rx="3.76" ry="4.84" transform="translate(90.38 498.29) rotate(-33.3)"/><ellipse class="cls-3" cx="841.59" cy="87" rx="3.51" ry="3"/><ellipse class="cls-3" cx="818.18" cy="95" rx="3.51" ry="3"/><ellipse class="cls-3" cx="786.57" cy="118" rx="2.27" ry="1.94"/><ellipse class="cls-3" cx="808.81" cy="127" rx="6.36" ry="5.43"/><ellipse class="cls-3" cx="829.15" cy="113.03" rx="3.76" ry="4.84" transform="translate(74.07 473.75) rotate(-33.3)"/><ellipse class="cls-3" cx="784.22" cy="143" rx="3.51" ry="3"/><ellipse class="cls-3" cx="756.13" cy="127" rx="3.51" ry="3"/><ellipse class="cls-3" cx="749.1" cy="161" rx="2.27" ry="1.94"/><ellipse class="cls-3" cx="738.56" cy="132" rx="6.36" ry="5.43"/><ellipse class="cls-3" cx="767.1" cy="145.03" rx="3.76" ry="4.84" transform="translate(46.32 444.94) rotate(-33.3)"/><ellipse class="cls-3" cx="716.32" cy="149" rx="3.51" ry="3"/><ellipse class="cls-3" cx="685.88" cy="132" rx="3.51" ry="3"/><ellipse class="cls-3" cx="698.76" cy="159" rx="2.27" ry="1.94"/><ellipse class="cls-3" cx="682.37" cy="151" rx="6.36" ry="5.43"/><ellipse class="cls-3" cx="708.57" cy="131.04" rx="3.76" ry="4.84" transform="translate(44.39 410.51) rotate(-33.3)"/><ellipse class="cls-3" cx="657.78" cy="156" rx="3.51" ry="3"/><ellipse class="cls-3" cx="635.54" cy="170" rx="3.51" ry="3"/><ellipse class="cls-3" cx="606.27" cy="197" rx="2.27" ry="1.94"/><ellipse class="cls-3" cx="625" cy="199" rx="6.36" ry="5.43"/><ellipse class="cls-3" cx="653.54" cy="174.03" rx="3.76" ry="4.84" transform="translate(11.75 387.36) rotate(-33.3)"/><ellipse class="cls-3" cx="629.68" cy="185" rx="3.51" ry="3"/><ellipse class="cls-3" cx="594.56" cy="174" rx="3.51" ry="3"/><ellipse class="cls-3" cx="571.14" cy="199" rx="2.27" ry="1.94"/><ellipse class="cls-3" cx="568.8" cy="175" rx="6.36" ry="5.43"/><ellipse class="cls-3" cx="589.16" cy="194.04" rx="3.76" ry="4.84" transform="translate(-9.8 355.3) rotate(-33.3)"/><ellipse class="cls-3" cx="561.78" cy="194" rx="3.51" ry="3"/><ellipse class="cls-3" cx="536.02" cy="174" rx="3.51" ry="3"/><ellipse class="cls-3" cx="517.29" cy="220" rx="2.27" ry="1.94"/><ellipse class="cls-3" cx="526.66" cy="206" rx="6.36" ry="5.43"/><ellipse class="cls-3" cx="547.01" cy="192.04" rx="3.76" ry="4.84" transform="translate(-15.62 331.83) rotate(-33.3)"/><ellipse class="cls-3" cx="498.56" cy="209" rx="3.51" ry="3"/><ellipse class="cls-3" cx="468.12" cy="223" rx="3.51" ry="3"/><ellipse class="cls-3" cx="447.04" cy="217" rx="2.27" ry="1.94"/><ellipse class="cls-3" cx="456.41" cy="237" rx="6.36" ry="5.43"/><ellipse class="cls-3" cx="494.32" cy="230.04" rx="3.76" ry="4.84" transform="translate(-45.14 309.14) rotate(-33.3)"/><ellipse class="cls-3" cx="477.48" cy="240" rx="3.51" ry="3"/><ellipse class="cls-3" cx="417.77" cy="208" rx="3.51" ry="3"/><ellipse class="cls-3" cx="395.53" cy="220" rx="2.27" ry="1.94"/><ellipse class="cls-3" cx="408.41" cy="240" rx="6.36" ry="5.43"/><ellipse class="cls-3" cx="428.76" cy="226.04" rx="3.76" ry="4.84" transform="translate(-53.7 272.5) rotate(-33.3)"/><ellipse class="cls-3" cx="383.82" cy="248" rx="3.51" ry="3"/><ellipse class="cls-3" cx="346.36" cy="281" rx="3.51" ry="3"/><ellipse class="cls-3" cx="369.77" cy="263" rx="2.27" ry="1.94"/><ellipse class="cls-3" cx="366.26" cy="246" rx="6.36" ry="5.43"/><ellipse class="cls-3" cx="372.56" cy="223.04" rx="3.76" ry="4.84" transform="translate(-61.28 241.15) rotate(-33.3)"/><ellipse class="cls-3" cx="383.82" cy="230" rx="3.51" ry="3"/><ellipse class="cls-3" cx="292.5" cy="260" rx="3.51" ry="3"/><ellipse class="cls-3" cx="331.14" cy="286" rx="2.27" ry="1.94"/><ellipse class="cls-3" cx="322.94" cy="263" rx="6.36" ry="5.43"/><ellipse class="cls-3" cx="346.8" cy="254.04" rx="3.76" ry="4.84" transform="translate(-82.53 232.1) rotate(-33.3)"/><ellipse class="cls-3" cx="306.55" cy="276" rx="3.51" ry="3"/><ellipse class="cls-3" cx="281.97" cy="278" rx="3.51" ry="3"/><ellipse class="cls-3" cx="265.58" cy="284" rx="2.27" ry="1.94"/><ellipse class="cls-3" cx="250.36" cy="258" rx="6.36" ry="5.43"/><ellipse class="cls-3" cx="273.04" cy="260.04" rx="3.76" ry="4.84" transform="translate(-97.93 192.59) rotate(-33.3)"/><ellipse class="cls-3" cx="237.48" cy="265" rx="3.51" ry="3"/><ellipse class="cls-3" cx="216.4" cy="273" rx="3.51" ry="3"/><ellipse class="cls-3" cx="237.48" cy="303" rx="2.27" ry="1.94"/><ellipse class="cls-3" cx="230.45" cy="292" rx="6.36" ry="5.43"/><ellipse class="cls-3" cx="250.81" cy="278.04" rx="3.76" ry="4.84" transform="translate(-111.46 183.34) rotate(-33.3)"/><ellipse class="cls-3" cx="208.21" cy="294" rx="3.51" ry="3"/><ellipse class="cls-3" cx="192.99" cy="300" rx="3.51" ry="3"/><ellipse class="cls-3" cx="141.47" cy="314" rx="2.27" ry="1.94"/><ellipse class="cls-3" cx="169.57" cy="316" rx="6.36" ry="5.43"/><ellipse class="cls-3" cx="203.98" cy="318.04" rx="3.76" ry="4.84" transform="translate(-141.11 164.19) rotate(-33.3)"/><ellipse class="cls-3" cx="180.11" cy="332" rx="3.51" ry="3"/><ellipse class="cls-3" cx="48.98" cy="343" rx="3.51" ry="3"/><ellipse class="cls-3" cx="79.42" cy="356" rx="2.27" ry="1.94"/><ellipse class="cls-3" cx="91.13" cy="322" rx="6.36" ry="5.43"/><ellipse class="cls-3" cx="111.49" cy="308.04" rx="3.76" ry="4.84" transform="translate(-150.81 111.78) rotate(-33.3)"/><ellipse class="cls-3" cx="75.91" cy="314" rx="3.51" ry="3"/><ellipse class="cls-3" cx="54.84" cy="370" rx="3.51" ry="3"/><ellipse class="cls-3" cx="50.16" cy="389" rx="2.27" ry="1.94"/><ellipse class="cls-3" cx="20.89" cy="372" rx="6.36" ry="5.43"/><ellipse class="cls-3" cx="65.82" cy="388.04" rx="3.76" ry="4.84" transform="translate(-202.22 99.84) rotate(-33.3)"/><ellipse class="cls-3" cx="72.4" cy="374" rx="3.51" ry="3"/><ellipse class="cls-3" cx="137.96" cy="410" rx="3.51" ry="3"/><ellipse class="cls-3" cx="77.89" cy="421.94" rx="2.27" ry="1.94"/><ellipse class="cls-3" cx="95.82" cy="411.66" rx="6.36" ry="5.43"/><ellipse class="cls-3" cx="118.45" cy="422.76" rx="5.2" ry="3.49" transform="translate(-195.29 115.64) rotate(-29.96)"/><ellipse class="cls-3" cx="78.14" cy="395.01" rx="3.51" ry="3"/><ellipse class="cls-3" cx="150.84" cy="420" rx="3.51" ry="3"/><ellipse class="cls-3" cx="169.69" cy="425.25" rx="6.36" ry="5.43"/><ellipse class="cls-3" cx="177.77" cy="406.48" rx="5.49" ry="3.31" transform="translate(-15.35 7.06) rotate(-2.18)"/><ellipse class="cls-3" cx="200.01" cy="410" rx="3.51" ry="3"/><ellipse class="cls-3" cx="229.28" cy="425" rx="3.51" ry="3"/><ellipse class="cls-3" cx="242.16" cy="433" rx="2.27" ry="1.94"/><ellipse class="cls-3" cx="215.23" cy="427" rx="6.36" ry="5.43"/><ellipse class="cls-3" cx="216.85" cy="449.04" rx="3.76" ry="4.84" transform="translate(-210.92 192.77) rotate(-33.3)"/><ellipse class="cls-3" cx="194.16" cy="433" rx="3.51" ry="3"/><ellipse class="cls-3" cx="229.06" cy="456.22" rx="3.51" ry="3"/><ellipse class="cls-3" cx="283.71" cy="474.57" rx="2.27" ry="1.94"/><ellipse class="cls-3" cx="262.18" cy="473.17" rx="6.36" ry="5.43"/><ellipse class="cls-3" cx="252.43" cy="452.5" rx="5.49" ry="3.31" transform="translate(-20.11 11.82) rotate(-2.58)"/><ellipse class="cls-3" cx="278.45" cy="461" rx="3.51" ry="3"/><ellipse class="cls-3" cx="355.72" cy="475" rx="3.51" ry="3"/><ellipse class="cls-3" cx="328.8" cy="473" rx="2.27" ry="1.94"/><ellipse class="cls-3" cx="324.11" cy="455" rx="6.36" ry="5.43"/><ellipse class="cls-3" cx="346.81" cy="460.03" rx="3.76" ry="4.84" transform="translate(-195.62 265.92) rotate(-33.3)"/><ellipse class="cls-3" cx="299.53" cy="463" rx="3.51" ry="3"/><ellipse class="cls-3" cx="370.94" cy="499" rx="3.51" ry="3"/><ellipse class="cls-3" cx="409.58" cy="525" rx="2.27" ry="1.94"/><ellipse class="cls-3" cx="404.9" cy="507" rx="6.36" ry="5.43"/><ellipse class="cls-3" cx="376.08" cy="480.03" rx="3.76" ry="4.84" transform="translate(-201.79 285.27) rotate(-33.3)"/><ellipse class="cls-3" cx="380.31" cy="515" rx="3.51" ry="3"/><ellipse class="cls-3" cx="428.19" cy="507.35" rx="3.51" ry="3"/><ellipse class="cls-3" cx="469.27" cy="491.48" rx="2.27" ry="1.94"/><ellipse class="cls-3" cx="466.58" cy="510.9" rx="6.36" ry="5.43"/><ellipse class="cls-3" cx="447.6" cy="495.61" rx="5.35" ry="3.4" transform="translate(-140.93 180) rotate(-19.71)"/><ellipse class="cls-3" cx="483.49" cy="520.11" rx="3.51" ry="3"/><ellipse class="cls-3" cx="530.17" cy="528" rx="3.51" ry="3"/><ellipse class="cls-3" cx="507.92" cy="521" rx="2.27" ry="1.94"/><ellipse class="cls-3" cx="496.22" cy="505" rx="6.36" ry="5.43"/><ellipse class="cls-3" cx="514.22" cy="533.04" rx="3.76" ry="4.84" transform="translate(-208.21 369.81) rotate(-33.3)"/><ellipse class="cls-3" cx="478.65" cy="511" rx="3.51" ry="3"/><ellipse class="cls-3" cx="575.83" cy="548" rx="3.51" ry="3"/><ellipse class="cls-3" cx="552.41" cy="562" rx="2.27" ry="1.94"/><ellipse class="cls-3" cx="547.73" cy="544" rx="6.36" ry="5.43"/><ellipse class="cls-3" cx="563.4" cy="535.04" rx="3.76" ry="4.84" transform="translate(-201.24 397.14) rotate(-33.3)"/><ellipse class="cls-3" cx="523.14" cy="552" rx="3.51" ry="3"/><ellipse class="cls-3" cx="636.71" cy="542" rx="3.51" ry="3"/><ellipse class="cls-3" cx="619.15" cy="551" rx="2.27" ry="1.94"/><ellipse class="cls-3" cx="614.46" cy="533" rx="6.36" ry="5.43"/><ellipse class="cls-3" cx="600.86" cy="555.03" rx="3.76" ry="4.84" transform="translate(-206.06 420.98) rotate(-33.3)"/><ellipse class="cls-3" cx="589.88" cy="541" rx="3.51" ry="3"/><ellipse class="cls-3" cx="670.66" cy="570" rx="3.51" ry="3"/><ellipse class="cls-3" cx="656.61" cy="571" rx="2.27" ry="1.94"/><ellipse class="cls-3" cx="651.93" cy="553" rx="6.36" ry="5.43"/><ellipse class="cls-3" cx="692.9" cy="574" rx="3.51" ry="3"/><ellipse class="cls-3" cx="712.81" cy="603" rx="2.27" ry="1.94"/><ellipse class="cls-3" cx="708.12" cy="585" rx="6.36" ry="5.43"/><ellipse class="cls-3" cx="681.64" cy="588.04" rx="3.76" ry="4.84" transform="translate(-210.92 470.75) rotate(-33.3)"/><ellipse class="cls-3" cx="636.71" cy="561" rx="3.51" ry="3"/><ellipse class="cls-3" cx="740.91" cy="600" rx="3.51" ry="3"/><ellipse class="cls-3" cx="756.13" cy="594" rx="2.27" ry="1.94"/><ellipse class="cls-3" cx="751.44" cy="576" rx="6.36" ry="5.43"/><ellipse class="cls-3" cx="777.65" cy="587.03" rx="3.76" ry="4.84" transform="translate(-194.61 523.29) rotate(-33.3)"/><ellipse class="cls-3" cx="726.86" cy="584" rx="3.51" ry="3"/><ellipse class="cls-3" cx="813.49" cy="610" rx="3.51" ry="3"/><ellipse class="cls-3" cx="799.44" cy="620" rx="2.27" ry="1.94"/><ellipse class="cls-3" cx="794.76" cy="602" rx="6.36" ry="5.43"/><ellipse class="cls-3" cx="824.48" cy="628.03" rx="3.76" ry="4.84" transform="translate(-209.43 555.73) rotate(-33.3)"/><ellipse class="cls-3" cx="770.17" cy="610" rx="3.51" ry="3"/><ellipse class="cls-3" cx="844.31" cy="615.06" rx="3.51" ry="3"/><ellipse class="cls-3" cx="861.49" cy="652" rx="2.27" ry="1.94"/><ellipse class="cls-3" cx="865.01" cy="630" rx="6.36" ry="5.43"/><ellipse class="cls-3" cx="868.09" cy="616.24" rx="3.32" ry="5.47" transform="translate(153.95 1405.75) rotate(-83.24)"/><ellipse class="cls-3" cx="832.22" cy="642" rx="3.51" ry="3"/><ellipse class="cls-3" cx="896.94" cy="610.18" rx="3.51" ry="3"/><ellipse class="cls-3" cx="900.87" cy="653.8" rx="2.27" ry="1.94"/><ellipse class="cls-3" cx="896.41" cy="635.75" rx="6.36" ry="5.43"/><ellipse class="cls-3" cx="916.96" cy="621.92" rx="3.76" ry="4.83" transform="translate(-190.57 590.46) rotate(-32.52)"/><ellipse class="cls-3" cx="871.73" cy="643.53" rx="3.51" ry="3"/><ellipse class="cls-3" cx="959.84" cy="651" rx="3.51" ry="3"/><ellipse class="cls-3" cx="944.62" cy="654" rx="2.27" ry="1.94"/><ellipse class="cls-3" cx="938.76" cy="638" rx="6.36" ry="5.43"/><ellipse class="cls-3" cx="970.82" cy="669.03" rx="3.76" ry="4.84" transform="translate(-207.91 642.81) rotate(-33.3)"/><ellipse class="cls-3" cx="915.35" cy="644" rx="3.51" ry="3"/><ellipse class="cls-3" cx="985.59" cy="659" rx="3.51" ry="3"/><ellipse class="cls-3" cx="1019.55" cy="700" rx="2.27" ry="1.94"/><ellipse class="cls-3" cx="1014.86" cy="682" rx="6.36" ry="5.43"/><ellipse class="cls-3" cx="996.58" cy="677.03" rx="3.76" ry="4.84" transform="translate(-208.07 658.26) rotate(-33.3)"/><ellipse class="cls-3" cx="990.28" cy="690" rx="3.51" ry="3"/><ellipse class="cls-3" cx="1059.35" cy="672" rx="3.51" ry="3"/><ellipse class="cls-3" cx="1041.79" cy="675" rx="2.27" ry="1.94"/><ellipse class="cls-3" cx="1037.11" cy="657" rx="6.36" ry="5.43"/><ellipse class="cls-3" cx="1070.34" cy="690.03" rx="3.76" ry="4.84" transform="translate(-203.1 700.89) rotate(-33.3)"/><ellipse class="cls-3" cx="1012.52" cy="665" rx="3.51" ry="3"/><ellipse class="cls-3" cx="1167.06" cy="711" rx="3.51" ry="3"/><ellipse class="cls-3" cx="1157.7" cy="723" rx="2.27" ry="1.94"/><ellipse class="cls-3" cx="1147.16" cy="700" rx="6.36" ry="5.43"/><ellipse class="cls-3" cx="1186.24" cy="721.03" rx="3.76" ry="4.84" transform="translate(-201.09 769.61) rotate(-33.3)"/><ellipse class="cls-3" cx="1118.35" cy="699.03" rx="3.76" ry="4.84" transform="translate(-200.16 728.72) rotate(-33.3)"/><ellipse class="cls-3" cx="1135.9" cy="724.03" rx="3.76" ry="4.84" transform="translate(-211.01 742.46) rotate(-33.3)"/><ellipse class="cls-3" cx="1128.43" cy="713" rx="3.51" ry="3"/><path class="cls-4" d="M1097.38,65.88a2.33,2.33,0,0,0,2.3,2.43h0a.51.51,0,0,0,.57-.39l.44-3.52a.45.45,0,0,0-.43-.49h0a2.52,2.52,0,0,0-2.88,1.92Z"/><path class="cls-5" d="M1100.52,66.16l-.23,1.76a.51.51,0,0,1-.57.39,2.33,2.33,0,0,1-2.34-2.4v0Z"/><path class="cls-6" d="M1091.15,65.31a.4.4,0,0,0,.06.26,4.86,4.86,0,0,0,3.28,2.27c2,.18,3.67-1.56,3.76-1.63a.44.44,0,0,0,.11-.24.28.28,0,0,0-.06-.25,4.8,4.8,0,0,0-3.26-2.28c-2-.18-3.69,1.56-3.77,1.64A.35.35,0,0,0,1091.15,65.31Z"/><path class="cls-4" d="M1098.41,66a.39.39,0,0,1-.12.24c-.08.07-1.8,1.81-3.76,1.63a5,5,0,0,1-3.27-2.27.4.4,0,0,1-.06-.26Z"/><path class="cls-7" d="M1093.83,65.11a.46.46,0,0,1,.46.46v0a.5.5,0,0,1-.56.39.47.47,0,0,1-.47-.49.5.5,0,0,1,.57-.39Z"/><path class="cls-8" d="M1094.29,65.6a.5.5,0,0,1-.56.39.47.47,0,0,1-.47-.49Z"/><path class="cls-9" d="M1108.35,61.23a1.88,1.88,0,0,0,1.63-.29,1.36,1.36,0,0,0,.55-1.39l-.47-2a.58.58,0,0,0-.67-.38l-3.11,1.7a.46.46,0,0,0-.27.64h0A3.89,3.89,0,0,0,1108.35,61.23Z"/><path class="cls-10" d="M1104.83,52.69l3.65.55a.5.5,0,0,0,.44-.57l-.49-2.12a1.62,1.62,0,0,0-1.17-1.11,1.93,1.93,0,0,0-1.62.25,3.23,3.23,0,0,0-1.41,2.5.54.54,0,0,0,.58.5Z"/><path class="cls-10" d="M1114.78,57.48a4.88,4.88,0,0,0,3.39.14c.75-.16,1.17-.1.95-1a3.26,3.26,0,0,0-1.44-2.42,4,4,0,0,0-.83-.33,2.59,2.59,0,0,0,.4-.41,3.88,3.88,0,0,0,.36-3.36.61.61,0,0,0-.68-.38c-2,.34-3.23.88-3.86,1.72-.8,1-.35,1.93-.15,3.09A4.28,4.28,0,0,0,1114.78,57.48Z"/><path class="cls-9" d="M1117.68,54.22a4,4,0,0,0-.83-.33h0l-4,.67h0a4.32,4.32,0,0,0,1.86,2.95,4.91,4.91,0,0,0,3.4.14c.75-.16,1.17-.1.95-1A3.29,3.29,0,0,0,1117.68,54.22Z"/><path class="cls-11" d="M1101.18,58.27l-.55-1.65-.67-2,.56-1.92c2.82-1.61,6.58-1.27,13.32,1.28a.55.55,0,0,1,.3.78l-.09.11c-5.19,4.64-8.57,6-12,5.4Z"/><path class="cls-12" d="M1114.12,54.33l-13.49,2.29h0l.55,1.65.86,2c3.38.64,6.77-.76,12-5.4A.5.5,0,0,0,1114.12,54.33Z"/><path class="cls-13" d="M1096.5,57.31a1.27,1.27,0,0,1,.25-1.09,16.37,16.37,0,0,1,2.6-2.74,7.94,7.94,0,0,1,1.17-.78,4.69,4.69,0,0,1,3.51,3.37,4,4,0,0,1-1.89,4.2,11,11,0,0,1-1.39-.39,20.75,20.75,0,0,1-3.43-1.63A1.52,1.52,0,0,1,1096.5,57.31Z"/><path class="cls-10" d="M1103.92,56.06l-7.42,1.26a1.5,1.5,0,0,0,.72.93,20,20,0,0,0,3.43,1.63,10.56,10.56,0,0,0,1.39.39,4,4,0,0,0,1.88-4.21Z"/><path class="cls-10" d="M1105.09,57.45a3.79,3.79,0,0,0-.07-1.57,4.58,4.58,0,0,0-.59-1.52.45.45,0,0,1,.23-.65h0a.64.64,0,0,1,.77.2,6,6,0,0,1,.72,1.78,5.17,5.17,0,0,1,.08,1.88.58.58,0,0,1-.63.42A.52.52,0,0,1,1105.09,57.45Z"/><path class="cls-10" d="M1106.15,55.68l-1.17.19h0a4,4,0,0,1,.07,1.57.51.51,0,0,0,.5.54.57.57,0,0,0,.63-.42,5.17,5.17,0,0,0-.08-1.88Z"/><ellipse class="cls-14" cx="1100.45" cy="56.09" rx="0.57" ry="0.49"/><path class="cls-4" d="M972.61,32.64a2.89,2.89,0,0,0,3.6-.57.41.41,0,0,0-.13-.62l-3.42-2a.57.57,0,0,0-.72.11,2,2,0,0,0,.64,3.06Z"/><path class="cls-5" d="M974.37,30.45l1.71,1a.41.41,0,0,1,.13.62,2.89,2.89,0,0,1-3.6.57Z"/><path class="cls-6" d="M969.1,37a.57.57,0,0,0,.29.08c.12,0,2.78,0,3.89-1.39s.14-3.5.1-3.6a.43.43,0,0,0-.18-.2.57.57,0,0,0-.28-.08c-.13,0-2.79,0-3.9,1.39s-.14,3.5-.11,3.6A.52.52,0,0,0,969.1,37Z"/><path class="cls-4" d="M973.2,31.91a.43.43,0,0,1,.18.2c0,.1,1,2.22-.1,3.6s-3.77,1.38-3.89,1.39a.57.57,0,0,1-.29-.08Z"/><path class="cls-7" d="M970.14,34.94a.57.57,0,0,1,.72-.11.4.4,0,0,1,.14.61.59.59,0,0,1-.72.13h0A.41.41,0,0,1,970.14,34.94Z"/><path class="cls-8" d="M970.85,34.83a.41.41,0,0,1,.14.62.57.57,0,0,1-.72.11Z"/><path class="cls-4" d="M762.49,179.38a2.68,2.68,0,0,0,3.19,1.53.44.44,0,0,0,.36-.55l-1.17-3.4a.54.54,0,0,0-.63-.31h0A2.19,2.19,0,0,0,762.49,179.38Z"/><path class="cls-5" d="M765.48,178.66l.56,1.7a.44.44,0,0,1-.36.55,2.68,2.68,0,0,1-3.19-1.53Z"/><path class="cls-6" d="M756.51,180.81a.34.34,0,0,0,.17.22c.09.06,2.13,1.53,4,1.07a4.69,4.69,0,0,0,2.79-2.7.39.39,0,0,0,0-.26.44.44,0,0,0-.16-.22c-.1-.06-2.14-1.53-4-1.07a4.69,4.69,0,0,0-2.79,2.7A.39.39,0,0,0,756.51,180.81Z"/><path class="cls-4" d="M763.49,179.14a.39.39,0,0,1,0,.26,4.54,4.54,0,0,1-2.79,2.7c-1.88.45-3.93-1-4-1.07a.34.34,0,0,1-.17-.22Z"/><path class="cls-7" d="M758.86,179.79a.52.52,0,0,1,.63.29h0a.44.44,0,0,1-.35.55h0a.52.52,0,0,1-.64-.3h0a.44.44,0,0,1,.36-.54Z"/><path class="cls-8" d="M759.5,180.09a.44.44,0,0,1-.35.55h0a.52.52,0,0,1-.64-.3h0Z"/><path class="cls-4" d="M471,199.38a2.68,2.68,0,0,0,3.19,1.53.44.44,0,0,0,.36-.55l-1.17-3.4a.54.54,0,0,0-.63-.31h0A2.19,2.19,0,0,0,471,199.38Z"/><path class="cls-5" d="M474,198.66l.56,1.7a.44.44,0,0,1-.36.55,2.68,2.68,0,0,1-3.19-1.53Z"/><path class="cls-6" d="M465,200.81a.34.34,0,0,0,.17.22c.09.06,2.13,1.53,4,1.07a4.69,4.69,0,0,0,2.79-2.7.39.39,0,0,0,0-.26.44.44,0,0,0-.16-.22c-.1-.06-2.14-1.53-4-1.07a4.69,4.69,0,0,0-2.79,2.7A.39.39,0,0,0,465,200.81Z"/><path class="cls-4" d="M472,199.14a.39.39,0,0,1,0,.26,4.54,4.54,0,0,1-2.79,2.7c-1.88.45-3.93-1-4-1.07a.34.34,0,0,1-.17-.22Z"/><path class="cls-7" d="M467.35,199.79a.51.51,0,0,1,.62.29h0a.44.44,0,0,1-.35.55h0a.52.52,0,0,1-.64-.3h0a.44.44,0,0,1,.36-.54Z"/><path class="cls-8" d="M468,200.09a.44.44,0,0,1-.35.55h0a.52.52,0,0,1-.64-.3h0Z"/><path class="cls-4" d="M127.94,336.38a2.67,2.67,0,0,0,3.19,1.53.45.45,0,0,0,.36-.55l-1.17-3.4a.54.54,0,0,0-.63-.31h0A2.19,2.19,0,0,0,127.94,336.38Z"/><path class="cls-5" d="M130.93,335.66l.56,1.7a.45.45,0,0,1-.36.55,2.67,2.67,0,0,1-3.19-1.53Z"/><path class="cls-6" d="M122,337.81a.36.36,0,0,0,.16.22c.1.06,2.13,1.53,4,1.07a4.69,4.69,0,0,0,2.79-2.7.39.39,0,0,0,0-.26.46.46,0,0,0-.17-.22c-.09-.06-2.13-1.53-4-1.07a4.69,4.69,0,0,0-2.78,2.7A.39.39,0,0,0,122,337.81Z"/><path class="cls-4" d="M128.94,336.14a.39.39,0,0,1,0,.26,4.57,4.57,0,0,1-2.79,2.7c-1.89.45-3.93-1-4-1.07a.36.36,0,0,1-.16-.22Z"/><path class="cls-7" d="M124.31,336.79a.52.52,0,0,1,.63.29h0a.43.43,0,0,1-.34.55h0a.53.53,0,0,1-.64-.3h0a.44.44,0,0,1,.36-.54Z"/><path class="cls-8" d="M124.94,337.09a.43.43,0,0,1-.34.55h0a.53.53,0,0,1-.64-.3h0Z"/><path class="cls-4" d="M1049.37,21.92a2.31,2.31,0,0,0,2.21,2.49.5.5,0,0,0,.58-.37h0l.57-3.51a.45.45,0,0,0-.43-.49h0a2.54,2.54,0,0,0-2.91,1.89Z"/><path class="cls-5" d="M1052.45,22.28l-.29,1.72a.5.5,0,0,1-.57.38h0a2.31,2.31,0,0,1-2.21-2.49Z"/><path class="cls-6" d="M1043.22,21.19a.39.39,0,0,0,0,.26,4.73,4.73,0,0,0,3.18,2.35c1.95.22,3.74-1.46,3.83-1.53a.35.35,0,0,0,.12-.23.39.39,0,0,0,0-.26,4.73,4.73,0,0,0-3.2-2.35c-2-.22-3.72,1.46-3.81,1.53A.35.35,0,0,0,1043.22,21.19Z"/><path class="cls-4" d="M1050.4,22a.35.35,0,0,1-.12.23c-.09.07-1.87,1.76-3.83,1.53a4.91,4.91,0,0,1-3.18-2.35.3.3,0,0,1,0-.26Z"/><path class="cls-7" d="M1045.85,21.06a.47.47,0,0,1,.48.47.5.5,0,0,1-.55.41h-.07a.47.47,0,0,1-.47-.47.5.5,0,0,1,.55-.41Z"/><path class="cls-8" d="M1046.3,21.56a.51.51,0,0,1-.59.37.45.45,0,0,1-.44-.47v0Z"/><path class="cls-9" d="M976.42,111.72a1.56,1.56,0,0,0,1.17-1,1.31,1.31,0,0,0-.39-1.43l-1.63-1.5a.62.62,0,0,0-.79,0h0l-1.62,2.84a.44.44,0,0,0,.17.66h0A4.6,4.6,0,0,0,976.42,111.72Z"/><path class="cls-10" d="M968.22,106l3.44-1.16a.43.43,0,0,0,0-.68h0l-1.72-1.59a1.92,1.92,0,0,0-1.63-.44,1.58,1.58,0,0,0-1.22.92,3,3,0,0,0,.32,2.77.63.63,0,0,0,.78.19Z"/><path class="cls-10" d="M979.59,105.65a4.46,4.46,0,0,0,3-1.4c.55-.47.93-.59.23-1.25a4.18,4.18,0,0,0-2.72-1.43,3.43,3.43,0,0,0-.91.09,2.27,2.27,0,0,0,.09-.52,4.24,4.24,0,0,0-1.75-3,.66.66,0,0,0-.8,0c-1.47,1.16-2.23,2.19-2.25,3.19,0,1.25.88,1.8,1.76,2.7A5.49,5.49,0,0,0,979.59,105.65Z"/><path class="cls-9" d="M980.07,101.57a3.43,3.43,0,0,0-.91.09h0l-3,2.34h0a5.58,5.58,0,0,0,3.4,1.68,4.46,4.46,0,0,0,3-1.4c.55-.47.93-.59.23-1.25A4.14,4.14,0,0,0,980.07,101.57Z"/><path class="cls-11" d="M968.48,112.39l-1.43-1.17-1.84-1.44L964.5,108c1.43-2.63,4.83-4,12.15-4.85a.65.65,0,0,1,.72.54.49.49,0,0,1,0,.12c-1.58,6.28-3.6,9-6.88,9.94Z"/><path class="cls-12" d="M977.1,103.25l-10.1,8h0l1.48,1.17,1.95,1.32c3.28-1,5.31-3.66,6.89-9.94A.53.53,0,0,0,977.1,103.25Z"/><path class="cls-13" d="M963.89,113.66a1.37,1.37,0,0,1-.45-1,13.34,13.34,0,0,1,.53-3.48,6.55,6.55,0,0,1,.48-1.17c2.73-.57,5.49.86,6.16,3.19a3.77,3.77,0,0,1-.18,2.56,11.16,11.16,0,0,1-1.42.29,23.45,23.45,0,0,1-3.93.14A1.93,1.93,0,0,1,963.89,113.66Z"/><path class="cls-10" d="M969.46,109.28l-5.56,4.38a1.93,1.93,0,0,0,1.17.48A23.33,23.33,0,0,0,969,114a11.32,11.32,0,0,0,1.43-.29,3.84,3.84,0,0,0-1-4.43Z"/><path class="cls-10" d="M971.31,109.94a4.89,4.89,0,0,0-1-1.31,6.16,6.16,0,0,0-1.44-1,.47.47,0,0,1-.2-.67.67.67,0,0,1,.79-.17,8,8,0,0,1,1.7,1.2,6.06,6.06,0,0,1,1.17,1.57.46.46,0,0,1-.28.64.61.61,0,0,1-.75-.24Z"/><path class="cls-10" d="M971.12,108l-.83.66h0a4.89,4.89,0,0,1,1,1.31.62.62,0,0,0,.75.24.45.45,0,0,0,.28-.64,5.85,5.85,0,0,0-1.17-1.57Z"/><ellipse class="cls-14" cx="966.52" cy="110.86" rx="0.57" ry="0.49"/><path class="cls-4" d="M955.25,108.78a2.9,2.9,0,0,0,3.65-.07.39.39,0,0,0,0-.61h0l-3-2.45a.6.6,0,0,0-.74,0,2,2,0,0,0,.07,3.14Z"/><path class="cls-5" d="M957.39,106.86l1.5,1.23a.39.39,0,0,1,0,.61h0a2.9,2.9,0,0,1-3.65.07Z"/><path class="cls-6" d="M951,112.61a.51.51,0,0,0,.27.12c.12,0,2.74.39,4.1-.83s.81-3.44.8-3.54a.55.55,0,0,0-.43-.34c-.11,0-2.74-.39-4.11.82s-.8,3.44-.78,3.54A.35.35,0,0,0,951,112.61Z"/><path class="cls-4" d="M956,108.14a.48.48,0,0,1,.16.22c0,.1.57,2.33-.8,3.54s-4,.84-4.1.83a.51.51,0,0,1-.27-.12Z"/><path class="cls-7" d="M952.37,110.71a.56.56,0,0,1,.71,0h0a.39.39,0,0,1,0,.62.57.57,0,0,1-.73,0,.39.39,0,0,1,0-.61Z"/><path class="cls-8" d="M953.09,110.69a.39.39,0,0,1,0,.62.57.57,0,0,1-.73,0h0Z"/><path class="cls-4" d="M831.6,143.56a2.56,2.56,0,0,0,2.92,1.89A.47.47,0,0,0,835,145h0l-.56-3.5a.48.48,0,0,0-.55-.38h0A2.32,2.32,0,0,0,831.6,143.56Z"/><path class="cls-5" d="M834.68,143.2,835,145a.45.45,0,0,1-.43.5h0a2.56,2.56,0,0,1-2.92-1.89Z"/><path class="cls-6" d="M825.46,144.27a.39.39,0,0,0,.12.24c.08.07,1.87,1.76,3.81,1.53a5,5,0,0,0,3.2-2.35.36.36,0,0,0,0-.25.39.39,0,0,0-.12-.24c-.09-.07-1.87-1.76-3.82-1.54s-3.13,2.27-3.19,2.36A.28.28,0,0,0,825.46,144.27Z"/><path class="cls-4" d="M832.63,143.44a.28.28,0,0,1,0,.25,4.73,4.73,0,0,1-3.19,2.35,5.53,5.53,0,0,1-3.82-1.53.39.39,0,0,1-.12-.24Z"/><path class="cls-7" d="M828,143.54a.51.51,0,0,1,.58.38.45.45,0,0,1-.45.49.5.5,0,0,1-.57-.38h0a.45.45,0,0,1,.42-.49Z"/><path class="cls-8" d="M828.54,143.91a.47.47,0,0,1-.44.5h0a.5.5,0,0,1-.58-.37h0Z"/><path class="cls-4" d="M845.65,133.56a2.56,2.56,0,0,0,2.92,1.89A.45.45,0,0,0,849,135h0l-.56-3.5a.48.48,0,0,0-.55-.38h0A2.32,2.32,0,0,0,845.65,133.56Z"/><path class="cls-5" d="M848.73,133.2,849,135a.46.46,0,0,1-.43.5h0a2.56,2.56,0,0,1-2.92-1.89Z"/><path class="cls-6" d="M839.51,134.27a.44.44,0,0,0,.11.24c.09.07,1.88,1.76,3.82,1.53a5,5,0,0,0,3.2-2.35.36.36,0,0,0,0-.25.39.39,0,0,0-.12-.24c-.09-.07-1.87-1.76-3.82-1.54s-3.13,2.27-3.19,2.36A.28.28,0,0,0,839.51,134.27Z"/><path class="cls-4" d="M846.68,133.44a.28.28,0,0,1,0,.25,4.73,4.73,0,0,1-3.19,2.35,5.53,5.53,0,0,1-3.82-1.53.39.39,0,0,1-.12-.24Z"/><path class="cls-7" d="M842,133.54a.51.51,0,0,1,.58.38.46.46,0,0,1-.45.49.5.5,0,0,1-.57-.38h0a.45.45,0,0,1,.42-.49Z"/><path class="cls-8" d="M842.59,133.91a.47.47,0,0,1-.44.5h0a.5.5,0,0,1-.58-.37h0Z"/><path class="cls-4" d="M508.47,253.56a2.56,2.56,0,0,0,2.92,1.89.47.47,0,0,0,.45-.49h0l-.56-3.5a.48.48,0,0,0-.55-.38h0A2.32,2.32,0,0,0,508.47,253.56Z"/><path class="cls-5" d="M511.55,253.2l.28,1.75a.45.45,0,0,1-.43.5h0a2.56,2.56,0,0,1-2.92-1.89Z"/><path class="cls-6" d="M502.33,254.27a.44.44,0,0,0,.11.24c.09.07,1.88,1.76,3.82,1.53a5,5,0,0,0,3.2-2.35.36.36,0,0,0,0-.25.39.39,0,0,0-.12-.24c-.09-.07-1.87-1.76-3.82-1.54s-3.13,2.27-3.19,2.36A.28.28,0,0,0,502.33,254.27Z"/><path class="cls-4" d="M509.5,253.44a.28.28,0,0,1,0,.25,4.73,4.73,0,0,1-3.19,2.35,5.53,5.53,0,0,1-3.82-1.53.39.39,0,0,1-.12-.24Z"/><path class="cls-7" d="M504.82,253.54a.51.51,0,0,1,.58.38.45.45,0,0,1-.45.49.5.5,0,0,1-.57-.38h0a.45.45,0,0,1,.42-.49Z"/><path class="cls-8" d="M505.41,253.91a.47.47,0,0,1-.44.5h0a.5.5,0,0,1-.58-.37h0Z"/><path class="cls-4" d="M522.52,243.56a2.56,2.56,0,0,0,2.92,1.89.45.45,0,0,0,.44-.49h0l-.56-3.5a.48.48,0,0,0-.55-.38h0A2.32,2.32,0,0,0,522.52,243.56Z"/><path class="cls-5" d="M525.6,243.2l.28,1.75a.46.46,0,0,1-.43.5h0a2.56,2.56,0,0,1-2.92-1.89Z"/><path class="cls-6" d="M516.38,244.27a.44.44,0,0,0,.11.24c.09.07,1.88,1.76,3.82,1.53a5,5,0,0,0,3.2-2.35.36.36,0,0,0,0-.25.39.39,0,0,0-.12-.24c-.09-.07-1.87-1.76-3.82-1.54s-3.13,2.27-3.19,2.36A.28.28,0,0,0,516.38,244.27Z"/><path class="cls-4" d="M523.55,243.44a.28.28,0,0,1,0,.25,4.73,4.73,0,0,1-3.19,2.35,5.53,5.53,0,0,1-3.82-1.53.39.39,0,0,1-.12-.24Z"/><path class="cls-7" d="M518.87,243.54a.51.51,0,0,1,.58.38.46.46,0,0,1-.45.49.5.5,0,0,1-.57-.38h0a.45.45,0,0,1,.42-.49Z"/><path class="cls-8" d="M519.46,243.91a.47.47,0,0,1-.44.5h0a.5.5,0,0,1-.58-.37h0Z"/><path class="cls-4" d="M215.78,251.56a2.56,2.56,0,0,0,2.92,1.89.45.45,0,0,0,.44-.49h0l-.56-3.5a.48.48,0,0,0-.55-.38h0A2.32,2.32,0,0,0,215.78,251.56Z"/><path class="cls-5" d="M218.86,251.2l.28,1.75a.46.46,0,0,1-.43.5h0a2.56,2.56,0,0,1-2.92-1.89Z"/><path class="cls-6" d="M209.64,252.27a.44.44,0,0,0,.11.24c.09.07,1.88,1.76,3.82,1.53a5,5,0,0,0,3.2-2.35.36.36,0,0,0,0-.25.39.39,0,0,0-.12-.24c-.09-.07-1.87-1.76-3.82-1.54s-3.13,2.27-3.19,2.36A.28.28,0,0,0,209.64,252.27Z"/><path class="cls-4" d="M216.81,251.44a.28.28,0,0,1,0,.25,4.87,4.87,0,0,1-3.19,2.35,5.53,5.53,0,0,1-3.82-1.53.39.39,0,0,1-.12-.24Z"/><path class="cls-7" d="M212.13,251.54a.51.51,0,0,1,.58.38.46.46,0,0,1-.45.49.5.5,0,0,1-.57-.38h0a.45.45,0,0,1,.42-.49Z"/><path class="cls-8" d="M212.72,251.91a.47.47,0,0,1-.44.5h0a.5.5,0,0,1-.58-.37h0Z"/><path class="cls-4" d="M229.83,241.56a2.56,2.56,0,0,0,2.92,1.89.45.45,0,0,0,.44-.49h0l-.56-3.5a.48.48,0,0,0-.55-.38h0A2.32,2.32,0,0,0,229.83,241.56Z"/><path class="cls-5" d="M232.91,241.2l.28,1.75a.46.46,0,0,1-.43.5h0a2.56,2.56,0,0,1-2.92-1.89Z"/><path class="cls-6" d="M223.69,242.27a.44.44,0,0,0,.11.24c.08.07,1.88,1.76,3.82,1.53a5,5,0,0,0,3.2-2.35.36.36,0,0,0,0-.25.39.39,0,0,0-.12-.24c-.09-.07-1.87-1.76-3.82-1.54a4.91,4.91,0,0,0-3.19,2.36A.28.28,0,0,0,223.69,242.27Z"/><path class="cls-4" d="M230.86,241.44a.28.28,0,0,1,0,.25,4.9,4.9,0,0,1-3.19,2.35,5.53,5.53,0,0,1-3.82-1.53.39.39,0,0,1-.12-.24Z"/><path class="cls-7" d="M226.18,241.54a.51.51,0,0,1,.58.38.47.47,0,0,1-.45.49.5.5,0,0,1-.57-.38h0a.45.45,0,0,1,.43-.49Z"/><path class="cls-8" d="M226.77,241.91a.47.47,0,0,1-.44.5h0a.5.5,0,0,1-.58-.37h0Z"/><path class="cls-4" d="M619.7,157.56a2.55,2.55,0,0,0,2.91,1.89.47.47,0,0,0,.45-.49h0l-.57-3.5a.47.47,0,0,0-.55-.38h0A2.31,2.31,0,0,0,619.7,157.56Z"/><path class="cls-5" d="M622.78,157.2l.28,1.75a.47.47,0,0,1-.44.5h0a2.55,2.55,0,0,1-2.91-1.89Z"/><path class="cls-6" d="M613.55,158.27a.39.39,0,0,0,.12.24c.08.07,1.87,1.76,3.81,1.53a5,5,0,0,0,3.2-2.35.28.28,0,0,0,0-.25.39.39,0,0,0-.12-.24c-.09-.07-1.87-1.76-3.81-1.54a4.94,4.94,0,0,0-3.2,2.36A.28.28,0,0,0,613.55,158.27Z"/><path class="cls-4" d="M620.73,157.44a.36.36,0,0,1,0,.25,4.73,4.73,0,0,1-3.2,2.35c-1.95.22-3.73-1.46-3.82-1.53a.44.44,0,0,1-.11-.24Z"/><path class="cls-7" d="M616,157.54a.51.51,0,0,1,.58.38.45.45,0,0,1-.44.49.51.51,0,0,1-.58-.38h0a.45.45,0,0,1,.42-.49Z"/><path class="cls-8" d="M616.63,157.91a.46.46,0,0,1-.44.5h0a.5.5,0,0,1-.58-.37h0Z"/><path class="cls-4" d="M634.92,145.56a2.55,2.55,0,0,0,2.91,1.89.47.47,0,0,0,.45-.49h0l-.57-3.5a.47.47,0,0,0-.55-.38h0A2.31,2.31,0,0,0,634.92,145.56Z"/><path class="cls-5" d="M638,145.2l.28,1.75a.47.47,0,0,1-.44.5h0a2.55,2.55,0,0,1-2.91-1.89Z"/><path class="cls-6" d="M628.77,146.27a.39.39,0,0,0,.12.24c.08.07,1.87,1.76,3.81,1.53a5,5,0,0,0,3.2-2.35.28.28,0,0,0,0-.25.39.39,0,0,0-.12-.24c-.09-.07-1.87-1.76-3.81-1.54a4.94,4.94,0,0,0-3.2,2.36A.28.28,0,0,0,628.77,146.27Z"/><path class="cls-4" d="M636,145.44a.36.36,0,0,1,0,.25,4.73,4.73,0,0,1-3.2,2.35c-2,.22-3.73-1.46-3.82-1.53a.44.44,0,0,1-.11-.24Z"/><path class="cls-7" d="M631.26,145.54a.51.51,0,0,1,.58.38.45.45,0,0,1-.44.49.51.51,0,0,1-.58-.38h0a.45.45,0,0,1,.42-.49Z"/><path class="cls-8" d="M631.85,145.91a.46.46,0,0,1-.44.5h0a.5.5,0,0,1-.58-.37h0Z"/><path class="cls-4" d="M606.82,148.56a2.55,2.55,0,0,0,2.91,1.89.45.45,0,0,0,.45-.49h0l-.56-3.5a.49.49,0,0,0-.56-.38h0A2.31,2.31,0,0,0,606.82,148.56Z"/><path class="cls-5" d="M609.9,148.2l.28,1.75a.47.47,0,0,1-.44.5h0a2.55,2.55,0,0,1-2.91-1.89Z"/><path class="cls-6" d="M600.67,149.27a.39.39,0,0,0,.12.24c.08.07,1.87,1.76,3.82,1.53a5,5,0,0,0,3.19-2.35.28.28,0,0,0,0-.25.39.39,0,0,0-.12-.24c-.09-.07-1.87-1.76-3.81-1.54a4.94,4.94,0,0,0-3.2,2.36A.36.36,0,0,0,600.67,149.27Z"/><path class="cls-4" d="M607.85,148.44a.36.36,0,0,1,0,.25,4.73,4.73,0,0,1-3.2,2.35c-1.95.22-3.73-1.46-3.81-1.53a.39.39,0,0,1-.12-.24Z"/><path class="cls-7" d="M603.17,148.54a.5.5,0,0,1,.57.38.45.45,0,0,1-.44.49.51.51,0,0,1-.58-.38h0a.45.45,0,0,1,.43-.49Z"/><path class="cls-8" d="M603.75,148.91a.46.46,0,0,1-.43.5h0a.5.5,0,0,1-.59-.37h0Z"/><path class="cls-9" d="M776.63,107.24a1.62,1.62,0,0,0,1.25-.93,1.29,1.29,0,0,0-.31-1.44L776,103.3a.65.65,0,0,0-.81,0l-1.76,2.77a.45.45,0,0,0,.14.68A4.65,4.65,0,0,0,776.63,107.24Z"/><path class="cls-10" d="M768.69,101.22l3.51-1a.44.44,0,0,0,0-.69l-1.64-1.65a1.94,1.94,0,0,0-1.6-.5,1.62,1.62,0,0,0-1.27.88,3,3,0,0,0,.18,2.78.6.6,0,0,0,.75.21Z"/><path class="cls-10" d="M780.11,101.29a4.59,4.59,0,0,0,3-1.28c.57-.45,1-.57.28-1.25a4,4,0,0,0-2.63-1.52,3.61,3.61,0,0,0-.93.05,1.58,1.58,0,0,0,.12-.52,4.17,4.17,0,0,0-1.6-3.08.65.65,0,0,0-.8-.06c-1.52,1.11-2.34,2.11-2.34,3.11-.11,1.24.78,1.83,1.61,2.76A5.36,5.36,0,0,0,780.11,101.29Z"/><path class="cls-9" d="M780.81,97.24a3.61,3.61,0,0,0-.93.05h0l-3.09,2.24h0a5.38,5.38,0,0,0,3.31,1.8,4.59,4.59,0,0,0,3-1.28c.57-.45,1-.57.28-1.25A4.05,4.05,0,0,0,780.81,97.24Z"/><path class="cls-11" d="M768.68,107.62l-1.42-1.22-1.76-1.51-.62-1.84c1.55-2.57,5-3.84,12.38-4.41a.64.64,0,0,1,.69.57.57.57,0,0,1,0,.13c-1.89,6.2-4.05,8.83-7.38,9.67Z"/><path class="cls-12" d="M777.75,98.81l-10.54,7.59h0l1.42,1.22,1.88,1.39c3.33-.84,5.49-3.47,7.38-9.67A.5.5,0,0,0,777.75,98.81Z"/><path class="cls-13" d="M764,108.72a1.35,1.35,0,0,1-.41-1.06,14.27,14.27,0,0,1,.7-3.46,7.13,7.13,0,0,1,.55-1.15,5.62,5.62,0,0,1,4.94,1.5,3.82,3.82,0,0,1,.74,4.46,13.76,13.76,0,0,1-1.43.24,23.44,23.44,0,0,1-3.93,0A1.85,1.85,0,0,1,764,108.72Z"/><path class="cls-10" d="M769.81,104.55,764,108.73a1.88,1.88,0,0,0,1.17.51,23.44,23.44,0,0,0,3.93,0,13.33,13.33,0,0,0,1.43-.24,3.81,3.81,0,0,0-.75-4.46Z"/><path class="cls-10" d="M771.64,105.28a5,5,0,0,0-1-1.35,5.53,5.53,0,0,0-1.4-1.07.45.45,0,0,1-.24-.66.61.61,0,0,1,.77-.21.6.6,0,0,1,.11.06,6.87,6.87,0,0,1,1.61,1.25,5.67,5.67,0,0,1,1.17,1.61.46.46,0,0,1-.3.63h0a.6.6,0,0,1-.74-.21S771.64,105.3,771.64,105.28Z"/><path class="cls-10" d="M771.53,103.3l-.86.63h0a5,5,0,0,1,1,1.35.59.59,0,0,0,.71.27h0a.46.46,0,0,0,.31-.63h0a5.87,5.87,0,0,0-1.17-1.61Z"/><ellipse class="cls-14" cx="766.79" cy="106.02" rx="0.57" ry="0.49"/><path class="cls-9" d="M336.93,235.41a1.36,1.36,0,0,0,.18-2.51l-2-1.15a.62.62,0,0,0-.78.13h0L333.5,235a.49.49,0,0,0,.35.62A4.71,4.71,0,0,0,336.93,235.41Z"/><path class="cls-10" d="M327.4,231.43l3.06-1.79a.45.45,0,0,0-.15-.68l-2.1-1.21a2,2,0,0,0-1.71-.11,1.43,1.43,0,0,0-.95,1.13,3.1,3.1,0,0,0,1.06,2.63.62.62,0,0,0,.79,0Z"/><path class="cls-10" d="M338.43,228.88a4.07,4.07,0,0,0,2.53-1.94c.41-.56.74-.76-.13-1.26a4.39,4.39,0,0,0-3-.86,3.24,3.24,0,0,0-.87.26,2.35,2.35,0,0,0,0-.53,4.63,4.63,0,0,0-2.51-2.6.63.63,0,0,0-.78.12c-1.18,1.42-1.58,2.57-1.35,3.54.29,1.23,1.33,1.59,2.42,2.3A5.93,5.93,0,0,0,338.43,228.88Z"/><path class="cls-9" d="M337.82,224.82a3.24,3.24,0,0,0-.87.26h0l-2.28,2.86h0a5.92,5.92,0,0,0,3.76,1A4.07,4.07,0,0,0,341,227c.41-.56.74-.76-.13-1.26A4.33,4.33,0,0,0,337.82,224.82Z"/><path class="cls-11" d="M329.41,237.59l-1.76-.85-2.18-1.05-1.17-1.63c.69-2.83,3.64-4.85,10.54-7.08a.72.72,0,0,1,.85.38l0,.13c.12,6.42-1.17,9.44-4.07,11Z"/><path class="cls-12" d="M335.36,227l-7.71,9.71h0l1.76.85,2.24.91c2.94-1.57,4.2-4.59,4.07-11A.54.54,0,0,0,335.36,227Z"/><path class="cls-13" d="M325.27,239.72a1.43,1.43,0,0,1-.71-.93,13,13,0,0,1-.42-3.5,7.4,7.4,0,0,1,.16-1.23,5.87,5.87,0,0,1,5.23.32,4.07,4.07,0,0,1,2.12,4.12,11,11,0,0,1-1.31.56,21.8,21.8,0,0,1-3.79.9A2.08,2.08,0,0,1,325.27,239.72Z"/><path class="cls-10" d="M329.53,234.37l-4.26,5.35a2.08,2.08,0,0,0,1.28.24,21.8,21.8,0,0,0,3.79-.9,11,11,0,0,0,1.31-.56,4.1,4.1,0,0,0-2.12-4.13Z"/><path class="cls-10" d="M331.51,234.66a5.93,5.93,0,0,0-1.34-1.08,6.43,6.43,0,0,0-1.68-.71.47.47,0,0,1-.31-.64.6.6,0,0,1,.66-.29,7.7,7.7,0,0,1,2,.84,6.29,6.29,0,0,1,1.59,1.29.43.43,0,0,1-.1.67.62.62,0,0,1-.79-.08Z"/><path class="cls-10" d="M330.8,232.77l-.63.81h0a5.93,5.93,0,0,1,1.34,1.08.63.63,0,0,0,.79.09.44.44,0,0,0,.1-.68,6.29,6.29,0,0,0-1.59-1.29Z"/><ellipse class="cls-14" cx="327.09" cy="236.48" rx="0.57" ry="0.49"/><path class="cls-4" d="M323.77,501.16a.58.58,0,0,0-.68.31v0l-1.64,3.82a.45.45,0,0,0,.27.62h0a3,3,0,0,0,3.57-2A2.47,2.47,0,0,0,323.77,501.16Z"/><path class="cls-5" d="M325.18,504.31a2.91,2.91,0,0,1-3.45,1.63.45.45,0,0,1-.29-.62h0l.82-1.91Z"/><path class="cls-6" d="M331,505.84c0-.11-.57-2.58-2.41-3.16s-4.13,1-4.24,1.08a.45.45,0,0,0-.18.25.37.37,0,0,0,0,.29c0,.1.56,2.58,2.41,3.16s4.12-1,4.23-1.08a.51.51,0,0,0,.19-.25A.48.48,0,0,0,331,505.84Z"/><path class="cls-4" d="M331,506.13a.6.6,0,0,1-.2.25c-.1.06-2.34,1.66-4.23,1.08s-2.34-3.06-2.41-3.16a.37.37,0,0,1,0-.29Z"/><path class="cls-7" d="M329.07,505.53a.57.57,0,0,1-.68.32h0a.44.44,0,0,1-.3-.6v0a.56.56,0,0,1,.66-.33h0A.46.46,0,0,1,329.07,505.53Z"/><path class="cls-8" d="M329.07,505.53a.57.57,0,0,1-.68.32h0a.44.44,0,0,1-.3-.6v0Z"/><path class="cls-4" d="M311.8,490.79a.54.54,0,0,0-.66.24v0l-1.43,3.32a.43.43,0,0,0,.3.57h0a2.73,2.73,0,0,0,3.3-1.35,2.14,2.14,0,0,0-1.52-2.8Z"/><path class="cls-5" d="M313.33,493.62a2.72,2.72,0,0,1-3.31,1.32.43.43,0,0,1-.32-.56h0l.72-1.66Z"/><path class="cls-6" d="M319.19,495.19a4.45,4.45,0,0,0-2.53-2.88c-1.84-.58-4,.75-4.12.8a.42.42,0,0,0-.2.47,4.42,4.42,0,0,0,2.54,2.88c1.85.58,4-.75,4.11-.8a.43.43,0,0,0,.17-.21A.39.39,0,0,0,319.19,495.19Z"/><path class="cls-4" d="M319.16,495.45a.43.43,0,0,1-.17.21c-.11,0-2.28,1.38-4.11.8a4.54,4.54,0,0,1-2.54-2.88.39.39,0,0,1,0-.26Z"/><path class="cls-7" d="M317.28,494.84a.55.55,0,0,1-.66.27.44.44,0,0,1-.32-.57.56.56,0,0,1,.67-.27.42.42,0,0,1,.31.56Z"/><path class="cls-8" d="M317.28,494.84a.55.55,0,0,1-.66.27.44.44,0,0,1-.32-.57Z"/><path class="cls-4" d="M265.18,425.61a.61.61,0,0,0-.76.15h0l-2.79,3.3a.42.42,0,0,0,.06.66h0a3.31,3.31,0,0,0,4.1-1,2.3,2.3,0,0,0-.59-3.14Z"/><path class="cls-5" d="M265.54,429a3.09,3.09,0,0,1-3.84.77.43.43,0,0,1-.08-.66h0l1.39-1.65Z"/><path class="cls-6" d="M270.7,431.79c0-.11.27-2.61-1.32-3.6s-4.3,0-4.42.07a.57.57,0,0,0-.26.19.52.52,0,0,0-.13.28c0,.11-.27,2.61,1.32,3.6s4.3,0,4.43-.07a.6.6,0,0,0,.25-.19A.41.41,0,0,0,270.7,431.79Z"/><path class="cls-4" d="M270.57,432.07a.6.6,0,0,1-.25.19c-.13,0-2.82,1.05-4.43.07s-1.32-3.49-1.32-3.6a.52.52,0,0,1,.13-.28Z"/><path class="cls-7" d="M268.9,431a.61.61,0,0,1-.77.16h0a.42.42,0,0,1-.08-.66h0a.63.63,0,0,1,.77-.16A.43.43,0,0,1,268.9,431Z"/><path class="cls-8" d="M268.9,431a.61.61,0,0,1-.77.16h0a.42.42,0,0,1-.08-.66h0Z"/><path class="cls-4" d="M259.31,409.29a.59.59,0,0,0-.72.09h0l-2.43,2.87a.39.39,0,0,0,.11.6h0a2.9,2.9,0,0,0,3.63-.42,2,2,0,0,0-.49-3.1Z"/><path class="cls-5" d="M259.91,412.37a2.87,2.87,0,0,1-3.61.5h0a.4.4,0,0,1-.13-.6h0l1.18-1.44Z"/><path class="cls-6" d="M265,415.23c0-.1.07-2.38-1.54-3.36s-4.09-.2-4.21-.18a.51.51,0,0,0-.24.16.46.46,0,0,0-.1.25c0,.1-.06,2.37,1.53,3.35s4.1.21,4.22.18a.53.53,0,0,0,.23-.16A.38.38,0,0,0,265,415.23Z"/><path class="cls-4" d="M264.93,415.47a.53.53,0,0,1-.23.16c-.12,0-2.62.81-4.22-.18S259,412.2,259,412.1a.46.46,0,0,1,.1-.25Z"/><path class="cls-7" d="M263.26,414.44a.59.59,0,0,1-.73.1.41.41,0,0,1-.12-.62.56.56,0,0,1,.72-.1h0A.41.41,0,0,1,263.26,414.44Z"/><path class="cls-8" d="M263.26,414.44a.59.59,0,0,1-.73.1.41.41,0,0,1-.12-.62Z"/><path class="cls-4" d="M298.92,495.79a.54.54,0,0,0-.66.24v0l-1.43,3.32a.43.43,0,0,0,.31.57h0a2.73,2.73,0,0,0,3.3-1.35,2.14,2.14,0,0,0-1.52-2.8Z"/><path class="cls-5" d="M300.45,498.62a2.72,2.72,0,0,1-3.31,1.32.43.43,0,0,1-.32-.56h0l.72-1.66Z"/><path class="cls-6" d="M306.31,500.19a4.42,4.42,0,0,0-2.53-2.88c-1.84-.58-4,.75-4.12.8a.44.44,0,0,0-.2.47,4.42,4.42,0,0,0,2.54,2.88c1.85.58,4-.75,4.11-.8a.43.43,0,0,0,.17-.21A.34.34,0,0,0,306.31,500.19Z"/><path class="cls-4" d="M306.28,500.45a.43.43,0,0,1-.17.21c-.11,0-2.27,1.38-4.11.8a4.54,4.54,0,0,1-2.54-2.88.39.39,0,0,1,0-.26Z"/><path class="cls-7" d="M304.4,499.84a.55.55,0,0,1-.66.27.43.43,0,0,1-.31-.57.55.55,0,0,1,.66-.27.42.42,0,0,1,.31.56Z"/><path class="cls-8" d="M304.4,499.84a.55.55,0,0,1-.66.27.43.43,0,0,1-.31-.57Z"/><path class="cls-4" d="M701.93,551.16a.57.57,0,0,0-.68.31v0l-1.64,3.82a.44.44,0,0,0,.27.62h0a3,3,0,0,0,3.58-2,2.47,2.47,0,0,0-1.53-2.81Z"/><path class="cls-5" d="M703.34,554.31a2.91,2.91,0,0,1-3.48,1.64h0a.44.44,0,0,1-.28-.62h0l.82-1.91Z"/><path class="cls-6" d="M709.2,555.84c0-.11-.57-2.58-2.41-3.16s-4.13,1-4.24,1.08a.47.47,0,0,0-.19.25.37.37,0,0,0,0,.29c0,.1.57,2.58,2.42,3.16s4.12-1,4.22-1.08a.6.6,0,0,0,.2-.25A.48.48,0,0,0,709.2,555.84Z"/><path class="cls-4" d="M709.17,556.13a.6.6,0,0,1-.2.25c-.11.06-2.34,1.66-4.23,1.08s-2.34-3.06-2.41-3.16a.37.37,0,0,1,0-.29Z"/><path class="cls-7" d="M707.22,555.53a.57.57,0,0,1-.68.32h0a.45.45,0,0,1-.3-.6l0,0a.56.56,0,0,1,.66-.33h0A.45.45,0,0,1,707.22,555.53Z"/><path class="cls-8" d="M707.22,555.53a.57.57,0,0,1-.68.32h0a.45.45,0,0,1-.3-.6l0,0Z"/><path class="cls-4" d="M690,540.79a.53.53,0,0,0-.65.24v0l-1.43,3.32a.43.43,0,0,0,.3.57h0a2.72,2.72,0,0,0,3.3-1.35,2.13,2.13,0,0,0-1.52-2.8Z"/><path class="cls-5" d="M691.49,543.62a2.72,2.72,0,0,1-3.32,1.32.44.44,0,0,1-.32-.56h0l.71-1.66Z"/><path class="cls-6" d="M697.34,545.19a4.42,4.42,0,0,0-2.53-2.88c-1.84-.58-4,.75-4.12.8a.45.45,0,0,0-.2.47,4.42,4.42,0,0,0,2.54,2.88c1.85.58,4-.75,4.11-.8a.52.52,0,0,0,.18-.21A.33.33,0,0,0,697.34,545.19Z"/><path class="cls-4" d="M697.32,545.45a.52.52,0,0,1-.18.21c-.1.05-2.27,1.38-4.11.8s-2.5-2.79-2.54-2.88a.39.39,0,0,1,0-.26Z"/><path class="cls-7" d="M695.43,544.84a.54.54,0,0,1-.66.27.43.43,0,0,1-.31-.57.56.56,0,0,1,.67-.27.43.43,0,0,1,.31.56Z"/><path class="cls-8" d="M695.43,544.84a.54.54,0,0,1-.66.27.43.43,0,0,1-.31-.57Z"/><path class="cls-4" d="M560,516.79a.54.54,0,0,0-.66.24v0l-1.43,3.32a.43.43,0,0,0,.31.57h0a2.73,2.73,0,0,0,3.3-1.35,2.14,2.14,0,0,0-1.52-2.8Z"/><path class="cls-5" d="M561.53,519.62a2.72,2.72,0,0,1-3.31,1.32.43.43,0,0,1-.32-.56h0l.72-1.66Z"/><path class="cls-6" d="M567.39,521.19a4.42,4.42,0,0,0-2.53-2.88c-1.84-.58-4,.75-4.12.8a.44.44,0,0,0-.2.47,4.42,4.42,0,0,0,2.54,2.88c1.85.58,4-.75,4.11-.8a.43.43,0,0,0,.17-.21A.34.34,0,0,0,567.39,521.19Z"/><path class="cls-4" d="M567.36,521.45a.43.43,0,0,1-.17.21c-.11.05-2.27,1.38-4.11.8a4.54,4.54,0,0,1-2.54-2.88.39.39,0,0,1,0-.26Z"/><path class="cls-7" d="M565.48,520.84a.55.55,0,0,1-.66.27.43.43,0,0,1-.31-.57.55.55,0,0,1,.66-.27.42.42,0,0,1,.31.56Z"/><path class="cls-8" d="M565.48,520.84a.55.55,0,0,1-.66.27.43.43,0,0,1-.31-.57Z"/><path class="cls-4" d="M677.08,545.79a.54.54,0,0,0-.66.24v0L675,549.37a.43.43,0,0,0,.3.57h0a2.73,2.73,0,0,0,3.3-1.35,2.14,2.14,0,0,0-1.52-2.8Z"/><path class="cls-5" d="M678.61,548.62a2.72,2.72,0,0,1-3.31,1.32.42.42,0,0,1-.32-.56h0l.71-1.66Z"/><path class="cls-6" d="M684.46,550.19a4.42,4.42,0,0,0-2.53-2.88c-1.83-.58-4,.75-4.12.8a.45.45,0,0,0-.2.47,4.42,4.42,0,0,0,2.54,2.88c1.85.58,4-.75,4.11-.8a.4.4,0,0,0,.18-.21A.33.33,0,0,0,684.46,550.19Z"/><path class="cls-4" d="M684.44,550.45a.4.4,0,0,1-.18.21c-.1.05-2.27,1.38-4.11.8s-2.5-2.79-2.54-2.88a.39.39,0,0,1,0-.26Z"/><path class="cls-7" d="M682.55,549.84a.54.54,0,0,1-.66.27.44.44,0,0,1-.31-.57.56.56,0,0,1,.67-.27.43.43,0,0,1,.31.56Z"/><path class="cls-8" d="M682.55,549.84a.54.54,0,0,1-.66.27.44.44,0,0,1-.31-.57Z"/><path class="cls-4" d="M455.8,533.79a.54.54,0,0,0-.66.24v0l-1.42,3.32a.43.43,0,0,0,.3.57h0a2.72,2.72,0,0,0,3.3-1.35,2.13,2.13,0,0,0-1.52-2.8Z"/><path class="cls-5" d="M457.34,536.62a2.73,2.73,0,0,1-3.32,1.32.43.43,0,0,1-.32-.56h0l.71-1.66Z"/><path class="cls-6" d="M463.19,538.19a4.42,4.42,0,0,0-2.53-2.88c-1.84-.58-4,.75-4.12.8a.44.44,0,0,0-.2.47,4.42,4.42,0,0,0,2.54,2.88c1.85.58,4-.75,4.11-.8a.52.52,0,0,0,.18-.21A.33.33,0,0,0,463.19,538.19Z"/><path class="cls-4" d="M463.17,538.45a.52.52,0,0,1-.18.21c-.11.05-2.27,1.38-4.11.8a4.54,4.54,0,0,1-2.54-2.88.39.39,0,0,1,0-.26Z"/><path class="cls-7" d="M461.28,537.84a.55.55,0,0,1-.66.27.43.43,0,0,1-.31-.57h0a.56.56,0,0,1,.67-.27.42.42,0,0,1,.3.56Z"/><path class="cls-8" d="M461.28,537.84a.55.55,0,0,1-.66.27.43.43,0,0,1-.31-.57h0Z"/><path class="cls-4" d="M442.92,538.79a.53.53,0,0,0-.65.24v0l-1.43,3.32a.43.43,0,0,0,.3.57h0a2.72,2.72,0,0,0,3.3-1.35,2.13,2.13,0,0,0-1.52-2.8Z"/><path class="cls-5" d="M444.46,541.62a2.72,2.72,0,0,1-3.32,1.32.43.43,0,0,1-.32-.56h0l.71-1.66Z"/><path class="cls-6" d="M450.31,543.19a4.42,4.42,0,0,0-2.53-2.88c-1.84-.58-4,.75-4.12.8a.45.45,0,0,0-.2.47,4.42,4.42,0,0,0,2.54,2.88c1.85.58,4-.75,4.11-.8a.52.52,0,0,0,.18-.21A.33.33,0,0,0,450.31,543.19Z"/><path class="cls-4" d="M450.29,543.45a.52.52,0,0,1-.18.21c-.1.05-2.27,1.38-4.11.8s-2.5-2.79-2.54-2.88a.39.39,0,0,1,0-.26Z"/><path class="cls-7" d="M448.4,542.84a.54.54,0,0,1-.66.27.43.43,0,0,1-.31-.57h0a.56.56,0,0,1,.67-.27.42.42,0,0,1,.3.56Z"/><path class="cls-8" d="M448.4,542.84a.54.54,0,0,1-.66.27.43.43,0,0,1-.31-.57h0Z"/><path class="cls-4" d="M940.77,680.16a.59.59,0,0,0-.69.31v0l-1.64,3.82a.44.44,0,0,0,.26.62h0a3,3,0,0,0,3.57-2,2.47,2.47,0,0,0-1.52-2.81Z"/><path class="cls-5" d="M942.17,683.31a2.91,2.91,0,0,1-3.48,1.64h0a.45.45,0,0,1-.29-.62h0l.82-1.91Z"/><path class="cls-6" d="M948,684.84c0-.11-.58-2.58-2.41-3.16s-4.14,1-4.24,1.08a.43.43,0,0,0-.19.25.37.37,0,0,0,0,.29c0,.1.56,2.58,2.41,3.16s4.12-1,4.23-1.08a.6.6,0,0,0,.2-.25A.48.48,0,0,0,948,684.84Z"/><path class="cls-4" d="M948,685.13a.6.6,0,0,1-.2.25c-.1.06-2.34,1.66-4.22,1.08s-2.35-3.06-2.42-3.16a.37.37,0,0,1,0-.29Z"/><path class="cls-7" d="M946.06,684.53a.57.57,0,0,1-.68.32h0a.44.44,0,0,1-.3-.6l0,0a.55.55,0,0,1,.65-.33h0A.46.46,0,0,1,946.06,684.53Z"/><path class="cls-8" d="M946.06,684.53a.57.57,0,0,1-.68.32h0a.44.44,0,0,1-.3-.6l0,0Z"/><path class="cls-4" d="M928.79,669.79a.54.54,0,0,0-.66.24v0l-1.43,3.32a.43.43,0,0,0,.31.57h0a2.72,2.72,0,0,0,3.3-1.35,2.14,2.14,0,0,0-1.52-2.8Z"/><path class="cls-5" d="M930.32,672.62a2.72,2.72,0,0,1-3.31,1.32.43.43,0,0,1-.32-.56h0l.72-1.66Z"/><path class="cls-6" d="M936.18,674.19a4.42,4.42,0,0,0-2.53-2.88c-1.84-.58-4,.75-4.12.8a.44.44,0,0,0-.2.47,4.42,4.42,0,0,0,2.54,2.88c1.85.58,4-.75,4.11-.8a.43.43,0,0,0,.17-.21A.34.34,0,0,0,936.18,674.19Z"/><path class="cls-4" d="M936.15,674.45a.43.43,0,0,1-.17.21c-.11.05-2.27,1.38-4.11.8a4.54,4.54,0,0,1-2.54-2.88.39.39,0,0,1,0-.26Z"/><path class="cls-7" d="M934.27,673.84a.55.55,0,0,1-.66.27.43.43,0,0,1-.31-.57h0a.55.55,0,0,1,.66-.27.42.42,0,0,1,.31.56Z"/><path class="cls-8" d="M934.27,673.84a.55.55,0,0,1-.66.27.43.43,0,0,1-.31-.57h0Z"/><path class="cls-4" d="M1054.06,635.79a.54.54,0,0,0-.66.24v0l-1.42,3.32a.43.43,0,0,0,.3.57h0a2.72,2.72,0,0,0,3.3-1.35,2.13,2.13,0,0,0-1.52-2.8Z"/><path class="cls-5" d="M1055.59,638.62a2.71,2.71,0,0,1-3.31,1.32.43.43,0,0,1-.32-.56h0l.71-1.66Z"/><path class="cls-6" d="M1061.45,640.19a4.42,4.42,0,0,0-2.53-2.88c-1.84-.58-4,.75-4.12.8a.44.44,0,0,0-.2.47,4.42,4.42,0,0,0,2.54,2.88c1.85.58,4-.75,4.11-.8a.52.52,0,0,0,.18-.21A.33.33,0,0,0,1061.45,640.19Z"/><path class="cls-4" d="M1061.43,640.45a.52.52,0,0,1-.18.21c-.11.05-2.27,1.38-4.11.8a4.54,4.54,0,0,1-2.54-2.88.39.39,0,0,1,0-.26Z"/><path class="cls-7" d="M1059.54,639.84a.55.55,0,0,1-.66.27.43.43,0,0,1-.31-.57.56.56,0,0,1,.67-.27.42.42,0,0,1,.3.56Z"/><path class="cls-8" d="M1059.54,639.84a.55.55,0,0,1-.66.27.43.43,0,0,1-.31-.57Z"/><path class="cls-4" d="M915.91,674.79a.54.54,0,0,0-.66.24v0l-1.42,3.32a.43.43,0,0,0,.3.57h0a2.72,2.72,0,0,0,3.3-1.35,2.13,2.13,0,0,0-1.52-2.8Z"/><path class="cls-5" d="M917.44,677.62a2.71,2.71,0,0,1-3.31,1.32.43.43,0,0,1-.32-.56h0l.71-1.66Z"/><path class="cls-6" d="M923.3,679.19a4.42,4.42,0,0,0-2.53-2.88c-1.84-.58-4,.75-4.12.8a.44.44,0,0,0-.2.47,4.42,4.42,0,0,0,2.54,2.88c1.85.58,4-.75,4.11-.8a.52.52,0,0,0,.18-.21A.33.33,0,0,0,923.3,679.19Z"/><path class="cls-4" d="M923.28,679.45a.52.52,0,0,1-.18.21c-.11.05-2.27,1.38-4.11.8a4.54,4.54,0,0,1-2.54-2.88.39.39,0,0,1,0-.26Z"/><path class="cls-7" d="M921.39,678.84a.55.55,0,0,1-.66.27.43.43,0,0,1-.31-.57.56.56,0,0,1,.67-.27.42.42,0,0,1,.3.56Z"/><path class="cls-8" d="M921.39,678.84a.55.55,0,0,1-.66.27.43.43,0,0,1-.31-.57Z"/><path class="cls-9" d="M274,314.72a1.56,1.56,0,0,0,1.17-1,1.31,1.31,0,0,0-.39-1.43l-1.62-1.5a.63.63,0,0,0-.8,0h0l-1.62,2.84a.44.44,0,0,0,.17.66h0A4.6,4.6,0,0,0,274,314.72Z"/><path class="cls-10" d="M265.76,309l3.45-1.16a.43.43,0,0,0,0-.68h0l-1.73-1.59a1.9,1.9,0,0,0-1.62-.44,1.58,1.58,0,0,0-1.17.92,3,3,0,0,0,.32,2.77A.63.63,0,0,0,265.76,309Z"/><path class="cls-10" d="M277.13,308.65a4.44,4.44,0,0,0,3-1.4c.56-.47.93-.59.23-1.25a4.18,4.18,0,0,0-2.72-1.43,3.47,3.47,0,0,0-.91.09,2.27,2.27,0,0,0,.09-.52,4.26,4.26,0,0,0-1.74-3,.68.68,0,0,0-.81,0c-1.46,1.16-2.22,2.19-2.25,3.19,0,1.25.88,1.8,1.76,2.7A5.49,5.49,0,0,0,277.13,308.65Z"/><path class="cls-9" d="M277.61,304.57a3.47,3.47,0,0,0-.91.09h0l-3,2.34h0a5.53,5.53,0,0,0,3.39,1.68,4.44,4.44,0,0,0,3-1.4c.56-.47.93-.59.23-1.25A4.14,4.14,0,0,0,277.61,304.57Z"/><path class="cls-11" d="M266,315.39l-1.43-1.17-1.84-1.44L262,311c1.43-2.63,4.84-4,12.15-4.85a.64.64,0,0,1,.72.54v.12c-1.58,6.28-3.61,9-6.89,9.94Z"/><path class="cls-12" d="M274.64,306.25l-10.09,8h0l1.47,1.17,2,1.32c3.27-1,5.3-3.66,6.88-9.94A.53.53,0,0,0,274.64,306.25Z"/><path class="cls-13" d="M261.43,316.66a1.29,1.29,0,0,1-.44-1.05,12.92,12.92,0,0,1,.52-3.48A6.55,6.55,0,0,1,262,311c2.73-.57,5.49.86,6.16,3.19a3.77,3.77,0,0,1-.17,2.56,11.69,11.69,0,0,1-1.43.29,23.33,23.33,0,0,1-3.92.14A2,2,0,0,1,261.43,316.66Z"/><path class="cls-10" d="M267,312.28l-5.56,4.38a2,2,0,0,0,1.17.48,23.45,23.45,0,0,0,3.93-.14,11.16,11.16,0,0,0,1.42-.29,3.84,3.84,0,0,0-1-4.43Z"/><path class="cls-10" d="M268.85,312.94a4.85,4.85,0,0,0-1-1.31,6.38,6.38,0,0,0-1.44-1,.45.45,0,0,1-.2-.67.65.65,0,0,1,.78-.17,8,8,0,0,1,1.7,1.2,6.06,6.06,0,0,1,1.17,1.57.46.46,0,0,1-.28.64.61.61,0,0,1-.75-.24Z"/><path class="cls-10" d="M268.67,311l-.83.66h0a4.85,4.85,0,0,1,1,1.31.62.62,0,0,0,.75.24.45.45,0,0,0,.28-.64,5.85,5.85,0,0,0-1.17-1.57Z"/><ellipse class="cls-14" cx="264.07" cy="313.86" rx="0.57" ry="0.49"/><path class="cls-9" d="M28.1,330.72a1.56,1.56,0,0,0,1.17-1,1.31,1.31,0,0,0-.39-1.43l-1.62-1.5a.63.63,0,0,0-.8,0h0l-1.62,2.84a.44.44,0,0,0,.17.66h0A4.6,4.6,0,0,0,28.1,330.72Z"/><path class="cls-10" d="M19.9,325l3.45-1.16a.44.44,0,0,0,0-.68h0l-1.73-1.59a1.9,1.9,0,0,0-1.62-.44,1.6,1.6,0,0,0-1.23.92,3,3,0,0,0,.33,2.77.61.61,0,0,0,.77.19Z"/><path class="cls-10" d="M31.27,324.65a4.44,4.44,0,0,0,3-1.4c.56-.47.93-.59.23-1.25a4.18,4.18,0,0,0-2.72-1.43,3.47,3.47,0,0,0-.91.09,2.27,2.27,0,0,0,.09-.52,4.26,4.26,0,0,0-1.74-3,.67.67,0,0,0-.81,0c-1.46,1.16-2.23,2.19-2.25,3.19,0,1.25.88,1.8,1.76,2.7A5.49,5.49,0,0,0,31.27,324.65Z"/><path class="cls-9" d="M31.75,320.57a3.47,3.47,0,0,0-.91.09h0l-3,2.34h0a5.53,5.53,0,0,0,3.39,1.68,4.44,4.44,0,0,0,3-1.4c.56-.47.93-.59.23-1.25A4.14,4.14,0,0,0,31.75,320.57Z"/><path class="cls-11" d="M20.16,331.39l-1.43-1.17-1.84-1.44L16.13,327c1.43-2.63,4.84-4,12.16-4.85a.66.66,0,0,1,.72.54.49.49,0,0,1,0,.12c-1.58,6.28-3.61,9-6.88,9.94Z"/><path class="cls-12" d="M28.78,322.25l-10.09,8h0l1.47,1.17,2,1.32c3.27-1,5.3-3.66,6.88-9.94A.53.53,0,0,0,28.78,322.25Z"/><path class="cls-13" d="M15.57,332.66a1.29,1.29,0,0,1-.44-1.05,12.92,12.92,0,0,1,.52-3.48,6.55,6.55,0,0,1,.48-1.17c2.73-.57,5.49.86,6.16,3.19a3.77,3.77,0,0,1-.17,2.56,11.69,11.69,0,0,1-1.43.29,23.37,23.37,0,0,1-3.92.14A2,2,0,0,1,15.57,332.66Z"/><path class="cls-10" d="M21.14,328.28l-5.56,4.38a2,2,0,0,0,1.17.48,23.45,23.45,0,0,0,3.93-.14,11.16,11.16,0,0,0,1.42-.29,3.84,3.84,0,0,0-1-4.43Z"/><path class="cls-10" d="M23,328.94a4.85,4.85,0,0,0-1-1.31,6.38,6.38,0,0,0-1.44-1,.45.45,0,0,1-.2-.67.65.65,0,0,1,.78-.17,8,8,0,0,1,1.7,1.2A6.06,6.06,0,0,1,24,328.56a.46.46,0,0,1-.28.64A.61.61,0,0,1,23,329Z"/><path class="cls-10" d="M22.81,327l-.83.66h0A4.85,4.85,0,0,1,23,329a.62.62,0,0,0,.75.24.45.45,0,0,0,.28-.64h0A5.85,5.85,0,0,0,22.85,327Z"/><ellipse class="cls-14" cx="18.21" cy="329.86" rx="0.57" ry="0.49"/><path class="cls-4" d="M252.79,311.78a2.9,2.9,0,0,0,3.65-.07.39.39,0,0,0,0-.61h0l-3-2.45a.6.6,0,0,0-.74,0,2,2,0,0,0,.07,3.14Z"/><path class="cls-5" d="M254.93,309.86l1.5,1.23a.39.39,0,0,1,0,.61h0a2.9,2.9,0,0,1-3.65.07Z"/><path class="cls-6" d="M248.49,315.61a.55.55,0,0,0,.27.12c.12,0,2.74.39,4.1-.83s.81-3.44.8-3.54a.54.54,0,0,0-.15-.22.55.55,0,0,0-.27-.12c-.12,0-2.74-.39-4.11.82s-.81,3.44-.79,3.54A.39.39,0,0,0,248.49,315.61Z"/><path class="cls-4" d="M253.51,311.14a.54.54,0,0,1,.15.22c0,.1.57,2.33-.8,3.54s-4,.84-4.1.83a.55.55,0,0,1-.27-.12Z"/><path class="cls-7" d="M249.91,313.71a.56.56,0,0,1,.71,0h0a.4.4,0,0,1,0,.62.57.57,0,0,1-.73,0h0a.39.39,0,0,1,0-.61Z"/><path class="cls-8" d="M250.64,313.69a.41.41,0,0,1,0,.63.59.59,0,0,1-.73,0h0Z"/><path class="cls-9" d="M150.06,447.1a.51.51,0,0,0-.45-.57l-3.51-1a.52.52,0,0,0-.54.5h0l.15,2a1.63,1.63,0,0,0,1.8,1.38,1.85,1.85,0,0,0,.81-.22A3.51,3.51,0,0,0,150.06,447.1Z"/><path class="cls-10" d="M149.55,439.64a3.59,3.59,0,0,0-2.12-2.11,1.85,1.85,0,0,0-1.62.12,1.4,1.4,0,0,0-.76,1.31l.16,2.16a.52.52,0,0,0,.57.45h0l3.36-1.32a.48.48,0,0,0,.38-.61Z"/><path class="cls-10" d="M141.91,443.8c-.15-1.16,0-2.11-1.08-2.95-.85-.67-2.25-.92-4.25-.82a.54.54,0,0,0-.53.52,4.09,4.09,0,0,0,1.35,3.17,2.29,2.29,0,0,0,.5.3,3.22,3.22,0,0,0-.7.51,3.05,3.05,0,0,0-.67,2.65c0,.9.44.75,1.18.74A4.7,4.7,0,0,0,141,447,4,4,0,0,0,141.91,443.8Z"/><path class="cls-9" d="M136.53,447.18c0,.9.44.75,1.18.74A4.7,4.7,0,0,0,141,447a4,4,0,0,0,.92-3.25h0l-4,.21h0a3.22,3.22,0,0,0-.7.51A3,3,0,0,0,136.53,447.18Z"/><path class="cls-11" d="M154.13,447c-3.08,1.36-6.77.74-13.17-2.62a.53.53,0,0,1-.15-.82.76.76,0,0,1,.09-.09c5.75-3.93,9.3-5.07,12.49-4.14l1.06,1.7v3.85Z"/><path class="cls-12" d="M141,444.35c6.4,3.36,10.09,4,13.17,2.62l.24-2.12v-1.72h0l-13.73.72A.56.56,0,0,0,141,444.35Z"/><path class="cls-13" d="M158.19,444a18.28,18.28,0,0,1-2.83,2.33,9.65,9.65,0,0,1-1.17.68,4.42,4.42,0,0,1-3.08-3.66,4.22,4.22,0,0,1,2.34-4,12.91,12.91,0,0,1,1.32.51,18.24,18.24,0,0,1,3.28,2,1.34,1.34,0,0,1,.16,2.06Z"/><path class="cls-10" d="M151,443.31a4.42,4.42,0,0,0,3.08,3.66,9.65,9.65,0,0,0,1.17-.68,18.28,18.28,0,0,0,2.83-2.33,1.31,1.31,0,0,0,.41-1l-7.55.4Z"/><path class="cls-10" d="M150,445.54a.62.62,0,0,1-.74-.28,5.5,5.5,0,0,1-.31-3.7.6.6,0,0,1,.71-.39.52.52,0,0,1,.46.61h0a4.08,4.08,0,0,0-.14,1.59,4.6,4.6,0,0,0,.39,1.54.46.46,0,0,1-.33.62Z"/><path class="cls-10" d="M148.79,443.43a5.39,5.39,0,0,0,.48,1.83.62.62,0,0,0,.74.28.46.46,0,0,0,.32-.62h0a4.39,4.39,0,0,1-.4-1.54h0l-1.17.06Z"/><ellipse class="cls-14" cx="154.42" cy="442.58" rx="0.57" ry="0.49"/><path class="cls-9" d="M1037.49,633.1a.5.5,0,0,0-.44-.57l-3.51-1a.52.52,0,0,0-.54.5h0l.15,2a1.63,1.63,0,0,0,1.8,1.38,1.85,1.85,0,0,0,.81-.22A3.46,3.46,0,0,0,1037.49,633.1Z"/><path class="cls-10" d="M1037,625.64a3.59,3.59,0,0,0-2.12-2.11,1.87,1.87,0,0,0-1.63.12,1.44,1.44,0,0,0-.76,1.31l.17,2.16a.52.52,0,0,0,.57.45h0l3.36-1.32a.48.48,0,0,0,.39-.61Z"/><path class="cls-10" d="M1029.35,629.8c-.16-1.16,0-2.11-1.08-2.95-.86-.67-2.25-.92-4.25-.82a.54.54,0,0,0-.53.52,4.06,4.06,0,0,0,1.35,3.17,2.29,2.29,0,0,0,.5.3,3.22,3.22,0,0,0-.7.51,3.05,3.05,0,0,0-.67,2.65c0,.9.44.75,1.17.74a4.71,4.71,0,0,0,3.25-.88A4,4,0,0,0,1029.35,629.8Z"/><path class="cls-9" d="M1024,633.18c0,.9.44.75,1.17.74a4.71,4.71,0,0,0,3.25-.88,4,4,0,0,0,.92-3.25h0l-4,.21h0a3.22,3.22,0,0,0-.7.51A3,3,0,0,0,1024,633.18Z"/><path class="cls-11" d="M1041.57,633c-3.08,1.36-6.77.74-13.17-2.62a.52.52,0,0,1-.09-.83.24.24,0,0,1,.09-.08c5.75-3.93,9.29-5.07,12.49-4.14l1,1.7v3.85Z"/><path class="cls-12" d="M1028.4,630.35c6.4,3.36,10.09,4,13.17,2.62l.23-2.12v-1.72h0l-13.72.72A.55.55,0,0,0,1028.4,630.35Z"/><path class="cls-13" d="M1045.63,630a18.28,18.28,0,0,1-2.83,2.33,10.44,10.44,0,0,1-1.23.68,4.42,4.42,0,0,1-3.08-3.66,4.21,4.21,0,0,1,2.34-4,13.88,13.88,0,0,1,1.32.51,18.75,18.75,0,0,1,3.34,2,1.34,1.34,0,0,1,.15,2.06Z"/><path class="cls-10" d="M1038.47,629.31a4.42,4.42,0,0,0,3.08,3.66,10.31,10.31,0,0,0,1.22-.68,17.9,17.9,0,0,0,2.84-2.33,1.34,1.34,0,0,0,.41-1.05l-7.55.4Z"/><path class="cls-10" d="M1037.45,631.54a.62.62,0,0,1-.74-.28,5.56,5.56,0,0,1-.32-3.7.56.56,0,0,1,.65-.42.5.5,0,0,1,.49.54.3.3,0,0,1,0,.1,4.08,4.08,0,0,0-.14,1.59,4.6,4.6,0,0,0,.39,1.54.45.45,0,0,1-.3.63Z"/><path class="cls-10" d="M1036.23,629.43a5.39,5.39,0,0,0,.48,1.83.62.62,0,0,0,.74.28.46.46,0,0,0,.32-.62h0a4.6,4.6,0,0,1-.39-1.54h0l-1.17.06Z"/><ellipse class="cls-14" cx="1041.86" cy="628.58" rx="0.57" ry="0.49"/><path class="cls-9" d="M566.85,511.1a.5.5,0,0,0-.45-.57l-3.51-1a.52.52,0,0,0-.54.5h0l.15,2a1.64,1.64,0,0,0,1.8,1.38,1.93,1.93,0,0,0,.82-.22A3.52,3.52,0,0,0,566.85,511.1Z"/><path class="cls-10" d="M566.34,503.64a3.6,3.6,0,0,0-2.11-2.11,1.87,1.87,0,0,0-1.63.12,1.4,1.4,0,0,0-.76,1.31l.16,2.16a.52.52,0,0,0,.57.45h0l3.36-1.32a.49.49,0,0,0,.39-.61Z"/><path class="cls-10" d="M558.7,507.8c-.15-1.16,0-2.11-1.08-2.95-.85-.67-2.25-.92-4.25-.82a.52.52,0,0,0-.52.52,4,4,0,0,0,1.34,3.17,2.36,2.36,0,0,0,.51.3,3.28,3.28,0,0,0-.71.51,3,3,0,0,0-.66,2.65c0,.9.43.75,1.17.74a4.7,4.7,0,0,0,3.24-.88A4,4,0,0,0,558.7,507.8Z"/><path class="cls-9" d="M553.33,511.18c0,.9.43.75,1.17.74a4.7,4.7,0,0,0,3.24-.88,4,4,0,0,0,.92-3.25h0l-4,.21h0a3.28,3.28,0,0,0-.71.51A3,3,0,0,0,553.33,511.18Z"/><path class="cls-11" d="M570.92,511c-3.08,1.36-6.76.74-13.17-2.62a.54.54,0,0,1-.09-.83l.09-.08c5.75-3.93,9.3-5.07,12.49-4.14l1.06,1.7v3.85Z"/><path class="cls-12" d="M557.75,508.35c6.41,3.36,10.09,4,13.17,2.62l.24-2.12v-1.72h0l-13.72.72A.55.55,0,0,0,557.75,508.35Z"/><path class="cls-13" d="M575,508a17.82,17.82,0,0,1-2.83,2.33,10.44,10.44,0,0,1-1.23.68,4.42,4.42,0,0,1-3.08-3.66,4.24,4.24,0,0,1,2.34-4,14.07,14.07,0,0,1,1.33.51,18.32,18.32,0,0,1,3.33,2A1.34,1.34,0,0,1,575,508Z"/><path class="cls-10" d="M567.82,507.31A4.42,4.42,0,0,0,570.9,511a10.44,10.44,0,0,0,1.23-.68A18.28,18.28,0,0,0,575,508a1.31,1.31,0,0,0,.41-1l-7.55.4Z"/><path class="cls-10" d="M566.8,509.54a.62.62,0,0,1-.74-.28,5.5,5.5,0,0,1-.31-3.7.55.55,0,0,1,.64-.42.52.52,0,0,1,.5.55l0,.09a4.28,4.28,0,0,0-.14,1.59,4.39,4.39,0,0,0,.4,1.54.46.46,0,0,1-.31.63Z"/><path class="cls-10" d="M565.58,507.43a5.63,5.63,0,0,0,.48,1.83.62.62,0,0,0,.74.28.46.46,0,0,0,.32-.62h0a4.39,4.39,0,0,1-.4-1.54h0l-1.17.06Z"/><ellipse class="cls-14" cx="571.22" cy="506.58" rx="0.57" ry="0.49"/><path class="cls-9" d="M731.93,639.1a.51.51,0,0,0-.45-.57l-3.51-1a.52.52,0,0,0-.54.5h0l.15,2a1.63,1.63,0,0,0,1.8,1.38,1.85,1.85,0,0,0,.81-.22A3.51,3.51,0,0,0,731.93,639.1Z"/><path class="cls-10" d="M731.42,631.64a3.59,3.59,0,0,0-2.12-2.11,1.84,1.84,0,0,0-1.62.12,1.43,1.43,0,0,0-.77,1.31l.17,2.16a.52.52,0,0,0,.57.45h0l3.36-1.32a.48.48,0,0,0,.38-.61Z"/><path class="cls-10" d="M723.78,635.8c-.15-1.16,0-2.11-1.08-2.95-.85-.67-2.25-.92-4.25-.82a.54.54,0,0,0-.53.52,4.06,4.06,0,0,0,1.35,3.17,2.29,2.29,0,0,0,.5.3,3.22,3.22,0,0,0-.7.51,3.05,3.05,0,0,0-.67,2.65c0,.9.44.75,1.17.74a4.71,4.71,0,0,0,3.25-.88A4,4,0,0,0,723.78,635.8Z"/><path class="cls-9" d="M718.4,639.18c0,.9.44.75,1.17.74a4.71,4.71,0,0,0,3.25-.88,4,4,0,0,0,.92-3.25h0l-4,.21h0a3.22,3.22,0,0,0-.7.51A3,3,0,0,0,718.4,639.18Z"/><path class="cls-11" d="M736,639c-3.08,1.36-6.77.74-13.17-2.62a.52.52,0,0,1-.09-.83.34.34,0,0,1,.09-.08c5.75-3.93,9.29-5.07,12.49-4.14l1,1.7v3.85Z"/><path class="cls-12" d="M722.83,636.35c6.4,3.36,10.09,4,13.17,2.62l.23-2.12v-1.72h0l-13.72.72A.56.56,0,0,0,722.83,636.35Z"/><path class="cls-13" d="M740.06,636a18.28,18.28,0,0,1-2.83,2.33A10.44,10.44,0,0,1,736,639a4.42,4.42,0,0,1-3.08-3.66,4.22,4.22,0,0,1,2.34-4,14.07,14.07,0,0,1,1.33.51,19,19,0,0,1,3.33,2,1.34,1.34,0,0,1,.15,2.06Z"/><path class="cls-10" d="M732.9,635.31A4.42,4.42,0,0,0,736,639a10.44,10.44,0,0,0,1.23-.68A18.28,18.28,0,0,0,740,636a1.31,1.31,0,0,0,.41-1.05l-7.55.4Z"/><path class="cls-10" d="M731.88,637.54a.62.62,0,0,1-.74-.28,5.5,5.5,0,0,1-.31-3.7.55.55,0,0,1,.64-.42.5.5,0,0,1,.49.54.3.3,0,0,1,0,.1,4.08,4.08,0,0,0-.14,1.59,4.39,4.39,0,0,0,.4,1.54.47.47,0,0,1-.31.63Z"/><path class="cls-10" d="M730.66,635.43a5.39,5.39,0,0,0,.48,1.83.62.62,0,0,0,.74.28.46.46,0,0,0,.32-.62h0a4.39,4.39,0,0,1-.4-1.54h0l-1.17.06Z"/><ellipse class="cls-14" cx="736.29" cy="634.58" rx="0.57" ry="0.49"/></svg>