<svg id="Layer_1" data-name="Layer 1" xmlns="http://www.w3.org/2000/svg" viewBox="0 0 1030.84 733"><defs><style>.cls-1{fill:#7cc5f2;}.cls-2{fill:#64afbc;}.cls-3{fill:#b0d9ed;}.cls-4{fill:#4bb9ec;}.cls-5{fill:#0095ff;}.cls-6{fill:#76e2f8;}.cls-7{fill:#697c86;}.cls-8{fill:#596c76;}.cls-9{fill:#a4d9f5;}.cls-10{fill:#b7e0f6;}.cls-11{fill:#81c8ee;}.cls-12{fill:#159ce4;}.cls-13{fill:#cae8f9;}.cls-14{fill:#3c3a41;}</style></defs><title>bg-img_repeat</title><path class="cls-1" d="M1027,706.68c-10.21-11.94-28.84-17.83-45.28-18.55-14.33-.62-28.81,7.57-43,1.74-19.74-8.08-21.26-37.18-40.92-45.42-21.44-9-46.73,13.75-68.49,5.5-19-7.23-22-33.06-39.44-43.32-23.15-13.64-54.16,8.18-80.17.33-24.59-7.42-34.76-38.23-59.58-44.94-22.72-6.15-48.47,10.76-69.79,1.16-18-8.12-23.78-31.67-42.08-39.24-20.5-8.49-44.46,7.65-66.14,2.37-22.43-5.46-32.83-31-53.92-40-24.49-10.45-55.86,4.35-79.06-8.45-16.25-9-23.61-29.32-41.22-35.62-20.16-7.21-43,7.73-63.81,2.5-27.87-7-37.09-45.41-65.39-50.67-18.52-3.44-36.12,9.36-55,10.49-22.44,1.34-43.86-17.07-45.07-38.07,1.21-21,22.63-39.41,45.07-38.07,18.84,1.13,36.44,13.93,55,10.49,28.3-5.26,37.52-43.68,65.39-50.67,20.84-5.23,43.65,9.71,63.81,2.5,17.61-6.3,25-26.65,41.22-35.62,23.2-12.8,54.57,2,79.06-8.45,21.09-9,31.49-34.53,53.92-40,21.68-5.28,45.64,10.86,66.14,2.37,18.3-7.57,24-31.12,42.08-39.24,21.32-9.6,47.07,7.31,69.79,1.16,24.82-6.71,35-37.52,59.58-44.94,26-7.85,57,14,80.17.33,17.41-10.26,20.39-36.09,39.44-43.32,21.76-8.25,47.05,14.48,68.49,5.5,19.66-8.24,21.18-37.34,40.92-45.42,14.24-5.83,28.72,2.36,43,1.74,16.44-.72,35.07-6.61,45.28-18.55C1034.13,18,1029.86,0,1032,0h-84c2.12,17-14.42,26.24-14.42,26.24a73.5,73.5,0,0,1-18.52,3.17c-21,.55-42.84-11.1-62.22-3.36-20.81,8.32-27.33,34.85-47.49,44.5-21.29,10.17-47-2.79-70.66.35-35.83,4.76-58,44.63-93.93,48.32-20.18,2.08-42.36-7.72-60,1.76-16.67,9-20.76,31.26-37.16,40.65-23.91,13.69-56.27-8.2-82.22,1.66-21.23,8.07-29.53,34.21-50.62,42.61-28.52,11.37-65.2-15.29-90.56,1.45-16.29,10.75-18.7,34.85-36.22,43.71-22.45,11.36-50.34-10.82-74.72-3.82S178,285.8,155.21,296.67c-26.24,12.52-60.18-8-86.69,4C52.49,307.91,44,323.91,32.81,336a53.71,53.71,0,0,1-18.93,13.62c-8.81,3.82-11,8-13.57,16.35H0l.15.5L0,367H.31c2.6,8.4,4.76,12.53,13.57,16.35A53.71,53.71,0,0,1,32.81,397c11.2,12.12,19.68,28.12,35.71,35.37,26.51,12,60.45-8.53,86.69,4,22.8,10.87,29.68,42.41,54.12,49.43s52.27-15.18,74.72-3.82c17.52,8.86,19.93,33,36.22,43.71,25.36,16.74,62-9.92,90.56,1.45,21.09,8.4,29.39,34.54,50.62,42.61,25.95,9.86,58.31-12,82.22,1.66,16.4,9.39,20.49,31.67,37.16,40.65,17.62,9.48,39.8-.32,60,1.76,36,3.69,58.1,43.56,93.93,48.32,23.64,3.14,49.37-9.82,70.66.35,20.16,9.65,26.68,36.18,47.49,44.5,19.38,7.74,41.18-3.91,62.22-3.36a73.5,73.5,0,0,1,18.52,3.17S950.17,716,948.05,733h84C1029.86,733,1034.13,715,1027,706.68Z"/><path class="cls-2" d="M59.84,391a43.88,43.88,0,0,1-8-2C55,391.76,59.84,391,59.84,391Z"/><path class="cls-2" d="M104.44,323.64c10.82-1.11,17.81,5.46,32.1,10.18,10.69,3.53,21.26,7.12,32.14,5.1,28.3-5.26,37.52-43.68,65.39-50.67,20.84-5.23,43.65,9.71,63.81,2.5,17.61-6.3,25-26.65,41.22-35.62,23.2-12.8,54.57,2,79.06-8.45,21.09-9,31.49-34.53,53.92-40,21.68-5.28,45.64,10.86,66.14,2.37,18.3-7.57,24-31.12,42.08-39.24,21.32-9.6,47.07,7.31,69.79,1.16,24.82-6.71,35-37.52,59.58-44.94,26-7.85,57,14,80.17.33,17.41-10.26,20.39-36.09,39.44-43.32,21.76-8.25,47.05,14.48,68.49,5.5,19.66-8.24,21.18-37.34,40.92-45.42,14.24-5.83,28.72,2.36,43,1.74,16.44-.72,35.07-6.61,45.28-18.55,3.93-4.6,4.38-12.16,4.36-18-4,4.21-27,26.4-69.54,23.68-19.45-1.24-33.48,7.14-45.21,21.9-13,16.42-22.79,27.11-44.24,17.68-18.55-8.17-31.95-13-50.55-.58-33,22-22,44-60,39-16.92-2.23-34.14-9.69-51.39-7.3-16.36,2.26-30.11,11.54-41.34,23.22-10.72,11.16-16.3,25.64-34.27,24.08-23-2-44-18-72,10s-34,28-55,23-50-9-65,14-18,40-56,33-43-16-79,25-61,7-79,7-37,22-54,41-38,20-57,14-63-7-81,31c-12.75,26.92,4.11,37.28,15,41-3.06-2.67-4.46-8.68,2-22,7.58-15.74,20.67-30,36.08-38.3C95.71,325.57,100.35,324.05,104.44,323.64Z"/><path class="cls-2" d="M957.82,725.19c.13-18.65-16.9-33.52-34.79-38.8s-37-3.67-55.57-5.07-38.55-6.87-49.52-22c-4.45-6.12-7.16-13.51-12.48-18.9-10.44-10.59-27.55-10.39-42.09-7.21s-29.23,8.63-43.86,6C684.78,633,667.2,585,631.93,584c-18.5-.56-36.68,12.77-54.38,7.35-25.5-7.79-29.81-47.88-55.58-54.74-22.42-6-44.4,18.16-67,13.08-24.65-5.53-32.42-41.21-56.83-47.71-18.67-5-38.49,9.81-57.08,4.56-16.83-4.75-25.2-23.53-39.46-33.64-18.1-12.84-42.52-10-64.52-7.18-10.45,1.33-21.81,2.36-30.82-3.1-10.85-6.58-14.79-20.39-23.73-29.41-18.35-18.5-48.9-11.1-74.91-12.8C80,418.57,55.06,405,33,389.22,29.15,386.48,6.92,366.47,8.6,377c1.37,8.61,27.16,26.69,33.71,33.12,10.49,10.3,21.65,21,35.87,24.75,24.88,6.56,52.88-9.82,76.25,1,22.78,10.51,30.83,42.66,54.85,49.9s51.6-15.13,74.14-3.77c17.67,8.91,21.6,33.88,38.39,44.35,24.6,15.33,57.52-9.61,85.06-.57,23.71,7.78,34.67,37.87,58.52,45.18,24.6,7.55,53-12.36,75.89-.6,17.45,9,23.19,32.69,40.56,41.8,17.89,9.39,39.72-.5,59.81,1.68,35.48,3.84,58.6,43.88,94,48.32,22.58,2.83,46.68-9.55,67.51-.39,20.27,8.91,28.75,34.84,48.92,44,17.85,8.07,38.35.45,57.68-2.63S954.33,705.92,957.82,725.19Z"/><circle class="cls-3" cx="998.84" cy="6" r="3"/><circle class="cls-3" cx="986.84" cy="36" r="1.94"/><circle class="cls-3" cx="969.84" cy="14" r="5.43"/><ellipse class="cls-3" cx="1008.22" cy="24.04" rx="3.31" ry="4.69" transform="translate(56.7 358.26) rotate(-20.72)"/><circle class="cls-3" cx="945.84" cy="33" r="3"/><circle class="cls-3" cx="889.84" cy="38" r="3"/><circle class="cls-3" cx="901.84" cy="77" r="1.94"/><circle class="cls-3" cx="883.84" cy="63" r="5.43"/><ellipse class="cls-3" cx="921.22" cy="41.04" rx="3.31" ry="4.69" transform="translate(45.06 328.58) rotate(-20.72)"/><circle class="cls-3" cx="849.84" cy="41" r="3"/><circle class="cls-3" cx="831.84" cy="58" r="3"/><circle class="cls-3" cx="835.84" cy="75" r="1.94"/><circle class="cls-3" cx="846.84" cy="59" r="5.43"/><ellipse class="cls-3" cx="865.22" cy="73.04" rx="3.31" ry="4.69" transform="translate(30.12 310.83) rotate(-20.72)"/><circle class="cls-3" cx="816.84" cy="77" r="3"/><circle class="cls-3" cx="786.84" cy="82" r="3"/><circle class="cls-3" cx="778.84" cy="96" r="1.94"/><circle class="cls-3" cx="778.84" cy="114" r="5.43"/><ellipse class="cls-3" cx="803.22" cy="97.04" rx="3.31" ry="4.69" transform="translate(17.62 290.45) rotate(-20.72)"/><circle class="cls-3" cx="761.84" cy="85" r="3"/><circle class="cls-3" cx="740.84" cy="80" r="3"/><circle class="cls-3" cx="751.84" cy="122" r="1.94"/><circle class="cls-3" cx="732.84" cy="112" r="5.43"/><ellipse class="cls-3" cx="750.22" cy="98.04" rx="3.31" ry="4.69" transform="translate(13.84 271.76) rotate(-20.72)"/><circle class="cls-3" cx="718.84" cy="87" r="3"/><circle class="cls-3" cx="698.84" cy="95" r="3"/><circle class="cls-3" cx="671.84" cy="118" r="1.94"/><circle class="cls-3" cx="690.84" cy="127" r="5.43"/><ellipse class="cls-3" cx="708.22" cy="113.04" rx="3.31" ry="4.69" transform="translate(5.81 257.87) rotate(-20.72)"/><circle class="cls-3" cx="669.84" cy="143" r="3"/><circle class="cls-3" cx="645.84" cy="127" r="3"/><circle class="cls-3" cx="639.84" cy="161" r="1.94"/><circle class="cls-3" cx="630.84" cy="132" r="5.43"/><ellipse class="cls-3" cx="655.22" cy="145.04" rx="3.31" ry="4.69" transform="translate(-8.94 241.19) rotate(-20.72)"/><circle class="cls-3" cx="611.84" cy="149" r="3"/><circle class="cls-3" cx="585.84" cy="132" r="3"/><circle class="cls-3" cx="596.84" cy="159" r="1.94"/><circle class="cls-3" cx="582.84" cy="151" r="5.43"/><ellipse class="cls-3" cx="605.22" cy="131.04" rx="3.31" ry="4.69" transform="translate(-7.22 222.6) rotate(-20.72)"/><circle class="cls-3" cx="561.84" cy="156" r="3"/><circle class="cls-3" cx="542.84" cy="170" r="3"/><circle class="cls-3" cx="517.84" cy="197" r="1.94"/><circle class="cls-3" cx="533.84" cy="199" r="5.43"/><ellipse class="cls-3" cx="558.22" cy="174.04" rx="3.31" ry="4.69" transform="translate(-25.47 208.75) rotate(-20.72)"/><circle class="cls-3" cx="537.84" cy="185" r="3"/><circle class="cls-3" cx="507.84" cy="174" r="3"/><circle class="cls-3" cx="487.84" cy="199" r="1.94"/><circle class="cls-3" cx="485.84" cy="175" r="5.43"/><ellipse class="cls-3" cx="503.22" cy="194.04" rx="3.31" ry="4.69" transform="translate(-36.1 190.59) rotate(-20.72)"/><circle class="cls-3" cx="479.84" cy="194" r="3"/><circle class="cls-3" cx="457.84" cy="174" r="3"/><circle class="cls-3" cx="441.84" cy="220" r="1.94"/><circle class="cls-3" cx="449.84" cy="206" r="5.43"/><ellipse class="cls-3" cx="467.22" cy="192.04" rx="3.31" ry="4.69" transform="translate(-37.72 177.72) rotate(-20.72)"/><circle class="cls-3" cx="425.84" cy="209" r="3"/><circle class="cls-3" cx="399.84" cy="223" r="3"/><circle class="cls-3" cx="381.84" cy="217" r="1.94"/><circle class="cls-3" cx="389.84" cy="237" r="5.43"/><ellipse class="cls-3" cx="422.22" cy="230.04" rx="3.31" ry="4.69" transform="translate(-54.08 164.26) rotate(-20.72)"/><circle class="cls-3" cx="407.84" cy="240" r="3"/><circle class="cls-3" cx="356.84" cy="208" r="3"/><circle class="cls-3" cx="337.84" cy="220" r="1.94"/><circle class="cls-3" cx="348.84" cy="240" r="5.43"/><ellipse class="cls-3" cx="366.22" cy="226.04" rx="3.31" ry="4.69" transform="translate(-56.28 144.19) rotate(-20.72)"/><circle class="cls-3" cx="327.84" cy="248" r="3"/><circle class="cls-3" cx="295.84" cy="281" r="3"/><circle class="cls-3" cx="315.84" cy="263" r="1.94"/><circle class="cls-3" cx="312.84" cy="246" r="5.43"/><ellipse class="cls-3" cx="318.22" cy="223.04" rx="3.31" ry="4.69" transform="translate(-58.33 127.01) rotate(-20.72)"/><circle class="cls-3" cx="327.84" cy="230" r="3"/><circle class="cls-3" cx="249.84" cy="260" r="3"/><circle class="cls-3" cx="282.84" cy="286" r="1.94"/><circle class="cls-3" cx="275.84" cy="263" r="5.43"/><ellipse class="cls-3" cx="296.22" cy="254.04" rx="3.31" ry="4.69" transform="translate(-70.72 121.23) rotate(-20.72)"/><circle class="cls-3" cx="261.84" cy="276" r="3"/><circle class="cls-3" cx="240.84" cy="278" r="3"/><circle class="cls-3" cx="226.84" cy="284" r="1.94"/><circle class="cls-3" cx="213.84" cy="258" r="5.43"/><ellipse class="cls-3" cx="233.22" cy="260.04" rx="3.31" ry="4.69" transform="translate(-76.92 99.33) rotate(-20.72)"/><circle class="cls-3" cx="202.84" cy="265" r="3"/><circle class="cls-3" cx="184.84" cy="273" r="3"/><circle class="cls-3" cx="202.84" cy="303" r="1.94"/><circle class="cls-3" cx="196.84" cy="292" r="5.43"/><ellipse class="cls-3" cx="214.22" cy="278.04" rx="3.31" ry="4.69" transform="translate(-84.51 93.77) rotate(-20.72)"/><circle class="cls-3" cx="177.84" cy="294" r="3"/><circle class="cls-3" cx="164.84" cy="300" r="3"/><circle class="cls-3" cx="120.84" cy="314" r="1.94"/><circle class="cls-3" cx="144.84" cy="316" r="5.43"/><ellipse class="cls-3" cx="174.22" cy="318.04" rx="3.31" ry="4.69" transform="translate(-101.25 82.21) rotate(-20.72)"/><circle class="cls-3" cx="153.84" cy="332" r="3"/><circle class="cls-3" cx="41.84" cy="343" r="3"/><circle class="cls-3" cx="67.84" cy="356" r="1.94"/><circle class="cls-3" cx="77.84" cy="322" r="5.43"/><ellipse class="cls-3" cx="95.22" cy="308.04" rx="3.31" ry="4.69" transform="translate(-102.82 53.61) rotate(-20.72)"/><circle class="cls-3" cx="64.84" cy="314" r="3"/><circle class="cls-3" cx="46.84" cy="370" r="3"/><circle class="cls-3" cx="42.84" cy="389" r="1.94"/><circle class="cls-3" cx="17.84" cy="372" r="5.43"/><ellipse class="cls-3" cx="56.22" cy="388.04" rx="3.31" ry="4.69" transform="translate(-133.65 44.99) rotate(-20.72)"/><circle class="cls-3" cx="61.84" cy="374" r="3"/><circle class="cls-3" cx="117.84" cy="410" r="3"/><circle class="cls-3" cx="66.53" cy="421.94" r="1.94"/><circle class="cls-3" cx="81.84" cy="411.66" r="5.43"/><ellipse class="cls-3" cx="101.17" cy="422.76" rx="4.69" ry="3.31" transform="translate(-257.15 176.66) rotate(-42.06)"/><circle class="cls-3" cx="66.74" cy="395.01" r="3"/><circle class="cls-3" cx="128.84" cy="420" r="3"/><circle class="cls-3" cx="144.94" cy="425.25" r="5.43"/><ellipse class="cls-3" cx="151.84" cy="406.48" rx="4.69" ry="3.31" transform="translate(-22.73 9.23) rotate(-3.24)"/><circle class="cls-3" cx="170.84" cy="410" r="3"/><circle class="cls-3" cx="195.84" cy="425" r="3"/><circle class="cls-3" cx="206.84" cy="433" r="1.94"/><circle class="cls-3" cx="183.84" cy="427" r="5.43"/><ellipse class="cls-3" cx="185.22" cy="449.04" rx="3.31" ry="4.69" transform="translate(-146.89 94.57) rotate(-20.72)"/><circle class="cls-3" cx="165.84" cy="433" r="3"/><circle class="cls-3" cx="195.65" cy="456.22" r="3"/><circle class="cls-3" cx="242.33" cy="474.57" r="1.94"/><circle class="cls-3" cx="223.94" cy="473.17" r="5.43"/><ellipse class="cls-3" cx="215.63" cy="452.48" rx="4.69" ry="3.31" transform="translate(-29.76 15.43) rotate(-3.83)"/><circle class="cls-3" cx="237.84" cy="461" r="3"/><circle class="cls-3" cx="303.84" cy="475" r="3"/><circle class="cls-3" cx="280.84" cy="473" r="1.94"/><circle class="cls-3" cx="276.84" cy="455" r="5.43"/><ellipse class="cls-3" cx="296.22" cy="460.04" rx="3.31" ry="4.69" transform="translate(-143.6 134.55) rotate(-20.72)"/><circle class="cls-3" cx="255.84" cy="463" r="3"/><circle class="cls-3" cx="316.84" cy="499" r="3"/><circle class="cls-3" cx="349.84" cy="525" r="1.94"/><circle class="cls-3" cx="345.84" cy="507" r="5.43"/><ellipse class="cls-3" cx="321.22" cy="480.04" rx="3.31" ry="4.69" transform="translate(-149.06 144.69) rotate(-20.72)"/><circle class="cls-3" cx="324.84" cy="515" r="3"/><circle class="cls-3" cx="365.74" cy="507.35" r="3"/><circle class="cls-3" cx="400.82" cy="491.48" r="1.94"/><circle class="cls-3" cx="398.53" cy="510.9" r="5.43"/><ellipse class="cls-3" cx="382.33" cy="495.59" rx="4.69" ry="3.31" transform="translate(-190.47 243.21) rotate(-28.57)"/><circle class="cls-3" cx="412.97" cy="520.11" r="3"/><circle class="cls-3" cx="452.84" cy="528" r="3"/><circle class="cls-3" cx="433.84" cy="521" r="1.94"/><circle class="cls-3" cx="423.84" cy="505" r="5.43"/><ellipse class="cls-3" cx="439.22" cy="533.04" rx="3.31" ry="4.69" transform="translate(-160.18 189.87) rotate(-20.72)"/><circle class="cls-3" cx="408.84" cy="511" r="3"/><circle class="cls-3" cx="491.84" cy="548" r="3"/><circle class="cls-3" cx="471.84" cy="562" r="1.94"/><circle class="cls-3" cx="467.84" cy="544" r="5.43"/><ellipse class="cls-3" cx="481.22" cy="535.04" rx="3.31" ry="4.69" transform="translate(-158.17 204.86) rotate(-20.72)"/><circle class="cls-3" cx="446.84" cy="552" r="3"/><circle class="cls-3" cx="543.84" cy="542" r="3"/><circle class="cls-3" cx="528.84" cy="551" r="1.94"/><circle class="cls-3" cx="524.84" cy="533" r="5.43"/><ellipse class="cls-3" cx="513.22" cy="555.04" rx="3.31" ry="4.69" transform="translate(-163.18 217.47) rotate(-20.72)"/><circle class="cls-3" cx="503.84" cy="541" r="3"/><circle class="cls-3" cx="572.84" cy="570" r="3"/><circle class="cls-3" cx="560.84" cy="571" r="1.94"/><circle class="cls-3" cx="556.84" cy="553" r="5.43"/><circle class="cls-3" cx="591.84" cy="574" r="3"/><circle class="cls-3" cx="608.84" cy="603" r="1.94"/><circle class="cls-3" cx="604.84" cy="585" r="5.43"/><ellipse class="cls-3" cx="582.22" cy="588.04" rx="3.31" ry="4.69" transform="translate(-170.39 244.02) rotate(-20.72)"/><circle class="cls-3" cx="543.84" cy="561" r="3"/><circle class="cls-3" cx="632.84" cy="600" r="3"/><circle class="cls-3" cx="645.84" cy="594" r="1.94"/><circle class="cls-3" cx="641.84" cy="576" r="5.43"/><ellipse class="cls-3" cx="664.22" cy="587.04" rx="3.31" ry="4.69" transform="translate(-164.73 272.96) rotate(-20.72)"/><circle class="cls-3" cx="620.84" cy="584" r="3"/><circle class="cls-3" cx="694.84" cy="610" r="3"/><circle class="cls-3" cx="682.84" cy="620" r="1.94"/><circle class="cls-3" cx="678.84" cy="602" r="5.43"/><ellipse class="cls-3" cx="704.22" cy="628.04" rx="3.31" ry="4.69" transform="translate(-176.65 289.77) rotate(-20.72)"/><circle class="cls-3" cx="657.84" cy="610" r="3"/><circle class="cls-3" cx="721.16" cy="615.06" r="3"/><circle class="cls-3" cx="735.84" cy="652" r="1.94"/><circle class="cls-3" cx="738.84" cy="630" r="5.43"/><ellipse class="cls-3" cx="741.46" cy="616.21" rx="3.31" ry="4.69" transform="translate(5.76 1239.3) rotate(-79.99)"/><circle class="cls-3" cx="710.84" cy="642" r="3"/><circle class="cls-3" cx="766.12" cy="610.18" r="3"/><circle class="cls-3" cx="769.47" cy="653.8" r="1.94"/><circle class="cls-3" cx="765.66" cy="635.75" r="5.43"/><ellipse class="cls-3" cx="783.19" cy="621.98" rx="3.31" ry="4.69" transform="translate(-166.08 307.14) rotate(-20.11)"/><circle class="cls-3" cx="744.58" cy="643.53" r="3"/><circle class="cls-3" cx="819.84" cy="651" r="3"/><circle class="cls-3" cx="806.84" cy="654" r="1.94"/><circle class="cls-3" cx="801.84" cy="638" r="5.43"/><ellipse class="cls-3" cx="829.22" cy="669.04" rx="3.31" ry="4.69" transform="translate(-183.07 336.64) rotate(-20.72)"/><circle class="cls-3" cx="781.84" cy="644" r="3"/><circle class="cls-3" cx="841.84" cy="659" r="3"/><circle class="cls-3" cx="870.84" cy="700" r="1.94"/><circle class="cls-3" cx="866.84" cy="682" r="5.43"/><ellipse class="cls-3" cx="851.22" cy="677.04" rx="3.31" ry="4.69" transform="translate(-184.48 344.94) rotate(-20.72)"/><circle class="cls-3" cx="845.84" cy="690" r="3"/><circle class="cls-3" cx="904.84" cy="672" r="3"/><circle class="cls-3" cx="889.84" cy="675" r="1.94"/><circle class="cls-3" cx="885.84" cy="657" r="5.43"/><ellipse class="cls-3" cx="914.22" cy="690.04" rx="3.31" ry="4.69" transform="translate(-185 368.07) rotate(-20.72)"/><circle class="cls-3" cx="864.84" cy="665" r="3"/><circle class="cls-3" cx="996.84" cy="711" r="3"/><circle class="cls-3" cx="988.84" cy="723" r="1.94"/><circle class="cls-3" cx="979.84" cy="700" r="5.43"/><ellipse class="cls-3" cx="1013.22" cy="721.04" rx="3.31" ry="4.69" transform="translate(-189.57 405.11) rotate(-20.72)"/><ellipse class="cls-3" cx="955.22" cy="699.04" rx="3.31" ry="4.69" transform="translate(-185.53 383.16) rotate(-20.72)"/><ellipse class="cls-3" cx="970.22" cy="724.04" rx="3.31" ry="4.69" transform="translate(-193.41 390.09) rotate(-20.72)"/><circle class="cls-3" cx="963.84" cy="713" r="3"/><path class="cls-4" d="M937.32,65.88a2.21,2.21,0,0,0,2,2.43.45.45,0,0,0,.49-.39l.37-3.52a.43.43,0,0,0-.39-.49A2.21,2.21,0,0,0,937.32,65.88Z"/><path class="cls-5" d="M940,66.16l-.19,1.76a.45.45,0,0,1-.49.39,2.21,2.21,0,0,1-2-2.43Z"/><path class="cls-6" d="M932,65.31a.47.47,0,0,0,.05.26c0,.08,1.13,2.09,2.8,2.27s3.14-1.56,3.21-1.63a.43.43,0,0,0,.1-.24.36.36,0,0,0-.05-.25c0-.09-1.12-2.1-2.79-2.28s-3.15,1.56-3.22,1.64A.4.4,0,0,0,932,65.31Z"/><path class="cls-4" d="M938.2,66a.43.43,0,0,1-.1.24c-.07.07-1.54,1.81-3.21,1.63s-2.75-2.19-2.8-2.27a.47.47,0,0,1-.05-.26Z"/><path class="cls-7" d="M934.29,65.11a.43.43,0,0,1,.39.49.44.44,0,0,1-.48.39.45.45,0,0,1-.4-.49A.44.44,0,0,1,934.29,65.11Z"/><path class="cls-8" d="M934.68,65.6a.44.44,0,0,1-.48.39.45.45,0,0,1-.4-.49Z"/><path class="cls-9" d="M946.69,61.23a1.42,1.42,0,0,0,1.39-.29,1.47,1.47,0,0,0,.47-1.39l-.4-2a.49.49,0,0,0-.57-.38l-2.66,1.7a.48.48,0,0,0-.22.65A3.42,3.42,0,0,0,946.69,61.23Z"/><path class="cls-10" d="M943.68,52.69l3.12.55a.49.49,0,0,0,.38-.57l-.42-2.12a1.5,1.5,0,0,0-1-1.11,1.43,1.43,0,0,0-1.38.25,3.4,3.4,0,0,0-1.21,2.5A.5.5,0,0,0,943.68,52.69Z"/><path class="cls-10" d="M952.18,57.48a3.63,3.63,0,0,0,2.9.14c.64-.16,1-.1.81-1a3.39,3.39,0,0,0-1.23-2.42,2.72,2.72,0,0,0-.71-.33,2.29,2.29,0,0,0,.34-.41,4.45,4.45,0,0,0,.31-3.36.52.52,0,0,0-.58-.38c-1.67.34-2.76.88-3.3,1.72-.68,1-.3,1.93-.13,3.09A4.47,4.47,0,0,0,952.18,57.48Z"/><path class="cls-9" d="M954.66,54.22a2.72,2.72,0,0,0-.71-.33l0,0-3.39.67h0a4.45,4.45,0,0,0,1.59,2.95,3.63,3.63,0,0,0,2.9.14c.64-.16,1-.1.81-1A3.39,3.39,0,0,0,954.66,54.22Z"/><path class="cls-11" d="M940.57,58.27l-.47-1.65-.58-2L940,52.7c2.41-1.61,5.62-1.27,11.38,1.28a.58.58,0,0,1,.18.89c-4.43,4.64-7.32,6-10.21,5.4Z"/><path class="cls-12" d="M951.62,54.33,940.1,56.62h0l.47,1.65.73,2c2.89.64,5.78-.76,10.21-5.4A.58.58,0,0,0,951.62,54.33Z"/><path class="cls-13" d="M936.57,57.31a1.42,1.42,0,0,1,.21-1.09A15.88,15.88,0,0,1,939,53.48a7.8,7.8,0,0,1,1-.78,4.38,4.38,0,0,1,3,3.37,4.29,4.29,0,0,1-1.61,4.2,7.52,7.52,0,0,1-1.19-.39,16.82,16.82,0,0,1-2.93-1.63A1.48,1.48,0,0,1,936.57,57.31Z"/><path class="cls-10" d="M942.91,56.06l-6.34,1.26a1.52,1.52,0,0,0,.61.93,16.82,16.82,0,0,0,2.93,1.63,7.52,7.52,0,0,0,1.19.39,4.31,4.31,0,0,0,1.61-4.21Z"/><path class="cls-10" d="M943.91,57.45a4.59,4.59,0,0,0-.06-1.57,5.24,5.24,0,0,0-.51-1.52.48.48,0,0,1,.2-.65.5.5,0,0,1,.66.2,6.81,6.81,0,0,1,.61,1.78,6.2,6.2,0,0,1,.07,1.88.5.5,0,0,1-.54.42A.49.49,0,0,1,943.91,57.45Z"/><path class="cls-10" d="M944.81,55.68l-1,.19h0a4.59,4.59,0,0,1,.06,1.57.49.49,0,0,0,.43.54.5.5,0,0,0,.54-.42,6.2,6.2,0,0,0-.07-1.88Z"/><circle class="cls-14" cx="939.94" cy="56.09" r="0.49"/><path class="cls-4" d="M830.75,32.64a2.21,2.21,0,0,0,3.07-.57.45.45,0,0,0-.11-.62l-2.92-2a.44.44,0,0,0-.61.11A2.2,2.2,0,0,0,830.75,32.64Z"/><path class="cls-5" d="M832.25,30.45l1.46,1a.45.45,0,0,1,.11.62,2.21,2.21,0,0,1-3.07.57Z"/><path class="cls-6" d="M827.75,37a.44.44,0,0,0,.25.08c.1,0,2.37,0,3.32-1.39s.12-3.5.09-3.6a.39.39,0,0,0-.16-.2.43.43,0,0,0-.24-.08c-.11,0-2.38,0-3.33,1.39s-.12,3.5-.09,3.6A.45.45,0,0,0,827.75,37Z"/><path class="cls-4" d="M831.25,31.91a.39.39,0,0,1,.16.2c0,.1.86,2.22-.09,3.6S828.1,37.09,828,37.1a.44.44,0,0,1-.25-.08Z"/><path class="cls-7" d="M828.64,34.94a.44.44,0,0,1,.73.5.44.44,0,0,1-.62.12A.45.45,0,0,1,828.64,34.94Z"/><path class="cls-8" d="M829.25,34.83a.44.44,0,1,1-.5.73Z"/><path class="cls-4" d="M651.28,179.38a2.21,2.21,0,0,0,2.72,1.53.45.45,0,0,0,.31-.55l-1-3.4a.44.44,0,0,0-.54-.31A2.21,2.21,0,0,0,651.28,179.38Z"/><path class="cls-5" d="M653.83,178.66l.48,1.7a.45.45,0,0,1-.31.55,2.21,2.21,0,0,1-2.72-1.53Z"/><path class="cls-6" d="M646.17,180.81a.37.37,0,0,0,.14.22c.08.06,1.82,1.53,3.44,1.07s2.34-2.61,2.38-2.7a.46.46,0,0,0,0-.26.42.42,0,0,0-.14-.22c-.08-.06-1.82-1.53-3.44-1.07s-2.34,2.61-2.38,2.7A.46.46,0,0,0,646.17,180.81Z"/><path class="cls-4" d="M652.13,179.14a.46.46,0,0,1,0,.26c0,.09-.77,2.25-2.38,2.7s-3.36-1-3.44-1.07a.37.37,0,0,1-.14-.22Z"/><path class="cls-7" d="M648.18,179.79a.43.43,0,0,1,.54.3.44.44,0,0,1-.3.55.44.44,0,0,1-.55-.31A.44.44,0,0,1,648.18,179.79Z"/><path class="cls-8" d="M648.72,180.09a.44.44,0,0,1-.3.55.44.44,0,0,1-.55-.31Z"/><path class="cls-4" d="M402.28,199.38a2.21,2.21,0,0,0,2.72,1.53.45.45,0,0,0,.31-.55l-1-3.4a.44.44,0,0,0-.54-.31A2.21,2.21,0,0,0,402.28,199.38Z"/><path class="cls-5" d="M404.83,198.66l.48,1.7a.45.45,0,0,1-.31.55,2.21,2.21,0,0,1-2.72-1.53Z"/><path class="cls-6" d="M397.17,200.81a.37.37,0,0,0,.14.22c.08.06,1.82,1.53,3.44,1.07s2.34-2.61,2.38-2.7a.46.46,0,0,0,0-.26.42.42,0,0,0-.14-.22c-.08-.06-1.82-1.53-3.44-1.07s-2.34,2.61-2.38,2.7A.46.46,0,0,0,397.17,200.81Z"/><path class="cls-4" d="M403.13,199.14a.46.46,0,0,1,0,.26c0,.09-.77,2.25-2.38,2.7s-3.36-1-3.44-1.07a.37.37,0,0,1-.14-.22Z"/><path class="cls-7" d="M399.18,199.79a.43.43,0,0,1,.54.3.44.44,0,0,1-.3.55.44.44,0,0,1-.55-.31A.44.44,0,0,1,399.18,199.79Z"/><path class="cls-8" d="M399.72,200.09a.44.44,0,0,1-.3.55.44.44,0,0,1-.55-.31Z"/><path class="cls-4" d="M109.28,336.38a2.21,2.21,0,0,0,2.72,1.53.45.45,0,0,0,.31-.55l-1-3.4a.44.44,0,0,0-.54-.31A2.21,2.21,0,0,0,109.28,336.38Z"/><path class="cls-5" d="M111.83,335.66l.48,1.7a.45.45,0,0,1-.31.55,2.21,2.21,0,0,1-2.72-1.53Z"/><path class="cls-6" d="M104.17,337.81a.37.37,0,0,0,.14.22c.08.06,1.82,1.53,3.44,1.07s2.34-2.61,2.38-2.7a.46.46,0,0,0,0-.26.42.42,0,0,0-.14-.22c-.08-.06-1.82-1.53-3.44-1.07s-2.34,2.61-2.38,2.7A.46.46,0,0,0,104.17,337.81Z"/><path class="cls-4" d="M110.13,336.14a.46.46,0,0,1,0,.26c0,.09-.77,2.25-2.38,2.7s-3.36-1-3.44-1.07a.37.37,0,0,1-.14-.22Z"/><path class="cls-7" d="M106.18,336.79a.43.43,0,0,1,.54.3.44.44,0,0,1-.3.55.44.44,0,0,1-.55-.31A.44.44,0,0,1,106.18,336.79Z"/><path class="cls-8" d="M106.72,337.09a.44.44,0,0,1-.3.55.44.44,0,0,1-.55-.31Z"/><path class="cls-4" d="M896.31,21.92a2.22,2.22,0,0,0,1.89,2.49.44.44,0,0,0,.5-.38l.48-3.51a.43.43,0,0,0-.38-.49A2.21,2.21,0,0,0,896.31,21.92Z"/><path class="cls-5" d="M898.94,22.28,898.7,24a.44.44,0,0,1-.5.38,2.22,2.22,0,0,1-1.89-2.49Z"/><path class="cls-6" d="M891.06,21.19a.39.39,0,0,0,0,.26c0,.09,1.06,2.13,2.72,2.35s3.19-1.46,3.27-1.53a.4.4,0,0,0,.1-.23.39.39,0,0,0,0-.26c0-.09-1.06-2.13-2.73-2.35s-3.18,1.46-3.26,1.53A.4.4,0,0,0,891.06,21.19Z"/><path class="cls-4" d="M897.19,22a.4.4,0,0,1-.1.23c-.08.07-1.6,1.76-3.27,1.53s-2.67-2.26-2.72-2.35a.39.39,0,0,1,0-.26Z"/><path class="cls-7" d="M893.31,21.06a.44.44,0,1,1-.12.87.44.44,0,1,1,.12-.87Z"/><path class="cls-8" d="M893.69,21.56a.44.44,0,0,1-.5.37.43.43,0,0,1-.38-.49Z"/><path class="cls-9" d="M834,111.72a1.42,1.42,0,0,0,1-1,1.46,1.46,0,0,0-.33-1.43l-1.39-1.5a.48.48,0,0,0-.68,0l-1.38,2.84a.48.48,0,0,0,.15.67A3.43,3.43,0,0,0,834,111.72Z"/><path class="cls-10" d="M827,106l2.94-1.16a.48.48,0,0,0,0-.68l-1.47-1.59a1.47,1.47,0,0,0-1.39-.44,1.41,1.41,0,0,0-1.05.92,3.44,3.44,0,0,0,.28,2.77A.49.49,0,0,0,827,106Z"/><path class="cls-10" d="M836.71,105.65a3.63,3.63,0,0,0,2.54-1.4c.47-.47.79-.59.19-1.25a3.44,3.44,0,0,0-2.32-1.43,2.68,2.68,0,0,0-.78.09,2.28,2.28,0,0,0,.08-.52,4.45,4.45,0,0,0-1.49-3,.5.5,0,0,0-.69,0c-1.25,1.16-1.9,2.19-1.92,3.19,0,1.25.75,1.8,1.5,2.7A4.46,4.46,0,0,0,836.71,105.65Z"/><path class="cls-9" d="M837.12,101.57a2.68,2.68,0,0,0-.78.09v0L833.81,104h0a4.5,4.5,0,0,0,2.9,1.68,3.63,3.63,0,0,0,2.54-1.4c.47-.47.79-.59.19-1.25A3.44,3.44,0,0,0,837.12,101.57Z"/><path class="cls-11" d="M827.22,112.39,826,111.22l-1.57-1.44-.61-1.82c1.22-2.63,4.13-4,10.38-4.85a.58.58,0,0,1,.61.66c-1.35,6.28-3.08,9-5.88,9.94Z"/><path class="cls-12" d="M834.58,103.25l-8.62,8h0l1.26,1.17,1.67,1.32c2.8-1,4.53-3.66,5.88-9.94A.57.57,0,0,0,834.58,103.25Z"/><path class="cls-13" d="M823.3,113.66a1.45,1.45,0,0,1-.38-1,15,15,0,0,1,.45-3.48,7.35,7.35,0,0,1,.41-1.17,4.35,4.35,0,0,1,5.11,5.75,8.33,8.33,0,0,1-1.22.29,17,17,0,0,1-3.35.14A1.58,1.58,0,0,1,823.3,113.66Z"/><path class="cls-10" d="M828.06,109.28l-4.75,4.38a1.53,1.53,0,0,0,1,.48,17,17,0,0,0,3.35-.14,8.33,8.33,0,0,0,1.22-.29,4.32,4.32,0,0,0-.83-4.43Z"/><path class="cls-10" d="M829.64,109.94a4.9,4.9,0,0,0-.87-1.31,5.27,5.27,0,0,0-1.23-1,.5.5,0,0,1-.17-.67.51.51,0,0,1,.67-.17,6.91,6.91,0,0,1,1.45,1.2,5.85,5.85,0,0,1,1,1.57.48.48,0,0,1-.88.4Z"/><path class="cls-10" d="M829.48,108l-.71.66h0a4.9,4.9,0,0,1,.87,1.31.48.48,0,0,0,.88-.4,5.85,5.85,0,0,0-1-1.57Z"/><circle class="cls-14" cx="825.55" cy="110.86" r="0.49"/><path class="cls-4" d="M815.92,108.78a2.21,2.21,0,0,0,3.12-.07.43.43,0,0,0,0-.62l-2.55-2.45a.45.45,0,0,0-.63,0A2.22,2.22,0,0,0,815.92,108.78Z"/><path class="cls-5" d="M817.75,106.86l1.28,1.23a.43.43,0,0,1,0,.62,2.21,2.21,0,0,1-3.12.07Z"/><path class="cls-6" d="M812.25,112.61a.4.4,0,0,0,.23.12c.1,0,2.34.39,3.5-.83s.69-3.44.68-3.54a.5.5,0,0,0-.13-.22.4.4,0,0,0-.23-.12c-.1,0-2.34-.39-3.51.82s-.69,3.44-.67,3.54A.36.36,0,0,0,812.25,112.61Z"/><path class="cls-4" d="M816.53,108.14a.5.5,0,0,1,.13.22c0,.1.49,2.33-.68,3.54s-3.4.84-3.5.83a.4.4,0,0,1-.23-.12Z"/><path class="cls-7" d="M813.46,110.71a.43.43,0,0,1,.62,0,.44.44,0,1,1-.61.64A.43.43,0,0,1,813.46,110.71Z"/><path class="cls-8" d="M814.08,110.69a.44.44,0,1,1-.61.64Z"/><path class="cls-4" d="M710.31,143.56a2.22,2.22,0,0,0,2.49,1.89.44.44,0,0,0,.38-.5l-.48-3.5a.43.43,0,0,0-.49-.38A2.22,2.22,0,0,0,710.31,143.56Z"/><path class="cls-5" d="M712.94,143.2l.24,1.75a.44.44,0,0,1-.38.5,2.22,2.22,0,0,1-2.49-1.89Z"/><path class="cls-6" d="M705.06,144.27a.43.43,0,0,0,.1.24c.07.07,1.6,1.76,3.26,1.53s2.68-2.26,2.73-2.35a.35.35,0,0,0,0-.25.43.43,0,0,0-.1-.24c-.08-.07-1.6-1.76-3.26-1.54s-2.68,2.27-2.73,2.36A.35.35,0,0,0,705.06,144.27Z"/><path class="cls-4" d="M711.19,143.44a.35.35,0,0,1,0,.25c0,.09-1.06,2.13-2.73,2.35s-3.19-1.46-3.26-1.53a.43.43,0,0,1-.1-.24Z"/><path class="cls-7" d="M707.19,143.54a.44.44,0,1,1-.38.49A.43.43,0,0,1,707.19,143.54Z"/><path class="cls-8" d="M707.69,143.91a.44.44,0,0,1-.38.5.44.44,0,0,1-.5-.38Z"/><path class="cls-4" d="M722.31,133.56a2.22,2.22,0,0,0,2.49,1.89.44.44,0,0,0,.38-.5l-.48-3.5a.43.43,0,0,0-.49-.38A2.22,2.22,0,0,0,722.31,133.56Z"/><path class="cls-5" d="M724.94,133.2l.24,1.75a.44.44,0,0,1-.38.5,2.22,2.22,0,0,1-2.49-1.89Z"/><path class="cls-6" d="M717.06,134.27a.43.43,0,0,0,.1.24c.07.07,1.6,1.76,3.26,1.53s2.68-2.26,2.73-2.35a.35.35,0,0,0,0-.25.43.43,0,0,0-.1-.24c-.08-.07-1.6-1.76-3.26-1.54s-2.68,2.27-2.73,2.36A.35.35,0,0,0,717.06,134.27Z"/><path class="cls-4" d="M723.19,133.44a.35.35,0,0,1,0,.25c0,.09-1.06,2.13-2.73,2.35s-3.19-1.46-3.26-1.53a.43.43,0,0,1-.1-.24Z"/><path class="cls-7" d="M719.19,133.54a.44.44,0,1,1-.38.49A.43.43,0,0,1,719.19,133.54Z"/><path class="cls-8" d="M719.69,133.91a.44.44,0,0,1-.38.5.44.44,0,0,1-.5-.38Z"/><path class="cls-4" d="M434.31,253.56a2.22,2.22,0,0,0,2.49,1.89.44.44,0,0,0,.38-.5l-.48-3.5a.43.43,0,0,0-.49-.38A2.22,2.22,0,0,0,434.31,253.56Z"/><path class="cls-5" d="M436.94,253.2l.24,1.75a.44.44,0,0,1-.38.5,2.22,2.22,0,0,1-2.49-1.89Z"/><path class="cls-6" d="M429.06,254.27a.43.43,0,0,0,.1.24c.07.07,1.6,1.76,3.26,1.53s2.68-2.26,2.73-2.35a.35.35,0,0,0,0-.25.43.43,0,0,0-.1-.24c-.08-.07-1.6-1.76-3.26-1.54s-2.68,2.27-2.73,2.36A.35.35,0,0,0,429.06,254.27Z"/><path class="cls-4" d="M435.19,253.44a.35.35,0,0,1,0,.25c0,.09-1.06,2.13-2.73,2.35s-3.19-1.46-3.26-1.53a.43.43,0,0,1-.1-.24Z"/><path class="cls-7" d="M431.19,253.54a.44.44,0,1,1-.38.49A.43.43,0,0,1,431.19,253.54Z"/><path class="cls-8" d="M431.69,253.91a.44.44,0,0,1-.38.5.44.44,0,0,1-.5-.38Z"/><path class="cls-4" d="M446.31,243.56a2.22,2.22,0,0,0,2.49,1.89.44.44,0,0,0,.38-.5l-.48-3.5a.43.43,0,0,0-.49-.38A2.22,2.22,0,0,0,446.31,243.56Z"/><path class="cls-5" d="M448.94,243.2l.24,1.75a.44.44,0,0,1-.38.5,2.22,2.22,0,0,1-2.49-1.89Z"/><path class="cls-6" d="M441.06,244.27a.43.43,0,0,0,.1.24c.07.07,1.6,1.76,3.26,1.53s2.68-2.26,2.73-2.35a.35.35,0,0,0,0-.25.43.43,0,0,0-.1-.24c-.08-.07-1.6-1.76-3.26-1.54s-2.68,2.27-2.73,2.36A.35.35,0,0,0,441.06,244.27Z"/><path class="cls-4" d="M447.19,243.44a.35.35,0,0,1,0,.25c0,.09-1.06,2.13-2.73,2.35s-3.19-1.46-3.26-1.53a.43.43,0,0,1-.1-.24Z"/><path class="cls-7" d="M443.19,243.54a.44.44,0,1,1-.38.49A.43.43,0,0,1,443.19,243.54Z"/><path class="cls-8" d="M443.69,243.91a.44.44,0,0,1-.38.5.44.44,0,0,1-.5-.38Z"/><path class="cls-4" d="M184.31,251.56a2.22,2.22,0,0,0,2.49,1.89.44.44,0,0,0,.38-.5l-.48-3.5a.43.43,0,0,0-.49-.38A2.22,2.22,0,0,0,184.31,251.56Z"/><path class="cls-5" d="M186.94,251.2l.24,1.75a.44.44,0,0,1-.38.5,2.22,2.22,0,0,1-2.49-1.89Z"/><path class="cls-6" d="M179.06,252.27a.43.43,0,0,0,.1.24c.07.07,1.6,1.76,3.26,1.53s2.68-2.26,2.73-2.35a.35.35,0,0,0,0-.25.43.43,0,0,0-.1-.24c-.08-.07-1.6-1.76-3.26-1.54s-2.68,2.27-2.73,2.36A.35.35,0,0,0,179.06,252.27Z"/><path class="cls-4" d="M185.19,251.44a.35.35,0,0,1,0,.25c-.05.09-1.06,2.13-2.73,2.35s-3.19-1.46-3.26-1.53a.43.43,0,0,1-.1-.24Z"/><path class="cls-7" d="M181.19,251.54a.44.44,0,1,1-.38.49A.43.43,0,0,1,181.19,251.54Z"/><path class="cls-8" d="M181.69,251.91a.44.44,0,0,1-.38.5.44.44,0,0,1-.5-.38Z"/><path class="cls-4" d="M196.31,241.56a2.22,2.22,0,0,0,2.49,1.89.44.44,0,0,0,.38-.5l-.48-3.5a.43.43,0,0,0-.49-.38A2.22,2.22,0,0,0,196.31,241.56Z"/><path class="cls-5" d="M198.94,241.2l.24,1.75a.44.44,0,0,1-.38.5,2.22,2.22,0,0,1-2.49-1.89Z"/><path class="cls-6" d="M191.06,242.27a.43.43,0,0,0,.1.24c.07.07,1.6,1.76,3.26,1.53s2.68-2.26,2.73-2.35a.35.35,0,0,0,0-.25.43.43,0,0,0-.1-.24c-.08-.07-1.6-1.76-3.26-1.54s-2.68,2.27-2.73,2.36A.35.35,0,0,0,191.06,242.27Z"/><path class="cls-4" d="M197.19,241.44a.35.35,0,0,1,0,.25c-.05.09-1.06,2.13-2.73,2.35s-3.19-1.46-3.26-1.53a.43.43,0,0,1-.1-.24Z"/><path class="cls-7" d="M193.19,241.54a.44.44,0,1,1-.38.49A.43.43,0,0,1,193.19,241.54Z"/><path class="cls-8" d="M193.69,241.91a.44.44,0,0,1-.38.5.44.44,0,0,1-.5-.38Z"/><path class="cls-4" d="M529.31,157.56a2.22,2.22,0,0,0,2.49,1.89.44.44,0,0,0,.38-.5l-.48-3.5a.43.43,0,0,0-.49-.38A2.22,2.22,0,0,0,529.31,157.56Z"/><path class="cls-5" d="M531.94,157.2l.24,1.75a.44.44,0,0,1-.38.5,2.22,2.22,0,0,1-2.49-1.89Z"/><path class="cls-6" d="M524.06,158.27a.43.43,0,0,0,.1.24c.07.07,1.6,1.76,3.26,1.53s2.68-2.26,2.73-2.35a.35.35,0,0,0,0-.25.43.43,0,0,0-.1-.24c-.08-.07-1.6-1.76-3.26-1.54s-2.68,2.27-2.73,2.36A.35.35,0,0,0,524.06,158.27Z"/><path class="cls-4" d="M530.19,157.44a.35.35,0,0,1,0,.25c0,.09-1.06,2.13-2.73,2.35s-3.19-1.46-3.26-1.53a.43.43,0,0,1-.1-.24Z"/><path class="cls-7" d="M526.19,157.54a.44.44,0,1,1-.38.49A.43.43,0,0,1,526.19,157.54Z"/><path class="cls-8" d="M526.69,157.91a.44.44,0,0,1-.38.5.44.44,0,0,1-.5-.38Z"/><path class="cls-4" d="M542.31,145.56a2.22,2.22,0,0,0,2.49,1.89.44.44,0,0,0,.38-.5l-.48-3.5a.43.43,0,0,0-.49-.38A2.22,2.22,0,0,0,542.31,145.56Z"/><path class="cls-5" d="M544.94,145.2l.24,1.75a.44.44,0,0,1-.38.5,2.22,2.22,0,0,1-2.49-1.89Z"/><path class="cls-6" d="M537.06,146.27a.43.43,0,0,0,.1.24c.07.07,1.6,1.76,3.26,1.53s2.68-2.26,2.73-2.35a.35.35,0,0,0,0-.25.43.43,0,0,0-.1-.24c-.08-.07-1.6-1.76-3.26-1.54s-2.68,2.27-2.73,2.36A.35.35,0,0,0,537.06,146.27Z"/><path class="cls-4" d="M543.19,145.44a.35.35,0,0,1,0,.25c0,.09-1.06,2.13-2.73,2.35s-3.19-1.46-3.26-1.53a.43.43,0,0,1-.1-.24Z"/><path class="cls-7" d="M539.19,145.54a.44.44,0,1,1-.38.49A.43.43,0,0,1,539.19,145.54Z"/><path class="cls-8" d="M539.69,145.91a.44.44,0,0,1-.38.5.44.44,0,0,1-.5-.38Z"/><path class="cls-4" d="M518.31,148.56a2.22,2.22,0,0,0,2.49,1.89.44.44,0,0,0,.38-.5l-.48-3.5a.43.43,0,0,0-.49-.38A2.22,2.22,0,0,0,518.31,148.56Z"/><path class="cls-5" d="M520.94,148.2l.24,1.75a.44.44,0,0,1-.38.5,2.22,2.22,0,0,1-2.49-1.89Z"/><path class="cls-6" d="M513.06,149.27a.43.43,0,0,0,.1.24c.07.07,1.6,1.76,3.26,1.53s2.68-2.26,2.73-2.35a.35.35,0,0,0,0-.25.43.43,0,0,0-.1-.24c-.08-.07-1.6-1.76-3.26-1.54s-2.68,2.27-2.73,2.36A.35.35,0,0,0,513.06,149.27Z"/><path class="cls-4" d="M519.19,148.44a.35.35,0,0,1,0,.25c0,.09-1.06,2.13-2.73,2.35s-3.19-1.46-3.26-1.53a.43.43,0,0,1-.1-.24Z"/><path class="cls-7" d="M515.19,148.54a.44.44,0,1,1-.38.49A.43.43,0,0,1,515.19,148.54Z"/><path class="cls-8" d="M515.69,148.91a.44.44,0,0,1-.38.5.44.44,0,0,1-.5-.38Z"/><path class="cls-9" d="M663.35,107.24a1.43,1.43,0,0,0,1.07-.93,1.46,1.46,0,0,0-.26-1.44l-1.32-1.57a.49.49,0,0,0-.69,0l-1.5,2.77a.49.49,0,0,0,.12.68A3.47,3.47,0,0,0,663.35,107.24Z"/><path class="cls-10" d="M656.57,101.22l3-1a.49.49,0,0,0,0-.69l-1.4-1.65a1.5,1.5,0,0,0-1.37-.5,1.4,1.4,0,0,0-1.08.88,3.41,3.41,0,0,0,.15,2.78A.48.48,0,0,0,656.57,101.22Z"/><path class="cls-10" d="M666.33,101.29a3.67,3.67,0,0,0,2.6-1.28c.49-.45.82-.57.24-1.25a3.41,3.41,0,0,0-2.25-1.52,2.65,2.65,0,0,0-.79.05,1.88,1.88,0,0,0,.1-.52,4.42,4.42,0,0,0-1.36-3.08.5.5,0,0,0-.69-.06c-1.3,1.11-2,2.11-2,3.11-.09,1.24.67,1.83,1.38,2.76A4.46,4.46,0,0,0,666.33,101.29Z"/><path class="cls-9" d="M666.92,97.24a2.65,2.65,0,0,0-.79.05v0l-2.64,2.24h0a4.45,4.45,0,0,0,2.83,1.8,3.67,3.67,0,0,0,2.6-1.28c.49-.45.82-.57.24-1.25A3.41,3.41,0,0,0,666.92,97.24Z"/><path class="cls-11" d="M656.56,107.62l-1.21-1.22-1.5-1.51-.53-1.84c1.32-2.57,4.3-3.84,10.57-4.41a.58.58,0,0,1,.58.7c-1.61,6.2-3.46,8.83-6.3,9.67Z"/><path class="cls-12" d="M664.31,98.81l-9,7.59h0l1.21,1.22,1.61,1.39c2.84-.84,4.69-3.47,6.3-9.67A.56.56,0,0,0,664.31,98.81Z"/><path class="cls-13" d="M652.6,108.72a1.47,1.47,0,0,1-.35-1.06,16.07,16.07,0,0,1,.6-3.46,7.29,7.29,0,0,1,.47-1.15,4.38,4.38,0,0,1,4.22,1.5,4.33,4.33,0,0,1,.63,4.46,10.12,10.12,0,0,1-1.22.24,17.15,17.15,0,0,1-3.36,0A1.46,1.46,0,0,1,652.6,108.72Z"/><path class="cls-10" d="M657.53,104.55l-4.93,4.18a1.5,1.5,0,0,0,1,.51,17.15,17.15,0,0,0,3.36,0,10.12,10.12,0,0,0,1.22-.24,4.31,4.31,0,0,0-.64-4.46Z"/><path class="cls-10" d="M659.09,105.28a5.13,5.13,0,0,0-.82-1.35,4.88,4.88,0,0,0-1.19-1.07.49.49,0,1,1,.54-.81A6.11,6.11,0,0,1,659,103.3a6,6,0,0,1,1,1.61.48.48,0,0,1-.26.63A.47.47,0,0,1,659.09,105.28Z"/><path class="cls-10" d="M659,103.3l-.74.63h0a5.13,5.13,0,0,1,.82,1.35.47.47,0,0,0,.63.26.48.48,0,0,0,.26-.63,6,6,0,0,0-1-1.61Z"/><circle class="cls-14" cx="654.95" cy="106.02" r="0.49"/><path class="cls-9" d="M287.79,235.41a1.43,1.43,0,0,0,.79-1.19,1.5,1.5,0,0,0-.64-1.32l-1.7-1.15a.48.48,0,0,0-.67.13l-.71,3.08a.5.5,0,0,0,.3.62A3.48,3.48,0,0,0,287.79,235.41Z"/><path class="cls-10" d="M279.65,231.43l2.61-1.79a.49.49,0,0,0-.13-.68l-1.79-1.21a1.47,1.47,0,0,0-1.46-.11,1.39,1.39,0,0,0-.81,1.13,3.38,3.38,0,0,0,.9,2.63A.48.48,0,0,0,279.65,231.43Z"/><path class="cls-10" d="M289.07,228.88a3.62,3.62,0,0,0,2.16-1.94c.35-.56.63-.76-.11-1.26a3.37,3.37,0,0,0-2.57-.86,2.48,2.48,0,0,0-.75.26,2.08,2.08,0,0,0,0-.53,4.39,4.39,0,0,0-2.14-2.6.49.49,0,0,0-.67.12c-1,1.42-1.35,2.57-1.15,3.54.25,1.23,1.14,1.59,2.07,2.3A4.51,4.51,0,0,0,289.07,228.88Z"/><path class="cls-9" d="M288.55,224.82a2.48,2.48,0,0,0-.75.26v0l-1.94,2.86h0a4.49,4.49,0,0,0,3.21,1,3.62,3.62,0,0,0,2.16-1.94c.35-.56.63-.76-.11-1.26A3.37,3.37,0,0,0,288.55,224.82Z"/><path class="cls-11" d="M281.36,237.59l-1.5-.85L278,235.69l-1-1.63c.59-2.83,3.11-4.85,9-7.08a.58.58,0,0,1,.75.51c.11,6.42-1,9.44-3.47,11Z"/><path class="cls-12" d="M286.45,227l-6.59,9.71h0l1.5.85,1.92.91c2.51-1.57,3.58-4.59,3.47-11A.53.53,0,0,0,286.45,227Z"/><path class="cls-13" d="M277.83,239.72a1.43,1.43,0,0,1-.61-.93,15.36,15.36,0,0,1-.36-3.5,8.27,8.27,0,0,1,.14-1.23,4.37,4.37,0,0,1,4.47.32,4.31,4.31,0,0,1,1.81,4.12,8.36,8.36,0,0,1-1.12.56,17.09,17.09,0,0,1-3.24.9A1.53,1.53,0,0,1,277.83,239.72Z"/><path class="cls-10" d="M281.47,234.37l-3.64,5.35a1.53,1.53,0,0,0,1.09.24,17.09,17.09,0,0,0,3.24-.9,8.36,8.36,0,0,0,1.12-.56,4.35,4.35,0,0,0-1.81-4.13Z"/><path class="cls-10" d="M283.16,234.66a5.35,5.35,0,0,0-1.15-1.08,5.17,5.17,0,0,0-1.43-.71.49.49,0,0,1,.3-.93,6.15,6.15,0,0,1,1.68.84,5.73,5.73,0,0,1,1.36,1.29.48.48,0,1,1-.76.59Z"/><path class="cls-10" d="M282.55,232.77l-.54.81h0a5.35,5.35,0,0,1,1.15,1.08.48.48,0,1,0,.76-.59,5.73,5.73,0,0,0-1.36-1.29Z"/><circle class="cls-14" cx="279.38" cy="236.48" r="0.49"/><path class="cls-4" d="M276.55,501.16a.47.47,0,0,0-.59.33l-1.4,3.82a.47.47,0,0,0,.24.63,2.57,2.57,0,0,0,1.75-4.78Z"/><path class="cls-5" d="M277.75,504.31a2.4,2.4,0,0,1-2.95,1.63.47.47,0,0,1-.24-.63l.7-1.91Z"/><path class="cls-6" d="M282.76,505.84c0-.11-.49-2.58-2.06-3.16s-3.53,1-3.62,1.08a.47.47,0,0,0-.16.25.41.41,0,0,0,0,.29c0,.1.48,2.58,2.06,3.16s3.52-1,3.61-1.08a.56.56,0,0,0,.17-.25A.57.57,0,0,0,282.76,505.84Z"/><path class="cls-4" d="M282.73,506.13a.56.56,0,0,1-.17.25c-.09.06-2,1.66-3.61,1.08s-2-3.06-2.06-3.16a.41.41,0,0,1,0-.29Z"/><path class="cls-7" d="M281.07,505.53a.47.47,0,0,1-.59.32.46.46,0,0,1-.24-.63.46.46,0,0,1,.59-.32A.48.48,0,0,1,281.07,505.53Z"/><path class="cls-8" d="M281.07,505.53a.47.47,0,0,1-.59.32.46.46,0,0,1-.24-.63Z"/><path class="cls-4" d="M266.32,490.79a.43.43,0,0,0-.57.26l-1.22,3.32a.44.44,0,0,0,.27.57,2.21,2.21,0,0,0,1.52-4.15Z"/><path class="cls-5" d="M267.63,493.62a2.21,2.21,0,0,1-2.83,1.32.44.44,0,0,1-.27-.57l.61-1.66Z"/><path class="cls-6" d="M272.63,495.19c0-.09-.59-2.3-2.16-2.88s-3.43.75-3.52.8a.48.48,0,0,0-.17.47c0,.09.59,2.3,2.17,2.88s3.42-.75,3.51-.8a.45.45,0,0,0,.15-.21A.39.39,0,0,0,272.63,495.19Z"/><path class="cls-4" d="M272.61,495.45a.45.45,0,0,1-.15.21c-.09,0-1.94,1.38-3.51.8s-2.14-2.79-2.17-2.88a.46.46,0,0,1,0-.26Z"/><path class="cls-7" d="M271,494.84a.44.44,0,0,1-.83-.3.45.45,0,0,1,.57-.27A.44.44,0,0,1,271,494.84Z"/><path class="cls-8" d="M271,494.84a.44.44,0,0,1-.83-.3Z"/><path class="cls-4" d="M226.5,425.61a.47.47,0,0,0-.65.16l-2.38,3.3a.47.47,0,0,0,.06.67,2.57,2.57,0,0,0,3-4.13Z"/><path class="cls-5" d="M226.81,429a2.39,2.39,0,0,1-3.28.77.47.47,0,0,1-.06-.67l1.19-1.65Z"/><path class="cls-6" d="M231.22,431.79c0-.11.23-2.61-1.13-3.6s-3.67,0-3.78.07a.57.57,0,0,0-.22.19.61.61,0,0,0-.11.28c0,.11-.23,2.61,1.13,3.6s3.67,0,3.78-.07a.57.57,0,0,0,.22-.19A.49.49,0,0,0,231.22,431.79Z"/><path class="cls-4" d="M231.11,432.07a.57.57,0,0,1-.22.19c-.11,0-2.41,1.05-3.78.07s-1.13-3.49-1.13-3.6a.61.61,0,0,1,.11-.28Z"/><path class="cls-7" d="M229.68,431a.48.48,0,0,1-.66.16.47.47,0,0,1-.06-.67.49.49,0,0,1,.66-.16A.48.48,0,0,1,229.68,431Z"/><path class="cls-8" d="M229.68,431a.48.48,0,0,1-.66.16.47.47,0,0,1-.06-.67Z"/><path class="cls-4" d="M221.49,409.29a.44.44,0,0,0-.62.1l-2.07,2.87a.43.43,0,0,0,.1.61,2.21,2.21,0,1,0,2.59-3.58Z"/><path class="cls-5" d="M222,412.37a2.21,2.21,0,0,1-3.09.5.43.43,0,0,1-.1-.61l1-1.44Z"/><path class="cls-6" d="M226.38,415.23c0-.1.06-2.38-1.31-3.36s-3.5-.2-3.6-.18a.45.45,0,0,0-.2.16.48.48,0,0,0-.09.25c0,.1-.05,2.37,1.31,3.35s3.5.21,3.6.18a.45.45,0,0,0,.2-.16A.42.42,0,0,0,226.38,415.23Z"/><path class="cls-4" d="M226.29,415.47a.45.45,0,0,1-.2.16c-.1,0-2.24.81-3.6-.18s-1.3-3.25-1.31-3.35a.48.48,0,0,1,.09-.25Z"/><path class="cls-7" d="M224.86,414.44a.44.44,0,1,1-.72-.52.44.44,0,0,1,.62-.1A.45.45,0,0,1,224.86,414.44Z"/><path class="cls-8" d="M224.86,414.44a.44.44,0,1,1-.72-.52Z"/><path class="cls-4" d="M255.32,495.79a.43.43,0,0,0-.57.26l-1.22,3.32a.44.44,0,0,0,.27.57,2.21,2.21,0,0,0,1.52-4.15Z"/><path class="cls-5" d="M256.63,498.62a2.21,2.21,0,0,1-2.83,1.32.44.44,0,0,1-.27-.57l.61-1.66Z"/><path class="cls-6" d="M261.63,500.19c0-.09-.59-2.3-2.16-2.88s-3.43.75-3.52.8a.48.48,0,0,0-.17.47c0,.09.59,2.3,2.17,2.88s3.42-.75,3.51-.8a.45.45,0,0,0,.15-.21A.39.39,0,0,0,261.63,500.19Z"/><path class="cls-4" d="M261.61,500.45a.45.45,0,0,1-.15.21c-.09,0-1.94,1.38-3.51.8s-2.14-2.79-2.17-2.88a.46.46,0,0,1,0-.26Z"/><path class="cls-7" d="M260,499.84a.44.44,0,0,1-.83-.3.45.45,0,0,1,.57-.27A.44.44,0,0,1,260,499.84Z"/><path class="cls-8" d="M260,499.84a.44.44,0,0,1-.83-.3Z"/><path class="cls-4" d="M599.55,551.16a.47.47,0,0,0-.59.33l-1.4,3.82a.47.47,0,0,0,.24.63,2.57,2.57,0,0,0,1.75-4.78Z"/><path class="cls-5" d="M600.75,554.31a2.4,2.4,0,0,1-3,1.63.47.47,0,0,1-.24-.63l.7-1.91Z"/><path class="cls-6" d="M605.76,555.84c0-.11-.49-2.58-2.06-3.16s-3.53,1-3.62,1.08a.47.47,0,0,0-.16.25.41.41,0,0,0,0,.29c0,.1.48,2.58,2.06,3.16s3.52-1,3.61-1.08a.56.56,0,0,0,.17-.25A.57.57,0,0,0,605.76,555.84Z"/><path class="cls-4" d="M605.73,556.13a.56.56,0,0,1-.17.25c-.09.06-2,1.66-3.61,1.08s-2-3.06-2.06-3.16a.41.41,0,0,1,0-.29Z"/><path class="cls-7" d="M604.07,555.53a.47.47,0,0,1-.59.32.46.46,0,0,1-.24-.63.46.46,0,0,1,.59-.32A.48.48,0,0,1,604.07,555.53Z"/><path class="cls-8" d="M604.07,555.53a.47.47,0,0,1-.59.32.46.46,0,0,1-.24-.63Z"/><path class="cls-4" d="M589.32,540.79a.43.43,0,0,0-.57.26l-1.22,3.32a.44.44,0,0,0,.27.57,2.21,2.21,0,0,0,1.52-4.15Z"/><path class="cls-5" d="M590.63,543.62a2.21,2.21,0,0,1-2.83,1.32.44.44,0,0,1-.27-.57l.61-1.66Z"/><path class="cls-6" d="M595.63,545.19c0-.09-.59-2.3-2.16-2.88s-3.43.75-3.52.8a.48.48,0,0,0-.17.47c0,.09.59,2.3,2.17,2.88s3.42-.75,3.51-.8a.45.45,0,0,0,.15-.21A.39.39,0,0,0,595.63,545.19Z"/><path class="cls-4" d="M595.61,545.45a.45.45,0,0,1-.15.21c-.09.05-1.94,1.38-3.51.8s-2.14-2.79-2.17-2.88a.46.46,0,0,1,0-.26Z"/><path class="cls-7" d="M594,544.84a.44.44,0,0,1-.83-.3.45.45,0,0,1,.57-.27A.44.44,0,0,1,594,544.84Z"/><path class="cls-8" d="M594,544.84a.44.44,0,0,1-.83-.3Z"/><path class="cls-4" d="M478.32,516.79a.43.43,0,0,0-.57.26l-1.22,3.32a.44.44,0,0,0,.27.57,2.21,2.21,0,0,0,1.52-4.15Z"/><path class="cls-5" d="M479.63,519.62a2.21,2.21,0,0,1-2.83,1.32.44.44,0,0,1-.27-.57l.61-1.66Z"/><path class="cls-6" d="M484.63,521.19c0-.09-.59-2.3-2.16-2.88s-3.43.75-3.52.8a.48.48,0,0,0-.17.47c0,.09.59,2.3,2.17,2.88s3.42-.75,3.51-.8a.45.45,0,0,0,.15-.21A.39.39,0,0,0,484.63,521.19Z"/><path class="cls-4" d="M484.61,521.45a.45.45,0,0,1-.15.21c-.09.05-1.94,1.38-3.51.8s-2.14-2.79-2.17-2.88a.46.46,0,0,1,0-.26Z"/><path class="cls-7" d="M483,520.84a.44.44,0,0,1-.83-.3.45.45,0,0,1,.57-.27A.44.44,0,0,1,483,520.84Z"/><path class="cls-8" d="M483,520.84a.44.44,0,0,1-.83-.3Z"/><path class="cls-4" d="M578.32,545.79a.43.43,0,0,0-.57.26l-1.22,3.32a.44.44,0,0,0,.27.57,2.21,2.21,0,0,0,1.52-4.15Z"/><path class="cls-5" d="M579.63,548.62a2.21,2.21,0,0,1-2.83,1.32.44.44,0,0,1-.27-.57l.61-1.66Z"/><path class="cls-6" d="M584.63,550.19c0-.09-.59-2.3-2.16-2.88s-3.43.75-3.52.8a.48.48,0,0,0-.17.47c0,.09.59,2.3,2.17,2.88s3.42-.75,3.51-.8a.45.45,0,0,0,.15-.21A.39.39,0,0,0,584.63,550.19Z"/><path class="cls-4" d="M584.61,550.45a.45.45,0,0,1-.15.21c-.09.05-1.94,1.38-3.51.8s-2.14-2.79-2.17-2.88a.46.46,0,0,1,0-.26Z"/><path class="cls-7" d="M583,549.84a.44.44,0,0,1-.83-.3.45.45,0,0,1,.57-.27A.44.44,0,0,1,583,549.84Z"/><path class="cls-8" d="M583,549.84a.44.44,0,0,1-.83-.3Z"/><path class="cls-4" d="M389.32,533.79a.43.43,0,0,0-.57.26l-1.22,3.32a.44.44,0,0,0,.27.57,2.21,2.21,0,0,0,1.52-4.15Z"/><path class="cls-5" d="M390.63,536.62a2.21,2.21,0,0,1-2.83,1.32.44.44,0,0,1-.27-.57l.61-1.66Z"/><path class="cls-6" d="M395.63,538.19c0-.09-.59-2.3-2.16-2.88s-3.43.75-3.52.8a.48.48,0,0,0-.17.47c0,.09.59,2.3,2.17,2.88s3.42-.75,3.51-.8a.45.45,0,0,0,.15-.21A.39.39,0,0,0,395.63,538.19Z"/><path class="cls-4" d="M395.61,538.45a.45.45,0,0,1-.15.21c-.09.05-1.94,1.38-3.51.8s-2.14-2.79-2.17-2.88a.46.46,0,0,1,0-.26Z"/><path class="cls-7" d="M394,537.84a.44.44,0,0,1-.83-.3.45.45,0,0,1,.57-.27A.44.44,0,0,1,394,537.84Z"/><path class="cls-8" d="M394,537.84a.44.44,0,0,1-.83-.3Z"/><path class="cls-4" d="M378.32,538.79a.43.43,0,0,0-.57.26l-1.22,3.32a.44.44,0,0,0,.27.57,2.21,2.21,0,0,0,1.52-4.15Z"/><path class="cls-5" d="M379.63,541.62a2.21,2.21,0,0,1-2.83,1.32.44.44,0,0,1-.27-.57l.61-1.66Z"/><path class="cls-6" d="M384.63,543.19c0-.09-.59-2.3-2.16-2.88s-3.43.75-3.52.8a.48.48,0,0,0-.17.47c0,.09.59,2.3,2.17,2.88s3.42-.75,3.51-.8a.45.45,0,0,0,.15-.21A.39.39,0,0,0,384.63,543.19Z"/><path class="cls-4" d="M384.61,543.45a.45.45,0,0,1-.15.21c-.09.05-1.94,1.38-3.51.8s-2.14-2.79-2.17-2.88a.46.46,0,0,1,0-.26Z"/><path class="cls-7" d="M383,542.84a.44.44,0,0,1-.83-.3.45.45,0,0,1,.57-.27A.44.44,0,0,1,383,542.84Z"/><path class="cls-8" d="M383,542.84a.44.44,0,0,1-.83-.3Z"/><path class="cls-4" d="M803.55,680.16a.47.47,0,0,0-.59.33l-1.4,3.82a.47.47,0,0,0,.24.63,2.57,2.57,0,0,0,1.75-4.78Z"/><path class="cls-5" d="M804.75,683.31a2.4,2.4,0,0,1-3,1.63.47.47,0,0,1-.24-.63l.7-1.91Z"/><path class="cls-6" d="M809.76,684.84c0-.11-.49-2.58-2.06-3.16s-3.53,1-3.62,1.08a.47.47,0,0,0-.16.25.41.41,0,0,0,0,.29c0,.1.48,2.58,2.06,3.16s3.52-1,3.61-1.08a.56.56,0,0,0,.17-.25A.57.57,0,0,0,809.76,684.84Z"/><path class="cls-4" d="M809.73,685.13a.56.56,0,0,1-.17.25c-.09.06-2,1.66-3.61,1.08s-2-3.06-2.06-3.16a.41.41,0,0,1,0-.29Z"/><path class="cls-7" d="M808.07,684.53a.47.47,0,0,1-.59.32.46.46,0,0,1-.24-.63.46.46,0,0,1,.59-.32A.48.48,0,0,1,808.07,684.53Z"/><path class="cls-8" d="M808.07,684.53a.47.47,0,0,1-.59.32.46.46,0,0,1-.24-.63Z"/><path class="cls-4" d="M793.32,669.79a.43.43,0,0,0-.57.26l-1.22,3.32a.44.44,0,0,0,.27.57,2.21,2.21,0,0,0,1.52-4.15Z"/><path class="cls-5" d="M794.63,672.62a2.21,2.21,0,0,1-2.83,1.32.44.44,0,0,1-.27-.57l.61-1.66Z"/><path class="cls-6" d="M799.63,674.19c0-.09-.59-2.3-2.16-2.88s-3.43.75-3.52.8a.48.48,0,0,0-.17.47c0,.09.59,2.3,2.17,2.88s3.42-.75,3.51-.8a.45.45,0,0,0,.15-.21A.39.39,0,0,0,799.63,674.19Z"/><path class="cls-4" d="M799.61,674.45a.45.45,0,0,1-.15.21c-.09.05-1.94,1.38-3.51.8s-2.14-2.79-2.17-2.88a.46.46,0,0,1,0-.26Z"/><path class="cls-7" d="M798,673.84a.44.44,0,0,1-.83-.3.45.45,0,0,1,.57-.27A.44.44,0,0,1,798,673.84Z"/><path class="cls-8" d="M798,673.84a.44.44,0,0,1-.83-.3Z"/><path class="cls-4" d="M900.32,635.79a.43.43,0,0,0-.57.26l-1.22,3.32a.44.44,0,0,0,.27.57,2.21,2.21,0,0,0,1.52-4.15Z"/><path class="cls-5" d="M901.63,638.62a2.21,2.21,0,0,1-2.83,1.32.44.44,0,0,1-.27-.57l.61-1.66Z"/><path class="cls-6" d="M906.63,640.19c0-.09-.59-2.3-2.16-2.88s-3.43.75-3.52.8a.48.48,0,0,0-.17.47c0,.09.59,2.3,2.17,2.88s3.42-.75,3.51-.8a.45.45,0,0,0,.15-.21A.39.39,0,0,0,906.63,640.19Z"/><path class="cls-4" d="M906.61,640.45a.45.45,0,0,1-.15.21c-.09.05-1.94,1.38-3.51.8s-2.14-2.79-2.17-2.88a.46.46,0,0,1,0-.26Z"/><path class="cls-7" d="M905,639.84a.44.44,0,0,1-.83-.3.45.45,0,0,1,.57-.27A.44.44,0,0,1,905,639.84Z"/><path class="cls-8" d="M905,639.84a.44.44,0,0,1-.83-.3Z"/><path class="cls-4" d="M782.32,674.79a.43.43,0,0,0-.57.26l-1.22,3.32a.44.44,0,0,0,.27.57,2.21,2.21,0,0,0,1.52-4.15Z"/><path class="cls-5" d="M783.63,677.62a2.21,2.21,0,0,1-2.83,1.32.44.44,0,0,1-.27-.57l.61-1.66Z"/><path class="cls-6" d="M788.63,679.19c0-.09-.59-2.3-2.16-2.88s-3.43.75-3.52.8a.48.48,0,0,0-.17.47c0,.09.59,2.3,2.17,2.88s3.42-.75,3.51-.8a.45.45,0,0,0,.15-.21A.39.39,0,0,0,788.63,679.19Z"/><path class="cls-4" d="M788.61,679.45a.45.45,0,0,1-.15.21c-.09.05-1.94,1.38-3.51.8s-2.14-2.79-2.17-2.88a.46.46,0,0,1,0-.26Z"/><path class="cls-7" d="M787,678.84a.44.44,0,0,1-.83-.3.45.45,0,0,1,.57-.27A.44.44,0,0,1,787,678.84Z"/><path class="cls-8" d="M787,678.84a.44.44,0,0,1-.83-.3Z"/><path class="cls-9" d="M234,314.72a1.42,1.42,0,0,0,1-1,1.46,1.46,0,0,0-.33-1.43l-1.39-1.5a.48.48,0,0,0-.68,0l-1.38,2.84a.48.48,0,0,0,.15.67A3.43,3.43,0,0,0,234,314.72Z"/><path class="cls-10" d="M227,309l2.94-1.16a.48.48,0,0,0,0-.68l-1.47-1.59a1.47,1.47,0,0,0-1.39-.44,1.41,1.41,0,0,0-1,.92,3.44,3.44,0,0,0,.28,2.77A.49.49,0,0,0,227,309Z"/><path class="cls-10" d="M236.71,308.65a3.63,3.63,0,0,0,2.54-1.4c.47-.47.79-.59.19-1.25a3.44,3.44,0,0,0-2.32-1.43,2.68,2.68,0,0,0-.78.09,2.28,2.28,0,0,0,.08-.52,4.45,4.45,0,0,0-1.49-3,.5.5,0,0,0-.69,0c-1.25,1.16-1.9,2.19-1.92,3.19,0,1.25.75,1.8,1.5,2.7A4.46,4.46,0,0,0,236.71,308.65Z"/><path class="cls-9" d="M237.12,304.57a2.68,2.68,0,0,0-.78.09v0L233.81,307h0a4.5,4.5,0,0,0,2.9,1.68,3.63,3.63,0,0,0,2.54-1.4c.47-.47.79-.59.19-1.25A3.44,3.44,0,0,0,237.12,304.57Z"/><path class="cls-11" d="M227.22,315.39,226,314.22l-1.57-1.44-.61-1.82c1.22-2.63,4.13-4,10.38-4.85a.58.58,0,0,1,.61.66c-1.35,6.28-3.08,9-5.88,9.94Z"/><path class="cls-12" d="M234.58,306.25l-8.62,8h0l1.26,1.17,1.67,1.32c2.8-1,4.53-3.66,5.88-9.94A.57.57,0,0,0,234.58,306.25Z"/><path class="cls-13" d="M223.3,316.66a1.45,1.45,0,0,1-.38-1.05,15,15,0,0,1,.45-3.48,7.35,7.35,0,0,1,.41-1.17,4.35,4.35,0,0,1,5.11,5.75,8.33,8.33,0,0,1-1.22.29,17,17,0,0,1-3.35.14A1.58,1.58,0,0,1,223.3,316.66Z"/><path class="cls-10" d="M228.06,312.28l-4.75,4.38a1.53,1.53,0,0,0,1,.48,17,17,0,0,0,3.35-.14,8.33,8.33,0,0,0,1.22-.29,4.32,4.32,0,0,0-.83-4.43Z"/><path class="cls-10" d="M229.64,312.94a4.9,4.9,0,0,0-.87-1.31,5.27,5.27,0,0,0-1.23-1,.5.5,0,0,1-.17-.67.51.51,0,0,1,.67-.17,6.91,6.91,0,0,1,1.45,1.2,5.85,5.85,0,0,1,1,1.57.48.48,0,1,1-.88.4Z"/><path class="cls-10" d="M229.48,311l-.71.66h0a4.9,4.9,0,0,1,.87,1.31.48.48,0,1,0,.88-.4,5.85,5.85,0,0,0-1-1.57Z"/><circle class="cls-14" cx="225.55" cy="313.86" r="0.49"/><path class="cls-9" d="M24,330.72a1.42,1.42,0,0,0,1-1,1.46,1.46,0,0,0-.33-1.43l-1.39-1.5a.48.48,0,0,0-.68,0l-1.38,2.84a.48.48,0,0,0,.15.67A3.43,3.43,0,0,0,24,330.72Z"/><path class="cls-10" d="M17,325l2.94-1.16a.48.48,0,0,0,0-.68l-1.47-1.59a1.47,1.47,0,0,0-1.39-.44,1.41,1.41,0,0,0-1.05.92,3.44,3.44,0,0,0,.28,2.77A.49.49,0,0,0,17,325Z"/><path class="cls-10" d="M26.71,324.65a3.63,3.63,0,0,0,2.54-1.4c.47-.47.79-.59.19-1.25a3.44,3.44,0,0,0-2.32-1.43,2.68,2.68,0,0,0-.78.09,2.28,2.28,0,0,0,.08-.52,4.45,4.45,0,0,0-1.49-3,.5.5,0,0,0-.69,0c-1.25,1.16-1.9,2.19-1.92,3.19,0,1.25.75,1.8,1.5,2.7A4.46,4.46,0,0,0,26.71,324.65Z"/><path class="cls-9" d="M27.12,320.57a2.68,2.68,0,0,0-.78.09v0L23.81,323h0a4.5,4.5,0,0,0,2.9,1.68,3.63,3.63,0,0,0,2.54-1.4c.47-.47.79-.59.19-1.25A3.44,3.44,0,0,0,27.12,320.57Z"/><path class="cls-11" d="M17.22,331.39,16,330.22l-1.57-1.44L13.78,327c1.22-2.63,4.13-4,10.38-4.85a.58.58,0,0,1,.61.66c-1.35,6.28-3.08,9-5.88,9.94Z"/><path class="cls-12" d="M24.58,322.25l-8.62,8h0l1.26,1.17,1.67,1.32c2.8-1,4.53-3.66,5.88-9.94A.57.57,0,0,0,24.58,322.25Z"/><path class="cls-13" d="M13.3,332.66a1.45,1.45,0,0,1-.38-1.05,15,15,0,0,1,.45-3.48,7.35,7.35,0,0,1,.41-1.17,4.35,4.35,0,0,1,5.11,5.75,8.33,8.33,0,0,1-1.22.29,17,17,0,0,1-3.35.14A1.58,1.58,0,0,1,13.3,332.66Z"/><path class="cls-10" d="M18.06,328.28l-4.75,4.38a1.53,1.53,0,0,0,1,.48,17,17,0,0,0,3.35-.14,8.33,8.33,0,0,0,1.22-.29,4.32,4.32,0,0,0-.83-4.43Z"/><path class="cls-10" d="M19.64,328.94a4.9,4.9,0,0,0-.87-1.31,5.27,5.27,0,0,0-1.23-1,.5.5,0,0,1-.17-.67.51.51,0,0,1,.67-.17,6.91,6.91,0,0,1,1.45,1.2,5.85,5.85,0,0,1,1,1.57.48.48,0,0,1-.88.4Z"/><path class="cls-10" d="M19.48,327l-.71.66h0a4.9,4.9,0,0,1,.87,1.31.48.48,0,0,0,.88-.4,5.85,5.85,0,0,0-1-1.57Z"/><circle class="cls-14" cx="15.55" cy="329.86" r="0.49"/><path class="cls-4" d="M215.92,311.78a2.21,2.21,0,0,0,3.12-.07.43.43,0,0,0,0-.62l-2.55-2.45a.45.45,0,0,0-.63,0A2.22,2.22,0,0,0,215.92,311.78Z"/><path class="cls-5" d="M217.75,309.86l1.28,1.23a.43.43,0,0,1,0,.62,2.21,2.21,0,0,1-3.12.07Z"/><path class="cls-6" d="M212.25,315.61a.4.4,0,0,0,.23.12c.1,0,2.34.39,3.5-.83s.69-3.44.68-3.54a.5.5,0,0,0-.13-.22.4.4,0,0,0-.23-.12c-.1,0-2.34-.39-3.51.82s-.69,3.44-.67,3.54A.36.36,0,0,0,212.25,315.61Z"/><path class="cls-4" d="M216.53,311.14a.5.5,0,0,1,.13.22c0,.1.49,2.33-.68,3.54s-3.4.84-3.5.83a.4.4,0,0,1-.23-.12Z"/><path class="cls-7" d="M213.46,313.71a.43.43,0,0,1,.62,0,.44.44,0,1,1-.61.64A.43.43,0,0,1,213.46,313.71Z"/><path class="cls-8" d="M214.08,313.69a.44.44,0,1,1-.61.64Z"/><path class="cls-9" d="M128.17,447.1a.49.49,0,0,0-.38-.57l-3-1a.48.48,0,0,0-.46.51l.13,2a1.46,1.46,0,0,0,2.23,1.16A3.44,3.44,0,0,0,128.17,447.1Z"/><path class="cls-10" d="M127.74,439.64a3.41,3.41,0,0,0-1.81-2.11,1.39,1.39,0,0,0-1.39.12,1.48,1.48,0,0,0-.65,1.31l.14,2.16a.47.47,0,0,0,.51.45l2.87-1.32A.49.49,0,0,0,127.74,439.64Z"/><path class="cls-10" d="M121.21,443.8c-.13-1.16,0-2.11-.92-2.95-.73-.67-1.92-.92-3.63-.82a.5.5,0,0,0-.45.52,4.42,4.42,0,0,0,1.15,3.17,2.28,2.28,0,0,0,.43.3,3,3,0,0,0-.6.51,3.4,3.4,0,0,0-.57,2.65c0,.9.37.75,1,.74a3.6,3.6,0,0,0,2.77-.88A4.46,4.46,0,0,0,121.21,443.8Z"/><path class="cls-9" d="M116.62,447.18c0,.9.37.75,1,.74a3.6,3.6,0,0,0,2.77-.88,4.44,4.44,0,0,0,.79-3.25h0l-3.45.21,0,0a3,3,0,0,0-.6.51A3.4,3.4,0,0,0,116.62,447.18Z"/><path class="cls-11" d="M131.65,447c-2.63,1.36-5.78.74-11.25-2.62a.59.59,0,0,1-.05-.91c4.91-3.93,7.94-5.07,10.67-4.14l.9,1.7,0,2.13,0,1.72Z"/><path class="cls-12" d="M120.4,444.35c5.47,3.36,8.62,4,11.25,2.62l.2-2.12,0-1.72h0l-11.72.72A.56.56,0,0,0,120.4,444.35Z"/><path class="cls-13" d="M135.12,444a16.65,16.65,0,0,1-2.42,2.33,8.53,8.53,0,0,1-1,.68,4.32,4.32,0,0,1-2.63-3.66,4.38,4.38,0,0,1,2-4,9.53,9.53,0,0,1,1.13.51A15.63,15.63,0,0,1,135,441.9a1.49,1.49,0,0,1,.13,2.06Z"/><path class="cls-10" d="M129,443.31a4.32,4.32,0,0,0,2.63,3.66,8.53,8.53,0,0,0,1-.68,16.65,16.65,0,0,0,2.42-2.33,1.43,1.43,0,0,0,.35-1l-6.45.4Z"/><path class="cls-10" d="M128.13,445.54a.5.5,0,0,1-.63-.28,6.38,6.38,0,0,1-.27-3.7.49.49,0,1,1,1,.22,5,5,0,0,0-.12,1.59,5.19,5.19,0,0,0,.34,1.54A.48.48,0,0,1,128.13,445.54Z"/><path class="cls-10" d="M127.09,443.43a6.14,6.14,0,0,0,.41,1.83.5.5,0,0,0,.63.28.48.48,0,0,0,.27-.63,5.19,5.19,0,0,1-.34-1.54h0l-1,.06Z"/><circle class="cls-14" cx="131.9" cy="442.58" r="0.49"/><path class="cls-9" d="M886.17,633.1a.49.49,0,0,0-.38-.57l-3-1a.48.48,0,0,0-.46.51l.13,2a1.46,1.46,0,0,0,2.23,1.16A3.44,3.44,0,0,0,886.17,633.1Z"/><path class="cls-10" d="M885.74,625.64a3.41,3.41,0,0,0-1.81-2.11,1.39,1.39,0,0,0-1.39.12,1.48,1.48,0,0,0-.65,1.31l.14,2.16a.47.47,0,0,0,.51.45l2.87-1.32A.49.49,0,0,0,885.74,625.64Z"/><path class="cls-10" d="M879.21,629.8c-.13-1.16,0-2.11-.92-2.95-.73-.67-1.92-.92-3.63-.82a.5.5,0,0,0-.45.52,4.42,4.42,0,0,0,1.15,3.17,2.28,2.28,0,0,0,.43.3,3,3,0,0,0-.6.51,3.4,3.4,0,0,0-.57,2.65c0,.9.37.75,1,.74a3.6,3.6,0,0,0,2.77-.88A4.46,4.46,0,0,0,879.21,629.8Z"/><path class="cls-9" d="M874.62,633.18c0,.9.37.75,1,.74a3.6,3.6,0,0,0,2.77-.88,4.44,4.44,0,0,0,.79-3.25h0l-3.45.21,0,0a3,3,0,0,0-.6.51A3.4,3.4,0,0,0,874.62,633.18Z"/><path class="cls-11" d="M889.65,633c-2.63,1.36-5.78.74-11.25-2.62a.59.59,0,0,1,0-.91c4.91-3.93,7.94-5.07,10.67-4.14l.9,1.7,0,2.13,0,1.72Z"/><path class="cls-12" d="M878.4,630.35c5.47,3.36,8.62,4,11.25,2.62l.2-2.12,0-1.72h0l-11.72.72A.56.56,0,0,0,878.4,630.35Z"/><path class="cls-13" d="M893.12,630a16.65,16.65,0,0,1-2.42,2.33,8.53,8.53,0,0,1-1.05.68,4.32,4.32,0,0,1-2.63-3.66,4.38,4.38,0,0,1,2-4,9.53,9.53,0,0,1,1.13.51A15.63,15.63,0,0,1,893,627.9a1.49,1.49,0,0,1,.13,2.06Z"/><path class="cls-10" d="M887,629.31a4.32,4.32,0,0,0,2.63,3.66,8.53,8.53,0,0,0,1.05-.68,16.65,16.65,0,0,0,2.42-2.33,1.43,1.43,0,0,0,.35-1.05l-6.45.4Z"/><path class="cls-10" d="M886.13,631.54a.5.5,0,0,1-.63-.28,6.38,6.38,0,0,1-.27-3.7.49.49,0,1,1,.95.22,5,5,0,0,0-.12,1.59,5.19,5.19,0,0,0,.34,1.54A.48.48,0,0,1,886.13,631.54Z"/><path class="cls-10" d="M885.09,629.43a6.14,6.14,0,0,0,.41,1.83.5.5,0,0,0,.63.28.48.48,0,0,0,.27-.63,5.19,5.19,0,0,1-.34-1.54h0l-1,.06Z"/><circle class="cls-14" cx="889.9" cy="628.58" r="0.49"/><path class="cls-9" d="M484.17,511.1a.49.49,0,0,0-.38-.57l-3-1a.48.48,0,0,0-.46.51l.13,2a1.46,1.46,0,0,0,2.23,1.16A3.44,3.44,0,0,0,484.17,511.1Z"/><path class="cls-10" d="M483.74,503.64a3.41,3.41,0,0,0-1.81-2.11,1.39,1.39,0,0,0-1.39.12,1.48,1.48,0,0,0-.65,1.31l.14,2.16a.47.47,0,0,0,.51.45l2.87-1.32A.49.49,0,0,0,483.74,503.64Z"/><path class="cls-10" d="M477.21,507.8c-.13-1.16,0-2.11-.92-2.95-.73-.67-1.92-.92-3.63-.82a.5.5,0,0,0-.45.52,4.42,4.42,0,0,0,1.15,3.17,2.28,2.28,0,0,0,.43.3,3,3,0,0,0-.6.51,3.4,3.4,0,0,0-.57,2.65c.05.9.37.75,1,.74a3.6,3.6,0,0,0,2.77-.88A4.46,4.46,0,0,0,477.21,507.8Z"/><path class="cls-9" d="M472.62,511.18c.05.9.37.75,1,.74a3.6,3.6,0,0,0,2.77-.88,4.44,4.44,0,0,0,.79-3.25h0l-3.45.21,0,0a3,3,0,0,0-.6.51A3.4,3.4,0,0,0,472.62,511.18Z"/><path class="cls-11" d="M487.65,511c-2.63,1.36-5.78.74-11.25-2.62a.59.59,0,0,1,0-.91c4.91-3.93,7.94-5.07,10.67-4.14l.9,1.7,0,2.13,0,1.72Z"/><path class="cls-12" d="M476.4,508.35c5.47,3.36,8.62,4,11.25,2.62l.2-2.12,0-1.72h0l-11.72.72A.56.56,0,0,0,476.4,508.35Z"/><path class="cls-13" d="M491.12,508a16.65,16.65,0,0,1-2.42,2.33,8.53,8.53,0,0,1-1.05.68,4.32,4.32,0,0,1-2.63-3.66,4.38,4.38,0,0,1,2-4,9.53,9.53,0,0,1,1.13.51A15.63,15.63,0,0,1,491,505.9a1.49,1.49,0,0,1,.13,2.06Z"/><path class="cls-10" d="M485,507.31a4.32,4.32,0,0,0,2.63,3.66,8.53,8.53,0,0,0,1.05-.68,16.65,16.65,0,0,0,2.42-2.33,1.43,1.43,0,0,0,.35-1l-6.45.4Z"/><path class="cls-10" d="M484.13,509.54a.5.5,0,0,1-.63-.28,6.38,6.38,0,0,1-.27-3.7.49.49,0,1,1,.95.22,5,5,0,0,0-.12,1.59,5.19,5.19,0,0,0,.34,1.54A.48.48,0,0,1,484.13,509.54Z"/><path class="cls-10" d="M483.09,507.43a6.14,6.14,0,0,0,.41,1.83.5.5,0,0,0,.63.28.48.48,0,0,0,.27-.63,5.19,5.19,0,0,1-.34-1.54h0l-1,.06Z"/><circle class="cls-14" cx="487.9" cy="506.58" r="0.49"/><path class="cls-9" d="M625.17,639.1a.49.49,0,0,0-.38-.57l-3-1a.48.48,0,0,0-.46.51l.13,2a1.46,1.46,0,0,0,2.23,1.16A3.44,3.44,0,0,0,625.17,639.1Z"/><path class="cls-10" d="M624.74,631.64a3.41,3.41,0,0,0-1.81-2.11,1.39,1.39,0,0,0-1.39.12,1.48,1.48,0,0,0-.65,1.31l.14,2.16a.47.47,0,0,0,.51.45l2.87-1.32A.49.49,0,0,0,624.74,631.64Z"/><path class="cls-10" d="M618.21,635.8c-.13-1.16,0-2.11-.92-2.95-.73-.67-1.92-.92-3.63-.82a.5.5,0,0,0-.45.52,4.42,4.42,0,0,0,1.15,3.17,2.28,2.28,0,0,0,.43.3,3,3,0,0,0-.6.51,3.4,3.4,0,0,0-.57,2.65c0,.9.37.75,1,.74a3.6,3.6,0,0,0,2.77-.88A4.46,4.46,0,0,0,618.21,635.8Z"/><path class="cls-9" d="M613.62,639.18c0,.9.37.75,1,.74a3.6,3.6,0,0,0,2.77-.88,4.44,4.44,0,0,0,.79-3.25h0l-3.45.21,0,0a3,3,0,0,0-.6.51A3.4,3.4,0,0,0,613.62,639.18Z"/><path class="cls-11" d="M628.65,639c-2.63,1.36-5.78.74-11.25-2.62a.59.59,0,0,1,0-.91c4.91-3.93,7.94-5.07,10.67-4.14l.9,1.7,0,2.13,0,1.72Z"/><path class="cls-12" d="M617.4,636.35c5.47,3.36,8.62,4,11.25,2.62l.2-2.12,0-1.72h0l-11.72.72A.56.56,0,0,0,617.4,636.35Z"/><path class="cls-13" d="M632.12,636a16.65,16.65,0,0,1-2.42,2.33,8.53,8.53,0,0,1-1.05.68,4.32,4.32,0,0,1-2.63-3.66,4.38,4.38,0,0,1,2-4,9.53,9.53,0,0,1,1.13.51A15.63,15.63,0,0,1,632,633.9a1.49,1.49,0,0,1,.13,2.06Z"/><path class="cls-10" d="M626,635.31a4.32,4.32,0,0,0,2.63,3.66,8.53,8.53,0,0,0,1.05-.68,16.65,16.65,0,0,0,2.42-2.33,1.43,1.43,0,0,0,.35-1.05l-6.45.4Z"/><path class="cls-10" d="M625.13,637.54a.5.5,0,0,1-.63-.28,6.38,6.38,0,0,1-.27-3.7.49.49,0,1,1,.95.22,5,5,0,0,0-.12,1.59,5.19,5.19,0,0,0,.34,1.54A.48.48,0,0,1,625.13,637.54Z"/><path class="cls-10" d="M624.09,635.43a6.14,6.14,0,0,0,.41,1.83.5.5,0,0,0,.63.28.48.48,0,0,0,.27-.63,5.19,5.19,0,0,1-.34-1.54h0l-1,.06Z"/><circle class="cls-14" cx="628.9" cy="634.58" r="0.49"/></svg>