<svg id="Layer_1" data-name="Layer 1" xmlns="http://www.w3.org/2000/svg" viewBox="0 0 298.92 341"><defs><style>.cls-1{fill:#3aae9b;}.cls-2{fill:#4bb9ec;}.cls-3{fill:#159ce4;}.cls-4{fill:#a4d9f5;}.cls-5{fill:#c5e7f9;}.cls-6{fill:#81c8ee;}.cls-7{fill:#b7e0f6;}.cls-8{fill:#e5f4fd;}.cls-9{fill:#88caf3;}.cls-10{fill:#3c3a41;}.cls-11{fill:none;}.cls-12{fill:#76e2f8;}</style></defs><title>FishquoteBg</title><circle id="Ellipse_77" data-name="Ellipse 77" class="cls-1" cx="156.78" cy="288.56" r="37.44"/><rect class="cls-2" x="128.19" y="67.99" width="24.22" height="108.37" rx="0.79" transform="translate(-22 31.24) rotate(-11.79)"/><circle class="cls-2" cx="128.48" cy="124.8" r="17.13"/><path class="cls-3" d="M145.25,121.3a17.13,17.13,0,0,0-19.48-13.41.76.76,0,0,0-.63.87s0,0,0,0l6.67,32a.77.77,0,0,0,.9.61h0A17.14,17.14,0,0,0,145.25,121.3Z"/><path class="cls-3" d="M119.25,76.76,137,73.05a.78.78,0,0,1,.92.6l19.6,93.93a.78.78,0,0,1-.6.92l-17.78,3.71a.78.78,0,0,0-.6.92h0a.78.78,0,0,0,.92.6l19.3-4a.78.78,0,0,0,.6-.92l-20.28-97a.76.76,0,0,0-.91-.6h0l-19.3,4a.78.78,0,0,0-.6.92h0a.78.78,0,0,0,.9.64Z"/><path class="cls-4" d="M163.05,300.62a1.53,1.53,0,0,0-1-1.91h0l-9.17-3.9a1.52,1.52,0,0,0-1.57,1.47h0l-.2,6.47a4.6,4.6,0,0,0,2.18,4.08,4.49,4.49,0,0,0,4.48.19A10.73,10.73,0,0,0,163.05,300.62Z"/><path class="cls-5" d="M163.87,277.05a10.73,10.73,0,0,0-5.06-7.16,4.4,4.4,0,0,0-4.41,0,4.7,4.7,0,0,0-2.42,3.94l-.21,6.82a1.53,1.53,0,0,0,1.48,1.58h0l9.41-3.34a1.51,1.51,0,0,0,1.21-1.77A.15.15,0,0,0,163.87,277.05Z"/><path class="cls-5" d="M142.11,288.23c-.08-3.71.66-6.64-2-9.54-2.12-2.34-5.77-3.45-11.17-3.64a1.57,1.57,0,0,0-1.58,1.49c-.15,4.85.74,8.22,2.69,10.3a7.72,7.72,0,0,0,1.27,1.08,8.71,8.71,0,0,0-2,1.41c-2.5,2.39-2.54,5.75-2.57,8.18-.09,2.83,1,2.46,3,2.61,2.84.2,6.34.44,9-1.93S141.91,291.89,142.11,288.23Z"/><path class="cls-4" d="M126.71,297.51c-.09,2.83,1,2.46,3,2.61,2.84.2,6.34.44,9-1.93s3.21-6.3,3.43-10v-.05l-10.92-.34.11.08a8.71,8.71,0,0,0-2,1.41C126.78,291.72,126.74,295.08,126.71,297.51Z"/><path class="cls-6" d="M174,301.22c-8.65,3.51-18.39.65-34.58-11.51a1.83,1.83,0,0,1-.21-2.58,2,2,0,0,1,.3-.28c16.6-10.94,26.44-13.65,34.76-9.91l2.33,5.61-.75,6.67-.6,5.41Z"/><path class="cls-3" d="M139.44,289.71c16.19,12.16,25.93,15,34.58,11.51l1.25-6.59.6-5.41h0l-37.06-1.14A1.78,1.78,0,0,0,139.44,289.71Z"/><path class="cls-5" d="M185.82,292.78a52.36,52.36,0,0,1-8.29,6.62,27.13,27.13,0,0,1-3.51,1.82A13.65,13.65,0,0,1,166.83,289a13.87,13.87,0,0,1,7.46-12,24.31,24.31,0,0,1,3.41,1.93,49,49,0,0,1,8.3,7.39,4.6,4.6,0,0,1,1.24,3.29A4.75,4.75,0,0,1,185.82,292.78Z"/><path class="cls-7" d="M166.83,289A13.63,13.63,0,0,0,174,301.25a27.13,27.13,0,0,0,3.51-1.82,52.36,52.36,0,0,0,8.29-6.62,4.75,4.75,0,0,0,1.42-3.21L166.83,289Z"/><path class="cls-8" d="M163.39,295.69a1.53,1.53,0,0,1-1.9-1,19.17,19.17,0,0,1-.77-5.88,20.75,20.75,0,0,1,1-5.85,1.57,1.57,0,0,1,1.94-1,1.53,1.53,0,0,1,1,1.93h0a16.67,16.67,0,0,0-.82,5,15.77,15.77,0,0,0,.63,4.92,1.51,1.51,0,0,1-1.05,1.86Z"/><path class="cls-9" d="M160.72,288.78a19.17,19.17,0,0,0,.77,5.88,1.53,1.53,0,0,0,1.9,1,1.5,1.5,0,0,0,1-1.88v0a15.77,15.77,0,0,1-.63-4.92h0l-3.08-.1Z"/><circle class="cls-10" cx="176.09" cy="287.5" r="1.53"/><rect class="cls-11" width="298.92" height="341"/><circle id="Ellipse_75-2" data-name="Ellipse 75-2" class="cls-1" cx="183.92" cy="124.67" r="89"/><circle id="Ellipse_77-2" data-name="Ellipse 77-2" class="cls-1" cx="156.24" cy="288.56" r="37.44"/><circle id="Ellipse_78-2" data-name="Ellipse 78-2" class="cls-1" cx="41.19" cy="198.47" r="15.19"/><rect class="cls-12" x="137.05" y="279.95" width="38.46" height="17.08" rx="0.79" transform="translate(-170.69 261.24) rotate(-56.79)"/><rect class="cls-2" x="140.61" y="286.52" width="38.46" height="8.6" rx="0.79" transform="translate(-171.03 265.26) rotate(-56.79)"/><circle class="cls-2" cx="156.2" cy="288.52" r="6.08"/><path class="cls-3" d="M161.28,291.84a6.07,6.07,0,0,0-1.52-8.25.28.28,0,0,0-.39.08h0L153,293.36a.28.28,0,0,0,.08.39h0A6.08,6.08,0,0,0,161.28,291.84Z"/><path class="cls-2" d="M172.17,277.9l-19.25,29.41a.28.28,0,0,1-.38.08l-12.08-7.91a.28.28,0,0,1-.09-.37h0l19.25-29.41a.28.28,0,0,1,.38-.08l12.1,7.91a.27.27,0,0,1,.06.38Zm-19.41,28.65,18.65-28.49a.27.27,0,0,0-.07-.37h0l-11.16-7.31a.3.3,0,0,0-.38.08l-18.68,28.49a.27.27,0,0,0,.07.37h0l11.16,7.31a.28.28,0,0,0,.39-.05Z"/><path class="cls-3" d="M165.94,274.15l5.39,3.53a.28.28,0,0,1,.09.37h0l-18.65,28.49a.28.28,0,0,1-.38.08l-5.4-3.54a.3.3,0,0,0-.38.08h0a.3.3,0,0,0,.08.39l5.86,3.83a.28.28,0,0,0,.38-.08l19.25-29.41a.27.27,0,0,0-.07-.37h0l-5.85-3.84a.28.28,0,0,0-.38.08h0a.28.28,0,0,0,.08.39Z"/><path class="cls-4" d="M172.11,146.51a3,3,0,0,1,2-3.76h0L192.27,135a3,3,0,0,1,3.12,2.88v.05l.39,12.79a9.11,9.11,0,0,1-4.32,8.06,8.84,8.84,0,0,1-8.85.37A21.3,21.3,0,0,1,172.11,146.51Z"/><path class="cls-5" d="M170.51,99.91a21.24,21.24,0,0,1,10-14.14,8.68,8.68,0,0,1,8.69-.09,9.26,9.26,0,0,1,4.8,7.78l.41,13.49a3,3,0,0,1-2.88,3.12h-.05l-18.61-6.6A3,3,0,0,1,170.5,100Z"/><path class="cls-5" d="M213.48,122c.16-7.32-1.29-13.12,4-18.85,4.18-4.63,11.4-6.83,22.07-7.2a3.12,3.12,0,0,1,3.13,3c.3,9.59-1.47,16.24-5.33,20.35a13.87,13.87,0,0,1-2.51,2.14,16.8,16.8,0,0,1,4,2.79c5,4.73,5,11.37,5.09,16.17.17,5.59-1.89,4.87-6,5.16-5.61.39-12.54.86-17.7-3.83S213.92,129.24,213.48,122Z"/><path class="cls-6" d="M150.45,147.7c17.1,6.93,36.35,1.28,68.35-22.77a3.62,3.62,0,0,0,.43-5.09,3.53,3.53,0,0,0-.6-.56c-32.82-21.62-52.27-27-68.72-19.57l-4.59,11.07L146.8,124,148,134.66Z"/><path class="cls-3" d="M218.8,124.93c-32,24-51.25,29.7-68.35,22.77l-2.46-13L146.8,124h0l73.25-2.26A3.48,3.48,0,0,1,218.8,124.93Z"/><path class="cls-5" d="M127.11,131a104.31,104.31,0,0,0,16.39,13.08,53.55,53.55,0,0,0,6.93,3.6,27,27,0,0,0,14.21-24.23,27.28,27.28,0,0,0-14.73-23.74,48.6,48.6,0,0,0-6.74,3.81,97.7,97.7,0,0,0-16.4,14.6,9.16,9.16,0,0,0-2.45,6.51A9.45,9.45,0,0,0,127.11,131Z"/><path class="cls-7" d="M164.66,123.47a27,27,0,0,1-14.21,24.23,53.55,53.55,0,0,1-6.93-3.6A105.06,105.06,0,0,1,127.11,131a9.44,9.44,0,0,1-2.81-6.35l40.34-1.25Z"/><path class="cls-8" d="M171.46,136.76a3,3,0,0,0,3.75-2h0a37.44,37.44,0,0,0,1.53-11.62,40.53,40.53,0,0,0-1.94-11.56,3,3,0,1,0-5.78,1.89,32.4,32.4,0,0,1,1.64,9.86,31.31,31.31,0,0,1-1.25,9.67,3,3,0,0,0,2,3.74Z"/><path class="cls-9" d="M176.74,123.1a37.15,37.15,0,0,1-1.53,11.62,3,3,0,0,1-3.74,2h0a3,3,0,0,1-2-3.74h0a31.39,31.39,0,0,0,1.25-9.73h0l6.08-.19Z"/><circle class="cls-10" cx="146.36" cy="120.58" r="3.03"/></svg>