<?xml version="1.0" encoding="utf-8"?>
<!-- Generator: Adobe Illustrator 23.0.3, SVG Export Plug-In . SVG Version: 6.00 Build 0)  -->
<svg version="1.1" id="Layer_1" xmlns="http://www.w3.org/2000/svg" xmlns:xlink="http://www.w3.org/1999/xlink" x="0px" y="0px"
	 viewBox="0 0 2075 1840" style="enable-background:new 0 0 2075 1840;" xml:space="preserve">
<style type="text/css">
	.st0{fill:url(#SVGID_1_);}
	.st1{fill:#A4D9F5;}
	.st2{fill:#C5E7F9;}
	.st3{fill:#81C8EE;}
	.st4{fill:#159CE4;}
	.st5{fill:#B7E0F6;}
	.st6{fill:#E5F4FD;}
	.st7{fill:#88CAF3;}
	.st8{fill:#3C3A41;}
	.st9{opacity:0.5;}
	.st10{opacity:0.65;}
	.st11{fill:#76E2F8;}
	.st12{fill:#4BB9EC;}
</style>
<g>
	<linearGradient id="SVGID_1_" gradientUnits="userSpaceOnUse" x1="134.8533" y1="-721.1948" x2="1648.6409" y2="2031.1781">
		<stop  offset="0" style="stop-color:#3AAE9B"/>
		<stop  offset="1" style="stop-color:#BF82F4"/>
	</linearGradient>
	<rect class="st0" width="2075" height="1840"/>
</g>
<g>
	<path class="st1" d="M510.85,265.19c0.61-2.46-0.54-5.05-2.56-5.78l-22.91-11.81c-2.12-0.08-3.88,1.93-3.95,4.49l-0.5,19.56
		c-0.14,5.17,2.02,9.73,5.46,12.34c3.45,2.61,7.64,2.83,11.2,0.57C503.95,280.53,508.78,273.47,510.85,265.19z"/>
	<g>
		<g>
			<path class="st2" d="M512.9,193.86c-1.48-9.04-6.09-16.93-12.67-21.64c-3.38-2.42-7.49-2.47-11-0.15
				c-3.61,2.41-5.93,6.97-6.06,11.91l-0.53,20.64c-0.07,2.56,1.6,4.7,3.71,4.78l23.53-10.1
				C511.96,198.82,513.31,196.38,512.9,193.86z"/>
			<path class="st2" d="M458.54,227.69c-0.2-11.21,1.63-20.08-5.06-28.86c-5.29-7.09-14.43-10.45-27.91-11.02
				c-2.11-0.01-3.9,2.02-3.96,4.51c-0.37,14.68,1.86,24.87,6.74,31.15c0.84,1.08,1.74,2.1,3.17,3.27c-1.93,1.17-3.65,2.62-5.1,4.27
				c-6.26,7.25-6.35,17.41-6.43,24.76c-0.22,8.56,2.39,7.45,7.61,7.89c7.09,0.59,15.85,1.31,22.38-5.86
				C456.66,250.45,457.99,238.76,458.54,227.69z"/>
		</g>
	</g>
	<path class="st1" d="M419.98,255.77c-0.22,8.56,2.39,7.45,7.61,7.89c7.09,0.59,15.85,1.31,22.38-5.86
		c6.69-7.36,8.02-19.05,8.58-30.12c0-0.05,0-0.1,0-0.15l-27.29-1.02c0.09,0.07,0.17,0.15,0.26,0.22c-1.93,1.17-3.65,2.62-5.1,4.27
		C420.16,238.26,420.06,248.43,419.98,255.77z"/>
	<path class="st3" d="M538.27,267c-21.63,10.61-45.97,1.97-86.45-34.84c-2.12-1.91-2.26-6.61,0.22-8.65
		c41.51-33.09,66.11-41.3,86.91-29.96l5.8,16.95l-1.87,20.2l-1.5,16.35L538.27,267z"/>
	<path class="st4" d="M451.82,232.16c40.48,36.81,64.82,45.45,86.45,34.84l3.11-19.96l1.5-16.35l0-0.01l-92.64-3.46
		C450.05,229.11,450.62,231.08,451.82,232.16z"/>
	<path class="st2" d="M567.76,241.47c-6.37,7.24-13.33,14.53-20.73,20.02c-2.82,2.06-5.74,3.98-8.76,5.51
		c-12.37-8.33-18.12-22.79-17.98-37.08c0.26-14.42,6.64-28.82,18.66-36.37c2.94,1.62,5.76,3.63,8.53,5.83
		c7.49,6.12,14.55,14.25,20.74,22.36c2.15,2.77,3.2,6.42,3.11,9.96C571.23,235.23,570,238.8,567.76,241.47z"/>
	<g>
		<path class="st5" d="M520.29,229.92c-0.15,14.3,5.61,28.75,17.98,37.08c3.02-1.53,5.94-3.45,8.76-5.51
			c7.4-5.5,14.37-12.78,20.73-20.02c2.22-2.66,3.45-6.19,3.55-9.71l-51.02-1.91C520.29,229.87,520.29,229.9,520.29,229.92z"/>
		<path class="st6" d="M511.69,250.26c-2.08,0.71-4.16-0.75-4.74-3.13c-1.42-5.89-2.08-11.89-1.93-17.79
			c0.1-6.1,0.96-12.04,2.46-17.69c0.66-2.4,2.81-3.7,4.85-2.97c1.99,0.8,3.11,3.46,2.45,5.87c-1.32,4.94-2.04,9.96-2.07,15.08
			c-0.13,4.98,0.4,9.99,1.57,14.89C514.87,247.04,513.72,249.62,511.69,250.26z"/>
		<path class="st7" d="M505.02,229.35c-0.15,5.9,0.51,11.89,1.93,17.79c0.59,2.38,2.67,3.84,4.74,3.13
			c2.02-0.65,3.17-3.23,2.59-5.74c-1.18-4.9-1.7-9.9-1.57-14.89c0-0.02,0-0.05,0-0.07l-7.69-0.29
			C505.02,229.3,505.02,229.32,505.02,229.35z"/>
	</g>
	<ellipse class="st8" cx="543.44" cy="225.49" rx="3.83" ry="4.64"/>
</g>
<g class="st9">
	<path class="st1" d="M1336.28,1587.69c0.61-2.46-0.54-5.05-2.56-5.78l-22.43-11.56c-0.32-0.16-0.66-0.27-1-0.22
		c-1.88,0.24-3.37,2.12-3.43,4.47l-0.5,19.56c-0.14,5.17,2.02,9.73,5.46,12.34c3.45,2.61,7.64,2.83,11.2,0.57
		C1329.39,1603.04,1334.22,1595.98,1336.28,1587.69z"/>
	<g>
		<g>
			<path class="st2" d="M1338.33,1516.37c-1.48-9.04-6.09-16.93-12.67-21.64c-3.38-2.42-7.49-2.47-11-0.15
				c-3.61,2.41-5.93,6.97-6.06,11.91l-0.53,20.64c-0.06,2.35,1.33,4.34,3.19,4.72c0.34,0.07,0.69-0.01,1.01-0.15l23.04-9.89
				C1337.39,1521.32,1338.74,1518.88,1338.33,1516.37z"/>
			<path class="st2" d="M1283.97,1550.3c0-0.07,0-0.14,0-0.21c-0.19-11.16,1.62-20-5.06-28.76c-5.29-7.09-14.43-10.45-27.91-11.02
				c-2.11-0.01-3.9,2.02-3.96,4.51c-0.37,14.68,1.86,24.87,6.74,31.15c0.25,0.32,0.5,0.64,0.78,0.95c1.05,1.22,0.86,3.26-0.34,4.27
				c-0.85,0.71-1.64,1.49-2.37,2.31c-6.26,7.25-6.35,17.41-6.43,24.76c-0.22,8.56,2.39,7.45,7.61,7.89
				c7.09,0.59,15.85,1.31,22.38-5.86C1282.07,1572.98,1283.42,1561.34,1283.97,1550.3z"/>
		</g>
	</g>
	<path class="st1" d="M1245.42,1578.28c-0.22,8.56,2.39,7.45,7.61,7.89c7.09,0.59,15.85,1.31,22.38-5.86
		c6.14-6.75,7.77-17.15,8.42-27.37c-0.88-1.2-1.32-1.79-2.19-2.99l-24.94-0.93c0.09,0.07,0.17,0.15,0.26,0.22
		c-1.93,1.17-3.65,2.62-5.1,4.27C1245.59,1560.77,1245.5,1570.93,1245.42,1578.28z"/>
	<path class="st3" d="M1363.94,1588c-0.15,0.94-0.68,1.74-1.42,2.07c-21.34,9.72-45.52,0.73-85.26-35.4
		c-2.12-1.91-2.26-6.61,0.22-8.65c40.94-32.64,65.44-41.07,86.06-30.41c0.55,0.28,0.98,0.83,1.21,1.5l5.22,15.25
		c0.15,0.43,0.2,0.89,0.16,1.35l-1.81,19.5l-1.49,16.24c-0.01,0.07-0.01,0.14-0.03,0.21L1363.94,1588z"/>
	<path class="st4" d="M1277.25,1554.67c39.74,36.14,63.93,45.13,85.26,35.4c0.74-0.34,1.28-1.14,1.42-2.07l2.86-18.34
		c0.01-0.07,0.02-0.14,0.03-0.21l1.49-16.24l0-0.01l-89.51-3.34c-2.11-0.08-3.26,3.23-1.59,4.78
		C1277.23,1554.65,1277.24,1554.66,1277.25,1554.67z"/>
	<path class="st2" d="M1393.19,1563.98c-6.37,7.24-13.33,14.53-20.73,20.02c-2.48,1.81-5.04,3.52-7.68,4.95
		c-0.67,0.36-1.47,0.31-2.1-0.15c-11.66-8.43-17.09-22.47-16.95-36.37c0.25-14,6.27-27.97,17.61-35.69
		c0.65-0.44,1.45-0.47,2.11-0.08c2.56,1.5,5.03,3.29,7.46,5.22c7.49,6.12,14.55,14.26,20.74,22.36c2.15,2.77,3.2,6.42,3.11,9.96
		C1396.66,1557.74,1395.43,1561.31,1393.19,1563.98z"/>
	<g>
		<path class="st5" d="M1345.78,1555.41c0.61,12.89,6.07,25.56,16.89,33.39c0.63,0.46,1.43,0.52,2.1,0.15
			c2.64-1.43,5.2-3.13,7.68-4.95c7.4-5.5,14.37-12.78,20.73-20.02c1.49-1.78,2.53-3.95,3.09-6.24c0.42-1.74-0.6-3.51-2.1-3.57
			l-46.06-1.72C1347.15,1553.66,1346.74,1554.19,1345.78,1555.41z"/>
		<path class="st6" d="M1337.13,1572.77c-2.08,0.71-4.16-0.75-4.74-3.13c-1.42-5.89-2.08-11.89-1.93-17.79
			c0.1-6.1,0.96-12.04,2.46-17.69c0.66-2.4,2.81-3.7,4.85-2.97c1.99,0.8,3.11,3.46,2.45,5.87c-1.32,4.94-2.04,9.96-2.07,15.08
			c-0.13,4.98,0.4,9.99,1.57,14.89C1340.3,1569.55,1339.15,1572.13,1337.13,1572.77z"/>
		<path class="st7" d="M1330.44,1554.6c0.08,5.01,0.74,10.06,1.94,15.04c0.59,2.38,2.67,3.84,4.74,3.13
			c2.02-0.65,3.17-3.23,2.59-5.74c-0.97-4.05-1.5-8.18-1.58-12.3c-0.85-1.07-1.34-1.68-2.19-2.74l-3.17-0.12
			C1331.86,1552.95,1331.36,1553.52,1330.44,1554.6z"/>
	</g>
	<ellipse class="st8" cx="1368.88" cy="1548" rx="3.83" ry="4.64"/>
</g>
<g class="st9">
	<path class="st1" d="M1730.05,234.61c0.61-2.46-0.54-5.05-2.56-5.78l-22.43-11.56c-0.32-0.16-0.66-0.27-1-0.22
		c-1.88,0.24-3.37,2.12-3.43,4.47l-0.5,19.56c-0.14,5.17,2.02,9.73,5.46,12.34c3.45,2.61,7.64,2.83,11.2,0.57
		C1723.15,249.95,1727.98,242.89,1730.05,234.61z"/>
	<g>
		<g>
			<path class="st2" d="M1732.1,163.28c-1.48-9.04-6.09-16.93-12.67-21.64c-3.38-2.42-7.49-2.47-11-0.15
				c-3.61,2.41-5.93,6.97-6.06,11.91l-0.53,20.64c-0.06,2.35,1.33,4.34,3.19,4.72c0.34,0.07,0.69-0.01,1.01-0.15l23.04-9.89
				C1731.16,168.24,1732.51,165.8,1732.1,163.28z"/>
			<path class="st2" d="M1677.74,197.21c0-0.07,0-0.14,0-0.21c-0.19-11.16,1.62-20-5.06-28.76c-5.29-7.09-14.43-10.45-27.91-11.02
				c-2.11-0.01-3.9,2.02-3.96,4.51c-0.37,14.68,1.86,24.87,6.74,31.15c0.25,0.32,0.5,0.64,0.78,0.95c1.05,1.22,0.86,3.26-0.34,4.27
				c-0.85,0.71-1.64,1.49-2.37,2.31c-6.26,7.25-6.35,17.41-6.43,24.76c-0.22,8.56,2.39,7.45,7.61,7.89
				c7.09,0.59,15.85,1.31,22.38-5.86C1675.84,219.89,1677.18,208.25,1677.74,197.21z"/>
		</g>
	</g>
	<path class="st1" d="M1639.18,225.19c-0.22,8.56,2.39,7.45,7.61,7.89c7.09,0.59,15.85,1.31,22.38-5.86
		c6.14-6.75,7.77-17.15,8.42-27.37c-0.88-1.2-1.32-1.79-2.19-2.99l-24.94-0.93c0.09,0.07,0.17,0.15,0.26,0.22
		c-1.93,1.17-3.65,2.62-5.1,4.27C1639.36,207.68,1639.26,217.85,1639.18,225.19z"/>
	<path class="st3" d="M1757.7,234.91c-0.15,0.94-0.68,1.74-1.42,2.07c-21.34,9.72-45.52,0.73-85.26-35.4
		c-2.12-1.91-2.26-6.61,0.22-8.65c40.94-32.64,65.44-41.07,86.06-30.41c0.55,0.28,0.98,0.83,1.21,1.5l5.22,15.25
		c0.15,0.43,0.2,0.89,0.16,1.35l-1.81,19.5l-1.49,16.24c-0.01,0.07-0.01,0.14-0.03,0.21L1757.7,234.91z"/>
	<path class="st4" d="M1671.01,201.58c39.74,36.14,63.93,45.13,85.26,35.4c0.74-0.34,1.28-1.13,1.42-2.07l2.86-18.34
		c0.01-0.07,0.02-0.14,0.03-0.21l1.49-16.24l0-0.01l-89.51-3.34c-2.11-0.08-3.26,3.23-1.59,4.78
		C1670.99,201.56,1671,201.57,1671.01,201.58z"/>
	<path class="st2" d="M1786.96,210.89c-6.37,7.24-13.33,14.53-20.73,20.02c-2.48,1.81-5.04,3.52-7.68,4.95
		c-0.67,0.36-1.47,0.31-2.1-0.15c-11.66-8.43-17.09-22.47-16.95-36.37c0.25-14,6.27-27.97,17.61-35.69
		c0.65-0.44,1.45-0.47,2.11-0.08c2.56,1.5,5.03,3.29,7.46,5.22c7.49,6.12,14.55,14.25,20.74,22.36c2.15,2.77,3.2,6.42,3.11,9.96
		C1790.43,204.66,1789.2,208.22,1786.96,210.89z"/>
	<g>
		<path class="st5" d="M1739.55,202.32c0.61,12.89,6.07,25.56,16.89,33.39c0.63,0.46,1.43,0.52,2.1,0.15
			c2.64-1.43,5.2-3.13,7.68-4.95c7.4-5.5,14.37-12.78,20.73-20.02c1.49-1.78,2.53-3.95,3.09-6.24c0.42-1.74-0.6-3.51-2.1-3.57
			l-46.06-1.72C1740.92,200.58,1740.51,201.1,1739.55,202.32z"/>
		<path class="st6" d="M1730.89,219.69c-2.08,0.71-4.16-0.75-4.74-3.13c-1.42-5.89-2.08-11.89-1.93-17.79
			c0.1-6.1,0.96-12.04,2.46-17.69c0.66-2.4,2.81-3.7,4.85-2.97c1.99,0.8,3.11,3.46,2.45,5.87c-1.32,4.94-2.04,9.96-2.07,15.08
			c-0.13,4.98,0.4,9.99,1.57,14.89C1734.07,216.46,1732.92,219.04,1730.89,219.69z"/>
		<path class="st7" d="M1724.21,201.51c0.08,5.01,0.74,10.06,1.94,15.04c0.59,2.38,2.67,3.84,4.74,3.13
			c2.02-0.65,3.17-3.23,2.59-5.74c-0.97-4.05-1.5-8.18-1.58-12.3c-0.85-1.07-1.34-1.68-2.19-2.74l-3.17-0.12
			C1725.62,199.86,1725.13,200.44,1724.21,201.51z"/>
	</g>
	<ellipse class="st8" cx="1762.64" cy="194.91" rx="3.83" ry="4.64"/>
</g>
<g class="st9">
	<path class="st1" d="M359.24,545.49c0.61-2.46-0.54-5.05-2.56-5.78l-22.43-11.56c-0.32-0.16-0.66-0.27-1-0.22
		c-1.88,0.24-3.37,2.12-3.43,4.47l-0.5,19.56c-0.14,5.17,2.02,9.73,5.46,12.34c3.45,2.61,7.64,2.83,11.2,0.57
		C352.34,560.83,357.17,553.77,359.24,545.49z"/>
	<g>
		<g>
			<path class="st2" d="M361.29,474.16c-1.48-9.04-6.09-16.93-12.67-21.64c-3.38-2.42-7.49-2.47-11-0.15
				c-3.61,2.41-5.93,6.97-6.06,11.91l-0.53,20.64c-0.06,2.35,1.33,4.34,3.19,4.72c0.34,0.07,0.69-0.01,1.01-0.15l23.04-9.89
				C360.35,479.12,361.7,476.68,361.29,474.16z"/>
			<path class="st2" d="M306.93,508.09c0-0.07,0-0.14,0-0.21c-0.19-11.16,1.62-20-5.06-28.76c-5.29-7.09-14.43-10.45-27.91-11.02
				c-2.11-0.01-3.9,2.02-3.96,4.51c-0.37,14.68,1.86,24.87,6.74,31.15c0.25,0.32,0.5,0.64,0.78,0.95c1.05,1.22,0.86,3.26-0.34,4.27
				c-0.85,0.71-1.64,1.49-2.37,2.31c-6.26,7.25-6.35,17.41-6.43,24.76c-0.22,8.56,2.39,7.45,7.61,7.89
				c7.09,0.59,15.85,1.31,22.38-5.86C305.03,530.77,306.37,519.13,306.93,508.09z"/>
		</g>
	</g>
	<path class="st1" d="M268.37,536.07c-0.22,8.56,2.39,7.45,7.61,7.89c7.09,0.59,15.85,1.31,22.38-5.86
		c6.14-6.75,7.77-17.15,8.42-27.37c-0.88-1.2-1.32-1.79-2.19-2.99l-24.94-0.93c0.09,0.07,0.17,0.15,0.26,0.22
		c-1.93,1.17-3.65,2.62-5.1,4.27C268.55,518.56,268.45,528.73,268.37,536.07z"/>
	<path class="st3" d="M386.89,545.79c-0.15,0.94-0.68,1.74-1.42,2.07c-21.34,9.72-45.52,0.73-85.26-35.4
		c-2.12-1.91-2.26-6.61,0.22-8.65c40.94-32.64,65.44-41.07,86.06-30.41c0.55,0.28,0.98,0.83,1.21,1.5l5.22,15.25
		c0.15,0.43,0.2,0.89,0.16,1.35l-1.81,19.5l-1.49,16.24c-0.01,0.07-0.01,0.14-0.03,0.21L386.89,545.79z"/>
	<path class="st4" d="M300.2,512.46c39.74,36.14,63.93,45.13,85.26,35.4c0.74-0.34,1.28-1.13,1.42-2.07l2.86-18.34
		c0.01-0.07,0.02-0.14,0.03-0.21l1.49-16.24l0-0.01l-89.51-3.34c-2.11-0.08-3.26,3.23-1.59,4.78
		C300.18,512.44,300.19,512.45,300.2,512.46z"/>
	<path class="st2" d="M416.15,521.77c-6.37,7.24-13.33,14.53-20.73,20.02c-2.48,1.81-5.04,3.52-7.68,4.95
		c-0.67,0.36-1.47,0.31-2.1-0.15c-11.66-8.43-17.09-22.47-16.95-36.37c0.25-14,6.27-27.97,17.61-35.69
		c0.65-0.44,1.45-0.47,2.11-0.08c2.56,1.5,5.03,3.29,7.46,5.22c7.49,6.12,14.55,14.25,20.74,22.36c2.15,2.77,3.2,6.42,3.11,9.96
		C419.62,515.53,418.39,519.1,416.15,521.77z"/>
	<g>
		<path class="st5" d="M368.74,513.2c0.61,12.89,6.07,25.56,16.89,33.39c0.63,0.46,1.43,0.52,2.1,0.15c2.64-1.42,5.2-3.13,7.68-4.95
			c7.4-5.5,14.37-12.78,20.73-20.02c1.49-1.78,2.53-3.95,3.09-6.24c0.42-1.74-0.6-3.51-2.1-3.57l-46.06-1.72
			C370.11,511.46,369.7,511.98,368.74,513.2z"/>
		<path class="st6" d="M360.08,530.57c-2.08,0.71-4.16-0.75-4.74-3.13c-1.42-5.89-2.08-11.89-1.93-17.79
			c0.1-6.1,0.96-12.04,2.46-17.69c0.66-2.4,2.81-3.7,4.85-2.97c1.99,0.8,3.11,3.46,2.45,5.87c-1.32,4.94-2.04,9.96-2.07,15.08
			c-0.13,4.98,0.4,9.99,1.57,14.89C363.26,527.34,362.11,529.92,360.08,530.57z"/>
		<path class="st7" d="M353.39,512.39c0.08,5.01,0.74,10.06,1.94,15.04c0.59,2.38,2.67,3.84,4.74,3.13
			c2.02-0.65,3.17-3.23,2.59-5.74c-0.97-4.05-1.5-8.18-1.58-12.3c-0.85-1.07-1.34-1.68-2.19-2.74l-3.17-0.12
			C354.81,510.74,354.32,511.32,353.39,512.39z"/>
	</g>
	<ellipse class="st8" cx="391.83" cy="505.79" rx="3.83" ry="4.64"/>
</g>
<g class="st9">
	<path class="st1" d="M464.52,1567.31c0.61-2.46-0.54-5.05-2.56-5.78l-22.91-11.81c-2.12-0.08-3.88,1.93-3.95,4.49l-0.5,19.56
		c-0.14,5.17,2.02,9.73,5.46,12.34c3.45,2.61,7.64,2.83,11.2,0.57C457.63,1582.65,462.46,1575.59,464.52,1567.31z"/>
	<g>
		<g>
			<path class="st2" d="M466.57,1495.99c-1.48-9.04-6.09-16.93-12.67-21.64c-3.38-2.42-7.49-2.47-11-0.15
				c-3.61,2.41-5.93,6.97-6.06,11.91l-0.53,20.64c-0.07,2.56,1.6,4.7,3.71,4.78l23.53-10.1
				C465.63,1500.94,466.99,1498.5,466.57,1495.99z"/>
			<path class="st2" d="M412.22,1529.81C412.22,1529.81,412.22,1529.81,412.22,1529.81c-0.2-11.21,1.63-20.08-5.06-28.86
				c-5.29-7.09-14.43-10.45-27.91-11.02c-2.11-0.01-3.9,2.02-3.96,4.51c-0.37,14.68,1.86,24.87,6.74,31.15
				c0.84,1.08,1.74,2.1,3.17,3.27c-1.93,1.17-3.65,2.62-5.1,4.27c-6.26,7.25-6.35,17.41-6.43,24.76c-0.22,8.56,2.39,7.45,7.61,7.89
				c7.09,0.59,15.85,1.31,22.38-5.86C410.34,1552.57,411.66,1540.88,412.22,1529.81z"/>
		</g>
	</g>
	<path class="st1" d="M373.66,1557.89c-0.22,8.56,2.39,7.45,7.61,7.89c7.09,0.59,15.85,1.31,22.38-5.86
		c6.72-7.39,8.03-19.15,8.58-30.26c0,0-0.01-0.01-0.01-0.01l-27.29-1.02c0.09,0.07,0.17,0.15,0.26,0.22
		c-1.93,1.17-3.65,2.62-5.1,4.27C373.84,1540.38,373.74,1550.55,373.66,1557.89z"/>
	<path class="st3" d="M491.94,1569.13c-21.63,10.61-45.97,1.97-86.45-34.84c-2.12-1.91-2.26-6.61,0.22-8.65
		c41.51-33.09,66.11-41.3,86.91-29.96l5.8,16.95c0,0,0,0,0,0l-1.87,20.2l-1.5,16.35c0,0,0,0,0,0L491.94,1569.13z"/>
	<path class="st4" d="M405.49,1534.28c40.48,36.81,64.82,45.45,86.45,34.84l3.11-19.96c0,0,0,0,0,0l1.5-16.35l0-0.01l-96.61-3.61
		L405.49,1534.28z"/>
	<path class="st2" d="M521.43,1543.59c-6.37,7.24-13.33,14.53-20.73,20.02c-2.82,2.06-5.74,3.98-8.76,5.51
		c-12.37-8.33-18.12-22.79-17.98-37.08c0.26-14.42,6.64-28.82,18.66-36.37c2.94,1.62,5.76,3.63,8.53,5.83
		c7.49,6.12,14.55,14.26,20.74,22.36c2.15,2.77,3.2,6.42,3.11,9.96C524.9,1537.36,523.67,1540.92,521.43,1543.59z"/>
	<g>
		<path class="st5" d="M473.97,1531.97c-0.17,14.32,5.59,28.8,17.97,37.15c3.02-1.53,5.94-3.45,8.76-5.51
			c7.4-5.5,14.37-12.78,20.73-20.02c2.22-2.66,3.45-6.19,3.55-9.71c0,0,0,0,0,0L473.97,1531.97
			C473.97,1531.97,473.97,1531.97,473.97,1531.97z"/>
		<path class="st6" d="M465.37,1552.39c-2.08,0.71-4.16-0.75-4.74-3.13c-1.42-5.89-2.08-11.89-1.93-17.79
			c0.1-6.1,0.96-12.04,2.46-17.69c0.66-2.4,2.81-3.7,4.85-2.97c1.99,0.8,3.11,3.46,2.45,5.87c-1.32,4.94-2.04,9.96-2.07,15.08
			c-0.13,4.98,0.4,9.99,1.57,14.89C468.54,1549.16,467.39,1551.74,465.37,1552.39z"/>
		<path class="st7" d="M458.69,1531.4c-0.16,5.92,0.5,11.94,1.93,17.86c0.59,2.38,2.67,3.84,4.74,3.13
			c2.02-0.65,3.17-3.23,2.59-5.74c-1.18-4.92-1.7-9.95-1.57-14.96c0,0,0,0,0,0L458.69,1531.4
			C458.69,1531.4,458.69,1531.4,458.69,1531.4z"/>
	</g>
	<ellipse class="st8" cx="497.12" cy="1527.62" rx="3.83" ry="4.64"/>
</g>
<g>
	<path class="st1" d="M583.2,1251.93c0.91-3.69-0.81-7.57-3.84-8.66l-34.3-17.69c-0.01-0.01-0.03-0.01-0.05-0.01
		c-3.16-0.1-5.79,2.9-5.89,6.73l-0.74,29.31c-0.2,7.75,3.03,14.58,8.19,18.48c5.18,3.92,11.45,4.24,16.78,0.85
		C572.87,1274.92,580.11,1264.35,583.2,1251.93z"/>
	<g>
		<g>
			<path class="st2" d="M586.28,1145.07c-2.22-13.55-9.13-25.36-18.99-32.43c-5.07-3.63-11.23-3.71-16.48-0.22
				c-5.41,3.6-8.89,10.44-9.08,17.85l-0.79,30.93c-0.1,3.83,2.38,7.02,5.54,7.16c0.02,0,0.03,0,0.05-0.01l35.24-15.12
				C584.87,1152.49,586.89,1148.84,586.28,1145.07z"/>
			<path class="st2" d="M504.84,1195.75c-0.3-16.79,2.45-30.09-7.59-43.24c-7.93-10.62-21.61-15.65-41.82-16.5
				c-3.17-0.02-5.84,3.03-5.94,6.76c-0.56,22,2.79,37.26,10.1,46.68c1.25,1.61,2.58,3.12,4.7,4.86c0.02,0.02,0.02,0.05,0,0.06
				c-2.87,1.75-5.43,3.91-7.59,6.37c-9.37,10.86-9.52,26.09-9.64,37.09c-0.33,12.82,3.58,11.16,11.4,11.83
				c10.62,0.89,23.75,1.97,33.53-8.77C502.02,1229.86,504.01,1212.33,504.84,1195.75z"/>
		</g>
	</g>
	<path class="st1" d="M447.06,1237.83c-0.33,12.82,3.58,11.16,11.4,11.83c10.62,0.89,23.75,1.97,33.53-8.77
		c10.07-11.07,12.04-28.7,12.86-45.34c0-0.01-0.01-0.01-0.01-0.01l-40.89-1.53c0.13,0.11,0.26,0.22,0.4,0.33
		c-2.89,1.76-5.46,3.92-7.64,6.4C447.33,1211.59,447.18,1226.82,447.06,1237.83z"/>
	<path class="st3" d="M624.29,1254.65c0,0.01,0,0.01-0.01,0.01c-32.41,15.89-68.87,2.94-129.52-52.21
		c-3.17-2.87-3.38-9.9,0.33-12.96c62.18-49.58,99.05-61.88,130.21-44.89c0,0,0.01,0.01,0.01,0.01l8.69,25.38l-2.8,30.27l-2.25,24.49
		L624.29,1254.65z"/>
	<path class="st4" d="M494.76,1202.45c60.65,55.15,97.11,68.1,129.52,52.21c0,0,0.01-0.01,0.01-0.01l4.66-29.9l2.25-24.49l0-0.01
		l-144.75-5.41L494.76,1202.45z"/>
	<path class="st2" d="M668.47,1216.4c-9.54,10.85-19.97,21.76-31.06,30c-4.21,3.08-8.58,5.96-13.09,8.24
		c-0.02,0.01-0.05,0.01-0.07,0c-18.5-12.49-27.12-34.13-26.9-55.54c0.39-21.6,9.94-43.15,27.92-54.48c0.02-0.01,0.04-0.01,0.06,0
		c4.39,2.42,8.61,5.42,12.74,8.72c11.22,9.17,21.79,21.36,31.07,33.5c3.22,4.15,4.79,9.62,4.66,14.92
		C673.67,1207.06,671.83,1212.4,668.47,1216.4z"/>
	<g>
		<path class="st5" d="M597.35,1198.99c-0.25,21.44,8.36,43.13,26.9,55.65c0.02,0.01,0.05,0.02,0.07,0
			c4.51-2.29,8.88-5.16,13.09-8.24c11.09-8.24,21.53-19.15,31.06-30c3.33-3.98,5.17-9.27,5.32-14.54c0-0.01-0.01-0.02-0.01-0.02
			L597.35,1198.99z"/>
		<path class="st6" d="M584.47,1229.58c-3.11,1.06-6.23-1.12-7.11-4.69c-2.13-8.83-3.12-17.81-2.89-26.65
			c0.15-9.14,1.43-18.03,3.68-26.5c0.99-3.6,4.2-5.54,7.26-4.45c2.98,1.19,4.66,5.19,3.67,8.79c-1.98,7.4-3.06,14.93-3.09,22.59
			c-0.19,7.46,0.59,14.96,2.36,22.3C589.22,1224.74,587.5,1228.61,584.47,1229.58z"/>
		<path class="st7" d="M577.36,1224.89c0.88,3.57,4,5.75,7.11,4.69c3.03-0.97,4.75-4.84,3.87-8.6c-1.77-7.38-2.55-14.91-2.35-22.41
			l-11.52-0.43C574.23,1207.01,575.22,1216.03,577.36,1224.89z"/>
	</g>
	<ellipse class="st8" cx="632.04" cy="1192.46" rx="5.74" ry="6.95"/>
</g>
<g>
	<path class="st1" d="M1682.38,1325.83c0.91-3.69-0.81-7.57-3.84-8.66l-34.3-17.69c-0.01-0.01-0.03-0.01-0.05-0.01
		c-3.16-0.1-5.79,2.9-5.89,6.73l-0.74,29.31c-0.2,7.75,3.03,14.58,8.19,18.48c5.18,3.92,11.45,4.24,16.78,0.85
		C1672.05,1348.82,1679.28,1338.24,1682.38,1325.83z"/>
	<g>
		<g>
			<path class="st2" d="M1685.45,1218.97c-2.22-13.55-9.13-25.36-18.99-32.43c-5.07-3.63-11.23-3.71-16.48-0.22
				c-5.41,3.6-8.89,10.44-9.08,17.85l-0.79,30.93c-0.1,3.83,2.38,7.02,5.54,7.16c0.02,0,0.03,0,0.05-0.01l35.24-15.12
				C1684.04,1226.39,1686.07,1222.74,1685.45,1218.97z"/>
			<path class="st2" d="M1604.01,1269.65c-0.3-16.79,2.45-30.09-7.59-43.24c-7.93-10.62-21.61-15.65-41.82-16.5
				c-3.17-0.02-5.84,3.03-5.94,6.76c-0.56,22,2.79,37.26,10.1,46.68c1.25,1.61,2.58,3.12,4.7,4.86c0.02,0.02,0.02,0.05,0,0.06
				c-2.87,1.75-5.43,3.91-7.59,6.37c-9.37,10.86-9.52,26.09-9.64,37.09c-0.33,12.82,3.58,11.16,11.4,11.83
				c10.62,0.89,23.75,1.97,33.53-8.77C1601.19,1303.75,1603.18,1286.23,1604.01,1269.65z"/>
		</g>
	</g>
	<path class="st1" d="M1546.24,1311.73c-0.33,12.82,3.58,11.16,11.4,11.83c10.62,0.89,23.75,1.97,33.53-8.77
		c10.07-11.07,12.04-28.7,12.86-45.34c0-0.01-0.01-0.01-0.01-0.01l-40.89-1.53c0.13,0.11,0.26,0.22,0.4,0.33
		c-2.89,1.76-5.46,3.92-7.64,6.4C1546.5,1285.49,1546.36,1300.72,1546.24,1311.73z"/>
	<path class="st3" d="M1723.46,1328.55c0,0.01,0,0.01-0.01,0.01c-32.41,15.89-68.87,2.94-129.52-52.21
		c-3.17-2.87-3.38-9.9,0.33-12.96c62.18-49.58,99.05-61.88,130.21-44.89c0,0,0.01,0.01,0.01,0.01l8.69,25.38l-2.8,30.27l-2.25,24.49
		L1723.46,1328.55z"/>
	<path class="st4" d="M1593.93,1276.35c60.65,55.15,97.11,68.1,129.52,52.21c0,0,0.01-0.01,0.01-0.01l4.66-29.9l2.25-24.49l0-0.01
		l-144.75-5.41L1593.93,1276.35z"/>
	<path class="st2" d="M1767.65,1290.3c-9.54,10.85-19.97,21.76-31.06,30c-4.21,3.08-8.58,5.96-13.09,8.24
		c-0.02,0.01-0.05,0.01-0.07,0c-18.5-12.49-27.12-34.13-26.9-55.54c0.39-21.6,9.94-43.15,27.92-54.48c0.02-0.01,0.04-0.01,0.06,0
		c4.39,2.42,8.61,5.42,12.74,8.72c11.22,9.17,21.79,21.36,31.07,33.5c3.22,4.15,4.79,9.62,4.66,14.92
		C1772.84,1280.96,1771,1286.29,1767.65,1290.3z"/>
	<g>
		<path class="st5" d="M1696.53,1272.89c-0.25,21.44,8.36,43.13,26.9,55.65c0.02,0.01,0.05,0.02,0.07,0
			c4.51-2.29,8.88-5.16,13.09-8.24c11.09-8.24,21.53-19.15,31.06-30c3.33-3.98,5.17-9.27,5.32-14.54c0-0.01-0.01-0.02-0.01-0.02
			L1696.53,1272.89z"/>
		<path class="st6" d="M1683.65,1303.48c-3.11,1.06-6.23-1.12-7.11-4.69c-2.13-8.83-3.12-17.81-2.89-26.65
			c0.15-9.14,1.43-18.03,3.68-26.5c0.99-3.6,4.2-5.54,7.26-4.45c2.98,1.19,4.66,5.19,3.67,8.79c-1.98,7.4-3.06,14.93-3.09,22.59
			c-0.19,7.46,0.59,14.96,2.36,22.3C1688.4,1298.64,1686.68,1302.51,1683.65,1303.48z"/>
		<path class="st7" d="M1676.54,1298.79c0.88,3.57,4,5.75,7.11,4.69c3.03-0.97,4.75-4.84,3.87-8.6c-1.77-7.37-2.55-14.91-2.35-22.41
			l-11.52-0.43C1673.41,1280.9,1674.4,1289.92,1676.54,1298.79z"/>
	</g>
	<ellipse class="st8" cx="1731.21" cy="1266.36" rx="5.74" ry="6.95"/>
</g>
<g class="st10">
	<path class="st1" d="M1389.68,581.76c0.91-3.69-0.81-7.57-3.84-8.66l-34.3-17.69c-0.01-0.01-0.03-0.01-0.05-0.01
		c-3.16-0.1-5.79,2.9-5.89,6.73l-0.74,29.31c-0.2,7.75,3.03,14.58,8.19,18.48c5.18,3.92,11.45,4.24,16.78,0.85
		C1379.36,604.75,1386.59,594.17,1389.68,581.76z"/>
	<g>
		<g>
			<path class="st2" d="M1392.76,474.9c-2.22-13.55-9.13-25.36-18.99-32.43c-5.07-3.63-11.23-3.71-16.48-0.22
				c-5.41,3.6-8.89,10.44-9.08,17.85l-0.79,30.93c-0.1,3.83,2.38,7.02,5.54,7.16c0.02,0,0.03,0,0.05-0.01l35.24-15.12
				C1391.35,482.32,1393.38,478.67,1392.76,474.9z"/>
			<path class="st2" d="M1311.32,525.58c-0.3-16.79,2.45-30.09-7.59-43.24c-7.93-10.62-21.61-15.65-41.82-16.5
				c-3.17-0.02-5.84,3.03-5.94,6.76c-0.56,22,2.79,37.26,10.1,46.68c1.25,1.61,2.58,3.12,4.7,4.86c0.02,0.02,0.02,0.05,0,0.06
				c-2.87,1.75-5.43,3.91-7.59,6.37c-9.37,10.86-9.52,26.09-9.64,37.09c-0.33,12.82,3.58,11.16,11.4,11.83
				c10.62,0.89,23.75,1.97,33.53-8.77C1308.5,559.68,1310.49,542.16,1311.32,525.58z"/>
		</g>
	</g>
	<path class="st1" d="M1253.55,567.66c-0.33,12.82,3.58,11.16,11.4,11.83c10.62,0.89,23.75,1.97,33.53-8.77
		c10.07-11.07,12.04-28.7,12.86-45.34c0-0.01-0.01-0.01-0.01-0.01l-40.89-1.53c0.13,0.11,0.26,0.22,0.4,0.33
		c-2.89,1.76-5.46,3.92-7.64,6.4C1253.81,541.42,1253.67,556.65,1253.55,567.66z"/>
	<path class="st3" d="M1430.77,584.48c0,0.01,0,0.01-0.01,0.01c-32.41,15.89-68.87,2.94-129.52-52.21
		c-3.17-2.87-3.38-9.9,0.33-12.96c62.18-49.58,99.05-61.88,130.21-44.89c0,0,0.01,0.01,0.01,0.01l8.69,25.38l-2.8,30.27l-2.25,24.49
		L1430.77,584.48z"/>
	<path class="st4" d="M1301.24,532.28c60.65,55.15,97.11,68.1,129.52,52.21c0,0,0.01-0.01,0.01-0.01l4.66-29.9l2.25-24.49l0-0.01
		l-144.75-5.41L1301.24,532.28z"/>
	<path class="st2" d="M1474.96,546.23c-9.54,10.85-19.97,21.76-31.06,30c-4.21,3.08-8.58,5.96-13.09,8.24
		c-0.02,0.01-0.05,0.01-0.07,0c-18.5-12.49-27.12-34.13-26.9-55.54c0.39-21.6,9.94-43.15,27.92-54.48c0.02-0.01,0.04-0.01,0.06,0
		c4.39,2.42,8.61,5.42,12.74,8.72c11.22,9.17,21.79,21.36,31.07,33.5c3.22,4.15,4.79,9.62,4.66,14.92
		C1480.15,536.89,1478.31,542.22,1474.96,546.23z"/>
	<g>
		<path class="st5" d="M1403.84,528.82c-0.25,21.44,8.36,43.13,26.9,55.65c0.02,0.01,0.05,0.02,0.07,0
			c4.51-2.29,8.88-5.16,13.09-8.24c11.09-8.24,21.53-19.15,31.06-30c3.33-3.98,5.17-9.27,5.32-14.54c0-0.01-0.01-0.02-0.01-0.02
			L1403.84,528.82z"/>
		<path class="st6" d="M1390.95,559.41c-3.11,1.06-6.23-1.12-7.11-4.69c-2.13-8.83-3.12-17.81-2.89-26.65
			c0.15-9.14,1.43-18.03,3.68-26.5c0.99-3.6,4.2-5.54,7.26-4.45c2.98,1.19,4.66,5.19,3.67,8.79c-1.98,7.4-3.06,14.93-3.09,22.59
			c-0.19,7.46,0.59,14.96,2.36,22.3C1395.71,554.57,1393.98,558.44,1390.95,559.41z"/>
		<path class="st7" d="M1383.84,554.72c0.88,3.57,4,5.75,7.11,4.69c3.03-0.97,4.75-4.84,3.87-8.6c-1.77-7.37-2.55-14.91-2.35-22.41
			l-11.52-0.43C1380.72,536.83,1381.7,545.85,1383.84,554.72z"/>
	</g>
	<ellipse class="st8" cx="1438.52" cy="522.29" rx="5.74" ry="6.95"/>
</g>
<g>
	<polygon class="st11" points="1408.91,907.18 1435.04,1058.72 1379.43,1072.76 1353.29,921.23 	"/>
	<polygon class="st12" points="1408.91,907.18 1435.04,1058.72 1407.06,1065.79 1380.92,914.25 	"/>
	<ellipse class="st12" cx="1394.03" cy="990.23" rx="20.22" ry="24.46"/>
	<path class="st4" d="M1413.82,985.24c-2.28-13.23-12.99-21.71-23.92-18.95l8.26,47.9C1409.09,1011.42,1416.1,998.46,1413.82,985.24
		z"/>
	<path class="st12" d="M1406.44,913.47l24.26,140.68l-48.8,12.32l-24.26-140.68L1406.44,913.47z M1428.53,1052.43l-23.51-136.34
		l-45.21,11.42l23.51,136.34L1428.53,1052.43z"/>
	<path class="st4" d="M1383.13,921.62l21.89-5.53l23.51,136.34l-21.89,5.53c-0.5,0.13-0.81,0.71-0.71,1.31l0,0
		c0.1,0.6,0.59,0.98,1.08,0.86l23.68-5.98l-24.26-140.68l-23.68,5.98c-0.5,0.13-0.81,0.71-0.71,1.31l0,0
		C1382.15,921.36,1382.63,921.75,1383.13,921.62z"/>
</g>
<g>
	<polygon class="st11" points="1651.42,684.66 1602.05,827.47 1549.64,800.94 1599,658.13 	"/>
	<polygon class="st12" points="1651.42,684.66 1602.05,827.47 1575.67,814.12 1625.04,671.31 	"/>
	<ellipse class="st12" cx="1600.29" cy="742.92" rx="20.22" ry="24.46"/>
	<path class="st4" d="M1618.94,752.36c4.31-12.46-0.55-26.8-10.85-32.01l-15.6,45.14C1602.79,770.7,1614.63,764.82,1618.94,752.36z"
		/>
	<path class="st12" d="M1646.44,688.15l-45.83,132.58l-45.99-23.28l45.83-132.58L1646.44,688.15z M1599.62,817.83l44.42-128.49
		l-42.61-21.57l-44.42,128.49L1599.62,817.83z"/>
	<path class="st4" d="M1623.41,678.9l20.63,10.44l-44.42,128.49L1579,807.39c-0.47-0.24-1,0.03-1.2,0.6l0,0
		c-0.2,0.57,0.02,1.21,0.49,1.45l22.32,11.3l45.83-132.58l-22.32-11.3c-0.47-0.24-1,0.03-1.2,0.6l0,0
		C1622.72,678.01,1622.94,678.66,1623.41,678.9z"/>
</g>
<g>
	<polygon class="st11" points="1730.9,403.33 1786.61,542.69 1735.47,572.63 1679.76,433.27 	"/>
	<polygon class="st12" points="1730.9,403.33 1786.61,542.69 1760.88,557.75 1705.17,418.4 	"/>
	<ellipse class="st12" cx="1733.1" cy="488.28" rx="20.22" ry="24.46"/>
	<path class="st4" d="M1751.3,477.62c-4.86-12.16-16.95-17.25-27-11.37l17.61,44.05C1751.96,504.41,1756.16,489.78,1751.3,477.62z"
		/>
	<path class="st12" d="M1729.76,410.16l51.72,129.37l-44.87,26.27l-51.72-129.37L1729.76,410.16z M1779.03,538.5l-50.12-125.38
		l-41.57,24.34l50.12,125.38L1779.03,538.5z"/>
	<path class="st4" d="M1708.79,424.9l20.13-11.78l50.12,125.38l-20.13,11.78c-0.46,0.27-0.65,0.93-0.43,1.48l0,0
		c0.22,0.55,0.77,0.78,1.22,0.52l21.78-12.75l-51.72-129.37l-21.78,12.75c-0.46,0.27-0.65,0.93-0.43,1.48l0,0
		C1707.78,424.94,1708.33,425.17,1708.79,424.9z"/>
</g>
<g>
	<polygon class="st11" points="322.56,866.36 397.65,991.68 351.66,1032.04 276.56,906.72 	"/>
	<polygon class="st12" points="322.56,866.36 397.65,991.68 374.51,1011.99 299.41,886.67 	"/>
	<ellipse class="st12" cx="337.07" cy="949.51" rx="20.22" ry="24.46"/>
	<path class="st4" d="M353.43,935.15c-6.55-10.94-19.2-13.37-28.23-5.44l23.74,39.61C357.97,961.38,359.99,946.09,353.43,935.15z"/>
	<path class="st12" d="M322.43,873.32l69.72,116.34l-40.36,35.41l-69.72-116.34L322.43,873.32z M389.58,989.17l-67.57-112.75
		l-37.39,32.81l67.57,112.75L389.58,989.17z"/>
	<path class="st4" d="M303.92,892.3l18.1-15.88l67.57,112.75l-18.1,15.88c-0.41,0.36-0.5,1.05-0.2,1.55l0,0
		c0.3,0.5,0.87,0.61,1.28,0.25l19.58-17.19l-69.72-116.34l-19.58,17.19c-0.41,0.36-0.5,1.05-0.2,1.55l0,0
		C302.94,892.55,303.51,892.66,303.92,892.3z"/>
</g>
<g>
	<polygon class="st11" points="1618.81,1517.4 1586.71,1667.25 1531.71,1650 1563.81,1500.15 	"/>
	<polygon class="st12" points="1618.81,1517.4 1586.71,1667.25 1559.03,1658.57 1591.13,1508.72 	"/>
	<ellipse class="st12" cx="1575.04" cy="1583.86" rx="20.22" ry="24.46"/>
	<path class="st4" d="M1594.61,1590c2.8-13.08-3.69-26.43-14.5-29.82l-10.14,47.36C1580.77,1610.93,1591.8,1603.08,1594.61,1590z"/>
	<path class="st12" d="M1614.29,1521.71l-29.8,139.12l-48.25-15.14l29.8-139.12L1614.29,1521.71z M1583.17,1658.12l28.88-134.82
		l-44.71-14.02l-28.88,134.82L1583.17,1658.12z"/>
	<path class="st4" d="M1590.41,1516.51l21.64,6.79l-28.88,134.82l-21.64-6.79c-0.49-0.15-0.99,0.2-1.12,0.8l0,0
		c-0.13,0.59,0.17,1.2,0.66,1.35l23.42,7.35l29.8-139.12l-23.42-7.35c-0.49-0.15-0.99,0.2-1.12,0.8l0,0
		C1589.62,1515.75,1589.92,1516.36,1590.41,1516.51z"/>
</g>
<g>
	<polygon class="st11" points="1285.42,171.96 1259.54,323.56 1203.91,309.65 1229.78,158.05 	"/>
	<polygon class="st12" points="1285.42,171.96 1259.54,323.56 1231.55,316.56 1257.42,164.96 	"/>
	<ellipse class="st12" cx="1244.45" cy="240.98" rx="20.22" ry="24.46"/>
	<path class="st4" d="M1264.25,245.93c2.26-13.23-4.77-26.17-15.71-28.91l-8.18,47.92C1251.29,267.67,1261.99,259.16,1264.25,245.93
		z"/>
	<path class="st12" d="M1281.09,176.54l-24.02,140.74l-48.82-12.2l24.02-140.74L1281.09,176.54z M1255.64,314.66l23.28-136.4
		l-45.23-11.31l-23.28,136.4L1255.64,314.66z"/>
	<path class="st4" d="M1257.02,172.79l21.9,5.47l-23.28,136.4l-21.9-5.47c-0.5-0.12-0.98,0.26-1.08,0.86l0,0
		c-0.1,0.6,0.22,1.19,0.71,1.31l23.69,5.92l24.02-140.74l-23.69-5.92c-0.5-0.12-0.98,0.26-1.08,0.86l0,0
		C1256.21,172.08,1256.53,172.66,1257.02,172.79z"/>
</g>
<g>
	<polygon class="st11" points="966.72,1481.83 876.37,1591.42 836.15,1542.87 926.5,1433.28 	"/>
	<polygon class="st12" points="966.72,1481.83 876.37,1591.42 856.13,1566.99 946.48,1457.4 	"/>
	<ellipse class="st12" cx="901.18" cy="1512.35" rx="20.22" ry="24.46"/>
	<path class="st4" d="M915.49,1529.63c7.89-9.57,7.87-25.06-0.03-34.6l-28.56,34.64C894.8,1539.21,907.6,1539.19,915.49,1529.63z"/>
	<path class="st12" d="M961.02,1482.78l-83.88,101.74l-35.29-42.61l83.88-101.74L961.02,1482.78z M877.14,1581.39l81.29-98.6
		l-32.7-39.47l-81.29,98.6L877.14,1581.39z"/>
	<path class="st4" d="M942.6,1463.68l15.83,19.11l-81.29,98.6l-15.83-19.11c-0.36-0.43-0.94-0.43-1.3,0l0,0
		c-0.36,0.43-0.36,1.14,0,1.57l17.13,20.68l83.88-101.74l-17.13-20.68c-0.36-0.43-0.94-0.43-1.3,0l0,0
		C942.24,1462.54,942.24,1463.24,942.6,1463.68z"/>
</g>
<g>
	<polygon class="st11" points="583.48,638.38 493.13,747.98 452.91,699.42 543.26,589.83 	"/>
	<polygon class="st12" points="583.48,638.38 493.13,747.98 472.89,723.54 563.24,613.95 	"/>
	<ellipse class="st12" cx="517.94" cy="668.9" rx="20.22" ry="24.46"/>
	<path class="st4" d="M532.25,686.18c7.89-9.57,7.87-25.06-0.03-34.6l-28.56,34.64C511.56,695.76,524.36,695.74,532.25,686.18z"/>
	<path class="st12" d="M577.78,639.33L493.9,741.07l-35.29-42.61l83.88-101.74L577.78,639.33z M493.9,737.94l81.29-98.6l-32.7-39.47
		l-81.29,98.6L493.9,737.94z"/>
	<path class="st4" d="M559.36,620.23l15.83,19.11l-81.29,98.6l-15.83-19.11c-0.36-0.43-0.94-0.43-1.3,0l0,0
		c-0.36,0.43-0.36,1.14,0,1.57l17.13,20.68l83.88-101.74l-17.13-20.68c-0.36-0.43-0.94-0.43-1.3,0l0,0
		C559,619.09,559,619.79,559.36,620.23z"/>
</g>
<g class="st9">
	<polygon class="st11" points="715.76,1334.79 756.83,1419.72 720.72,1445.29 679.65,1360.35 	"/>
	<polygon class="st12" points="715.76,1334.79 756.83,1419.72 738.66,1432.59 697.59,1347.65 	"/>
	
		<ellipse transform="matrix(0.3978 -0.9175 0.9175 0.3978 -843.0217 1496.0743)" class="st12" cx="718.18" cy="1390.24" rx="16.61" ry="13.94"/>
	<path class="st4" d="M731.03,1381.14c-3.58-7.41-12.24-9.35-19.34-4.33l12.98,26.85C731.77,1398.64,734.61,1388.56,731.03,1381.14z
		"/>
	<path class="st12" d="M715.02,1339.4l38.12,78.85l-31.68,22.43l-38.12-78.85L715.02,1339.4z M751.39,1417.86l-36.95-76.42
		l-29.35,20.78l36.95,76.42L751.39,1417.86z"/>
	<path class="st4" d="M700.23,1351.5l14.21-10.06l36.95,76.42l-14.21,10.06c-0.32,0.23-0.45,0.68-0.29,1.02l0,0
		c0.16,0.34,0.55,0.42,0.88,0.2l15.37-10.89l-38.12-78.85l-15.37,10.89c-0.32,0.23-0.45,0.68-0.29,1.02l0,0
		C699.52,1351.64,699.91,1351.73,700.23,1351.5z"/>
</g>
<g class="st9">
	<polygon class="st11" points="1211.13,1302.04 1192.58,1397.85 1151.85,1386.3 1170.4,1290.49 	"/>
	<polygon class="st12" points="1211.13,1302.04 1192.58,1397.85 1172.09,1392.04 1190.64,1296.23 	"/>
	
		<ellipse transform="matrix(0.9143 -0.4051 0.4051 0.9143 -443.3024 593.8251)" class="st12" cx="1181.34" cy="1344.27" rx="14.56" ry="15.9"/>
	<path class="st4" d="M1195.83,1348.38c1.62-8.36-3.56-16.98-11.56-19.25l-5.86,30.28
		C1186.41,1361.68,1194.21,1356.74,1195.83,1348.38z"/>
	<path class="st12" d="M1207.97,1304.76l-17.22,88.95l-35.74-10.13l17.22-88.95L1207.97,1304.76z M1189.7,1391.97l16.69-86.2
		l-33.11-9.39l-16.69,86.2L1189.7,1391.97z"/>
	<path class="st4" d="M1190.36,1301.22l16.03,4.54l-16.69,86.2l-16.03-4.54c-0.36-0.1-0.72,0.12-0.79,0.5l0,0
		c-0.07,0.38,0.16,0.77,0.52,0.87l17.34,4.92l17.22-88.95l-17.34-4.92c-0.36-0.1-0.72,0.12-0.79,0.5l0,0
		C1189.77,1300.72,1190,1301.11,1190.36,1301.22z"/>
</g>
<g class="st9">
	<polygon class="st11" points="619.43,879.04 600.88,974.85 560.15,963.3 578.7,867.49 	"/>
	<polygon class="st12" points="619.43,879.04 600.88,974.85 580.38,969.04 598.94,873.23 	"/>
	
		<ellipse transform="matrix(0.9143 -0.4051 0.4051 0.9143 -322.6685 317.8531)" class="st12" cx="589.63" cy="921.27" rx="14.56" ry="15.9"/>
	<path class="st4" d="M604.13,925.38c1.62-8.36-3.56-16.98-11.56-19.25l-5.86,30.28C594.71,938.68,602.51,933.74,604.13,925.38z"/>
	<path class="st12" d="M616.27,881.76l-17.22,88.95l-35.74-10.13l17.22-88.95L616.27,881.76z M598,968.97l16.69-86.2l-33.11-9.39
		l-16.69,86.2L598,968.97z"/>
	<path class="st4" d="M598.66,878.22l16.03,4.54L598,968.97l-16.03-4.54c-0.36-0.1-0.72,0.12-0.79,0.5l0,0
		c-0.07,0.38,0.16,0.77,0.52,0.87l17.34,4.92l17.22-88.95l-17.34-4.92c-0.36-0.1-0.72,0.12-0.79,0.5l0,0
		C598.07,877.72,598.3,878.12,598.66,878.22z"/>
</g>
<g class="st9">
	<polygon class="st11" points="1421.7,698.12 1403.15,793.93 1362.42,782.38 1380.97,686.57 	"/>
	<polygon class="st12" points="1421.7,698.12 1403.15,793.93 1382.66,788.12 1401.21,692.31 	"/>
	
		<ellipse transform="matrix(0.9143 -0.4051 0.4051 0.9143 -180.5929 627.3536)" class="st12" cx="1391.91" cy="740.35" rx="14.56" ry="15.9"/>
	<path class="st4" d="M1406.4,744.46c1.62-8.36-3.56-16.98-11.56-19.25l-5.86,30.28C1396.98,757.76,1404.78,752.82,1406.4,744.46z"
		/>
	<path class="st12" d="M1418.54,700.84l-17.22,88.95l-35.74-10.13l17.22-88.95L1418.54,700.84z M1400.27,788.05l16.69-86.2
		l-33.11-9.39l-16.69,86.2L1400.27,788.05z"/>
	<path class="st4" d="M1400.93,697.3l16.03,4.54l-16.69,86.2l-16.03-4.54c-0.36-0.1-0.72,0.12-0.79,0.5l0,0
		c-0.07,0.38,0.16,0.77,0.52,0.87l17.34,4.92l17.22-88.95l-17.34-4.92c-0.36-0.1-0.72,0.12-0.79,0.5l0,0
		C1400.34,696.8,1400.57,697.19,1400.93,697.3z"/>
</g>
<g class="st9">
	<polygon class="st11" points="1750.19,917.26 1731.64,1013.07 1690.91,1001.53 1709.46,905.71 	"/>
	<polygon class="st12" points="1750.19,917.26 1731.64,1013.07 1711.15,1007.26 1729.7,911.45 	"/>
	
		<ellipse transform="matrix(0.9143 -0.4051 0.4051 0.9143 -241.2085 779.2172)" class="st12" cx="1720.39" cy="959.49" rx="14.56" ry="15.9"/>
	<path class="st4" d="M1734.89,963.6c1.62-8.36-3.56-16.98-11.56-19.25l-5.86,30.28C1725.47,976.91,1733.27,971.97,1734.89,963.6z"
		/>
	<path class="st12" d="M1747.03,919.99l-17.22,88.95l-35.74-10.13l17.22-88.95L1747.03,919.99z M1728.76,1007.19l16.69-86.2
		l-33.11-9.39l-16.69,86.2L1728.76,1007.19z"/>
	<path class="st4" d="M1729.42,916.44l16.03,4.54l-16.69,86.2l-16.03-4.54c-0.36-0.1-0.72,0.12-0.79,0.5l0,0
		c-0.07,0.38,0.16,0.77,0.52,0.87l17.34,4.92l17.22-88.95l-17.34-4.92c-0.36-0.1-0.72,0.12-0.79,0.5l0,0
		C1728.83,915.95,1729.06,916.34,1729.42,916.44z"/>
</g>
<g class="st9">
	<polygon class="st11" points="1819.61,1499.3 1839,1594.87 1798.37,1606.94 1778.98,1511.37 	"/>
	<polygon class="st12" points="1819.61,1499.3 1839,1594.87 1818.56,1600.94 1799.17,1505.38 	"/>
	
		<ellipse transform="matrix(0.4091 -0.9125 0.9125 0.4091 -348.5182 2568.3865)" class="st12" cx="1808.89" cy="1553.3" rx="15.93" ry="14.54"/>
	<path class="st4" d="M1823.34,1549c-1.69-8.34-9.54-13.18-17.52-10.81l6.13,30.21C1819.94,1566.03,1825.04,1557.34,1823.34,1549z"
		/>
	<path class="st12" d="M1817.81,1503.46l18,88.72l-35.65,10.59l-18-88.72L1817.81,1503.46z M1834.23,1591.21l-17.45-85.98
		l-33.03,9.81l17.45,85.98L1834.23,1591.21z"/>
	<path class="st4" d="M1800.79,1509.97l15.99-4.75l17.45,85.98l-15.99,4.75c-0.36,0.11-0.59,0.5-0.52,0.88l0,0
		c0.08,0.38,0.43,0.6,0.79,0.49l17.3-5.14l-18-88.72l-17.3,5.14c-0.36,0.11-0.59,0.5-0.52,0.88l0,0
		C1800.08,1509.86,1800.43,1510.08,1800.79,1509.97z"/>
</g>
<g class="st9">
	<polygon class="st11" points="577.32,382.14 558.77,477.96 518.04,466.41 536.59,370.59 	"/>
	<polygon class="st12" points="577.32,382.14 558.77,477.96 538.27,472.14 556.82,376.33 	"/>
	
		<ellipse transform="matrix(0.9143 -0.4051 0.4051 0.9143 -124.9794 258.1913)" class="st12" cx="547.52" cy="424.38" rx="14.56" ry="15.9"/>
	<path class="st4" d="M562.01,428.48c1.62-8.36-3.56-16.98-11.56-19.25l-5.86,30.28C552.59,441.79,560.39,436.85,562.01,428.48z"/>
	<path class="st12" d="M574.16,384.87l-17.22,88.95l-35.74-10.13l17.22-88.95L574.16,384.87z M555.89,472.07l16.69-86.2l-33.11-9.39
		l-16.69,86.2L555.89,472.07z"/>
	<path class="st4" d="M556.55,381.32l16.03,4.54l-16.69,86.2l-16.03-4.54c-0.36-0.1-0.72,0.12-0.79,0.5l0,0
		c-0.07,0.38,0.16,0.77,0.52,0.87l17.34,4.92l17.22-88.95l-17.34-4.92c-0.36-0.1-0.72,0.12-0.79,0.5v0
		C555.95,380.83,556.19,381.22,556.55,381.32z"/>
</g>
<g>
	<polygon class="st11" points="839.54,207.98 922.39,325.93 879.1,370.46 796.25,252.51 	"/>
	<polygon class="st12" points="839.54,207.98 922.39,325.93 900.61,348.34 817.76,230.39 	"/>
	<ellipse class="st12" cx="859.3" cy="289.53" rx="20.22" ry="24.46"/>
	<path class="st4" d="M874.7,273.69c-7.23-10.29-19.99-11.55-28.5-2.8l26.19,37.28C880.9,299.42,881.93,283.98,874.7,273.69z"/>
	<path class="st12" d="M839.85,214.94l76.92,109.5l-37.98,39.07l-76.92-109.5L839.85,214.94z M914.19,324.18l-74.54-106.12
		l-35.19,36.2L879,360.38L914.19,324.18z"/>
	<path class="st4" d="M822.61,235.59l17.04-17.52l74.54,106.12l-17.04,17.52c-0.39,0.4-0.43,1.1-0.1,1.56l0,0
		c0.33,0.47,0.91,0.52,1.29,0.13l18.43-18.96l-76.92-109.5l-18.43,18.96c-0.39,0.4-0.43,1.1-0.1,1.56v0
		C821.64,235.93,822.22,235.98,822.61,235.59z"/>
</g>
</svg>
