<svg id="Layer_1" data-name="Layer 1" xmlns="http://www.w3.org/2000/svg" viewBox="0 0 299.41 341"><defs><style>.cls-1{fill:#3aae9b;}.cls-2{fill:#76e2f8;}.cls-3{fill:#4bb9ec;}.cls-4{fill:#159ce4;}.cls-5{fill:#a4d9f5;}.cls-6{fill:#c5e7f9;}.cls-7{fill:#81c8ee;}.cls-8{fill:#b7e0f6;}.cls-9{fill:#e5f4fd;}.cls-10{fill:#88caf3;}.cls-11{fill:#3c3a41;}.cls-12{fill:none;}</style></defs><title>moneyquoteBg</title><circle id="Ellipse_75" data-name="Ellipse 75" class="cls-1" cx="115" cy="124.67" r="89"/><circle id="Ellipse_77" data-name="Ellipse 77" class="cls-1" cx="142.67" cy="288.56" r="37.44"/><circle id="Ellipse_78" data-name="Ellipse 78" class="cls-1" cx="257.72" cy="198.47" r="15.19"/><rect class="cls-2" x="90.43" y="70.43" width="48.13" height="108.37" rx="0.79" transform="translate(-23.05 26.02) rotate(-11.79)"/><rect class="cls-3" x="114.08" y="67.99" width="24.22" height="108.37" rx="0.79" transform="translate(-22.3 28.36) rotate(-11.79)"/><circle class="cls-3" cx="114.37" cy="124.8" r="17.13"/><path class="cls-4" d="M131.14,121.3a17.13,17.13,0,0,0-19.48-13.41.76.76,0,0,0-.63.87s0,0,0,0l6.67,32a.77.77,0,0,0,.9.61h0A17.14,17.14,0,0,0,131.14,121.3Z"/><path class="cls-3" d="M125,71.81l20.24,97a.78.78,0,0,1-.6.92L104.86,178a.78.78,0,0,1-.92-.6L83.7,80.4a.78.78,0,0,1,.6-.92l39.82-8.31A.77.77,0,0,1,125,71.81Zm18.4,95.77L123.8,73.65a.78.78,0,0,0-.92-.6L86.1,80.73a.77.77,0,0,0-.6.91h0l19.6,93.93a.79.79,0,0,0,.92.61l36.78-7.68a.78.78,0,0,0,.64-.9v0Z"/><path class="cls-4" d="M105.14,76.76l17.78-3.71a.78.78,0,0,1,.92.6l19.6,93.93a.78.78,0,0,1-.6.92l-17.78,3.71a.78.78,0,0,0-.6.92h0a.78.78,0,0,0,.92.6l19.3-4a.78.78,0,0,0,.6-.92L125,71.81a.76.76,0,0,0-.91-.6h0l-19.3,4a.78.78,0,0,0-.6.92h0a.78.78,0,0,0,.9.64Z"/><path class="cls-5" d="M148.94,300.62a1.53,1.53,0,0,0-1-1.91h0l-9.17-3.9a1.52,1.52,0,0,0-1.57,1.47h0l-.2,6.47a4.6,4.6,0,0,0,2.18,4.08,4.49,4.49,0,0,0,4.48.19A10.73,10.73,0,0,0,148.94,300.62Z"/><path class="cls-6" d="M149.76,277.05a10.73,10.73,0,0,0-5.06-7.16,4.4,4.4,0,0,0-4.41,0,4.7,4.7,0,0,0-2.42,3.94l-.21,6.82a1.53,1.53,0,0,0,1.48,1.58h0l9.41-3.34a1.51,1.51,0,0,0,1.21-1.77A.15.15,0,0,0,149.76,277.05Z"/><path class="cls-6" d="M128,288.23c-.08-3.71.66-6.64-2-9.54-2.12-2.34-5.77-3.45-11.17-3.64a1.57,1.57,0,0,0-1.58,1.49c-.15,4.85.74,8.22,2.69,10.3a7.72,7.72,0,0,0,1.27,1.08,8.71,8.71,0,0,0-2,1.41c-2.5,2.39-2.54,5.75-2.57,8.18-.09,2.83,1,2.46,3,2.61,2.84.2,6.34.44,9-1.93S127.8,291.89,128,288.23Z"/><path class="cls-5" d="M112.6,297.51c-.09,2.83,1,2.46,3,2.61,2.84.2,6.34.44,9-1.93s3.21-6.3,3.43-10v-.05l-10.92-.34.11.08a8.71,8.71,0,0,0-2,1.41C112.67,291.72,112.63,295.08,112.6,297.51Z"/><path class="cls-7" d="M159.91,301.22c-8.65,3.51-18.39.65-34.58-11.51a1.83,1.83,0,0,1-.21-2.58,2,2,0,0,1,.3-.28c16.6-10.94,26.44-13.65,34.76-9.91l2.33,5.61-.75,6.67-.6,5.41Z"/><path class="cls-4" d="M125.33,289.71c16.19,12.16,25.93,15,34.58,11.51l1.25-6.59.6-5.41h0l-37.06-1.14A1.78,1.78,0,0,0,125.33,289.71Z"/><path class="cls-6" d="M171.71,292.78a52.36,52.36,0,0,1-8.29,6.62,27.13,27.13,0,0,1-3.51,1.82A13.65,13.65,0,0,1,152.72,289a13.87,13.87,0,0,1,7.46-12,24.31,24.31,0,0,1,3.41,1.93,49,49,0,0,1,8.3,7.39,4.6,4.6,0,0,1,1.24,3.29A4.75,4.75,0,0,1,171.71,292.78Z"/><path class="cls-8" d="M152.72,289a13.63,13.63,0,0,0,7.19,12.25,27.13,27.13,0,0,0,3.51-1.82,52.36,52.36,0,0,0,8.29-6.62,4.75,4.75,0,0,0,1.42-3.21L152.72,289Z"/><path class="cls-9" d="M149.28,295.69a1.53,1.53,0,0,1-1.9-1,19.17,19.17,0,0,1-.77-5.88,20.75,20.75,0,0,1,1-5.85,1.57,1.57,0,0,1,1.94-1,1.53,1.53,0,0,1,1,1.93h0a16.67,16.67,0,0,0-.82,5,15.77,15.77,0,0,0,.63,4.92,1.51,1.51,0,0,1-1.05,1.86Z"/><path class="cls-10" d="M146.61,288.78a19.17,19.17,0,0,0,.77,5.88,1.53,1.53,0,0,0,1.9,1,1.5,1.5,0,0,0,1-1.88v0a15.77,15.77,0,0,1-.63-4.92h0l-3.08-.1Z"/><circle class="cls-11" cx="161.98" cy="287.5" r="1.53"/><rect class="cls-12" width="299.41" height="341"/></svg>