<?xml version="1.0" encoding="iso-8859-1"?>
<!-- Generator: Adobe Illustrator 19.0.0, SVG Export Plug-In . SVG Version: 6.00 Build 0)  -->
<svg version="1.1" id="Capa_1" xmlns="http://www.w3.org/2000/svg" xmlns:xlink="http://www.w3.org/1999/xlink" x="0px" y="0px"
	 viewBox="0 0 512 512" style="enable-background:new 0 0 512 512;" xml:space="preserve">
<g>
	<circle style="fill:#A5A5A4;" cx="256" cy="273.655" r="238.345"/>
	<path style="fill:#7F6E5D;" d="M450.207,35.31v44.138H326.621V35.31c-0.003-9.366,3.717-18.349,10.339-24.971
		C343.583,3.717,352.566-0.003,361.931,0h52.966c9.366-0.003,18.349,3.717,24.971,10.339
		C446.491,16.962,450.21,25.945,450.207,35.31z"/>
	<path style="fill:#CBB292;" d="M414.897,0c-9.366-0.003-18.349,3.717-24.971,10.339c-6.623,6.623-10.342,15.605-10.339,24.971
		v442.174c-79.191,47.987-179.003,45.784-256-5.65V35.31c-0.003-9.366,3.717-18.349,10.339-24.971
		C140.548,3.717,149.531-0.003,158.897,0L414.897,0z"/>
	<path style="fill:#AF8066;" d="M402.362,351.691c-6.708,10.027-20.201,12.851-30.367,6.356c-0.088-0.088-0.177-0.088-0.265-0.177
		l-1.412-0.971c9.672,6.89,12.133,20.211,5.561,30.102c-3.235,4.891-8.285,8.292-14.033,9.451
		c-5.748,1.16-11.721-0.018-16.599-3.272l-14.566-10.063c9.266,7.297,11.481,20.435,5.12,30.367
		c-3.235,4.891-8.284,8.292-14.033,9.451c-5.748,1.16-11.721-0.018-16.599-3.272l-14.301-10.152
		c0.833,0.693,1.629,1.429,2.383,2.207c8.307,7.897,9.198,20.835,2.052,29.797c-7.146,8.962-19.958,10.972-29.506,4.631
		l-36.723-24.541h-0.088L94.897,335.448l-25.423-20.303l68.855-103.283h108.844l61.793,52.965l87.305,56.232
		c3.036,2.069,5.546,4.82,7.327,8.033v0.088C407.31,336.351,406.836,344.971,402.362,351.691z"/>
	<g>
		<path style="fill:#FDD7AD;" d="M119.987,389.433c-7.876-9.302-6.721-23.227,2.581-31.103l27.502-21.255
			c9.302-7.876,23.227-6.721,31.103,2.581c3.782,4.467,5.635,10.253,5.151,16.086c-0.484,5.833-3.265,11.235-7.732,15.017
			l-27.502,21.255C141.788,399.89,127.863,398.735,119.987,389.433z"/>
		<path style="fill:#FDD7AD;" d="M88.682,363.366c-2.993-3.535-4.46-8.114-4.077-12.73c0.383-4.616,2.584-8.891,6.119-11.885
			l21.765-16.821c7.361-6.233,18.382-5.319,24.615,2.042c6.233,7.361,5.319,18.382-2.042,24.615l-21.765,16.822
			C105.936,371.642,94.916,370.728,88.682,363.366z"/>
		<path style="fill:#FDD7AD;" d="M184.484,433.399c-6.223-7.473-5.211-18.576,2.262-24.801l22.11-17.114
			c7.371-6.344,18.489-5.513,24.834,1.856c6.223,7.473,5.211,18.576-2.262,24.801l-22.11,17.114
			C201.947,441.6,190.829,440.769,184.484,433.399z"/>
		<path style="fill:#FDD7AD;" d="M150.105,415.962c-2.993-3.535-4.46-8.114-4.077-12.73s2.584-8.891,6.119-11.885l32.862-25.649
			c3.535-2.993,8.114-4.46,12.73-4.077c4.616,0.383,8.891,2.584,11.885,6.119c6.233,7.361,5.319,18.382-2.042,24.615l-32.862,25.649
			c-3.535,2.993-8.114,4.46-12.73,4.077C157.374,421.698,153.099,419.497,150.105,415.962z"/>
	</g>
	<path style="fill:#7D6599;" d="M145.479,201.092l-7.15,10.77L69.474,315.145l-3.09,4.59c-2.559,3.886-7.694,5.121-11.741,2.825
		l-25.247-14.477l89.865-137.446l24.276,18.538C147.18,192.041,148.024,197.218,145.479,201.092z"/>
	<path style="fill:#FDD7AD;" d="M403.598,329.181v-0.088l28.954-28.954l-60.999-89.286l-36.105,9.838l-35.86-15.27
		c-31.846-6.11-45.456,0.934-50.616,5.347c-1.089,0.884-2.022,1.946-2.758,3.14c-5.201,4.264-10.823,7.987-16.779,11.109
		c-6.289,3.39-9.72,10.409-8.533,17.455c1.187,7.045,6.729,12.552,13.782,13.694c16.186,2.173,32.647-0.731,47.113-8.311
		l26.686,16.974L403.598,329.181z"/>
	<path style="fill:#3D324C;" d="M119.261,170.637L29.396,308.083l-9.975-5.65c-7.522-61.387,9.165-123.29,46.521-172.579
		L119.261,170.637z"/>
	<path style="fill:#4482C3;" d="M482.605,308.083l-25.247,14.477c-4.047,2.296-9.181,1.061-11.741-2.825l-13.065-19.597
		l-60.999-91.454l-5.032-7.592c-2.545-3.874-1.701-9.051,1.942-11.917l24.276-18.538L482.605,308.083z"/>
	<path style="fill:#285680;" d="M494.345,273.655c-0.008,9.619-0.598,19.23-1.766,28.778l-9.975,5.65L392.74,170.637l53.319-40.783
		C477.449,171.216,494.411,221.73,494.345,273.655z"/>
</g>
<g>
</g>
<g>
</g>
<g>
</g>
<g>
</g>
<g>
</g>
<g>
</g>
<g>
</g>
<g>
</g>
<g>
</g>
<g>
</g>
<g>
</g>
<g>
</g>
<g>
</g>
<g>
</g>
<g>
</g>
</svg>
