<svg height="512pt" viewBox="0 0 512 512" width="512pt" xmlns="http://www.w3.org/2000/svg"><path d="m61.792969 388.414062h388.414062c34.128907 0 61.792969 27.664063 61.792969 61.792969 0 34.128907-27.664062 61.792969-61.792969 61.792969h-388.414062c-34.128907 0-61.792969-27.664062-61.792969-61.792969 0-34.128906 27.664062-61.792969 61.792969-61.792969zm0 0" fill="#fe9189"/><path d="m361.929688 450.207031c0-34.128906-27.664063-61.792969-61.792969-61.792969h-238.34375c-34.128907 0-61.792969 27.664063-61.792969 61.792969 0 34.128907 27.664062 61.792969 61.792969 61.792969h238.34375c16.390625 0 32.105469-6.511719 43.695312-18.097656 11.589844-11.589844 18.097657-27.308594 18.097657-43.695313zm0 0" fill="#cd4f38"/><path d="m256 238.34375s132.414062-59.585938 132.414062-148.964844c0-49.363281-35.566406-89.378906-79.449218-89.378906-23.523438 0-38.417969 11.476562-52.964844 29.792969-14.546875-18.316407-29.441406-29.792969-52.964844-29.792969-43.882812 0-79.449218 40.015625-79.449218 89.378906 0 89.378906 132.414062 148.964844 132.414062 148.964844zm0 0" fill="#ff6c77"/><path d="m456.09375 97.101562c-15.152344.308594-29.144531 8.179688-37.277344 20.96875-7.078125-10.699218-18.179687-18.085937-30.78125-20.480468-3.320312 36.570312-28.347656 67.757812-55.730468 91.425781 21.300781 46.433594 86.511718 75.8125 86.511718 75.8125s93.183594-41.929687 93.183594-104.828125c0-34.738281-25.035156-62.898438-55.90625-62.898438zm0 0" fill="#e76573"/><path d="m55.90625 97.101562c15.152344.308594 29.144531 8.179688 37.277344 20.96875 7.078125-10.699218 18.179687-18.085937 30.78125-20.480468 3.320312 36.570312 28.347656 67.757812 55.730468 91.425781-21.300781 46.433594-86.511718 75.8125-86.511718 75.8125s-93.183594-41.929687-93.183594-104.828125c0-34.738281 25.027344-62.898438 55.90625-62.898438zm0 0" fill="#e76573"/><g fill="#f4cd1e"><path d="m167.722656 335.449219c-2.339844 0-4.585937-.933594-6.238281-2.585938l-11.414063-11.414062-11.414062 11.414062c-3.464844 3.34375-8.972656 3.296875-12.375-.109375-3.40625-3.40625-3.453125-8.910156-.109375-12.375l17.65625-17.65625c3.445313-3.445312 9.035156-3.445312 12.480469 0l17.65625 17.65625c2.523437 2.523438 3.277344 6.320313 1.914062 9.621094-1.367187 3.296875-4.585937 5.449219-8.15625 5.449219zm0 0"/><path d="m150.070312 361.929688c-4.875 0-8.828124-3.949219-8.828124-8.828126v-44.136718c0-4.875 3.953124-8.828125 8.828124-8.828125s8.828126 3.953125 8.828126 8.828125v44.136718c0 4.878907-3.953126 8.828126-8.828126 8.828126zm0 0"/><path d="m379.585938 335.449219c-2.339844 0-4.585938-.933594-6.242188-2.585938l-11.414062-11.414062-11.414063 11.414062c-3.460937 3.34375-8.96875 3.296875-12.375-.109375-3.402344-3.40625-3.453125-8.910156-.105469-12.375l17.65625-17.65625c3.445313-3.445312 9.035156-3.445312 12.480469 0l17.65625 17.65625c2.523437 2.523438 3.277344 6.320313 1.910156 9.621094-1.363281 3.296875-4.582031 5.449219-8.152343 5.449219zm0 0"/><path d="m361.929688 361.929688c-4.875 0-8.828126-3.949219-8.828126-8.828126v-44.136718c0-4.875 3.953126-8.828125 8.828126-8.828125s8.828124 3.953125 8.828124 8.828125v44.136718c0 4.878907-3.953124 8.828126-8.828124 8.828126zm0 0"/><path d="m273.65625 300.136719c-2.34375 0-4.585938-.929688-6.242188-2.585938l-11.414062-11.414062-11.414062 11.414062c-3.464844 3.347657-8.96875 3.296875-12.375-.105469-3.40625-3.40625-3.453126-8.914062-.105469-12.375l17.652343-17.65625c3.449219-3.445312 9.035157-3.445312 12.484376 0l17.652343 17.65625c2.527344 2.523438 3.28125 6.320313 1.914063 9.617188-1.367188 3.300781-4.582032 5.449219-8.152344 5.449219zm0 0"/><path d="m256 326.621094c-4.875 0-8.828125-3.953125-8.828125-8.828125v-44.136719c0-4.875 3.953125-8.828125 8.828125-8.828125s8.828125 3.953125 8.828125 8.828125v44.136719c0 4.875-3.953125 8.828125-8.828125 8.828125zm0 0"/></g></svg>