<svg id="Layer_1" data-name="Layer 1" xmlns="http://www.w3.org/2000/svg" viewBox="0 0 461.05 429.43"><defs><style>.cls-1{fill:#2c8bc6;}.cls-2{fill:#040204;}</style></defs><title>SAT</title><circle class="cls-1" cx="161.62" cy="197.7" r="61.42"/><circle class="cls-1" cx="296.62" cy="197.7" r="61.42"/><circle class="cls-1" cx="161.62" cy="61.42" r="61.42"/><circle class="cls-1" cx="296.62" cy="61.42" r="61.42"/><path class="cls-2" d="M154,383.31V346.67S33.46,321.6,25.74,383.31c-4.76,38,57,29.22,78.81,35.22,13.38,3.69,2.86,15.28-4.19,18.24-8.8,3.7-20.18,2.81-29.42,1.91-7.55-.73-45.2-4.75-45.2-16.8v41.47S163.63,494.2,169.42,429.6c0,0,9.91-28-43.75-34.72-12.36-1.55-25.25-3.46-36.32-9.49-12.46-6.79,2.61-12.88,9.87-12.48C117.87,374,136.06,378.26,154,383.31Z" transform="translate(-25.48 -41.29)"/><path class="cls-2" d="M301.52,341.63H224.38L170.14,463.35h60.38l18-45.32c38.6,8.67,45.3,45.32,45.3,45.32h61.71Zm-53,69.65,14.32-38.58,13.62,38.58Z" transform="translate(-25.48 -41.29)"/><polygon class="cls-2" points="358.03 422.06 411.05 422.06 411.05 344.92 461.05 344.92 461.05 300.34 308.83 300.34 308.83 343.95 358.03 343.95 358.03 422.06"/></svg>