<?xml version="1.0" encoding="iso-8859-1"?>
<!-- Generator: Adobe Illustrator 19.0.0, SVG Export Plug-In . SVG Version: 6.00 Build 0)  -->
<svg version="1.1" id="Layer_1" xmlns="http://www.w3.org/2000/svg" xmlns:xlink="http://www.w3.org/1999/xlink" x="0px" y="0px"
	 viewBox="0 0 512 512" style="enable-background:new 0 0 512 512;" xml:space="preserve">
<g>
	<path style="fill:#ECF0F1;" d="M512,256C512,114.609,397.391,0,256,0S0,114.609,0,256s114.609,256,256,256S512,397.391,512,256"/>
	<path style="fill:#BDC3C7;" d="M256,450.207c-107.087,0-194.207-87.119-194.207-194.207S148.913,61.793,256,61.793
		S450.207,148.913,450.207,256S363.087,450.207,256,450.207"/>
	<path style="fill:#ECF0F1;" d="M361.931,256c0,58.5-47.431,105.931-105.931,105.931S150.069,314.5,150.069,256
		S197.5,150.069,256,150.069S361.931,197.5,361.931,256"/>
	<path style="fill:#4482C3;" d="M281.879,322.802c-3.937-1.977-6.435-6.012-6.435-10.425v-11.988
		c0.856-0.971,1.836-2.233,2.887-3.716c4.167-5.879,7.318-12.35,9.498-19.138c3.919-1.209,6.806-4.837,6.806-9.137v-12.791
		c0-2.816-1.254-5.332-3.204-7.089v-18.503c0,0,3.549-26.977-35.434-26.977s-34.931,26.977-34.931,26.977v18.503
		c-1.942,1.757-3.204,4.273-3.204,7.089v12.791c0,3.381,1.774,6.347,4.423,8.051c3.196,13.921,11.582,23.94,11.582,23.94v11.688
		c0,4.273-2.339,8.192-6.082,10.231l-28.531,15.572c-1.951,1.059-3.699,2.392-5.27,3.867c17.452,12.65,38.824,20.189,62.014,20.189
		c23.155,0,44.5-7.512,61.934-20.118c-1.651-1.457-3.478-2.728-5.491-3.743L281.879,322.802z"/>
	<g>
		<path style="fill:#C03A2B;" d="M167.724,264.828H35.31c-4.882,0-8.828-3.946-8.828-8.828s3.946-8.828,8.828-8.828h132.414
			c4.882,0,8.828,3.946,8.828,8.828S172.606,264.828,167.724,264.828"/>
		<path style="fill:#C03A2B;" d="M476.69,264.828H344.276c-4.882,0-8.828-3.946-8.828-8.828s3.946-8.828,8.828-8.828H476.69
			c4.882,0,8.828,3.946,8.828,8.828S481.571,264.828,476.69,264.828"/>
		<path style="fill:#C03A2B;" d="M256,176.552c-4.882,0-8.828-3.946-8.828-8.828V35.31c0-4.882,3.946-8.828,8.828-8.828
			s8.828,3.946,8.828,8.828v132.414C264.828,172.606,260.882,176.552,256,176.552"/>
		<path style="fill:#C03A2B;" d="M256,485.517c-4.882,0-8.828-3.946-8.828-8.828V344.276c0-4.882,3.946-8.828,8.828-8.828
			s8.828,3.946,8.828,8.828V476.69C264.828,481.571,260.882,485.517,256,485.517"/>
	</g>
</g>
<g>
</g>
<g>
</g>
<g>
</g>
<g>
</g>
<g>
</g>
<g>
</g>
<g>
</g>
<g>
</g>
<g>
</g>
<g>
</g>
<g>
</g>
<g>
</g>
<g>
</g>
<g>
</g>
<g>
</g>
</svg>
