<svg id="Layer_1" data-name="Layer 1" xmlns="http://www.w3.org/2000/svg" viewBox="0 0 496.2 496.2"><defs><style>.cls-1{fill:#ebf1f2;}.cls-2{fill:#d38957;}.cls-3{fill:#c18053;}.cls-4{fill:#ba634f;}.cls-5{fill:#aa5b4b;}.cls-6{fill:#33160a;}</style></defs><title>meditationGirl</title><polygon class="cls-1" points="193.9 370.1 196.2 390.4 248.1 403.4 299.9 390.4 302.3 370.1 193.9 370.1"/><path class="cls-2" d="M217.9,383.5c26.9,15,57.4,31.8,65.2,33.2,32.8,5.8,57,22.2,54.3,28.8,0,0-77.6-11.2-134.5-22.7C180.9,418.4,197,371.9,217.9,383.5Z"/><path class="cls-1" d="M217.9,383.5c-20.9-11.7-39.6-22.3-44-24-16.5-6.3-55.1-20.7-63.8,8s20.7,34.3,41.8,42.4c10.2,3.9,29.1,8.4,51.1,12.8A152.49,152.49,0,0,1,217.9,383.5Z"/><path class="cls-2" d="M278.3,383.5c-26.9,15-57.4,31.8-65.2,33.2-32.8,5.8-57,22.2-54.3,28.8,0,0,77.6-11.2,134.5-22.7C315.2,418.4,299.1,371.9,278.3,383.5Z"/><path class="cls-1" d="M278.3,383.5c20.9-11.7,39.6-22.3,44-24,16.5-6.3,55.1-20.7,63.8,8s-20.7,34.3-41.8,42.4c-10.2,3.9-29.1,8.4-51.1,12.8A152.49,152.49,0,0,0,278.3,383.5Z"/><path class="cls-1" d="M299.9,238.4c3.7-22.5-14.7-63.5-14.7-63.5a210.3,210.3,0,0,0-24.9-1.5H235.7a230.76,230.76,0,0,0-24.8,1.5s-18.4,41-14.7,63.5c3.4,21,9.4,51.7-2.3,131.7H302.3C290.5,290.1,296.5,259.4,299.9,238.4Z"/><path class="cls-2" d="M124.2,352.3,78.4,324.6l5.9-3.4,38.5,14.3,32.8-45.8c6.9-18,5.9-97.9,23.7-107.2C192,175.8,211,175,211,175s-8.4,44.6-13.5,44.8-4.2,14.1-8.6,32.7c-2,17.6-3.4,31.3-7.3,42.6Z"/><polygon class="cls-2" points="130.2 337 115 335.4 120.5 321.9 111.7 317.2 114.6 313.5 128.1 316.8 130.2 337"/><polygon class="cls-2" points="98.2 332.5 106.8 333.6 110.2 322.4 117.6 319.7 116.7 315.6 106.3 315.9 98.2 332.5"/><path class="cls-2" d="M372,352.3l45.8-27.7-5.9-3.4-38.5,14.3-32.8-45.8c-6.9-18-5.9-97.9-23.7-107.2-12.7-6.7-31.7-7.5-31.7-7.5s8.4,44.6,13.5,44.8,4.2,14.1,8.6,32.7c2,17.6,3.4,31.3,7.3,42.6Z"/><polygon class="cls-2" points="366 337 381.2 335.4 375.7 321.9 384.5 317.2 381.6 313.5 368.1 316.8 366 337"/><polygon class="cls-2" points="398 332.5 389.4 333.6 386 322.4 378.6 319.7 379.5 315.6 389.9 315.9 398 332.5"/><path class="cls-3" d="M264.6,150.9H231.5c5.2,15.6.4,22.7.4,22.7s1,10.2,16.2,10.2,16.1-10.2,16.1-10.2S259.4,166.4,264.6,150.9Z"/><path class="cls-2" d="M282,105.3c0-39.3-15.2-48.4-33.9-48.4s-34,9-34,48.4c0,13.3,2.4,23.7,6,31.8,7.8,17.7,21.4,23.9,28,23.9s20.2-6.2,28-23.9C279.6,129.1,282,118.7,282,105.3Z"/><path class="cls-4" d="M257.6,144.9a22,22,0,0,1-19.2,0c0-.6,3-4.1,5.1-4.4,1.3-.2,4.5,1.1,4.5,1.1s3.2-1.3,4.4-1.1C254.6,140.8,257.6,144.9,257.6,144.9Z"/><path class="cls-5" d="M257.6,144.9s-4.3,3.9-9.6,3.9-9.6-3.9-9.6-3.9,1-1.2,6.6-1.5c.9-.1,2.2.7,3,.7s1.8-.8,2.6-.7C256.5,143.7,257.6,144.9,257.6,144.9Z"/><path class="cls-6" d="M230.2,58.9c0-6.7,8-12.2,17.9-12.2S266,52.2,266,58.9s-8,12.2-17.9,12.2S230.2,65.7,230.2,58.9Z"/><path class="cls-6" d="M283.2,107c0-39.3-10.8-50-35.2-50s-35.2,10.7-35.2,50c0,0,52.2-11.3,52.2-25.6C265.1,95.7,283.2,107,283.2,107Z"/><path class="cls-2" d="M210.8,119.2c1.8,10.7,4.1,11.2,7.4,10.7l-3.5-23.3C211.5,107.1,209,108.5,210.8,119.2Z"/><path class="cls-2" d="M281.4,106.5l-3.5,23.3c3.2.6,5.5.1,7.4-10.7C287.1,108.5,284.7,107.1,281.4,106.5Z"/><path class="cls-6" d="M216.8,108.7a17.27,17.27,0,0,1-.2-3,9.07,9.07,0,0,1,.2-2l-4,1.5V107a12.55,12.55,0,0,0,1.2-.4h-.1a27.28,27.28,0,0,1,1.9,4.5S217.4,112.3,216.8,108.7Z"/><path class="cls-6" d="M279.5,105.7a16.71,16.71,0,0,1-.2,3c-.6,3.6,1,2.4,1,2.4a23.14,23.14,0,0,1,1.9-4.5,7,7,0,0,1,1.1.4v-1.8l-4-1.5s.1.8.2,2"/></svg>