<svg id="Layer_1" data-name="Layer 1" xmlns="http://www.w3.org/2000/svg" viewBox="0 0 464 464"><defs><style>.cls-1{fill:#ebf6fc;}.cls-2{fill:#9cd6cd;}.cls-3{fill:#4bb9ec;}.cls-4{fill:#0095ff;}.cls-5{fill:#76e2f8;}.cls-6{fill:#697c86;}.cls-7{fill:#596c76;}.cls-8{fill:#a4d9f5;}.cls-9{fill:#c5e7f9;}.cls-10{fill:#81c8ee;}.cls-11{fill:#159ce4;}.cls-12{fill:#b7e0f6;}.cls-13{fill:#e5f4fd;}.cls-14{fill:#88caf3;}.cls-15{fill:#3c3a41;}</style></defs><title>card-back</title><rect class="cls-1" width="464" height="464" rx="30.95"/><rect class="cls-2" x="27" y="27" width="410" height="410" rx="30.95"/><path class="cls-3" d="M69.58,76.86a5.93,5.93,0,0,0-6,6l.19,48.7a5.94,5.94,0,0,0,6,6c16.52-.07,29.88-13.93,29.81-30.46S86.11,76.79,69.58,76.86Z"/><path class="cls-4" d="M99.64,107.07c.07,16.53-13.29,30.39-29.81,30.46a5.94,5.94,0,0,1-6-6l-.09-24.35Z"/><path class="cls-5" d="M171.31,103.43c-.84-1.07-18.71-26.9-41.46-26.81s-40.41,26.06-41.24,27.14a5.51,5.51,0,0,0-.94,3.36,5.4,5.4,0,0,0,1,3.35c.84,1.07,18.7,26.91,41.46,26.82s40.4-26.07,41.24-27.15a6.37,6.37,0,0,0,0-6.71Z"/><path class="cls-3" d="M172.28,106.78a5.49,5.49,0,0,1-.94,3.36c-.84,1.08-18.49,27.06-41.24,27.15s-40.62-25.75-41.46-26.82a5.4,5.4,0,0,1-1-3.35Z"/><path class="cls-6" d="M147.94,106.88a6,6,0,1,1-6-6A5.93,5.93,0,0,1,147.94,106.88Z"/><path class="cls-7" d="M147.94,106.88a6,6,0,0,1-12,.05Z"/><path class="cls-3" d="M69.58,329.86a5.93,5.93,0,0,0-6,6l.19,48.7a5.94,5.94,0,0,0,6,6c16.52-.07,29.88-13.93,29.81-30.46S86.11,329.79,69.58,329.86Z"/><path class="cls-4" d="M99.64,360.07c.07,16.53-13.29,30.39-29.81,30.46a5.94,5.94,0,0,1-6-6l-.09-24.35Z"/><path class="cls-5" d="M171.31,356.43c-.84-1.07-18.71-26.9-41.46-26.81s-40.41,26.06-41.24,27.14a5.51,5.51,0,0,0-.94,3.36,5.4,5.4,0,0,0,1,3.35c.84,1.07,18.7,26.91,41.46,26.82s40.4-26.07,41.24-27.15a6.37,6.37,0,0,0,0-6.71Z"/><path class="cls-3" d="M172.28,359.78a5.49,5.49,0,0,1-.94,3.36c-.84,1.08-18.49,27.06-41.24,27.15s-40.62-25.75-41.46-26.82a5.4,5.4,0,0,1-1-3.35Z"/><path class="cls-6" d="M147.94,359.88a6,6,0,1,1-6-6A5.93,5.93,0,0,1,147.94,359.88Z"/><path class="cls-7" d="M147.94,359.88a6,6,0,0,1-12,.05Z"/><path class="cls-3" d="M297.58,76.86a5.93,5.93,0,0,0-6,6l.19,48.7a5.94,5.94,0,0,0,6,6c16.52-.07,29.88-13.93,29.81-30.46S314.11,76.79,297.58,76.86Z"/><path class="cls-4" d="M327.64,107.07c.07,16.53-13.29,30.39-29.81,30.46a5.94,5.94,0,0,1-6-6l-.09-24.35Z"/><path class="cls-5" d="M399.31,103.43c-.84-1.07-18.71-26.9-41.46-26.81s-40.41,26.06-41.24,27.14a5.51,5.51,0,0,0-.94,3.36,5.4,5.4,0,0,0,1,3.35c.84,1.07,18.7,26.91,41.46,26.82s40.4-26.07,41.24-27.15a6.37,6.37,0,0,0,0-6.71Z"/><path class="cls-3" d="M400.28,106.78a5.49,5.49,0,0,1-.94,3.36c-.84,1.08-18.49,27.06-41.24,27.15s-40.62-25.75-41.46-26.82a5.4,5.4,0,0,1-1-3.35Z"/><path class="cls-6" d="M375.94,106.88a6,6,0,1,1-6-6A5.93,5.93,0,0,1,375.94,106.88Z"/><path class="cls-7" d="M375.94,106.88a6,6,0,0,1-12,.05Z"/><path class="cls-3" d="M297.58,329.86a5.93,5.93,0,0,0-6,6l.19,48.7a5.94,5.94,0,0,0,6,6c16.52-.07,29.88-13.93,29.81-30.46S314.11,329.79,297.58,329.86Z"/><path class="cls-4" d="M327.64,360.07c.07,16.53-13.29,30.39-29.81,30.46a5.94,5.94,0,0,1-6-6l-.09-24.35Z"/><path class="cls-5" d="M399.31,356.43c-.84-1.07-18.71-26.9-41.46-26.81s-40.41,26.06-41.24,27.14a5.51,5.51,0,0,0-.94,3.36,5.4,5.4,0,0,0,1,3.35c.84,1.07,18.7,26.91,41.46,26.82s40.4-26.07,41.24-27.15a6.37,6.37,0,0,0,0-6.71Z"/><path class="cls-3" d="M400.28,359.78a5.49,5.49,0,0,1-.94,3.36c-.84,1.08-18.49,27.06-41.24,27.15s-40.62-25.75-41.46-26.82a5.4,5.4,0,0,1-1-3.35Z"/><path class="cls-6" d="M375.94,359.88a6,6,0,1,1-6-6A5.93,5.93,0,0,1,375.94,359.88Z"/><path class="cls-7" d="M375.94,359.88a6,6,0,0,1-12,.05Z"/><path class="cls-8" d="M254.57,277.25a5.59,5.59,0,0,0-3.73-7l-33.38-14.22a5.58,5.58,0,0,0-5.75,5.41L211,285a16.79,16.79,0,0,0,8,14.86,16.27,16.27,0,0,0,16.32.68A39.3,39.3,0,0,0,254.57,277.25Z"/><path class="cls-9" d="M257.56,191.38a39.17,39.17,0,0,0-18.46-26.06,16,16,0,0,0-16-.17,17.07,17.07,0,0,0-8.83,14.34l-.77,24.86a5.59,5.59,0,0,0,5.41,5.75l34.29-12.16A5.58,5.58,0,0,0,257.56,191.38Z"/><path class="cls-9" d="M178.37,232.11c-.3-13.5,2.38-24.18-7.38-34.75-7.72-8.53-21-12.58-40.67-13.26a5.72,5.72,0,0,0-5.77,5.43c-.55,17.67,2.71,29.94,9.82,37.5A25.05,25.05,0,0,0,139,231a31.24,31.24,0,0,0-7.43,5.14c-9.12,8.72-9.26,21-9.37,29.81-.32,10.3,3.48,9,11.08,9.5,10.32.72,23.09,1.58,32.6-7.05C175.62,259.51,177.56,245.43,178.37,232.11Z"/><path class="cls-8" d="M122.19,265.92c-.32,10.3,3.48,9,11.08,9.5,10.32.72,23.09,1.58,32.6-7.05,9.75-8.86,11.69-22.94,12.5-36.26a1.09,1.09,0,0,0,0-.18L138.6,230.7l.39.27a31.24,31.24,0,0,0-7.43,5.14C122.44,244.83,122.3,257.07,122.19,265.92Z"/><path class="cls-10" d="M294.52,279.44c-31.51,12.77-67,2.37-126-41.95a6.67,6.67,0,0,1,.33-10.42c60.47-39.84,96.32-49.72,126.63-36.07L304,211.4l-2.73,24.33-2.18,19.68Z"/><path class="cls-11" d="M168.56,237.49c59,44.32,94.45,54.72,126,41.95l4.54-24,2.18-19.68h0l-135-4.17A6.52,6.52,0,0,0,168.56,237.49Z"/><path class="cls-9" d="M337.49,248.7c-9.27,8.72-19.41,17.49-30.2,24.1a98.55,98.55,0,0,1-12.77,6.64c-18-10-26.4-27.44-26.19-44.65A50.35,50.35,0,0,1,295.51,191a92.26,92.26,0,0,1,12.43,7c10.91,7.37,21.19,17.16,30.21,26.92a16.85,16.85,0,0,1,4.53,12A17.45,17.45,0,0,1,337.49,248.7Z"/><path class="cls-12" d="M268.33,234.79c-.21,17.21,8.18,34.61,26.19,44.65a98.55,98.55,0,0,0,12.77-6.64c10.79-6.61,20.93-15.39,30.2-24.1a17.37,17.37,0,0,0,5.18-11.7l-74.33-2.29S268.33,234.76,268.33,234.79Z"/><path class="cls-13" d="M255.81,259.29a5.62,5.62,0,0,1-6.92-3.77,68.9,68.9,0,0,1-2.81-21.42,74.33,74.33,0,0,1,3.58-21.29,5.59,5.59,0,0,1,10.63,3.49,60,60,0,0,0-3,18.15,57.7,57.7,0,0,0,2.3,17.92A5.52,5.52,0,0,1,255.81,259.29Z"/><path class="cls-14" d="M246.08,234.1a68.9,68.9,0,0,0,2.81,21.42,5.62,5.62,0,0,0,6.92,3.77,5.51,5.51,0,0,0,3.76-6.92,58,58,0,0,1-2.29-17.92s0-.06,0-.09L246.08,234Z"/><circle class="cls-15" cx="302.06" cy="229.46" r="5.58"/><rect class="cls-5" x="208.31" y="354.16" width="47.78" height="21.22" rx="0.79" transform="translate(-99.89 87.84) rotate(-17.7)"/><rect class="cls-3" x="209.91" y="364.46" width="47.78" height="10.68" rx="0.79" transform="translate(-101.35 88.57) rotate(-17.7)"/><circle class="cls-3" cx="232.11" cy="364.73" r="7.55"/><path class="cls-11" d="M234.41,371.93a7.57,7.57,0,0,0,5-9.16.35.35,0,0,0-.44-.23l-13.72,4.38a.35.35,0,0,0-.22.44A7.57,7.57,0,0,0,234.41,371.93Z"/><path class="cls-3" d="M255.83,367l-41.61,13.27a.34.34,0,0,1-.43-.22L208.34,363a.34.34,0,0,1,.22-.43l41.61-13.27a.34.34,0,0,1,.43.22l5.46,17.09A.35.35,0,0,1,255.83,367Zm-41.16,12.41L255,366.56a.35.35,0,0,0,.23-.43l-5-15.78a.34.34,0,0,0-.43-.22L209.42,363a.34.34,0,0,0-.22.43l5,15.78A.34.34,0,0,0,214.67,379.42Z"/><path class="cls-11" d="M252.76,358.5l2.44,7.63a.35.35,0,0,1-.23.43l-40.3,12.86a.34.34,0,0,1-.43-.22l-2.44-7.63a.34.34,0,0,0-.43-.22h0a.34.34,0,0,0-.22.43l2.64,8.28a.34.34,0,0,0,.43.22L255.83,367a.35.35,0,0,0,.23-.43l-2.65-8.29a.34.34,0,0,0-.43-.22h0A.34.34,0,0,0,252.76,358.5Z"/><rect class="cls-5" x="208.31" y="96.16" width="47.78" height="21.22" rx="0.79" transform="translate(-21.47 75.63) rotate(-17.7)"/><rect class="cls-3" x="209.91" y="106.46" width="47.78" height="10.68" rx="0.79" transform="translate(-22.92 76.36) rotate(-17.7)"/><circle class="cls-3" cx="232.11" cy="106.73" r="7.55"/><path class="cls-11" d="M234.41,113.93a7.57,7.57,0,0,0,5-9.16.35.35,0,0,0-.44-.23l-13.72,4.38a.35.35,0,0,0-.22.44A7.57,7.57,0,0,0,234.41,113.93Z"/><path class="cls-3" d="M255.83,109l-41.61,13.27a.34.34,0,0,1-.43-.22L208.34,105a.34.34,0,0,1,.22-.43l41.61-13.27a.34.34,0,0,1,.43.22l5.46,17.09A.35.35,0,0,1,255.83,109Zm-41.16,12.41L255,108.56a.35.35,0,0,0,.23-.43l-5-15.78a.34.34,0,0,0-.43-.22L209.42,105a.34.34,0,0,0-.22.43l5,15.78A.34.34,0,0,0,214.67,121.42Z"/><path class="cls-11" d="M252.76,100.5l2.44,7.63a.35.35,0,0,1-.23.43l-40.3,12.86a.34.34,0,0,1-.43-.22l-2.44-7.63a.34.34,0,0,0-.43-.22h0a.34.34,0,0,0-.22.43l2.64,8.28a.34.34,0,0,0,.43.22L255.83,109a.35.35,0,0,0,.23-.43l-2.65-8.29a.34.34,0,0,0-.43-.22h0A.34.34,0,0,0,252.76,100.5Z"/><rect class="cls-5" x="364.95" y="218.16" width="60.75" height="26.98" rx="0.79" transform="translate(249.33 665.97) rotate(-101.79)"/><rect class="cls-3" x="371.52" y="223.5" width="60.75" height="13.58" rx="0.79" transform="translate(258.57 670.75) rotate(-101.79)"/><circle class="cls-3" cx="395.26" cy="231.76" r="9.6"/><path class="cls-11" d="M404.66,229.8a9.6,9.6,0,0,0-10.92-7.52.44.44,0,0,0-.35.52l3.74,17.92a.43.43,0,0,0,.53.33A9.6,9.6,0,0,0,404.66,229.8Z"/><path class="cls-3" d="M401.24,202.06l11.35,54.35a.44.44,0,0,1-.34.52l-22.32,4.66a.43.43,0,0,1-.51-.34l-11.35-54.36a.43.43,0,0,1,.34-.51l22.32-4.66A.43.43,0,0,1,401.24,202.06Zm10.32,53.68-11-52.65a.43.43,0,0,0-.51-.34l-20.62,4.3a.44.44,0,0,0-.34.52l11,52.65a.43.43,0,0,0,.51.34l20.62-4.31A.42.42,0,0,0,411.56,255.74Z"/><path class="cls-11" d="M390.09,204.83l10-2.08a.43.43,0,0,1,.51.34l11,52.65a.42.42,0,0,1-.34.51l-10,2.09a.43.43,0,0,0-.33.51h0a.43.43,0,0,0,.51.34l10.82-2.26a.44.44,0,0,0,.34-.52l-11.35-54.35a.43.43,0,0,0-.51-.34L389.91,204a.43.43,0,0,0-.34.51h0A.44.44,0,0,0,390.09,204.83Z"/><rect class="cls-5" x="36.69" y="218.41" width="60.75" height="26.98" rx="0.79" transform="translate(-146.24 344.93) rotate(-101.79)"/><rect class="cls-3" x="43.25" y="223.74" width="60.75" height="13.58" rx="0.79" transform="translate(-136.99 349.7) rotate(-101.79)"/><circle class="cls-3" cx="67" cy="232" r="9.6"/><path class="cls-11" d="M76.4,230a9.6,9.6,0,0,0-10.92-7.52.44.44,0,0,0-.35.52L68.87,241a.44.44,0,0,0,.53.34A9.61,9.61,0,0,0,76.4,230Z"/><path class="cls-3" d="M73,202.3l11.35,54.36a.43.43,0,0,1-.34.51l-22.32,4.66a.44.44,0,0,1-.52-.34L49.81,207.14a.44.44,0,0,1,.33-.52L72.47,202A.43.43,0,0,1,73,202.3ZM83.3,256l-11-52.65a.44.44,0,0,0-.52-.34L51.17,207.3a.43.43,0,0,0-.33.51l11,52.65a.43.43,0,0,0,.51.34L83,256.5A.44.44,0,0,0,83.3,256Z"/><path class="cls-11" d="M61.82,205.07l10-2.08a.44.44,0,0,1,.52.34L83.3,256a.44.44,0,0,1-.34.52l-10,2.08a.45.45,0,0,0-.34.51h0a.44.44,0,0,0,.52.34L84,257.17a.43.43,0,0,0,.34-.51L73,202.3a.43.43,0,0,0-.51-.34l-10.82,2.26a.44.44,0,0,0-.34.52h0A.43.43,0,0,0,61.82,205.07Z"/></svg>