<svg id="Layer_1" data-name="Layer 1" xmlns="http://www.w3.org/2000/svg" viewBox="0 0 1080 1080"><defs><style>.cls-1{opacity:0.5;}.cls-2{fill:#3aae9b;}.cls-3{fill:#697c86;}.cls-4{fill:#465a61;}.cls-5{fill:#ffd400;}.cls-6{fill:#ff9f00;}.cls-7{fill:#ff7816;}</style></defs><title>card_locked</title><g class="cls-1"><rect class="cls-2" width="1080" height="1080" rx="60.5"/></g><path class="cls-3" d="M444,466.94V322.48a99.08,99.08,0,1,1,198.15,0V466.94h48.41V322.48a147.49,147.49,0,0,0-295,0V466.94Z"/><path class="cls-4" d="M543,175h-3v48.4c1.06,0,2-.15,3-.15a99.23,99.23,0,0,1,99.07,99.08V466.94h48.41V322.48A147.57,147.57,0,0,0,543,175Z"/><path class="cls-5" d="M767.05,481.61V791.4c0,62.17-42.66,112.85-95,112.85H408c-52.34,0-95-50.68-95-112.85V481.61c0-31.46,21.48-57,47.95-57H719C745.42,424.59,767.05,450.15,767.05,481.61Z"/><path class="cls-6" d="M767.05,481.61V791.4c0,62.17-42.66,112.85-95,112.85H540V424.59H719.1C745.42,424.59,767.05,450.15,767.05,481.61Z"/><path class="cls-6" d="M677.5,636.66a28.13,28.13,0,0,0-22.69-19.36l-62-8.93-27.68-54.91c-5-9.37-15-13.91-25-13.91s-20,4.39-25,13.91l-27.68,54.91-62,8.93a28.17,28.17,0,0,0-22.69,19.36A28.59,28.59,0,0,0,410.52,665l44.32,42.65-10.59,59.9a28.39,28.39,0,0,0,11,27.23c8.32,6,20,7.26,28.89,2.27l56-28.89,56,28.89A27,27,0,0,0,625,794.73a28,28,0,0,0,11-27.23l-10.59-59.9L669.79,665A28.61,28.61,0,0,0,677.5,636.66Z"/><path class="cls-7" d="M596,796.85,540,768V539.55c10,0,20,4.39,25,13.91l27.68,54.91,62,8.93a28.17,28.17,0,0,1,22.69,19.36A28.59,28.59,0,0,1,669.63,665L625.31,707.6l10.59,59.9a28.37,28.37,0,0,1-11,27.23A27.62,27.62,0,0,1,596,796.85Z"/></svg>