<svg id="Layer_1" data-name="Layer 1" xmlns="http://www.w3.org/2000/svg" viewBox="0 0 1080 1080"><defs><style>.cls-1{opacity:0.5;}.cls-2{fill:#bf82f4;}.cls-3{fill:#ffd400;}.cls-4{fill:#ff9f00;}.cls-5{fill:#ff7816;}</style></defs><title>card_won</title><g class="cls-1"><rect class="cls-2" width="1080" height="1080" rx="60.5"/></g><path class="cls-3" d="M922,441.15a21.31,21.31,0,0,0-25.8-1.94L703.74,561,555.14,285.18a22.29,22.29,0,0,0-40,0L366.59,560.84,174.15,439a21.3,21.3,0,0,0-25.8,1.94,26.69,26.69,0,0,0-7.95,27L239.92,846c2.91,10.86,12,18.43,22.3,18.43H808.3c10.28,0,19.39-7.57,22.3-18.43l99.52-378.08C932.64,458.22,929.54,447.36,922,441.15Z"/><path class="cls-4" d="M922,441.15a21.31,21.31,0,0,0-25.8-1.94L703.74,561,555.14,285.18a22.72,22.72,0,0,0-20-12.41V864.62H808.3c10.28,0,19.39-7.56,22.3-18.43l99.52-378.08C932.64,458.22,929.54,447.36,922,441.15Z"/><path class="cls-4" d="M673.28,609.34a28.1,28.1,0,0,0-22.7-19.4L588.51,581l-27.74-54.89c-5-9.51-14.94-14-25-14-9.89,0-20,4.46-25,14L483,581l-62.08,8.93A27.63,27.63,0,0,0,406,637.66l44.42,42.67-10.47,59.95A27.67,27.67,0,0,0,451,767.43c8.34,6,20,7.18,28.91,2.14l56.06-28.91L592,769.57a27.26,27.26,0,0,0,28.9-2.14A27.8,27.8,0,0,0,632,740.28l-10.47-59.95,44.42-42.67A29,29,0,0,0,673.28,609.34Z"/><path class="cls-5" d="M591.81,769.57l-56.07-28.71V512.15c9.9,0,20,4.46,25,14L588.51,581l62.07,8.93a27.63,27.63,0,0,1,14.94,47.72L621.1,680.33l10.47,59.95a27.81,27.81,0,0,1-11.05,27.15A26.91,26.91,0,0,1,591.81,769.57Z"/><circle class="cls-5" cx="930.89" cy="426.6" r="61.11"/><circle class="cls-4" cx="149.91" cy="426.6" r="61.11"/><circle class="cls-4" cx="535.16" cy="272.58" r="61.11"/><path class="cls-5" d="M535.16,211.47V333.68a61.11,61.11,0,1,0,0-122.21Z"/><path class="cls-4" d="M818.19,903H253.3a28.85,28.85,0,0,1-28.9-28.9h0a28.85,28.85,0,0,1,28.9-28.91H818.19a28.85,28.85,0,0,1,28.9,28.91h0A28.72,28.72,0,0,1,818.19,903Z"/><path class="cls-5" d="M818.19,845H533.8v58H818.19a28.85,28.85,0,0,0,28.9-28.9h0A28.77,28.77,0,0,0,818.19,845Z"/></svg>