<svg height="512pt" viewBox="-2 0 511 512" width="512pt" xmlns="http://www.w3.org/2000/svg"><path d="m124.085938 97.101562v-30.894531c0-12.1875 9.882812-22.070312 22.070312-22.070312h8.828125c5.851563 0 11.464844-2.324219 15.601563-6.460938 4.140624-4.140625 6.464843-9.753906 6.464843-15.605469 0-12.191406 9.882813-22.070312 22.070313-22.070312h163.308594c9.753906 0 17.65625 7.90625 17.65625 17.65625v211.859375l-123.585938-8.824219zm0 0" fill="#f3d55b"/><path d="m318.292969 211.863281v-26.484375l-88.277344-88.277344h-194.207031c-9.363282 0-18.347656 3.71875-24.96875 10.339844-6.625 6.625-10.34375 15.605469-10.339844 24.972656v317.792969c-.003906 9.367188 3.714844 18.347657 10.339844 24.972657 6.621094 6.621093 15.605468 10.339843 24.96875 10.335937h200.566406l108.402344-97.101563zm0 0" fill="#4482c3"/><path d="m230.015625 97.101562 88.277344 88.277344h-70.621094c-9.75 0-17.65625-7.902344-17.65625-17.65625zm0 0" fill="#9fc9d3"/><path d="m189.585938 309.671875 52.878906 52.878906c6.84375 6.882813 6.839844 18.003907-.011719 24.878907-6.851563 6.878906-17.976563 6.921874-24.882813.101562l-53.9375-53.847656zm0 0" fill="#cc4b4c"/><path d="m256.5 35.308594c0-19.5-7.90625-35.308594-17.65625-35.308594s-17.652344 15.808594-17.652344 35.308594c0 19.503906 7.902344 35.3125 17.652344 35.3125s17.65625-15.808594 17.65625-35.3125zm0 0" fill="#f0c419"/><path d="m327.121094 35.308594c0-19.5-7.90625-35.308594-17.65625-35.308594s-17.65625 15.808594-17.65625 35.308594c0 19.503906 7.90625 35.3125 17.65625 35.3125s17.65625-15.808594 17.65625-35.3125zm0 0" fill="#f0c419"/><g fill="#35495e"><path d="m53.464844 414.898438h-8.828125c-4.875 0-8.828125-3.953126-8.828125-8.828126s3.953125-8.828124 8.828125-8.828124h8.828125c4.875 0 8.828125 3.953124 8.828125 8.828124s-3.953125 8.828126-8.828125 8.828126zm0 0"/><path d="m141.742188 414.898438h-52.964844c-4.875 0-8.828125-3.953126-8.828125-8.828126s3.953125-8.828124 8.828125-8.828124h52.964844c4.875 0 8.828124 3.953124 8.828124 8.828124s-3.953124 8.828126-8.828124 8.828126zm0 0"/><path d="m141.742188 450.207031h-97.105469c-4.875 0-8.828125-3.953125-8.828125-8.828125s3.953125-8.828125 8.828125-8.828125h97.105469c4.875 0 8.828124 3.953125 8.828124 8.828125s-3.953124 8.828125-8.828124 8.828125zm0 0"/></g><path d="m424.222656 256h8.828125c9.75 0 17.65625-7.90625 17.65625-17.65625v-8.828125c0-9.75-7.90625-17.652344-17.65625-17.652344h-123.585937c-9.75 0-17.65625 7.902344-17.65625 17.652344v8.828125c0 9.75 7.90625 17.65625 17.65625 17.65625h8.828125" fill="#90bae1"/><path d="m472.070312 512h-201.621093c-13.09375-.023438-25.097657-7.28125-31.203125-18.859375-6.105469-11.582031-5.308594-25.589844 2.070312-36.402344l75.386719-110.167969c1.039063-1.472656 1.59375-3.230468 1.589844-5.03125v-85.539062h105.929687v85.539062c0 1.800782.554688 3.558594 1.589844 5.03125l75.386719 110.167969c7.378906 10.8125 8.175781 24.820313 2.074219 36.402344-6.105469 11.578125-18.113282 18.835937-31.203126 18.859375zm0 0" fill="#b0d3f0"/><path d="m371.257812 476.691406h84.445313c3.246094 0 6.226563-1.78125 7.769531-4.640625 1.539063-2.855469 1.390625-6.324219-.394531-9.039062l-63.835937-97.109375c-1.617188-2.472656-4.371094-3.964844-7.328126-3.972656h-41.3125c-2.953124.007812-5.707031 1.5-7.328124 3.972656l-63.835938 97.109375c-1.78125 2.714843-1.933594 6.183593-.390625 9.039062 1.539063 2.859375 4.523437 4.640625 7.769531 4.640625zm0 0" fill="#d75e72"/><path d="m335.949219 450.207031c-2.335938-.035156-4.574219-.949219-6.269531-2.558593-3.414063-3.484376-3.414063-9.054688 0-12.535157 2.558593-2.46875 6.332031-3.195312 9.625-1.855469 1.078124.425782 2.066406 1.054688 2.910156 1.855469.382812.417969.734375.859375 1.058594 1.324219.335937.492188.601562 1.023438.796874 1.585938.253907.503906.429688 1.039062.527344 1.589843.238282 1.164063.238282 2.367188 0 3.53125-.097656.554688-.273437 1.089844-.527344 1.589844-.195312.5625-.460937 1.097656-.796874 1.589844-.324219.460937-.679688.902343-1.058594 1.324219-1.691406 1.609374-3.929688 2.523437-6.265625 2.558593zm0 0" fill="#802d40"/><path d="m362.429688 423.722656c-2.335938-.035156-4.574219-.949218-6.265626-2.558594-3.414062-3.480468-3.414062-9.054687 0-12.535156 2.558594-2.46875 6.328126-3.195312 9.621094-1.855468 1.082032.429687 2.070313 1.058593 2.914063 1.855468.378906.417969.734375.859375 1.058593 1.324219.332032.492187.601563 1.027344.792969 1.589844.253907.5.433594 1.035156.53125 1.589843.234375 1.164063.234375 2.363282 0 3.527344-.097656.554688-.277343 1.089844-.53125 1.589844-.191406.5625-.457031 1.097656-.792969 1.589844-.324218.460937-.679687.90625-1.058593 1.324218-1.695313 1.609376-3.929688 2.523438-6.269531 2.558594zm0 0" fill="#802d40"/><path d="m388.914062 450.207031c-2.335937-.035156-4.574218-.949219-6.269531-2.558593-3.410156-3.484376-3.410156-9.054688 0-12.535157 2.558594-2.46875 6.332031-3.195312 9.625-1.855469 1.078125.425782 2.066407 1.054688 2.910157 1.855469.382812.417969.738281.859375 1.0625 1.324219.332031.492188.597656 1.023438.792968 1.585938.253906.503906.429688 1.039062.53125 1.589843.234375 1.164063.234375 2.367188 0 3.53125-.101562.554688-.277344 1.089844-.53125 1.589844-.195312.5625-.460937 1.097656-.792968 1.589844-.328126.460937-.679688.902343-1.0625 1.324219-1.691407 1.609374-3.929688 2.523437-6.265626 2.558593zm0 0" fill="#802d40"/><path d="m353.601562 300.136719c-4.875 0-8.824218-3.949219-8.824218-8.828125v-8.824219c0-4.878906 3.949218-8.828125 8.824218-8.828125 4.878907 0 8.828126 3.949219 8.828126 8.828125v8.824219c0 4.878906-3.949219 8.828125-8.828126 8.828125zm0 0" fill="#90bae1"/><path d="m353.601562 335.449219c-1.152343-.015625-2.292968-.253907-3.351562-.707031-1.070312-.449219-2.054688-1.074219-2.914062-1.855469-1.625-1.679688-2.542969-3.925781-2.558594-6.265625.03125-2.335938.945312-4.578125 2.558594-6.269532.859374-.777343 1.84375-1.40625 2.914062-1.851562 3.285156-1.382812 7.082031-.652344 9.621094 1.851562 1.609375 1.695313 2.523437 3.933594 2.558594 6.269532-.019532.589844-.078126 1.179687-.175782 1.765625-.097656.550781-.277344 1.085937-.527344 1.589843-.195312.5625-.460937 1.09375-.796874 1.585938-.351563.441406-.707032.882812-1.058594 1.324219-1.695313 1.613281-3.929688 2.527343-6.269532 2.5625zm0 0" fill="#90bae1"/><path d="m203.535156 264.828125c0 43.878906-35.570312 79.449219-79.449218 79.449219-43.878907 0-79.449219-35.570313-79.449219-79.449219s35.570312-79.449219 79.449219-79.449219c43.878906 0 79.449218 35.570313 79.449218 79.449219zm0 0" fill="#d1d4d1"/><path d="m168.222656 264.828125c0 24.375-19.757812 44.136719-44.136718 44.136719-24.375 0-44.136719-19.761719-44.136719-44.136719 0-24.378906 19.761719-44.136719 44.136719-44.136719 24.378906 0 44.136718 19.757813 44.136718 44.136719zm0 0" fill="#90bae1"/></svg>