<svg height="512pt" viewBox="0 -44 512 512" width="512pt" xmlns="http://www.w3.org/2000/svg"><path d="m26.484375 300.136719v-291.308594c-.234375-4.628906 3.316406-8.574219 7.941406-8.828125h443.148438c4.625.253906 8.175781 4.199219 7.941406 8.828125v291.308594zm0 0" fill="#2c3e50"/><path d="m44.136719 300.136719v-274.171875c-.253907-4.316406 3.023437-8.027344 7.335937-8.308594h409.054688c4.3125.28125 7.589844 3.992188 7.335937 8.308594v274.171875zm0 0" fill="#3b97d3"/><path d="m166.367188 300.136719h-122.230469v-274.171875c-.253907-4.316406 3.023437-8.027344 7.335937-8.308594h391.945313c-309.648438 16.617188-277.050781 282.480469-277.050781 282.480469zm0 0" fill="#2980ba"/><path d="m17.65625 300.136719h476.6875c9.75 0 17.65625 7.90625 17.65625 17.65625v17.65625c0 9.75-7.90625 17.652343-17.65625 17.652343h-476.6875c-9.75 0-17.65625-7.902343-17.65625-17.652343v-17.65625c0-9.75 7.90625-17.65625 17.65625-17.65625zm0 0" fill="#2c3e50"/><path d="m406.070312 379.601562h105.929688v22.0625c-.078125 5.9375-2.515625 11.597657-6.773438 15.738282-4.257812 4.136718-9.988281 6.414062-15.925781 6.320312h-166.464843c-5.9375.09375-11.667969-2.183594-15.925782-6.320312-4.257812-4.140625-6.695312-9.800782-6.773437-15.738282v-308.867187c.078125-5.9375 2.515625-11.601563 6.773437-15.742187 4.257813-4.136719 9.988282-6.414063 15.925782-6.320313h166.464843c5.9375-.09375 11.667969 2.183594 15.925781 6.320313 4.257813 4.140624 6.695313 9.804687 6.773438 15.742187v286.894531" fill="#2c3e50"/><path d="m406.070312 379.605469h-105.933593v-264.75h211.863281v264.835937zm0 0" fill="#90bae1"/><path d="m512 114.847656v264.828125l-105.929688-.089843h-79.449218s-8.828125-185.289063 167.546875-264.738282zm0 0" fill="#b0d3f0"/></svg>