<?xml version="1.0" encoding="UTF-8"?>
<svg xmlns="http://www.w3.org/2000/svg" xmlns:xlink="http://www.w3.org/1999/xlink" width="512" height="512" viewBox="0 0 58 58" version="1.1"><!-- Generator: Sketch 51.3 (57544) - http://www.bohemiancoding.com/sketch --><title>025 - Ideas</title><desc>Created with Sketch.</desc><defs/><g id="Page-1" stroke="none" stroke-width="1" fill="none" fill-rule="evenodd"><g id="025---Ideas" fill-rule="nonzero"><path d="M40.3433,4.5024 L36.3833,8.2824 L36.38,8.28 C37.1790828,8.55057999 37.9577445,8.87808574 38.71,9.26 C38.98,9.39 39.25,9.53 39.52,9.68 C39.74,9.8 39.96,9.92 40.18,10.06 C40.9004522,10.4814077 41.5950281,10.9455714 42.26,11.45 C42.48,11.61 42.7,11.78 42.91,11.96 C43.08,12.1 43.25,12.24 43.42,12.39 C43.9408153,12.8408495 44.4381367,13.3181446 44.91,13.82 C45.0543028,13.9558531 45.1911685,14.0993952 45.32,14.25 C45.8784714,14.8647655 46.3994143,15.5126048 46.88,16.19 C47.0491229,16.4112638 47.2060237,16.6416074 47.35,16.88 C47.61,17.26 47.86,17.65 48.09,18.06 C48.18,18.22 48.28,18.39 48.37,18.56 C48.54,18.88 48.71,19.2 48.86,19.54 C49,19.82 49.13,20.11 49.25,20.4 C49.38,20.69 49.5,20.99 49.61,21.29 C49.6218101,21.3125153 49.6318407,21.3359201 49.64,21.36 C49.83,21.88 50,22.42 50.16,22.97 C50.1891945,23.0617695 50.2125742,23.1552883 50.23,23.25 C50.39,23.82 50.52,24.41 50.63,25 C50.69,25.3 50.74,25.61 50.78,25.91 C50.82,26.14 50.85,26.38 50.87,26.62 C50.89,26.8 50.91,26.99 50.92,27.17 C50.9320725,27.2427411 50.9387573,27.3162744 50.94,27.39 C50.96,27.63 50.97,27.87 50.98,28.11 C50.99,28.4 51,28.7 51,29 L48,29 L50.82,31.82 L53,34 L55.91,31.09 L58,29 L56,29 C56,28.66 55.99,28.32 55.98,27.99 C55.96,27.31 55.91,26.65 55.83,25.99 C55.79,25.66 55.75,25.33 55.7,25 C55.64,24.59 55.57,24.19 55.49,23.79 C55.41,23.39 55.33,22.99 55.23,22.6 C55.14,22.21 55.03,21.82 54.92,21.43 C54.81,21.04 54.68,20.66 54.56,20.28 C54.43,19.9 54.29,19.52 54.14,19.15 C54,18.78 53.84,18.41 53.68,18.05 C53.52,17.69 53.35,17.33 53.17,16.97 C52.99,16.62 52.81,16.27 52.62,15.92 L52.62,15.91 C52.42,15.57 52.22,15.23 52.02,14.9 C51.82,14.58 51.62,14.26 51.41,13.95 C51.3919795,13.9242037 51.375291,13.8975022 51.36,13.87 C51.14,13.56 50.92,13.25 50.69,12.94 C50.46,12.62 50.22,12.31 49.97,12.01 L49.97,12 C49.72,11.7 49.47,11.4 49.21,11.11 C48.95,10.82 48.69,10.53 48.42,10.25 C48.41,10.24 48.4,10.24 48.4,10.23 C48.15,9.97 47.89,9.72 47.63,9.47 C47.32,9.17 47.01,8.89 46.69,8.61 C46.4,8.36 46.1,8.11 45.79,7.87 C44.3676992,6.72840444 42.8292299,5.73962793 41.2,4.92 C40.93,4.78 40.66,4.64 40.38,4.52 C40.37,4.51 40.35,4.51 40.34,4.5 L40.3433,4.5024 Z" id="Shape" fill="#C03A2B"/><path d="M8.27,21.61 C8.2824665,21.5715656 8.29923976,21.5346645 8.32,21.5 C8.31,21.49 8.32,21.49 8.32,21.48 C8.35,21.39 8.39,21.29 8.42,21.2 C8.51,20.98 8.59,20.76 8.68,20.55 C8.71,20.49 8.73,20.43 8.76,20.37 C8.85,20.14 8.96,19.91 9.07,19.68 C9.14,19.53 9.21,19.38 9.29,19.23 C9.37,19.07 9.45,18.9 9.54,18.74 C9.58,18.66 9.63,18.59 9.67,18.51 C9.68,18.49 9.69,18.48 9.69,18.46 C9.75908855,18.3224502 9.83587706,18.188905 9.92,18.06 C9.93167499,18.0357574 9.94504133,18.0123663 9.96,17.99 C9.98273195,17.9379989 10.0094795,17.8878472 10.04,17.84 C10.05,17.82 10.07,17.81 10.08,17.79 C10.2033384,17.5555597 10.3402372,17.3285079 10.49,17.11 C10.62,16.89 10.76,16.69 10.91,16.48 C10.93,16.46 10.94,16.43 10.96,16.41 C11.19,16.08 11.43,15.76 11.68,15.44 C11.68,15.43 11.69,15.42 11.7,15.41 C11.93,15.11 12.16,14.83 12.41,14.55 C12.44,14.52 12.47,14.48 12.5,14.45 C12.6759068,14.2370449 12.8628287,14.0334336 13.06,13.84 L13.21,13.69 C13.39,13.5 13.58,13.31 13.77,13.14 C13.7808008,13.1214562 13.7942794,13.104608 13.81,13.09 C13.97,12.93 14.14,12.77 14.31,12.62 C14.3545142,12.5775551 14.4012464,12.5374989 14.45,12.5 L14.69,12.29 C14.84,12.16 15,12.03 15.16,11.9 C15.36,11.74 15.56,11.58 15.77,11.43 C15.91,11.32 16.05,11.22 16.19,11.12 C16.32,11.02 16.46,10.93 16.6,10.84 C16.91,10.62 17.22,10.41 17.55,10.22 C17.7186021,10.1034581 17.8957736,9.99982945 18.08,9.91 C18.33,9.76 18.58,9.62 18.84,9.49 C18.871969,9.4678094 18.9053758,9.44776533 18.94,9.43 C19.39,9.2 19.85,8.98 20.32,8.78 C20.7,8.62 21.09,8.46 21.49,8.32 C21.5017335,8.31204626 21.515904,8.30850362 21.53,8.31 C21.75,8.22 21.96,8.15 22.19,8.08 C22.37,8.02 22.55,7.97 22.73,7.92 C22.87,7.87 23.02,7.83 23.17,7.79 C23.218646,7.77202702 23.268864,7.75863556 23.32,7.75 C23.46,7.7 23.6,7.67 23.75,7.63 C23.88,7.6 24.02,7.57 24.15,7.54 C24.43,7.47 24.72,7.42 25,7.37 C25.16,7.33 25.33,7.31 25.49,7.28 L25.91,7.22 C26.0753379,7.19015942 26.2422961,7.17012443 26.41,7.16 C26.5,7.15 26.59,7.13 26.69,7.12 L26.73,7.12 C26.8322048,7.10058548 26.935969,7.09054379 27.04,7.09 C27.2325188,7.06672204 27.4261083,7.05337103 27.62,7.05 C27.816033,7.03003217 28.0129526,7.02001931 28.21,7.02 C28.47,7 28.73,7 29,7 L29.0033,7.0024 L29.0033,10.0024 L31.8233,7.1824 L34.0033,5.0024 L31.0933,2.0924 L29.0033,0.0024 L29.0033,2.0024 L29,2 C28.53,2 28.07,2.01 27.61,2.04 C27.21,2.06 26.82,2.08 26.43,2.13 C26.19,2.15 25.95,2.18 25.71,2.21 C25.47,2.23 25.23,2.26 25,2.3 C24.98,2.3 24.95,2.31 24.93,2.31 C24.55,2.37 24.17,2.43 23.79,2.51 C23.68,2.53 23.58,2.55 23.47,2.57 L23.08,2.66 C22.9,2.7 22.73,2.74 22.56,2.78 C22.46,2.8 22.36,2.83 22.26,2.85 L22.05,2.91 C21.96,2.93 21.87,2.96 21.79,2.98 C21.53,3.05 21.27,3.13 21.02,3.21 C20.81,3.27 20.6,3.34 20.39,3.41 C20.21,3.47 20.03,3.53 19.85,3.6 C19.54,3.71 19.23,3.83 18.92,3.96 C18.57,4.1 18.22,4.24 17.88,4.4 C17.7,4.48 17.52,4.56 17.35,4.65 C17.17,4.73 16.98,4.82 16.8,4.92 C16.61,5.01 16.42,5.11 16.24,5.21 L15.7,5.51 C15.44,5.66 15.19,5.8 14.94,5.96 C14.69,6.11 14.44,6.26 14.2,6.43 C13.97,6.58 13.74,6.73 13.52,6.89 C13.32,7.02 13.13,7.16 12.94,7.31 C12.8,7.42 12.65,7.52 12.51,7.64 C12.3600067,7.74464622 12.2164163,7.85818287 12.08,7.98 C11.84,8.17 11.6,8.36 11.37,8.57 C11.11,8.79 10.86,9.02 10.61,9.25 C10.37,9.47 10.14,9.69 9.92,9.92 C9.69,10.15 9.47,10.38 9.24,10.62 C8.92,10.96 8.61,11.31 8.31,11.67 C8.28033637,11.7008211 8.25355786,11.7342943 8.23,11.77 C7.93,12.13 7.64,12.49 7.37,12.86 C7.11,13.2 6.86,13.55 6.62,13.91 C6.49,14.09 6.37,14.28 6.26,14.46 C6.14,14.64 6.02,14.83 5.92,15.01 C5.83786124,15.1278803 5.76433693,15.2515348 5.7,15.38 C5.61,15.52 5.53,15.67 5.45,15.81 C5.31,16.05 5.18,16.28 5.06,16.52 C5.0325986,16.5679988 5.00918654,16.6181676 4.99,16.67 C4.85,16.93 4.72,17.19 4.6,17.45 C4.56152865,17.5195752 4.53132361,17.5934098 4.51,17.67 L4.5,17.66 L8.28,21.62 L8.27,21.61 Z" id="Shape" fill="#FF5364"/><path d="M17.6633,53.5024 L21.6233,49.7224 L21.62,49.72 C21.5300235,49.700586 21.4427236,49.6703668 21.36,49.63 C20.9686699,49.4974682 20.5847782,49.3439115 20.21,49.17 C20.07,49.11 19.94,49.05 19.81,48.99 C19.6595585,48.9282001 19.5126657,48.8580921 19.37,48.78 C19.34,48.77 19.32,48.75 19.29,48.74 C18.82,48.51 18.36,48.27 17.91,48 C17.64,47.85 17.37,47.69 17.11,47.51 C16.8683427,47.3661014 16.6346663,47.2092044 16.41,47.04 C16.4,47.03 16.39,47.03 16.38,47.02 C16.2,46.9 16.04,46.78 15.87,46.65 C15.7690466,46.5788993 15.6722233,46.5021083 15.58,46.42 C15.4846256,46.3654911 15.3971493,46.2982016 15.32,46.22 C15.1533219,46.1020052 14.9930918,45.9751564 14.84,45.84 C14.77,45.78 14.7,45.72 14.63,45.65 C14.36,45.43 14.1,45.19 13.84,44.94 L13.8,44.9 C13.52,44.64 13.25,44.36 12.99,44.08 C12.92,44.02 12.87,43.96 12.81,43.9 C12.7215511,43.8148753 12.6380795,43.7247259 12.56,43.63 C12.23,43.26 11.92,42.88 11.62,42.48 C11.6,42.45 11.57,42.42 11.55,42.39 C11.4,42.2 11.26,42.01 11.12,41.81 L10.97,41.6 C10.8108493,41.3920515 10.6639344,41.175018 10.53,40.95 C10.32,40.63 10.11,40.3 9.93,39.96 C9.77,39.7 9.63,39.43 9.48,39.16 C9.46739711,39.1247851 9.45061022,39.0912113 9.43,39.06 C9.26,38.72 9.09,38.38 8.94,38.03 C8.78,37.68 8.63,37.33 8.49,36.97 C8.48230839,36.9620226 8.47863315,36.9509969 8.48,36.94 C8.34,36.57 8.2,36.19 8.08,35.81 C8.06,35.76 8.05,35.71 8.03,35.66 C7.95,35.43 7.89,35.2 7.82,34.97 L7.82,34.96 C7.75,34.73 7.69,34.49 7.63,34.25 L7.57,33.95 C7.53,33.8 7.49,33.64 7.46,33.48 C7.39,33.16 7.33,32.84 7.28,32.51 C7.24,32.25 7.2,31.99 7.17,31.72 C7.16172033,31.6839522 7.15835648,31.6469499 7.16,31.61 C7.13,31.4 7.11,31.18 7.09,30.96 C7.07,30.78 7.06,30.6 7.05,30.42 L7.05,30.38 C7.04,30.24 7.03,30.11 7.03,29.97 C7.01,29.65 7,29.33 7,29 L10,29 L7.18,26.18 L5,24 L2.09,26.91 L0,29 L2,29 C2,29.13 2,29.26 2.01,29.39 C2.00333478,29.5200642 2.00667797,29.6504483 2.02,29.78 C2.02,29.95 2.03,30.13 2.04,30.31 L2.04,30.39 L2.1,31.32 C2.13,31.66 2.16,31.99 2.21,32.32 C2.24,32.57 2.27,32.82 2.31,33.07 C2.37,33.46 2.43,33.83 2.51,34.21 C2.53,34.32 2.55,34.42 2.57,34.53 C2.58744498,34.6279938 2.61082128,34.7248385 2.64,34.82 L2.7,35.06 C2.74,35.26 2.78,35.45 2.83,35.64 C2.83182332,35.6741216 2.83855936,35.7078018 2.85,35.74 C2.97,36.22 3.11,36.7 3.27,37.17 C3.31,37.32 3.36,37.46 3.41,37.61 C3.47,37.78 3.53,37.96 3.59,38.13 C3.61,38.18 3.62,38.22 3.64,38.27 C3.74,38.53 3.83,38.79 3.94,39.04 C4,39.19 4.06,39.35 4.13,39.5 C4.80429032,41.1094792 5.63847391,42.6471912 6.62,44.09 C6.86,44.45 7.11,44.8 7.37,45.14 C7.63,45.49 7.9,45.83 8.18,46.16 C8.46,46.5 8.74,46.82 9.03,47.14 C9.32,47.46 9.62,47.78 9.92,48.08 C10.22,48.38 10.54,48.68 10.86,48.97 C11.18,49.26 11.5,49.54 11.84,49.82 C12.17,50.1 12.51,50.37 12.86,50.63 C13.2,50.89 13.55,51.14 13.91,51.38 C14.27,51.62 14.64,51.86 15.01,52.08 C15.3,52.26 15.59,52.43 15.89,52.59 C15.97,52.65 16.06,52.69 16.14,52.74 L16.44,52.89 C16.66,53.01 16.88,53.12 17.1,53.23 C17.22,53.29 17.33,53.35 17.45,53.4 C17.5195752,53.4384714 17.5934098,53.4686764 17.67,53.49 L17.6633,53.5024 Z" id="Shape" fill="#894B9D"/><path d="M29.0033,56.0024 L29.0033,58.0024 L26.9133,55.9124 L24.0033,53.0024 L26.1833,50.8224 L29.0033,48.0024 L29.0033,51.0024 L29,51 C29.38,51 29.76,50.99 30.13,50.97 C30.23,50.97 30.34,50.96 30.44,50.95 C30.6040138,50.947021 30.7676745,50.9336609 30.93,50.91 C31.3,50.88 31.66,50.84 32.02,50.79 C32.35,50.75 32.68,50.7 33,50.63 C33.32,50.58 33.64,50.51 33.95,50.43 C34.26,50.37 34.56,50.29 34.86,50.21 C34.9,50.2 34.93,50.19 34.97,50.18 C34.99,50.17 35.01,50.17 35.03,50.16 C35.21,50.11 35.39,50.06 35.57,50 C35.651437,49.9778555 35.7315637,49.9511466 35.81,49.92 C36.2,49.8 36.57,49.67 36.94,49.52 C37.31,49.38 37.68,49.23 38.03,49.06 C38.35,48.92 38.65,48.78 38.96,48.62 C39.36,48.42 39.75,48.2 40.13,47.98 C40.2323065,47.9296029 40.329436,47.8693156 40.42,47.8 C40.59,47.7 40.76,47.59 40.93,47.48 C41.16,47.33 41.38,47.18 41.6,47.03 C42.1264128,46.6663479 42.6337511,46.2758308 43.12,45.86 C43.34,45.69 43.55,45.5 43.75,45.32 C43.86,45.22 43.97,45.12 44.08,45.01 C44.1,45.01 44.11,44.99 44.13,44.96 C44.39,44.72 44.66,44.46 44.9,44.2 C45.18,43.91 45.45,43.62 45.71,43.31 C45.89,43.1 46.07,42.88 46.24,42.66 C46.2663883,42.6325061 46.2898476,42.6023441 46.31,42.57 C46.43,42.43 46.54,42.28 46.65,42.13 C46.8,41.93 46.95,41.73 47.09,41.52 L47.51,40.89 C47.66,40.66 47.8,40.42 47.94,40.19 C47.96,40.16 47.98,40.12 48,40.09 C48.12,39.88 48.24,39.67 48.35,39.46 C48.3904759,39.3955004 48.4272034,39.3287232 48.46,39.26 C48.57,39.06 48.68,38.84 48.78,38.63 C48.89,38.41 48.99,38.18 49.09,37.95 C49.32,37.44 49.53,36.91 49.72,36.38 L53.5,40.34 C53.47,40.41 53.43,40.48 53.4,40.55 C53.38,40.6 53.35,40.65 53.33,40.7 C53.14,41.09 52.94,41.48 52.74,41.86 C52.53,42.24 52.31,42.62 52.08,42.99 C51.98,43.17 51.86,43.36 51.74,43.54 C51.62,43.73 51.5,43.91 51.38,44.09 C51.14,44.45 50.89,44.8 50.63,45.14 C50.11,45.83 49.56,46.5 48.97,47.14 C48.69,47.46 48.39,47.78 48.08,48.08 C47.334662,48.835678 46.5395493,49.5405888 45.7,50.19 C45.5802627,50.2984776 45.4533046,50.3987077 45.32,50.49 C45.2000238,50.5920882 45.0730466,50.6856503 44.94,50.77 C44.74,50.92 44.54,51.07 44.34,51.21 C44.01,51.44 43.68,51.66 43.34,51.87 C43,52.09 42.65,52.3 42.3,52.49 C42.15,52.57 42.01,52.65 41.86,52.73 C41.85,52.73 41.85,52.74 41.84,52.74 C41.55622,52.9109544 41.262349,53.0645689 40.96,53.2 C40.66,53.35 40.35,53.5 40.04,53.64 C39.69,53.8 39.33,53.95 38.97,54.09 L38.91,54.12 C38.66,54.22 38.4,54.32 38.15,54.4 C37.97,54.46 37.79,54.53 37.61,54.59 C37.15,54.75 36.68,54.9 36.21,55.02 L35.64,55.17 C35.34,55.25 35.04,55.32 34.74,55.38 C34.57,55.42 34.39,55.46 34.21,55.49 C33.84,55.57 33.46,55.64 33.08,55.69 C33.05,55.69 33.03,55.7 33,55.7 C32.78,55.74 32.56,55.77 32.33,55.79 C32.04,55.83 31.75,55.86 31.46,55.88 C31.08,55.92 30.7,55.94 30.31,55.96 C30.13,55.97 29.95,55.98 29.78,55.98 C29.52,56 29.26,56 29,56" id="Shape" fill="#804169"/><path d="M39,24 C39.0047124,19.4953204 35.9969683,15.5435533 31.6538067,14.3481002 C27.3106451,13.1526471 22.7043166,15.0086445 20.4031891,18.881237 C18.1020615,22.7538295 18.6742429,27.6869417 21.8007,30.93 C23.1796954,32.3067699 23.9685045,34.1663336 24,36.1147 L24,37 L34,37 L34,36.3366 C34.0348763,34.274171 34.8566328,32.303043 36.2971,30.8266 C38.0360888,28.9792892 39.0030599,26.5370514 39,24 Z" id="Shape" fill="#F3D55B"/><path d="M23.0312,24.3848 C22.9984379,24.3848387 22.9656952,24.3832032 22.9331,24.3799 C22.3835676,24.3261314 21.9816117,23.83715 22.0352,23.2876 C22.3960854,20.0336682 24.9415126,17.4518885 28.19,17.0449 C28.4591599,17.0153356 28.7297215,17.0003471 29.0005,17 C29.5527847,17 30.0005,17.4477153 30.0005,18 C30.0005,18.5522847 29.5527847,19 29.0005,19 C28.8024419,19.0002289 28.6045451,19.0113122 28.4077,19.0332 C26.09394,19.324279 24.2816539,21.1640247 24.0254,23.4819 C23.9754652,23.9937349 23.5454647,24.3842473 23.0312,24.3848 Z" id="Shape" fill="#F5EFCA"/><path d="M31,39.1665 C30.4477153,39.1665 30,38.7187847 30,38.1665 L30,34 C30,33.4477153 30.4477153,33 31,33 C31.5522847,33 32,33.4477153 32,34 L32,38.1665 C32,38.7187847 31.5522847,39.1665 31,39.1665 Z" id="Shape" fill="#E57E25"/><path d="M27,40 C26.4477153,40 26,39.5522847 26,39 L26,34 C26,33.4477153 26.4477153,33 27,33 C27.5522847,33 28,33.4477153 28,34 L28,39 C28,39.5522847 27.5522847,40 27,40 Z" id="Shape" fill="#E57E25"/><path d="M29,31.9875 C28.7352812,31.9835803 28.4817648,31.8800314 28.29,31.6975 C28.1057078,31.5068793 28.0018614,31.2526347 28,30.9875 C28.00158,30.8568227 28.028759,30.7277223 28.08,30.6075 C28.1306908,30.4863407 28.201713,30.3747345 28.29,30.2775 C28.6909822,29.9073854 29.3090178,29.9073854 29.71,30.2775 C29.7981442,30.3748434 29.86915,30.4864239 29.92,30.6075 C29.971241,30.7277223 29.99842,30.8568227 30,30.9875 C29.9979029,31.2525875 29.8940909,31.506748 29.71,31.6975 C29.5181863,31.8799558 29.2647008,31.9834921 29,31.9875 Z" id="Shape" fill="#F5EFCA"/><path d="M24,37 L34,37 L34,41 C34,42.1045695 33.1045695,43 32,43 L26,43 C24.8954305,43 24,42.1045695 24,41 L24,37 Z" id="Shape" fill="#2C3E50"/><path d="M31,41 C30.9329713,40.9976607 30.8661646,40.99098 30.8,40.98 C30.7373999,40.9688658 30.6767606,40.9486527 30.62,40.92 C30.5563135,40.8980219 30.4957944,40.8677623 30.44,40.83 C30.3874542,40.7932905 30.3373486,40.753206 30.29,40.71 C30.1073844,40.5182897 30.0038214,40.2647389 30,40 C30.0020908,39.9329548 30.0087731,39.8661316 30.02,39.8 C30.0308814,39.737336 30.0511067,39.6766601 30.08,39.62 C30.1019781,39.5563135 30.1322377,39.4957944 30.17,39.44 C30.21,39.39 30.25,39.34 30.29,39.29 C30.34,39.25 30.39,39.21 30.44,39.17 C30.4957944,39.1322377 30.5563135,39.1019781 30.62,39.08 C30.6766601,39.0511067 30.737336,39.0308814 30.8,39.02 C31.1290499,38.9594311 31.4672309,39.0597705 31.71,39.29 C31.753206,39.3373486 31.7932905,39.3874542 31.83,39.44 C31.8677623,39.4957944 31.8980219,39.5563135 31.92,39.62 C31.9486527,39.6767606 31.9688658,39.7373999 31.98,39.8 C31.99098,39.8661646 31.9976607,39.9329713 32,40 C32.0027011,40.2660353 31.8982118,40.5219616 31.7100867,40.7100867 C31.5219616,40.8982118 31.2660353,41.0027011 31,41 Z" id="Shape" fill="#547580"/></g></g></svg>
