<?xml version="1.0" encoding="iso-8859-1"?>
<!-- Generator: Adobe Illustrator 19.0.0, SVG Export Plug-In . SVG Version: 6.00 Build 0)  -->
<svg version="1.1" id="Layer_1" xmlns="http://www.w3.org/2000/svg" xmlns:xlink="http://www.w3.org/1999/xlink" x="0px" y="0px"
	 viewBox="0 0 512 512" style="enable-background:new 0 0 512 512;" xml:space="preserve">
<g>
	<path style="fill:#8697CB;" d="M412.954,476.69H99.046c-15.695,0-28.425-12.729-28.425-28.425V28.425
		C70.621,12.729,83.35,0,99.046,0h313.909c15.695,0,28.425,12.729,28.425,28.425v419.84
		C441.379,463.96,428.65,476.69,412.954,476.69"/>
	<g>
		<path style="fill:#556080;" d="M161.026,512h-39.565c-8.58,0-15.528-6.947-15.528-15.528V476.69h70.621v19.783
			C176.553,505.053,169.597,512,161.026,512"/>
		<path style="fill:#556080;" d="M390.543,512h-39.565c-8.58,0-15.528-6.947-15.528-15.528V476.69h70.621v19.783
			C406.071,505.053,399.115,512,390.543,512"/>
	</g>
	<g>
		<path style="fill:#FFFFFF;" d="M131.228,176.552h-15.281c-5.535,0-10.019-4.484-10.019-10.01v-50.6
			c0-5.526,4.484-10.01,10.019-10.01h15.281c5.526,0,10.01,4.484,10.01,10.01v50.6C141.239,172.067,136.754,176.552,131.228,176.552
			"/>
		<path style="fill:#FFFFFF;" d="M131.228,370.759h-15.281c-5.535,0-10.019-4.484-10.019-10.01v-50.6
			c0-5.526,4.484-10.01,10.019-10.01h15.281c5.526,0,10.01,4.484,10.01,10.01v50.6C141.239,366.274,136.754,370.759,131.228,370.759
			"/>
	</g>
	<path style="fill:#556080;" d="M123.586,68.808v37.12h7.645c5.526,0,10.01,4.484,10.01,10.019v50.591
		c0,5.535-4.484,10.01-10.01,10.01h-7.645v123.586h7.645c5.526,0,10.01,4.484,10.01,10.019v50.591c0,5.535-4.484,10.01-10.01,10.01
		h-7.645v37.129c0,8.748,7.089,15.837,15.846,15.837h233.137c8.757,0,15.845-7.089,15.845-15.837V68.808
		c0-8.748-7.089-15.846-15.845-15.846H139.432C130.675,52.962,123.586,60.059,123.586,68.808"/>
	<path style="fill:#8697CB;" d="M317.793,158.897c0,34.127-27.666,61.793-61.793,61.793s-61.793-27.666-61.793-61.793
		S221.873,97.103,256,97.103S317.793,124.769,317.793,158.897"/>
	<g>
		<path style="fill:#FFFFFF;" d="M256,132.414c-4.873,0-8.828-3.955-8.828-8.828V97.103c0-4.873,3.955-8.828,8.828-8.828
			s8.828,3.955,8.828,8.828v26.483C264.828,128.459,260.873,132.414,256,132.414"/>
		<path style="fill:#FFFFFF;" d="M256,229.517c-4.873,0-8.828-3.955-8.828-8.828v-26.483c0-4.873,3.955-8.828,8.828-8.828
			s8.828,3.955,8.828,8.828v26.483C264.828,225.562,260.873,229.517,256,229.517"/>
		<path style="fill:#FFFFFF;" d="M317.793,167.724H291.31c-4.873,0-8.828-3.955-8.828-8.828c0-4.873,3.955-8.828,8.828-8.828h26.483
			c4.873,0,8.828,3.955,8.828,8.828C326.621,163.769,322.666,167.724,317.793,167.724"/>
		<path style="fill:#FFFFFF;" d="M220.69,167.724h-26.483c-4.873,0-8.828-3.955-8.828-8.828c0-4.873,3.955-8.828,8.828-8.828h26.483
			c4.873,0,8.828,3.955,8.828,8.828C229.517,163.769,225.562,167.724,220.69,167.724"/>
	</g>
	<g>
		<path style="fill:#8697CB;" d="M256,397.241c-4.873,0-8.828-3.955-8.828-8.828v-44.138c0-4.873,3.955-8.828,8.828-8.828
			s8.828,3.955,8.828,8.828v44.138C264.828,393.287,260.873,397.241,256,397.241"/>
		<path style="fill:#8697CB;" d="M274.729,307.896c-2.595,0-5.173-1.139-6.912-3.328c-3.037-3.822-2.401-9.375,1.412-12.412
			l43.07-34.242c3.814-3.037,9.357-2.392,12.403,1.421c3.037,3.814,2.401,9.366-1.412,12.403l-43.07,34.242
			C278.595,307.27,276.653,307.896,274.729,307.896"/>
		<path style="fill:#8697CB;" d="M237.271,307.896c-1.924,0-3.866-0.627-5.491-1.916l-43.07-34.242
			c-3.814-3.037-4.449-8.589-1.412-12.403c3.028-3.814,8.58-4.458,12.403-1.421l43.07,34.242c3.814,3.037,4.449,8.589,1.412,12.412
			C242.444,306.758,239.867,307.896,237.271,307.896"/>
	</g>
	<g>
		<path style="fill:#FFFFFF;" d="M388.414,291.31h-25.3c-5.526,0-10.01-4.484-10.01-10.01v-85.91c0-5.526,4.484-10.01,10.01-10.01
			h25.3V291.31z"/>
		<path style="fill:#FFFFFF;" d="M264.828,158.897c0,4.873-3.955,8.828-8.828,8.828s-8.828-3.955-8.828-8.828
			c0-4.873,3.955-8.828,8.828-8.828S264.828,154.024,264.828,158.897"/>
		<path style="fill:#FFFFFF;" d="M229.517,317.793c0-14.627,11.855-26.483,26.483-26.483c14.627,0,26.483,11.855,26.483,26.483
			c0,14.627-11.855,26.483-26.483,26.483C241.373,344.276,229.517,332.42,229.517,317.793"/>
	</g>
</g>
<g>
</g>
<g>
</g>
<g>
</g>
<g>
</g>
<g>
</g>
<g>
</g>
<g>
</g>
<g>
</g>
<g>
</g>
<g>
</g>
<g>
</g>
<g>
</g>
<g>
</g>
<g>
</g>
<g>
</g>
</svg>
