<svg id="Layer_1" data-name="Layer 1" xmlns="http://www.w3.org/2000/svg" viewBox="0 0 1035 502"><defs><style>.cls-1{fill:#013d4d;}.cls-2{fill:#00a891;}.cls-3{fill:#b1db15;}.cls-4{fill:#fe7600;}.cls-5{fill:#d9126b;}.cls-6{fill:#6d0935;}.cls-7{fill:#596d0b;}.cls-8{fill:#005448;}.cls-9{fill:#012029;}.cls-10{font-size:25px;fill:#fff;font-family:MyriadPro-BoldCond, Myriad Pro;font-weight:700;}.cls-11{letter-spacing:-0.01em;}.cls-12{letter-spacing:0em;}.cls-13{letter-spacing:0.01em;}.cls-14{letter-spacing:-0.01em;}.cls-15{letter-spacing:0em;}.cls-16{letter-spacing:0em;}.cls-17{letter-spacing:0em;}.cls-18{letter-spacing:-0.01em;}.cls-19{letter-spacing:-0.01em;}</style></defs><title>TaxonoBloom</title><rect class="cls-1" y="155" width="193" height="347"/><rect class="cls-2" x="211" y="112" width="193" height="347"/><rect class="cls-3" x="424" y="76" width="193" height="347"/><rect class="cls-4" x="633" y="36" width="193" height="347"/><polygon class="cls-5" points="850 423 850 0 1035 211 850 423"/><polygon class="cls-6" points="850 340.14 826 383 826 36 850 0 850 340.14"/><polygon class="cls-7" points="633 36 617 76 617 423 633 383 633 36"/><polygon class="cls-8" points="424 76 404 112 404 459 424 423 424 76"/><polygon class="cls-9" points="211 112 193 155 193 502 211 459 211 112"/><text class="cls-10" transform="translate(33.96 328.43)"><tspan class="cls-11">A</tspan><tspan x="11.3" y="0">ce</tspan><tspan class="cls-12" x="29.85" y="0">r</tspan><tspan class="cls-13" x="37.1" y="0">c</tspan><tspan x="45.55" y="0">amien</tspan><tspan class="cls-14" x="100.6" y="0">t</tspan><tspan class="cls-15" x="108.22" y="0">o</tspan></text><text class="cls-10" transform="translate(249.96 285.43)"><tspan class="cls-16">C</tspan><tspan x="9.75" y="0">omp</tspan><tspan class="cls-17" x="48.7" y="0">r</tspan><tspan class="cls-15" x="55.95" y="0">ensión</tspan></text><text class="cls-10" transform="translate(476.62 248.43)">Apli<tspan class="cls-13" x="33.82" y="0">c</tspan><tspan class="cls-15" x="42.27" y="0">ación</tspan></text><text class="cls-10" transform="translate(682.41 209.43)"><tspan class="cls-18">E</tspan><tspan class="cls-19" x="9.58" y="0">v</tspan><tspan x="19.2" y="0">aluación</tspan></text></svg>