<svg id="Capa_1" data-name="Capa 1" xmlns="http://www.w3.org/2000/svg" viewBox="0 0 512 512"><defs><style>.cls-1{fill:#ffd400;}.cls-2{fill:#ff9f00;}.cls-3{fill:#ff7816;}</style></defs><title>coin</title><path class="cls-1" d="M256,26.14C129,26.14,26.14,129,26.14,256S129,485.86,256,485.86,485.86,383,485.86,256,383,26.14,256,26.14Z"/><path class="cls-2" d="M485.86,256C485.86,129,383,26.14,256,26.14V485.86C383,485.86,485.86,383,485.86,256Z"/><path class="cls-2" d="M256,81.83A174.17,174.17,0,1,0,430.17,256,174.12,174.12,0,0,0,256,81.83Z"/><path class="cls-3" d="M430.17,256A174.12,174.12,0,0,1,256,430.17V81.83A174.12,174.12,0,0,1,430.17,256Z"/><path class="cls-1" d="M378.28,224.18a25.09,25.09,0,0,0-20.22-17.25L302.84,199l-24.65-48.81c-4.44-8.39-13.31-12.33-22.19-12.33s-17.75,3.94-22.19,12.33L209.16,199l-55.22,7.89a24.54,24.54,0,0,0-13.32,42.4l39.45,38-9.37,53.25a25,25,0,0,0,9.86,24.16c7.4,5.42,17.75,6.41,25.64,2L256,341l49.8,25.64a24.11,24.11,0,0,0,25.64-2,25,25,0,0,0,9.86-24.16l-9.37-53.25,39.45-38C378.28,243.08,380.74,233.22,378.28,224.18Z"/><path class="cls-2" d="M305.8,366,256,340.38V137.08c8.88,0,17.75,3.94,22.19,12.32l24.65,48.82,55.22,7.89a24.54,24.54,0,0,1,13.32,42.4l-39.45,38,9.37,53.25a25,25,0,0,1-9.86,24.16A24.11,24.11,0,0,1,305.8,366Z"/></svg>