<?xml version="1.0" encoding="utf-8"?>
<!-- Generator: Adobe Illustrator 23.0.3, SVG Export Plug-In . SVG Version: 6.00 Build 0)  -->
<svg version="1.1" id="Capa_1" xmlns="http://www.w3.org/2000/svg" xmlns:xlink="http://www.w3.org/1999/xlink" x="0px" y="0px"
	 viewBox="0 0 512 512" style="enable-background:new 0 0 512 512;" xml:space="preserve">
<style type="text/css">
	.st0{fill:#FFD400;}
	.st1{fill:#FF9F00;}
	.st2{fill:#FF7816;}
</style>
<path class="st0" d="M456.1,199.4c-3.8-3.3-9.1-3.7-13.3-1l-99.2,62.8L267,119c-2.1-4-6.1-6.4-10.3-6.4c-4.2,0-8.2,2.4-10.3,6.4
	l-76.6,142.1l-99.2-62.8c-4.2-2.7-9.5-2.3-13.3,1c-3.8,3.3-5.5,8.8-4.1,13.9l51.3,194.9c1.5,5.6,6.2,9.5,11.5,9.5h281.5
	c5.3,0,10-3.9,11.5-9.5l51.3-194.9C461.6,208.2,460,202.6,456.1,199.4z"/>
<path class="st1" d="M456.1,199.4c-3.8-3.3-9.1-3.7-13.3-1l-99.2,62.8L267,119c-2.1-4-6.1-6.4-10.3-6.4v305.1h140.8
	c5.3,0,10-3.9,11.5-9.5l51.3-194.9C461.6,208.2,460,202.6,456.1,199.4z"/>
<path class="st1" d="M327.9,286.1c-1.7-5.4-6.3-9.2-11.7-10l-32-4.6l-14.3-28.3c-2.6-4.9-7.7-7.2-12.9-7.2c-5.1,0-10.3,2.3-12.9,7.2
	l-14.3,28.3l-32,4.6c-5.4,0.9-10,4.6-11.7,10c-1.4,5.2,0,10.9,4,14.6l22.9,22l-5.4,30.9c-0.9,5.2,1.1,10.6,5.7,14
	c4.3,3.1,10.3,3.7,14.9,1.1l28.9-14.9l28.9,14.9c4.9,2.6,10.6,2,14.9-1.1c4.6-3.4,6.6-8.9,5.7-14l-5.4-30.9l22.9-22
	C327.9,296.9,329.4,291.2,327.9,286.1z"/>
<path class="st2" d="M285.9,368.7L257,353.9V236c5.1,0,10.3,2.3,12.9,7.2l14.3,28.3l32,4.6c5.4,0.9,10,4.6,11.7,10
	c1.4,5.2,0,10.9-4,14.6l-22.9,22l5.4,30.9c0.9,5.1-1.1,10.6-5.7,14C296.5,370.7,290.8,371.3,285.9,368.7z"/>
<circle class="st2" cx="460.7" cy="191.9" r="31.5"/>
<circle class="st1" cx="58.1" cy="191.9" r="31.5"/>
<circle class="st1" cx="256.7" cy="112.5" r="31.5"/>
<path class="st2" d="M256.7,81v63c17.4,0,31.5-14.1,31.5-31.5S274.1,81,256.7,81z"/>
<path class="st1" d="M402.6,437.5H111.4c-8.3,0-14.9-6.7-14.9-14.9v0c0-8.3,6.7-14.9,14.9-14.9h291.2c8.3,0,14.9,6.7,14.9,14.9v0
	C417.6,430.8,410.9,437.5,402.6,437.5z"/>
<path class="st2" d="M402.6,407.6H256v29.9h146.6c8.3,0,14.9-6.7,14.9-14.9v0C417.6,414.3,410.9,407.6,402.6,407.6z"/>
</svg>
