<?xml version="1.0" encoding="utf-8"?>
<!-- Generator: Adobe Illustrator 23.0.3, SVG Export Plug-In . SVG Version: 6.00 Build 0)  -->
<svg version="1.1" id="Capa_1" xmlns="http://www.w3.org/2000/svg" xmlns:xlink="http://www.w3.org/1999/xlink" x="0px" y="0px"
	 viewBox="0 0 512 512" style="enable-background:new 0 0 512 512;" xml:space="preserve">
<style type="text/css">
	.st0{fill:#697C86;}
	.st1{fill:#465A61;}
	.st2{fill:#FFD400;}
	.st3{fill:#FF9F00;}
	.st4{fill:#FF7816;}
</style>
<path class="st0" d="M188.7,205.7V104.5c0-38.3,31.2-69.4,69.4-69.4s69.4,31.2,69.4,69.4v101.2h33.9V104.5
	c0-57-46.3-103.3-103.3-103.3S154.8,47.5,154.8,104.5v101.2H188.7z"/>
<path class="st1" d="M258.1,1.2c-0.7,0-1.4,0-2.1,0v33.9c0.7,0,1.4-0.1,2.1-0.1c38.3,0,69.4,31.2,69.4,69.4v101.3h33.9V104.5
	C361.4,47.5,315.1,1.2,258.1,1.2z"/>
<path class="st2" d="M415,216v217c0,43.6-29.9,79-66.5,79h-185c-36.7,0-66.5-35.5-66.5-79V216c0-22,15-39.9,33.6-39.9h250.8
	C399.9,176,415,193.9,415,216z"/>
<path class="st3" d="M415,216v217c0,43.6-29.9,79-66.5,79H256V176h125.5C399.9,176,415,193.9,415,216z"/>
<path class="st3" d="M352.3,324.6c-2.3-7.4-8.6-12.4-15.9-13.6l-43.4-6.3l-19.4-38.5c-3.5-6.6-10.5-9.7-17.5-9.7
	c-7,0-14,3.1-17.5,9.7l-19.4,38.5l-43.4,6.3c-7.4,1.2-13.6,6.3-15.9,13.6c-1.9,7,0,14.7,5.4,19.8l31,29.9l-7.4,42
	c-1.2,7,1.6,14.4,7.7,19.1c5.8,4.2,14,5.1,20.2,1.6l39.2-20.2l39.2,20.2c6.6,3.5,14.4,2.8,20.2-1.6c6.3-4.7,8.9-12.1,7.7-19.1
	l-7.4-42l31-29.9C352.3,339.3,354.2,331.6,352.3,324.6z"/>
<path class="st4" d="M295.2,436.8L256,416.6v-160c7,0,14,3.1,17.5,9.7l19.4,38.5l43.4,6.3c7.4,1.2,13.6,6.3,15.9,13.6
	c1.9,7,0,14.7-5.4,19.8l-31,29.9l7.4,42c1.2,7-1.6,14.4-7.7,19.1C309.6,439.5,301.8,440.3,295.2,436.8z"/>
</svg>
