<?xml version="1.0" encoding="utf-8"?>
<!-- Generator: Adobe Illustrator 23.0.3, SVG Export Plug-In . SVG Version: 6.00 Build 0)  -->
<svg version="1.1" id="Capa_1" xmlns="http://www.w3.org/2000/svg" xmlns:xlink="http://www.w3.org/1999/xlink" x="0px" y="0px"
	 viewBox="0 0 512 512" style="enable-background:new 0 0 512 512;" xml:space="preserve">
<style type="text/css">
	.st0{fill:#CC2E43;}
	.st1{fill:#EC5569;}
	.st2{fill:#FFD400;}
	.st3{fill:#FF9F00;}
	.st4{fill:#FF7816;}
</style>
<g>
	<path class="st0" d="M471,428.5l-67.1-116.2c-4.2-7.2-13.3-9.7-20.5-5.5l-104.9,58.4c-7.2,4.1-9.6,13.3-5.5,20.5l68,118.8
		c2.6,4.5,7.4,7.3,12.5,7.5c0.2,0,0.3,0,0.5,0c5,0,9.7-2.5,12.5-6.7l32.8-50.7l59.5-3.6c5.2-0.3,9.9-3.3,12.3-7.9
		C473.6,438.5,473.5,433,471,428.5z"/>
	<path class="st1" d="M233.5,365.2l-104.9-58.4c-7.2-4.2-16.4-1.7-20.5,5.5L41,428.5c-2.6,4.5-2.7,10-0.2,14.6s7.1,7.6,12.3,7.9
		l59.5,3.6l32.8,50.7c2.8,4.2,7.5,6.7,12.5,6.7c0.1,0,0.3,0,0.5,0c5.2-0.2,9.9-3,12.5-7.5l68-118.8
		C243.1,378.5,240.7,369.3,233.5,365.2z"/>
	<path class="st2" d="M461.5,221.5c6-5.7,6-15.3,0-21l-28.8-29.1c-3.9-3.6-5.4-9.3-3.9-14.4l10.5-39.6c2.1-8.1-2.7-16.2-10.5-18.3
		l-39.6-10.8c-5.1-1.2-9.3-5.4-10.5-10.5l-10.8-40.6c-2.1-8.1-10.2-12.6-18.3-10.5L310,37.2c-5.1,1.5-10.8,0-14.4-3.9L266.5,4.5
		c-2.7-3-6.6-4.5-10.5-4.5s-7.8,1.5-10.5,4.5l-29.1,28.8c-3.6,3.9-9.3,5.4-14.4,3.9l-39.6-10.5c-7.8-2.1-16.2,2.4-18.3,10.5
		l-10.8,40.6c-1.2,5.1-5.4,9.3-10.5,10.5L83.2,99.1c-7.8,2.1-12.6,10.2-10.5,18.3L83.2,157c1.5,5.1,0,10.8-3.9,14.4l-28.8,29.1
		c-6,5.7-6,15.3,0,21l28.8,29.1c3.9,3.6,5.4,9.3,3.9,14.4l-10.5,39.6c-2.1,8.1,2.7,16.2,10.5,18.3l39.6,10.8
		c5.1,1.2,9.3,5.4,10.5,10.5l10.8,39.6c2.1,8.1,10.2,12.6,18.3,10.5l39.6-10.5c5.1-1.5,10.8,0,14.4,3.9l29.1,28.8
		c2.7,3,6.6,4.5,10.5,4.5s7.8-1.5,10.5-4.5l29.1-28.8c3.6-3.9,9.3-5.4,14.4-3.9l39.6,10.5c8.1,2.1,16.2-2.4,18.3-10.5l10.8-39.6
		c1.2-5.1,5.4-9.3,10.5-10.5l39.6-10.8c7.8-2.1,12.6-10.2,10.5-18.3L428.8,265c-1.5-5.1,0-10.8,3.9-14.4L461.5,221.5z"/>
	<path class="st3" d="M432.7,250.6c-3.9,3.6-5.4,9.3-3.9,14.4l10.5,39.6c2.1,8.1-2.7,16.2-10.5,18.3l-39.6,10.8
		c-5.1,1.2-9.3,5.4-10.5,10.5l-10.8,39.6c-2.1,8.1-10.2,12.6-18.3,10.5L310,383.8c-5.1-1.5-10.8,0-14.4,3.9l-29.1,28.8
		c-2.7,3-6.6,4.5-10.5,4.5V0c3.9,0,7.8,1.5,10.5,4.5l29.1,28.8c3.6,3.9,9.3,5.4,14.4,3.9l39.6-10.5c8.1-2.1,16.2,2.4,18.3,10.5
		l10.8,40.6c1.2,5.1,5.4,9.3,10.5,10.5l39.6,10.8c7.8,2.1,12.6,10.2,10.5,18.3L428.8,157c-1.5,5.1,0,10.8,3.9,14.4l28.8,29.1
		c6,5.7,6,15.3,0,21L432.7,250.6z"/>
	<path class="st3" d="M256,91c-66.3,0-120,53.7-120,120s53.7,120,120,120s120-53.7,120-120S322.3,91,256,91z"/>
	<path class="st4" d="M376,211c0,66.3-53.7,120-120,120V91C322.3,91,376,144.7,376,211z"/>
	<path class="st2" d="M330.4,191c-1.8-5.7-6.6-9.6-12.3-10.5l-33.6-4.8l-15-29.7c-2.7-5.1-8.1-7.5-13.5-7.5s-10.8,2.4-13.5,7.5
		l-15,29.7l-33.6,4.8c-5.7,0.9-10.5,4.8-12.3,10.5c-1.5,5.4,0,11.4,4.2,15.3l24,23.1l-5.7,32.4c-0.9,5.4,1.2,11.1,6,14.7
		c4.5,3.3,10.8,3.9,15.6,1.2l30.3-15.6l30.3,15.6c5.1,2.7,11.1,2.1,15.6-1.2c4.8-3.6,6.9-9.3,6-14.7l-5.7-32.4l24-23.1
		C330.4,202.5,331.9,196.5,330.4,191z"/>
	<path class="st3" d="M286.3,277.3L256,261.7V138c5.4,0,10.8,2.4,13.5,7.5l15,29.7l33.6,4.8c5.7,0.9,10.5,4.8,12.3,10.5
		c1.5,5.4,0,11.4-4.2,15.3l-24,23.1l5.7,32.4c0.9,5.4-1.2,11.1-6,14.7C297.4,279.3,291.4,280,286.3,277.3z"/>
</g>
</svg>
