<svg id="Capa_1" data-name="Capa 1" xmlns="http://www.w3.org/2000/svg" viewBox="0 0 52 52"><defs><style>.cls-1{fill:#bde2f8;}.cls-2{fill:#3aae9b;}.cls-3{fill:#a6cde0;}.cls-4{fill:#308e7c;}</style></defs><title>Next</title><circle class="cls-1" cx="26" cy="26" r="25"/><path class="cls-2" d="M26,52A26,26,0,1,1,52,26,26,26,0,0,1,26,52ZM26,2A24,24,0,1,0,50,26,24,24,0,0,0,26,2Z"/><path class="cls-3" d="M26.79,1V51a25,25,0,0,0,0-50Z"/><polygon class="cls-2" points="19.5 15.3 19.5 36.65 37.46 26.28 19.5 15.3"/><polygon class="cls-4" points="26.79 32.44 37.46 26.28 26.79 19.76 26.79 32.44"/><path class="cls-4" d="M26.79,0V2a24,24,0,0,1,0,48v2a26,26,0,0,0,0-52Z"/></svg>